<?xml version="1.0" standalone="no"?>
<!DOCTYPE svg PUBLIC "-//W3C//DTD SVG 1.1//EN" "http://www.w3.org/Graphics/SVG/1.1/DTD/svg11.dtd" >
<svg xmlns="http://www.w3.org/2000/svg">
<metadata>
This is a custom SVG webfont generated by Font Squirrel.
Copyright   : Freeware from  UnAuthorized Type
</metadata>
<defs>
<font id="AnotherRegular" horiz-adv-x="800" >
<font-face units-per-em="2048" ascent="1638" descent="-410" />
<missing-glyph horiz-adv-x="536" />
<glyph unicode=" "  horiz-adv-x="536" />
<glyph unicode="&#x09;" horiz-adv-x="536" />
<glyph unicode="&#xa0;" horiz-adv-x="536" />
<glyph unicode="!" horiz-adv-x="350" d="M18 20q0 43 72 115t115 72q33 0 67.5 -39t34.5 -72q0 -45 -54 -111.5t-99 -66.5q-35 0 -85.5 35t-50.5 67zM78 635q0 47 14 125q18 94 21 125q10 111 10 178q0 63 -6 191t-6 192q0 66 23.5 88t86.5 22h1q95 0 95 -153q0 -2 -8 -160q-20 -334 -20 -758q0 -76 -4 -92 q-14 -43 -70 -43q-76 0 -111 109q-26 73 -26 169v7z" />
<glyph unicode="&#x22;" horiz-adv-x="423" d="M18 1202q0 96 15 182q12 80 153 80q96 0 154 -78q51 -69 51 -167q0 -72 -16 -154q-25 -119 -68 -119q-63 0 -82 123q-2 14 -6 172l-29 -133q-29 -94 -69 -94q-102 0 -103 188z" />
<glyph unicode="#" horiz-adv-x="901" d="M6 954q0 49 68 68q55 6 108 14q-8 72 -12 158q-12 0 -55 -6q-33 -2 -54 -2q-36 0 -36 74q0 29 33 49.5t104 36.5q-2 61 -2 110q0 104 88 105q49 0 67 -76q6 -57 15 -117q72 6 157 8q0 14 -6 66q-4 41 -4 63q0 39 78 39q57 0 86 -164h6q232 0 232 -77q0 -61 -84 -76 q-2 0 -133 -6q4 -63 8 -136l12 2q49 0 92 -18q53 -23 53 -65q0 -55 -155 -91q0 -225 -78 -225q-57 0 -74 78q-2 6 -8 123q-61 -6 -133 -12q-8 -137 -84 -138q-51 0 -84 131q-55 -2 -100 -2q-104 0 -105 86zM348 1204l17 -147l139 14l-6 141z" />
<glyph unicode="$" horiz-adv-x="784" d="M8 848q0 80 105 147q113 74 127 123q16 63 16 142q0 47 -20.5 141t-20.5 139q0 33 43 53q35 16 72 17q76 0 76 -183q0 -29 -2.5 -84t-2.5 -81q0 -51 9 -68q31 12 84 63q41 39 84 39q104 0 104 -75q0 -41 -10 -73t-123 -77t-117 -76q-2 -6 -2 -30q0 -133 84 -193l152 -84 q82 -57 82 -186q0 -166 -170 -307q-31 -25 -72 -70q0 2 0 -137q0 -156 -80 -193q-45 0 -68 121q-12 76 -12 160l-133 8q-90 10 -90 63q0 49 80 56q98 6 129 45q0 29 4 100q4 63 4 98q0 78 -16 121q-18 57 -174 142q-141 78 -142 139zM190 870q0 -43 28 -69q24 -22 58 -22 q5 0 11 1h14q16 16 16 49q0 37 -16 66q-16 39 -49 39q-61 0 -62 -64zM473 530q0 -31 35 -172q35 6 58.5 47t23.5 78q0 33 -21.5 81t-50.5 48q-45 0 -45 -82z" />
<glyph unicode="%" horiz-adv-x="1054" d="M6 1090q0 72 68.5 194.5t68.5 147.5q0 29 -34 26q98 100 172 101q92 0 190 -91.5t98 -181.5q0 -162 -96 -285q-104 -133 -262 -133q-205 0 -205 222zM25 39q0 27 94 168l121 176q141 217 249 436l191 393q162 303 240 304q33 0 66.5 -20.5t33.5 -51.5q0 -12 -8 -23 q-250 -342 -291 -403q-152 -233 -223 -445q72 66 170 66q117 0 200.5 -94t83.5 -213q0 -117 -114.5 -224.5t-233.5 -107.5q-196 0 -196 245q0 99 28 212l-162 -269q-126 -202 -189 -202h-1q-18 0 -38.5 17t-20.5 36zM141 1106q0 -84 78 -84q55 0 142.5 87t87.5 142 q0 31 -40 63t-71 32q-47 0 -122 -95.5t-75 -144.5zM526 256q0 -35 22.5 -76t55.5 -41q57 0 151.5 70t94.5 123q0 155 -170 155h-2q-78 0 -119 -81q-33 -63 -33 -150z" />
<glyph unicode="&#x26;" horiz-adv-x="1040" d="M12 391q0 143 54 236q33 59 102 110q63 47 70 68q-4 98 -5 170q0 268 84 385q100 141 359 141q86 0 148.5 -59.5t62.5 -143.5q0 -133 -150 -311q-78 -90 -256 -252q4 -25 74 -117l94 -118q43 0 104.5 124t112.5 124q37 0 57.5 -39t20.5 -78q0 -43 -67.5 -172t-67.5 -162 q0 -43 47 -86q78 -72 86 -84q47 -62 47 -150q0 -61 -55 -61q-61 0 -135 86q-66 76 -90 145q-37 0 -151 -73.5t-200 -73.5q-123 0 -235 137q-111 131 -111 254zM184 477q0 -86 33 -168q43 -104 117 -104q47 0 123 35q88 41 88 82q0 63 -91.5 191t-150.5 128q-39 0 -79 -61.5 t-40 -102.5zM387 1049q0 -127 39 -127q6 0 12 2q86 33 160 139q68 99 86 199q-34 36 -76 36h-2q-84 0 -151.5 -82.5t-67.5 -166.5z" />
<glyph unicode="'" horiz-adv-x="284" d="M27 1229q0 88 30 209q43 155 108 155h1q43 0 43 -92q0 -23 -3 -70t-3 -69q0 -37 24.5 -106.5t24.5 -108.5q0 -41 -29.5 -66.5t-72.5 -25.5q-123 0 -123 174z" />
<glyph unicode="(" horiz-adv-x="520" d="M6 502q0 137 41 307q33 137 111 313q109 240 190 240q18 0 103 -37q26 -28 26 -53t-26 -58q-129 -156 -213 -346q-94 -215 -95 -393q0 -84 66 -178q43 -59 123 -135q65 -62 65 -70q0 -37 -31.5 -62.5t-68.5 -25.5q-43 0 -74 29q-217 190 -217 469z" />
<glyph unicode=")" horiz-adv-x="552" d="M6 1272q0 35 26.5 72.5t59.5 37.5q154 0 299 -385q129 -335 129 -528q0 -106 -102 -281q-111 -188 -207 -188q-68 0 -68 78q0 35 54 104q74 96 98 146q53 104 53 227q0 186 -88 350q-49 92 -164 225q-90 102 -90 142z" />
<glyph unicode="*" horiz-adv-x="745" d="M0 1180q34 67 134 67h3q8 14 8 27q0 14 -29.5 57t-29.5 64q0 25 26.5 44t53.5 19q23 0 37 -20q43 -66 112 -135q33 33 60 73l41 70q29 45 57 45q88 0 88 -102q0 -72 -33 -154l146 45q55 -4 55 -70q0 -31 -16.5 -41t-143.5 -45q-113 -29 -127 -55q12 -29 84 -104 q61 -61 62 -111q0 -27 -17 -55q-16 -35 -39 -35q-37 0 -108 82l-94 117q-31 -14 -97 -101q-59 -76 -94 -76q-18 0 -37.5 16.5t-19.5 35.5q0 35 37 100.5t67 91.5q-39 33 -77 33q-12 0 -35 -7t-35 -7q-33 0 -39 131z" />
<glyph unicode="+" horiz-adv-x="919" d="M31 627q0 74 25.5 101.5t97.5 27.5q59 0 188 -6q-12 172 -12 211q0 43 14 81q20 51 55 52q74 0 101.5 -26t27.5 -97q0 -49 -8 -228q51 0 166 6.5t170 6.5q27 0 27 -31q0 -61 -43 -100q-20 -16 -324 -43q2 -47 6 -158q6 -100 6 -156q0 -24 -28 -24h-2q-63 0 -101 43 q-16 16 -41 282q-156 -12 -192 -12q-43 0 -82 16q-51 18 -51 54z" />
<glyph unicode="," horiz-adv-x="442" d="M-35 -293q92 96 127 150q70 106 70 215q0 37 -8.5 108.5t-8.5 106.5q0 112 105 112h2q55 0 82 -120q20 -87 20 -173q0 -158 -114 -331q-125 -190 -275 -191q-69 0 -69 24q0 30 69 99z" />
<glyph unicode="-" horiz-adv-x="874" d="M0 614q0 74 25.5 100.5t97.5 26.5q59 0 180 -5t182 -5q55 0 170 6t170 6h2q25 0 25 -30q0 -66 -43 -103q-23 -16 -328 -43q-263 -22 -341 -22h-7q-43 0 -82 14q-51 18 -51 55z" />
<glyph unicode="." horiz-adv-x="405" d="M74 -29v105q-2 51 55 86q43 26 77 26h3q49 0 88 -88q31 -69 31 -98t-34 -54.5t-69 -31.5q-18 -4 -35 -4q-74 0 -116 59z" />
<glyph unicode="/" horiz-adv-x="686" d="M4 106q0 33 55 142q70 133 76 151l199 527q31 68 59 137q35 84 43 143q39 281 148 281q37 0 63 -64q23 -53 23 -98q0 -76 -103 -342l-139 -348l-131 -328q-106 -254 -158 -293q-18 -14 -39 -14q-35 0 -65.5 36t-30.5 70z" />
<glyph unicode="0" horiz-adv-x="931" d="M18 494q0 96 37 254q63 250 174 413q150 223 359 223q154 0 235 -170q66 -133 66 -303q0 -129 -86 -340q-90 -225 -213 -376q-141 -178 -275 -179q-143 0 -227 174q-70 141 -70 304zM154 459q0 -70 36 -164q41 -109 93 -109h6h10q119 23 256 209q106 150 164 301 q49 131 51 228v24v13q0 198 -180 198q-205 0 -332 -258q-104 -211 -104 -442zM377 682q0 33 34.5 77t67.5 44t58.5 -43t25.5 -78q0 -33 -33.5 -59.5t-68.5 -26.5q-84 0 -84 86z" />
<glyph unicode="1" horiz-adv-x="362" d="M2 1317q0 47 96 47q113 0 172 -365q41 -245 41 -462q0 -33 -5 -97.5t-5 -97.5t2 -98.5t2 -98.5q0 -153 -77 -153h-1q-49 0 -80 43q-26 36 -26 86q0 43 13 122t13 119q0 168 -72.5 494t-72.5 461z" />
<glyph unicode="2" horiz-adv-x="1001" d="M4 1067q0 104 250 172q190 53 336 53q121 0 201 -63q90 -68 90 -185q0 -113 -195 -368q-35 -47 -285 -344q14 -8 48 -8q55 0 163.5 23.5t161.5 23.5q68 0 125 -31q72 -35 72 -96q0 -39 -33 -39q-18 0 -57 3t-60 3q-180 0 -383 -68q-184 -63 -180 -63q-47 0 -96 32.5 t-49 77.5q0 43 155 230l287 348q156 199 156 276q0 111 -121 111q-109 0 -234 -41q-61 -20 -221 -90q-27 -10 -49 -10q-82 0 -82 53z" />
<glyph unicode="3" horiz-adv-x="1105" d="M12 1206q0 31 51 49l76 25q317 115 547 115q70 0 127 -78q51 -72 51 -146q0 -41 -135 -178l219 -104q121 -70 121 -203q0 -188 -261 -433t-450 -245q-23 0 -52.5 25.5t-29.5 46.5q0 18 27 26q106 33 160 64q150 82 282 231q158 178 158 320q0 106 -186 106 q-35 0 -106.5 -5t-106.5 -5q-55 0 -107 33q-59 37 -59 90q0 25 16 41q35 41 138 88q84 41 135 129q-16 23 -70 23q-70 0 -210 -59.5t-200 -108.5q-6 -6 -14 -6q-35 0 -78 61t-43 98z" />
<glyph unicode="4" horiz-adv-x="956" d="M16 682q0 49 45 154q57 133 64 155l16 158q10 123 41 129q4 2 21 2q66 0 110.5 -48t44.5 -116q0 -70 -67.5 -226.5t-67.5 -168.5q0 -41 70 -41q127 0 174 84q35 61 35 201q0 43 -21.5 124.5t-21.5 124.5q0 125 98 125q119 0 119 -139q0 -57 -14.5 -171t-14.5 -171 q0 -35 4 -67q18 -14 43 -15q27 0 76 17.5t76 17.5q67 0 67 -61q0 -59 -59 -86q-8 -4 -125 -33q-74 -18 -96 -56q-27 -47 -37 -284.5t-29 -265.5q-25 -35 -65 -35q-49 0 -58 94v131q0 53 2.5 159.5t2.5 155.5q-47 0 -134.5 -30.5t-134.5 -30.5q-68 0 -116 71.5t-48 141.5z " />
<glyph unicode="5" horiz-adv-x="884" d="M12 680q0 41 21 137q23 111 26 146q4 100 11 200q16 147 80 148q23 0 64 -19q36 -16 60 -16h5h12q365 31 454 31q107 0 107 -31q0 -16 -8 -55q-47 -68 -271 -103q-231 -35 -301 -108q-59 -63 -59 -152q0 -31 14 -53q205 -6 240 -10q113 -16 164 -78q59 -72 59 -234 q0 -199 -142 -335t-343 -136q-37 0 -82 23q-53 27 -53 59q0 20 43 29q442 96 442 395q0 129 -145 129q-51 0 -143.5 -40t-141.5 -40q-63 0 -88 25.5t-25 87.5z" />
<glyph unicode="6" horiz-adv-x="966" d="M10 487q0 160 113 377q98 188 227 326q113 117 123 125q75 65 154 65h2q70 0 114.5 -47t44.5 -116q0 -35 -25.5 -72t-57.5 -37q-18 0 -52.5 18.5t-52.5 18.5q-145 0 -297 -248q-139 -229 -139 -385q0 -86 29 -170q61 57 135 182q68 119 118 160q84 68 230 68 q72 0 151 -58q88 -61 88 -131v-35q0 -231 -71 -348q-86 -141 -303 -180q-25 -4 -58 -4h-61q-188 4 -305 158q-106 141 -107 333zM313 207q0 -70 107 -70q150 0 246 104.5t96 254.5q0 39 -23.5 70.5t-62.5 31.5q-98 0 -230.5 -145.5t-132.5 -245.5z" />
<glyph unicode="7" horiz-adv-x="892" d="M12 68q0 57 131 297l176 307q-153 41 -153 174q0 29 22.5 47t49.5 18q33 0 81 -34.5t62 -34.5q45 0 135 190l107 244q-55 14 -97 14q-33 0 -94 -20.5t-94 -20.5q-55 0 -109 35q-61 39 -61 90q0 84 98 84q23 0 69 -9t68 -9q59 0 188.5 43t164.5 43q47 0 78.5 -48.5 t31.5 -97.5q0 -72 -129 -280l-178 -281q4 -2 113 -49q80 -33 80 -68q0 -49 -93 -49q-20 0 -56 3t-44 3q-49 0 -74 -10q-59 -27 -200 -362q-133 -319 -201 -320q-33 0 -53 35q-18 29 -19 66z" />
<glyph unicode="8" horiz-adv-x="798" d="M0 885v14v9q0 85 113 204q57 59 192 170l144 117q102 76 157 76q68 0 86 -54q10 -27 10 -108q0 -25 16.5 -74t16.5 -76l-2 -14q-4 -162 -71 -303q-18 -37 -37 -55q-10 -10 -11 -9l56 -70q57 -71 57 -122q0 -133 -102 -330q-115 -221 -232 -221q-59 0 -137 57 q-86 59 -86 113q0 76 82 221l123 213q-35 25 -142.5 33t-152.5 37q-72 45 -80 172zM160 883q0 -33 96 -58q78 -18 127 -18q90 0 174 137q74 125 74 223q0 43 -37 82q-14 6 -31 6q-86 0 -244.5 -144t-158.5 -228zM358 285q0 -16 2 -33q18 -10 37 -10q59 0 105 123 q33 90 33 158v14v12h-25q-43 0 -97.5 -103.5t-54.5 -160.5z" />
<glyph unicode="9" horiz-adv-x="702" d="M12 958q0 141 107 279q115 147 252 147h3q288 0 288 -204q0 -20 -99 -310l-182 -544q-37 -111 -96 -336q-12 -12 -45 -13q-78 0 -78 78q0 63 76 332q57 207 100 336q-33 12 -92 14q-66 4 -90 11q-51 12 -97.5 83.5t-46.5 126.5zM193 985q0 -45 61 -45q63 0 123 41 q67 47 67 106q0 29 -21.5 73t-45.5 44q-41 0 -112.5 -86t-71.5 -133z" />
<glyph unicode=":" horiz-adv-x="536" d="M45 518q0 18 6 31q25 39 80 71.5t90 32.5q63 0 96 -50t33 -122q0 -31 -6.5 -62t-67.5 -54q-51 -16 -94 -17q-49 0 -93 59.5t-44 110.5zM84 883q0 166 166 166q16 0 33 -5q41 -18 79 -69q30 -42 30 -77q0 -8 -1 -15q-8 -53 -48 -98.5t-79 -45.5q-41 0 -104 41 q-76 49 -76 103z" />
<glyph unicode=";" horiz-adv-x="425" d="M-104 -221q0 43 84 106q98 74 116 111q12 27 22.5 116t22.5 126q23 63 70 69q8 1 15 1q96 0 96 -171q0 -133 -111 -271t-227 -138q-88 0 -88 51zM100 485q0 35 45 82t74 47q39 0 81 -22.5t56 -65.5q2 -10 2 -21q0 -41 -28 -95q-37 -70 -86 -70q-7 0 -15 2 q-49 10 -89 61.5t-40 81.5z" />
<glyph unicode="&#x3c;" horiz-adv-x="763" d="M0 649q0 76 121 154l184 108q63 41 139 115q20 20 39 21q35 0 62 -56q20 -42 20 -77v-9l-2 -14q-2 -53 -52 -83t-99 -54q-63 -39 -121 -97q25 -27 149 -59q139 -37 199 -74q98 -60 98 -162q0 -26 -34 -26h-3q-135 0 -401 102q-299 113 -299 211z" />
<glyph unicode="=" horiz-adv-x="573" d="M0 582q0 41 34 56t162 44t162 29q53 0 97 -19q57 -22 57 -65q0 -131 -408 -131q-104 0 -104 86zM16 889q0 115 324 115q223 0 223 -78q0 -53 -57 -70q-20 -6 -103.5 -10t-336.5 -33l-13 -2q-37 0 -37 78z" />
<glyph unicode="&#x3e;" horiz-adv-x="649" d="M0 973q0 37 18 74q23 45 56 45q6 0 14 -5l307 -112q238 -99 238 -160q0 -94 -192.5 -285.5t-286.5 -191.5q-41 0 -41 59q0 84 96 176q133 127 149 154q2 68 -90 92q-88 16 -174 35q-94 31 -94 119z" />
<glyph unicode="?" horiz-adv-x="950" d="M0 1296q0 29 24.5 66t51.5 37q16 0 45 -2t43 -2q78 0 229.5 52t233.5 52q295 0 295 -287q0 -139 -134 -292q-121 -141 -260 -197q12 -16 90 -47t115 -68q59 -59 60 -159q0 -47 -52 -48q-31 0 -63 43q-47 61 -76 82q-61 45 -158 45q-16 0 -45.5 -4t-46.5 -4 q-55 0 -114.5 44t-59.5 95q0 25 92 66l119 49q45 16 127 57q236 152 236 355q0 102 -90 102q-113 0 -314 -93t-203 -93q-45 0 -95 53t-50 98zM551 92q0 78 68.5 139.5t146.5 61.5q43 0 43 -66q0 -8 -2 -28v-29q0 -45 -48 -125t-89 -80q-49 0 -84 40t-35 87z" />
<glyph unicode="@" horiz-adv-x="1112" d="M10 786q0 254 135 463q154 238 394 238q293 0 419.5 -132t126.5 -423q0 -268 -106 -502q-133 -295 -369 -295q-303 0 -456 178q-143 168 -144 473zM178 739q0 -180 88 -299q98 -131 273 -131q127 0 211 74q70 59 129 188q-35 2 -106 22.5t-103 20.5q-35 0 -106.5 -35.5 t-106.5 -35.5q-72 0 -163 63.5t-116 132.5zM233 1094q0 -4 5 -4l112 74q113 75 165 84t101 9q207 0 207 -131q0 -53 -21.5 -157.5t-21.5 -157.5q0 -49 29 -49q63 0 98 135q25 96 25 188q0 102 -53 154q-43 41 -152 72q-55 16 -125 16q-106 0 -227 -61q-141 -74 -142 -172z M352 848q0 -25 15.5 -59.5t35.5 -34.5q63 0 97 61q4 8 39 115q12 38 12 65q0 39 -41 39q-51 0 -104.5 -66.5t-53.5 -119.5z" />
<glyph unicode="A" horiz-adv-x="737" d="M-10 -57q0 27 84 241q92 240 102 281l88 317q47 188 55 324q2 104 17 235q12 25 45 52.5t57 27.5q18 0 56 -39q23 -29 47 -55q26 -59 26 -145v-6q0 -53 -13 -160t-13 -160q0 -332 209 -856q-14 -53 -48 -53q-53 0 -141 192q-6 12 -102 254q-25 8 -47 8q-86 0 -158 -133 q-14 -29 -86 -211q-49 -125 -102 -202q-76 45 -76 88zM330 526l108 35q-2 119 -22 357q-35 -129 -86 -392z" />
<glyph unicode="B" horiz-adv-x="794" d="M15.5 1337q31.5 31 80.5 31q12 0 25 -2q37 6 151 47q94 33 156 33q43 0 64 -2q98 -12 170 -150q63 -119 63 -231q0 -61 -152 -297q82 -57 129 -172q43 -104 43 -215q0 -184 -77.5 -269t-261.5 -120q-47 -8 -345 -41q-4 33 -4 45q0 37 19 94q20 70 22 94q6 41 6 142 q0 135 -14 413q-18 332 -39 375q-2 4 -43 70q-24 39 -24 72q0 52 31.5 83zM197 1126q0 -156 43 -331q106 20 215 114q120 105 120 203q0 53 -45 116.5t-94 63.5q-88 0 -155 -39q-84 -47 -84 -127zM240 352q0 -131 10 -225h43h21q278 0 278 256q0 86 -37 143q-41 68 -123 68 q-37 0 -178 -27q-14 -170 -14 -215z" />
<glyph unicode="C" horiz-adv-x="825" d="M-12 557q0 229 133 506q156 323 353 323h1q104 0 187 -90q70 -78 98 -190q-33 -39 -80 -39q-68 0 -112 82t-81 82q-137 0 -227 -209q-41 -90 -96 -328q-33 -133 -33 -184q0 -129 72 -223q80 -100 205 -101q51 0 157.5 43t163.5 43q66 0 66 -63q0 -70 -170 -117 q-131 -37 -232 -37q-186 0 -301 164q-104 143 -104 338z" />
<glyph unicode="D" horiz-adv-x="913" d="M72 1194q0 20 150.5 87t187.5 67q197 0 319 -295q100 -236 100 -465q0 -264 -127 -418q-137 -166 -395 -166q-10 0 -30.5 -7t-30.5 -7q-113 0 -113 76q0 14 10.5 41.5t10.5 42.5q0 47 -11 116q-12 102 -14 115q-25 246 -25 489q0 29 3.5 90.5t3.5 90.5q0 20 -19.5 68 t-19.5 75zM236 702q0 -293 26 -395q35 -117 37 -184q203 41 291 164q82 114 82 327q0 172 -54 344q-72 233 -202 234q-74 0 -160 -109q-20 -168 -20 -381z" />
<glyph unicode="E" horiz-adv-x="892" d="M-14 41q209 471 209 817q0 111 -45 227l-33 82q-18 49 -19 86q0 16 8.5 46t10.5 40q12 -4 78 -24q49 -16 77 -17q80 0 229.5 47.5t227.5 47.5q49 0 99.5 -41t50.5 -88q0 -39 -35 -39q-18 0 -54 6t-53 6q-45 0 -127 -27.5t-127 -27.5t-172 -58q29 -100 29 -262 q0 -18 -4 -194q70 0 242 28q14 -31 32 -94l-129 -84q-71 -39 -140 -39h-7q-45 -20 -82 -133l-43 -164q76 2 227.5 40t229.5 38q29 0 80 12.5t77 12.5q80 -1 80 -62t-319 -157q-293 -86 -396 -86q-43 0 -102 24q-82 33 -100 37z" />
<glyph unicode="F" horiz-adv-x="624" d="M-25 16q0 23 27 37q72 33 104 209q25 123 25 260q0 20 -12 154q-8 90 -21 262q-8 127 -35 190q-4 8 -47 84q-34 59 -34 79q0 44 39.5 76t82.5 32q55 0 159 30.5t159 30.5q176 0 176 -96q0 -20 -12 -43q-16 -33 -200.5 -67.5t-195.5 -51.5q29 -27 58 -217q16 -123 35 -246 q43 10 86 11q49 0 92 -17q55 -23 55 -65q0 -31 -86 -70q-70 -29 -119 -37q-25 -43 -47 -217q-25 -197 -49 -272q-45 -133 -129 -133q-39 0 -72 18q-39 23 -39 59z" />
<glyph unicode="G" horiz-adv-x="878" d="M-6 578q0 70 6 127q18 160 129 372q131 252 258 252q152 0 191 -110q12 -35 12 -50q0 -31 -23.5 -51t-52.5 -20q-18 0 -39.5 32.5t-83.5 32.5q-111 0 -190 -258q-68 -209 -68 -356q0 -150 43 -258q57 -156 182 -156q78 0 218.5 153.5t140.5 231.5q0 72 -101 72 q-49 0 -148 -40t-116 -40q-39 0 -39 51q0 57 133 111q115 45 189 45q244 0 244 -129q0 -147 -170 -369q-176 -231 -318 -231q-215 0 -317 196q-80 152 -80 392z" />
<glyph unicode="H" horiz-adv-x="878" d="M-8 1192l39 45q27 27 51 27q106 0 164 -234q41 -162 43 -323q8 -16 33 -17q317 0 317 242q0 45 -15.5 133t-15.5 133q0 80 68 80q41 0 71.5 -30.5t30.5 -71.5q0 -37 -5 -108t-5 -107q0 -125 35 -205q20 -46 20 -62q0 -10 -22.5 -55t-22.5 -145q0 -49 13.5 -145.5 t13.5 -143.5q0 -135 -78 -135q-59 0 -76 129q-6 45 -6 174q0 86 -20 188q-35 20 -138 21q-176 0 -213 -54l-20 -266q-14 -170 -70 -246q-18 -6 -32 -6q-74 0 -74 111q0 86 27.5 253t27.5 253q0 156 -27 299q-39 199 -114 266z" />
<glyph unicode="I" horiz-adv-x="1042" d="M-12 1098q0 68 422 164q387 90 526 90q45 0 82 -41q0 -68 -182 -119q-221 -61 -244 -80q2 -82 2 -176q0 -129 -8 -383q-10 -266 -11 -385q35 2 119 12q78 8 121 8q96 0 96 -65q0 -86 -75 -86q-12 0 -35 7t-35 7q-16 0 -137 -35l-260 -79q-199 -57 -244 -58 q-29 0 -61.5 23.5t-32.5 50.5q0 49 80 86q51 23 165 53q109 29 134 41q4 178 20 475q18 330 19 324q0 45 -19 84q-20 47 -61 47q-20 0 -105.5 -45t-154.5 -45q-49 0 -85 38t-36 87z" />
<glyph unicode="J" horiz-adv-x="1026" d="M-14 1096q0 43 47 69q117 61 403 113q262 47 424 47q148 0 148 -90q0 -57 -168 -80q-109 -12 -219 -22q176 -438 176 -738q0 -55 -2 -88q-12 -117 -94.5 -203t-196.5 -86q-90 0 -189 37q-122 49 -122 122q0 28 19 47.5t44 19.5q35 0 82 -41t80 -41q217 0 217 287 q0 156 -45 358q-63 270 -162 270q-59 0 -172 -47t-164 -47q-43 0 -74.5 36t-31.5 77z" />
<glyph unicode="K" horiz-adv-x="741" d="M2 1386q0 92 53 93q104 0 148 -291q10 -68 28 -381q72 150 166 278q139 188 232 189q37 0 59 -37q17 -31 17 -72t-202 -272t-202 -320q0 -31 90 -110q127 -113 166 -158q90 -106 90 -199q0 -33 -12 -69q-16 -47 -41 -47q-41 0 -203 200l-203 256l7 -147q4 -94 4 -147 q0 -61 -21 -107q-29 -61 -80 -61q-41 0 -63 75q-14 53 -15 115q0 27 4.5 81t4.5 81q0 109 18.5 323.5t18.5 323.5q0 76 -32 206t-32 197z" />
<glyph unicode="L" horiz-adv-x="684" d="M29 606q108 416 108 483v1q0 33 -16.5 95t-16.5 95q0 51 43 92q154 -37 154 -246q0 -16 -29 -172l-82 -417q-34 -179 -34 -200v-1q0 -66 28 -123q33 -72 92 -72q31 0 86.5 22.5t83.5 22.5h183l39 -43l2 -14q0 -57 -160 -102q-129 -37 -211 -37q-158 0 -242 145 q-67 117 -67 284q0 32 39 187z" />
<glyph unicode="M" d="M-6 1159q0 33 21.5 70t54.5 37q55 0 176 -170l151 -232l111 193q88 141 135 141q115 0 115 -473q0 -807 -129 -807q-59 0 -60 152q0 96 21.5 290.5t21.5 292.5q0 176 -41 176q-33 0 -135 -201.5t-141 -201.5q-47 0 -47 88q0 49 21.5 91t21.5 79q0 33 -55 113 q-43 -98 -60 -324q-10 -170 -22 -340q-10 -92 -56 -92q-37 0 -63 51q-23 43 -23 84q0 84 10.5 250t10.5 248q0 166 -15 280q0 6 -16 103q-8 61 -8 102z" />
<glyph unicode="N" horiz-adv-x="966" d="M16 397q57 334 58 475q0 63 -37 184.5t-37 168.5q0 49 55 90q49 37 101 37q59 0 159 -197q10 -18 177 -383q104 -227 157 -272q6 33 6 86q0 113 -17 338t-17 338q0 29 20.5 52t46.5 23q131 0 131 -366q0 -55 -8 -166t-8 -166q0 -428 43 -543l47 -104q22 -51 22 -123 q0 -37 -22 -94q-12 -6 -21 -6q-70 0 -251 385l-213 481q-94 209 -170 334q-16 -68 -29 -203l-25 -424q-31 -340 -102 -340q-35 0 -68 84q-28 70 -28 112q0 28 30 199z" />
<glyph unicode="O" d="M-8 557q0 53 37 197q176 692 409 692q190 0 281 -346q57 -230 57 -504q0 -240 -69 -395q-96 -211 -308 -211q-199 0 -311 192q-96 162 -96 375zM135 520q0 -115 64 -233q76 -139 178 -140q229 1 229 613q0 270 -35 350q-18 43 -61 79t-86 36q-23 0 -41 -25 q-92 -117 -170 -323q-78 -213 -78 -357z" />
<glyph unicode="P" horiz-adv-x="862" d="M12 1235q0 82 234 160q200 69 308 69h3q174 0 236 -114q43 -81 43 -271q0 -180 -146 -288q-92 -72 -278 -125q-162 -49 -174 -70q-35 -66 -35 -434q0 -162 -70 -162q-61 0 -94 84q-23 61 -23 137q0 70 20.5 207t20.5 209q0 98 -22.5 298t-22.5 300zM172 1042 q0 -102 61 -258q420 60 420 410q0 104 -55 104q-37 0 -207 -57q-176 -57 -188 -76q-31 -45 -31 -123z" />
<glyph unicode="Q" horiz-adv-x="960" d="M27 449q0 137 75 348q84 227 201 377q139 178 281 178q147 0 235 -240q70 -186 70 -369q0 -225 -51 -325q-14 -27 -31 -51q-20 -33 -21 -54q0 -14 107.5 -159.5t107.5 -223.5q0 -16 -4 -28q-10 -6 -22 -6q-43 0 -143.5 137t-155.5 137q-51 0 -190.5 -42t-188.5 -42 q-137 0 -209 119q-61 98 -61 244zM147 408q0 -96 45.5 -132t147.5 -36q152 0 209 82l-113 151q-74 98 -74 162q0 25 22 42t48 17q16 0 113 -106q109 -119 125 -131q74 96 90 135q26 60 26 164q0 76 -18 157q-66 -36 -107 -36h-2q-80 0 -106 38q-12 18 -64 187 q-139 -109 -240.5 -314.5t-101.5 -379.5z" />
<glyph unicode="R" horiz-adv-x="759" d="M12 150q0 63 27 335q20 209 61 580l-53 27q-33 16 -33 41q0 90 211 239q205 141 301 141q207 0 207 -346q0 -164 -201 -376q-16 -14 -38 -48q2 -47 134 -291.5t132 -279.5q0 -33 -39 -33q-72 0 -160 146l-145 268q-80 143 -129 143q-74 0 -90 -172q-4 -162 -11 -323 q-10 -172 -69 -172q-37 0 -71 42t-34 79zM225 922q70 -29 115 -29q80 0 162 115q76 108 76 194q0 121 -97 121q-123 0 -196 -145q-59 -119 -60 -256z" />
<glyph unicode="S" horiz-adv-x="790" d="M-20 150q0 27 20 45q125 33 317 133q236 123 236 198q0 92 -135 121l-250 49q-135 45 -135 178q0 78 258 267q252 184 340 184q43 0 80 -30.5t37 -71.5t-240 -154t-240 -166q0 -12 6 -20q59 -68 191 -109q162 -49 190 -67q88 -53 88 -170q0 -139 -182 -273 q-131 -92 -311 -158q-129 -47 -182 -47q-35 0 -61.5 28t-26.5 63z" />
<glyph unicode="T" horiz-adv-x="1286" d="M0 1182q0 78 403 151q338 59 502 60h115q119 0 162 -2q80 -6 80 -74q0 -63 -80 -86q-6 -2 -264 -12q-207 -10 -216 -60q-10 -57 -16 -213v1v-425q0 -262 -35 -420q-25 -106 -73 -106q-61 0 -62 266q0 86 6 254t6 254q0 344 -92 344q-41 0 -138 -45t-140 -45 q-158 0 -158 158z" />
<glyph unicode="U" horiz-adv-x="991" d="M18 416q0 299 261 798q82 156 114 156q35 0 62 -49q20 -43 20 -82q0 -74 -149.5 -372t-149.5 -441q0 -162 141 -162q205 0 318 244q68 150 121 469q45 268 78 291q18 10 55 10q68 0 65 -37l-2 -12l-24 -279q-14 -166 -15 -280q0 -139 13 -269q4 -41 26 -217 q19 -137 19 -213q0 -49 -45 -49q-57 0 -97 199l-49 254l-192 -211q-123 -121 -248 -121t-225 125q-96 119 -97 248z" />
<glyph unicode="V" horiz-adv-x="968" d="M-6 1341q0 51 65 52q121 0 181 -279l75 -524q45 -289 121 -305q98 78 187 350l118 405q123 373 187 373q39 0 39 -47q0 -115 -213 -729q-223 -643 -301 -643q-90 0 -174 213q-59 156 -117 426l-64 325l-37 177q-25 98 -55 172q-12 27 -12 34z" />
<glyph unicode="W" horiz-adv-x="1155" d="M-6 1309q0 65 65 65h2q57 0 103 -178q10 -47 41 -233q55 -350 114 -562l76 177q63 133 101 133q51 0 82 -133l36 -187h11q90 0 194 291q31 90 158 541q80 293 121 293q41 -1 41 -62q0 -221 -133 -690q-145 -522 -277 -602q-35 -23 -84 -23q-125 0 -178 207l-49 -133 q-35 -80 -101 -80q-37 0 -75 90q-72 172 -121 451q-70 412 -82 461q-2 8 -27 86q-18 53 -18 88z" />
<glyph unicode="X" horiz-adv-x="899" d="M-6 104q0 31 185.5 300.5t185.5 304.5q0 33 -151 286.5t-151 274.5q0 29 25 48t53 19q63 0 185 -217l157 -284q8 12 138 239q109 188 138 196.5t56 8.5q74 0 74 -66t-166 -302t-166 -257q0 -41 139.5 -313t139.5 -383q0 -37 -9 -76q-12 -59 -36 -59q-18 0 -37 35 q-6 12 -103 227q-115 258 -200 424q-4 -6 -175 -234q-125 -170 -176 -196q-27 -12 -53 -12q-53 0 -53 36z" />
<glyph unicode="Y" horiz-adv-x="759" d="M17.5 1432.5q23.5 29.5 54.5 29.5q59 0 153 -202q102 -221 172 -252q20 29 103 249q72 197 104 207q8 4 23 4q65 0 65 -82q0 -117 -239.5 -739t-315.5 -690q-12 -10 -31 -10q-51 0 -51 82q0 63 131 374q143 344 164 422q-16 29 -203 277q-153 202 -153 269 q0 32 23.5 61.5z" />
<glyph unicode="Z" horiz-adv-x="1210" d="M-6 59q0 20 6 37q68 178 295 426l305 305q246 250 246 299q0 18 -66 19q-74 0 -217 -17.5t-217 -17.5q-53 0 -103 52t-50 106q0 29 34.5 52t63.5 23q49 0 142 -25.5t140 -25.5q154 0 277 25.5t141 25.5q147 0 148 -86q0 -123 -217 -350l-410 -403q-225 -231 -240 -361 q16 -8 37 -8q37 0 216.5 70.5t303.5 70.5q88 0 205 -34q146 -48 146 -111q0 -25 -25 -40t-51 -15q-47 0 -136 25.5t-137 25.5q-61 0 -149 -29q-129 -39 -145 -43q-55 -12 -164 -47q-10 -4 -111 -55q-86 -47 -96 -47q-61 0 -116.5 47t-55.5 106z" />
<glyph unicode="[" horiz-adv-x="677" d="M16 25q0 33 17 81q23 74 24 82q14 104 47 308q18 104 19 426q0 225 -19 254q-67 104 -67 170q0 35 36 83t66 48q14 0 38 -9.5t38 -9.5q47 0 158.5 43t156.5 43q51 0 80 -45q23 -37 23 -92q0 -57 -91 -79.5t-177 -41.5q-96 -35 -97 -112q0 -61 6.5 -184.5t6.5 -184.5 q0 -59 -3.5 -180t-3.5 -181q0 -18 15.5 -113t23.5 -106q13 -24 91 -24h6q104 -2 137 -15q69 -23 69 -98q0 -78 -114 -100q-49 -10 -172 -11q-57 0 -108.5 -27.5t-78.5 -27.5q-47 0 -84 27q-43 31 -43 76z" />
<glyph unicode="\" horiz-adv-x="802" d="M6 1266q0 94 103 94q80 0 131 -100l71 -164q84 -137 178 -383q115 -299 160 -394q27 -53 53 -90l48 -55q30 -39 30 -59q0 -49 -40 -82t-87 -33q-66 0 -153 213l-107 281q-41 82 -110 262q-70 174 -115 262q-27 49 -53 84l-68 76q-41 47 -41 88z" />
<glyph unicode="]" horiz-adv-x="710" d="M0 51q0 74 86 121q45 23 178 64q113 33 146 63q29 92 34 264v273q0 35 3.5 105.5t3.5 105.5q0 290 -112 290h-1q-29 0 -87 -12t-87 -12q-59 0 -96 43t-37 104q0 74 41 88q35 14 176 27q129 12 188 12q162 0 162 -299q0 -90 -5 -270t-5 -270q0 -227 51 -461l16 -62 q9 -30 9 -54v-9v-17q-2 -59 -68 -79q-14 -4 -117 -17q-76 -8 -131 -18q-27 -6 -132 -42t-114 -36q-35 0 -68.5 31.5t-33.5 66.5z" />
<glyph unicode="^" horiz-adv-x="643" d="M4 1192q0 49 47 80q55 35 66 63l41 144q33 65 122 65h3q68 0 108 -65q33 -57 64 -117q168 -260 168 -334q0 -29 -25 -48t-53 -19q-41 0 -121 154.5t-141 154.5q-45 0 -90.5 -97.5t-116.5 -97.5q-72 0 -72 117z" />
<glyph unicode="_" horiz-adv-x="1202" d="M-45 -78q0 14 9 38t11 36q6 0 28 18.5t46 18.5q10 0 40 -18.5t48 -18.5q39 0 121 16.5t123 16.5q76 0 225.5 -13.5t224.5 -13.5q41 0 128.5 23.5t121.5 23.5q51 0 115 -39q74 -43 74 -88q0 -39 -25.5 -56.5t-54.5 -33.5q-20 -16 -84 -39q-31 -6 -78 -6 q-119 0 -359.5 25.5t-363.5 25.5q-35 0 -103.5 -5t-103.5 -5q-45 0 -90 22q-53 29 -53 72z" />
<glyph unicode="`" horiz-adv-x="405" d="M0 1495q0 68 47 68q33 0 86 -88q66 -106 76 -117l94 -74q62 -53 62 -94q0 -49 -36 -80t-85 -31q-84 0 -168 168q-76 150 -76 248z" />
<glyph unicode="a" horiz-adv-x="954" d="M31 715q0 92 159 190q147 92 248 92q94 0 183 -69q92 -76 92 -166q0 -41 -19.5 -120t-19.5 -120q0 -94 119.5 -289t119.5 -256q0 -45 -69 -45q-51 0 -107 52l-84 88q-135 -72 -207 -72q-117 0 -208 76q-98 82 -99 196q0 98 74 164q8 6 149 99q92 61 123 133q16 41 17 65 q0 47 -84 47q-88 0 -167 -86t-112 -86q-43 0 -75.5 32t-32.5 75zM301 246q0 -37 68 -62q53 -18 98 -18q123 0 123 80q0 43 -23 92q-25 59 -63 59q-51 0 -127 -51t-76 -100z" />
<glyph unicode="b" horiz-adv-x="817" d="M37 1372q16 39 43 39q57 0 125 -260q14 -63 67 -324l101 33q66 20 98 21q121 0 217 -88t96 -209q0 -174 -197.5 -379t-369.5 -205q-55 0 -123 18q-29 8 -28 39q0 43 46 75t46 130q0 160 -33 385l-62 385q-40 246 -40 278q0 34 14 62zM276 483q0 -76 15 -145 q20 -104 59 -105q57 0 146 113q80 100 102 168q27 84 27 121q0 43 -27 74q-41 22 -127 22h-8q-84 0 -139 -86q-47 -74 -48 -162z" />
<glyph unicode="c" horiz-adv-x="825" d="M0 516q0 182 94 344q109 188 279 189q84 0 137 -88q49 -76 49 -166q0 -31 -19.5 -57.5t-47.5 -26.5q-18 0 -64.5 69.5t-89.5 69.5q-80 0 -145 -154q-57 -129 -58 -223q0 -57 21 -121q29 -82 73 -82q242 0 490 101q27 12 47 12q45 0 45 -33q0 -39 -212 -144.5t-269 -105.5 q-330 0 -330 416z" />
<glyph unicode="d" horiz-adv-x="694" d="M0 319q0 152 94 351q111 229 242 229q16 0 43 -9t43 -9q20 80 45 315q20 205 59 307q4 14 23 15q41 0 84 -44q39 -40 39 -78v-7v-11q-2 -37 -19 -98q-20 -84 -24 -96q-57 -291 -58 -453v-16v-14q0 -141 37 -373q8 -47 19 -97q10 -59 10 -96q0 -94 -53 -94q-10 0 -33 9 t-39 9q-23 0 -114 -58t-113 -58q-147 0 -224 120q-61 98 -61 256zM152 254q0 -51 39.5 -106.5t89.5 -55.5q35 0 109.5 21.5t94.5 42.5q15 14 15 86q0 102 -33 256q-45 200 -108 200h-1q-70 0 -143 -188q-63 -166 -63 -256z" />
<glyph unicode="e" horiz-adv-x="677" d="M2 344q0 154 107 309q117 170 262 170q82 0 158.5 -72.5t76.5 -154.5q0 -84 -91 -164t-177 -80q-25 0 -73 18q-43 17 -70 17h-5h-8q-45 -29 -45 -94q0 -88 56 -119q39 -22 129 -22h8q35 0 104.5 8t104.5 8q86 0 86 -47q0 -45 -148 -86q-123 -35 -190 -35q-285 0 -285 344 zM246 557q0 -27 29.5 -49.5t58.5 -22.5q35 0 87 37t52 70q0 57 -111 57q-39 0 -77.5 -28.5t-38.5 -63.5z" />
<glyph unicode="f" horiz-adv-x="860" d="M0 614q0 25 24.5 52.5t61.5 31.5h-1h75q66 0 92 50q20 158 90 362q96 274 190 274t207 -180q105 -170 105 -274q0 -61 -58 -62q-70 0 -128 121t-103 121q-55 0 -117 -139q-55 -127 -55 -193q0 -41 49 -41q51 0 152.5 13.5t152.5 13.5q80 0 80 -35q0 -49 -174 -82 q-188 -35 -215 -69q-43 -57 -43 -121q0 -84 64 -215q8 -20 63 -76q49 -47 49 -68q0 -59 -69 -59q-106 0 -150 117l-51 231q-33 131 -111 154l-108 12q-72 12 -72 61z" />
<glyph unicode="g" horiz-adv-x="657" d="M10 -305q0 55 45 55q20 0 61.5 -17.5t53.5 -17.5q150 0 223 111q66 96 66 252q0 45 -6 94q-35 41 -115 53q-23 -6 -47 -6q-102 0 -176 103q-70 94 -70 200q0 123 64 215q72 106 190 107q156 0 227 -215q18 -57 21 -154v-86q0 -68 8 -113q4 -16 37 -122q29 -99 29 -107 q0 -457 -381 -457q-229 0 -230 105zM207 498q0 -70 47 -114t117 -44q59 0 59 43q0 49 -65 147q-29 45 -97 45q-61 0 -61 -77z" />
<glyph unicode="h" horiz-adv-x="657" d="M33 1194q0 27 31.5 47.5t62.5 20.5q45 0 70 -136q14 -129 30 -256q16 -139 45 -145q76 -14 119 -43q127 -84 193 -332q51 -190 51 -399q0 -31 -23.5 -53.5t-54.5 -22.5q-57 0 -111 295q-55 307 -79 319q-10 4 -23 5q-46 0 -60 -108l-26 -212q-23 -113 -84 -113 q-29 0 -58.5 31t-39.5 62q-4 10 -4 59q0 102 11 309t11 309q0 76 -30.5 198t-30.5 165z" />
<glyph unicode="i" horiz-adv-x="344" d="M0 0q0 41 12 104q18 86 21 103q4 25 24 338q2 33 23.5 66.5t52.5 33.5q119 0 119 -180q0 -66 -51 -303q-53 -252 -77 -269.5t-44 -17.5q-37 0 -62 45q-18 39 -18 80zM94 967q0 37 44 94t77 57q41 0 79 -42t38 -83q0 -37 -56.5 -82t-93.5 -45q-88 0 -88 101z" />
<glyph unicode="j" horiz-adv-x="589" d="M-4 -272q0 39 35 39q23 0 62.5 -17.5t58.5 -17.5q129 0 192 155q47 115 47 269q0 168 -94 389q-49 113 -49 117q0 33 41 58t76 25q59 0 131 -264q63 -236 63 -334q0 -199 -72 -354q-92 -203 -264 -203q-63 0 -137 35q-90 43 -90 103zM133 961q0 53 44 94t99 41 q29 0 62 -40t33 -71q0 -63 -29 -106q-31 -51 -92 -52q-45 0 -81 43t-36 91z" />
<glyph unicode="k" d="M25 1059q0 76 4 90q14 35 71 35q88 0 113 -152l12 -219q10 -119 37 -201h19q47 0 117.5 66.5t107.5 66.5q45 0 91 -33.5t46 -78.5q0 -41 -122 -103.5t-122 -89.5q0 -37 105 -118q152 -121 192 -164q105 -109 105 -203q0 -43 -45 -43q-6 0 -19 2q-137 141 -219 207 q-109 84 -264 155q-8 4 -12 5q-25 0 -25 -150q0 -131 -49 -131q-111 0 -111 127q0 37 13 114q12 67 12 104v11v17q-4 102 -31 342q-26 213 -26 335v9z" />
<glyph unicode="l" horiz-adv-x="301" d="M20 1126q0 39 82 39h1q153 0 153 -237q0 -199 -18 -451q-27 -367 -76 -407q-10 -8 -25 -9q-31 0 -60.5 47.5t-29.5 79.5q0 119 33 354.5t33 354.5q0 162 -64 199q-29 16 -29 30z" />
<glyph unicode="m" horiz-adv-x="831" d="M12 539q0 213 74 213q25 0 64.5 -31t54.5 -53l85 78q44 39 95 38q23 0 57 -45q20 -33 43 -67q31 14 60 14q113 0 192 -207q68 -170 68 -305q0 -49 -12 -115q-20 -86 -52 -86l-8 2q-59 41 -82 205l-28 236q-12 41 -29 41q-6 0 -10 -2q-47 -23 -68 -115l-31 -158 q-25 -80 -82 -80t-73 48q-10 25 -11 94q0 27 3.5 77t3.5 74q0 63 -23 64q-29 0 -84 -217t-98 -217q-109 0 -109 514z" />
<glyph unicode="n" horiz-adv-x="649" d="M12 788q0 35 13 68q16 45 47 45q53 0 145 -104q94 96 129 96q133 0 209 -184q59 -145 59 -303q0 -213 -63 -213q-39 0 -64 129q-18 119 -38 237q-29 127 -76 127q-70 0 -129 -240l-68 -307q-16 -59 -33 -59q-70 0 -106 315q-25 213 -25 393z" />
<glyph unicode="o" horiz-adv-x="583" d="M6 375q0 37 33 155q29 100 49 156q12 29 12 37t-8 8q-10 0 -28.5 -8t-28.5 -8q-16 0 -17 20q0 72 91 137q82 63 157 64q106 0 205 -199q88 -176 88 -297q0 -115 -92 -229q-98 -121 -209 -121q-115 0 -183.5 84t-68.5 201zM165 298q13 -24 62 -46q8 -4 23 -4q68 0 115 84 q38 71 38 145q0 160 -104 160q-70 0 -113 -100q-34 -78 -34 -157q0 -58 13 -82z" />
<glyph unicode="p" horiz-adv-x="722" d="M18 -217q0 68 10.5 203t10.5 202q0 49 -8 150.5t-8 153.5q0 522 352 522q123 0 223 -158q88 -141 88 -274q0 -98 -57 -205q-61 -113 -146 -158q-27 -14 -104 -20l-113 -4q-4 -14 -39 -338q-27 -266 -86 -267h-18q-104 0 -105 193zM233 459q0 -82 23 -115h84q68 0 129 113 q57 100 57 174q0 72 -43 137q-49 70 -116 70q-63 0 -105 -162q-29 -121 -29 -217z" />
<glyph unicode="q" horiz-adv-x="583" d="M16 467q0 152 95 334q109 211 241 211q74 0 129.5 -44t53.5 -114v-14q-4 -113 -37 -373q-31 -238 -31 -373q0 -154 18 -209q2 -8 9 -8q10 0 80.5 77t123.5 77q27 0 52.5 -21.5t25.5 -46.5q0 -14 -16 -24q-238 -152 -252 -316q0 -14 -16 -72q-10 -26 -100 -26h-7 q-109 0 -109 39q0 76 19 200q20 133 22 211q-162 2 -241 175q-59 131 -60 317zM172 414q0 -197 84 -197q94 0 94 326q0 243 -68 243h-1q-51 0 -84 -159q-25 -123 -25 -213z" />
<glyph unicode="r" horiz-adv-x="550" d="M10 645q0 111 83 206t194 95q86 0 151 -31q86 -38 86 -112q0 -100 -55 -101q-29 0 -85 36t-73 36q-100 0 -100 -133q0 -16 2 -45q2 -35 4 -47q2 -111 6 -223q10 -127 53 -220q4 -10 5 -16q0 -33 -38 -61.5t-73 -28.5q-23 0 -41 14q-33 27 -78 297q-41 248 -41 334z" />
<glyph unicode="s" horiz-adv-x="628" d="M0 72q0 53 80 102q29 16 149 72q80 37 80 57q0 59 -63 76q-27 6 -107 6q-96 0 -96 100q0 123 164 177q37 12 170 94q119 75 146 75h1q39 0 61.5 -30.5t22.5 -69.5q0 -80 -67 -104l-123 -25q-68 -14 -68 -70q0 -23 58 -38q80 -25 102 -39q55 -33 55 -99q0 -92 -188 -219 q-180 -121 -281 -121q-96 0 -96 56z" />
<glyph unicode="t" horiz-adv-x="854" d="M0 600q0 63 82 105l151 65q82 45 82 121q0 51 -21.5 152.5t-21.5 152.5q0 119 78 119q72 0 88 -162l8 -219q4 -55 48 -55q51 0 144 38.5t138 38.5q35 0 65.5 -27.5t30.5 -60.5q0 -53 -98 -82l-182 -36q-98 -25 -98 -66q0 -66 16 -180q20 -135 25 -182q6 -86 6 -162 q0 -109 -11 -140q-23 -71 -100 -71h-2q-49 0 -49 33q0 20 7 84.5t7 97.5q0 326 -47 454q-8 20 -14 21q-16 0 -114.5 -79t-129.5 -79q-43 0 -68 39q-20 33 -20 80z" />
<glyph unicode="u" horiz-adv-x="710" d="M16 387q0 96 74 285q82 213 158 213q100 0 100 -92q0 -41 -43 -97q-59 -78 -80 -123q-43 -94 -43 -229q0 -104 74 -104q104 0 158 163q10 27 63 304q33 161 85 161h1q53 0 88 -59q31 -52 31 -107q0 -59 -18.5 -182t-18.5 -188q0 -41 9.5 -124t9.5 -124q0 -193 -84 -193 q-57 0 -58 60q0 68 -55 178q-172 -129 -215 -129q-113 0 -180 143q-55 117 -56 244z" />
<glyph unicode="v" horiz-adv-x="624" d="M14 797q0 31 37 62.5t68 31.5q53 0 98 -125q27 -76 66 -252q37 -160 51 -192q49 86 76 233l36 246q4 39 21 110q8 25 35 25q92 0 92 -240q0 -164 -55 -379q-70 -272 -177 -317q-82 4 -155 172q-47 106 -107 336q-59 223 -80 266q-6 12 -6 23z" />
<glyph unicode="w" horiz-adv-x="1017" d="M8 877q0 98 94 98q63 0 93 -84q8 -20 34 -168q18 -102 54 -125q18 51 69 84t107 33q23 0 43 -6q55 -18 67 -131q4 -106 9 -213q4 -119 40 -146q143 131 213 541q6 49 23 143q14 57 57 58q70 -1 70 -220q0 -188 -80 -469q-102 -348 -237 -348q-53 0 -105 58q-82 90 -88 94 q-20 -4 -41 -4q-123 0 -207 151q-55 98 -114 316q-59 229 -84 278q-16 33 -17 60z" />
<glyph unicode="x" horiz-adv-x="915" d="M12 96q0 27 133 193l162 205q0 2 -143 200q-115 160 -115 187q0 33 35 58.5t68 25.5q59 0 143 -123l115 -174l188 188q141 137 197 137q43 0 67.5 -37t24.5 -82q0 -41 -27 -71q-49 -55 -163.5 -161.5t-168.5 -166.5l191 -276q147 -215 147 -262q0 -25 -20.5 -42.5 t-44.5 -17.5q-74 0 -207 184l-178 256q-23 -20 -156 -184q-119 -147 -137 -147q-111 0 -111 110z" />
<glyph unicode="y" horiz-adv-x="772" d="M20 698q0 29 29 46.5t60 17.5q74 0 159 -172l109 -244q41 39 147 293q98 231 129 231q33 0 60 -47q20 -43 20 -78q0 -141 -223 -571l-315 -577q-23 -10 -41 -11q-57 0 -58 72q0 35 95.5 236.5t95.5 236.5q0 82 -133 325z" />
<glyph unicode="z" horiz-adv-x="1077" d="M14 174q0 68 164 193q53 41 303 211q164 111 164 137q0 14 -24 14q-61 0 -190.5 -42t-194.5 -42q-147 0 -148 129q0 131 393 131q20 0 62 -2h61q80 0 180 -53q115 -59 115 -131q0 -59 -151 -168q-51 -35 -285 -180q-152 -94 -152 -119q0 -14 45 -14q66 0 186 36.5 t171 40.5q45 4 94 4q68 0 141 -14q107 -20 107 -57q0 -45 -289 -105l-363 -67q-201 -57 -223 -58q-47 0 -106.5 55.5t-59.5 100.5z" />
<glyph unicode="{" horiz-adv-x="600" d="M18 903q0 131 156 347t281 243q31 6 51 6q37 0 57.5 -32.5t20.5 -73.5q0 -53 -31 -54q-6 0 -16.5 3.5t-16.5 3.5q-109 0 -227 -156q-115 -147 -115 -264q0 -86 74 -105q70 -6 139 -10q74 -10 74 -74q0 -47 -38 -75l-75 -58q115 -2 115 -121q0 -114 -44 -114h-1 q-4 0 -15.5 2t-17.5 2q-88 0 -160 -123q-63 -109 -63 -203q0 -41 76 -72l137 -53q76 -39 76 -100q0 -27 -19 -27q-10 0 -39 8q-166 43 -237 86q-129 74 -129 197q0 41 43 158l57 164q-43 14 -72.5 55t-29.5 86q0 55 51 78q68 31 80 51q-41 20 -91.5 100t-50.5 125z" />
<glyph unicode="|" horiz-adv-x="321" d="M18 1364q0 82 48 106q33 16 127 17q75 0 75 -60v-8l-2 -14q-12 -188 -12 -346q0 -73 17.5 -403t17.5 -584q0 -30 -51 -54q-43 -18 -76 -18q-57 0 -72 35q-43 109 -43 426q0 80 5 238.5t5 238.5q0 178 -14 291q-2 14 -14 67q-10 43 -11 68z" />
<glyph unicode="}" horiz-adv-x="571" d="M-30.5 1600.5q26.5 17.5 57.5 17.5q14 0 75 -19q80 -25 84 -26q111 -27 191 -111q88 -90 88 -196q0 -104 -19 -166q-12 -37 -52 -100.5t-62 -127.5q8 -8 80 -53q49 -31 49 -88q0 -33 -38 -85t-71 -71q178 -82 178 -391q0 -117 -92 -268q-100 -168 -207 -168q-47 0 -45 33 q2 6 74 94q156 190 156 322q0 174 -72 239q-39 35 -147 53q-96 14 -123 60q-16 29 -17 51q0 49 105.5 72.5t105.5 48.5q0 27 -75 27q-14 0 -25.5 -6.5t-26.5 -6.5q-47 0 -85 35t-38 80q0 70 78 100q125 49 142 62q75 58 75 196v4q0 121 -37 170q-29 37 -102 54 q-80 14 -160 30q-71 18 -71 86q0 31 26.5 48.5z" />
<glyph unicode="~" horiz-adv-x="917" d="M0 725q0 70 174 182q166 109 244 109t127 -58q8 -10 65 -106q33 -57 72 -57q14 0 59 51t74 51q27 0 41 -31.5t14 -62.5q0 -72 -55 -170q-59 -113 -125 -113q-80 0 -133 64q-14 16 -74 114q-37 61 -73 62q-39 0 -149.5 -73t-147.5 -73q-49 0 -81 32t-32 79z" />
<glyph unicode="&#xa2;" horiz-adv-x="884" d="M23 748q0 156 100 251q57 57 188 115q106 47 115 78q2 10 2 65q0 76 -14 129q-23 74 -23 70q0 35 34 72t67 37q35 0 70.5 -34t41.5 -104q0 5 -1 5t-1 -123q0 -92 62 -129q59 -18 119.5 -41t60.5 -86q0 -55 -115 -56.5t-123 -46.5q-2 -31 -8 -88q-10 -78 -31 -229 q12 -4 27 -4q18 0 52 5t52 5q74 0 74 -70q0 -43 -106 -67q-115 -25 -129 -49q-27 -51 -33 -166q-4 -88 -6 -174q-2 -53 -37 -54q-47 0 -80 80q-27 66 -27 123q0 31 10.5 90.5t10.5 89.5q0 39 -90 68q-131 39 -170 63q-92 59 -92 175zM193 780q0 -59 47 -99t108 -40 q31 0 50.5 16.5t37.5 100.5q15 69 15 112q0 102 -56 103q-55 0 -128.5 -69.5t-73.5 -123.5z" />
<glyph unicode="&#xa3;" horiz-adv-x="976" d="M10 82q0 41 80 121q115 113 148 157q79 108 79 217q0 80 -40 80h-1q-45 0 -80.5 -13t-39.5 -13q-35 0 -82 51t-47 86q0 55 69 72q8 2 129 14q72 6 76 37q27 199 105 350q109 207 272 207q115 0 194 -129q70 -115 70 -238q0 -90 -70 -90q-29 0 -34 37q-2 25 -7 72 q-33 145 -206 145q-57 0 -101 -139l-53 -193q-2 -8 -2 -14q0 -53 256 -53q55 0 55 -60q0 -43 -39 -55q-20 -6 -84 -14q-143 -14 -159.5 -34.5t-42.5 -197.5q-2 -12 -2 -22q0 -55 71 -66q100 -14 127 -37q12 -10 56 -61q33 -37 69 -53q20 -10 80 -19q53 -8 70 -18 q25 -18 28 -49q7 -39 13 -49q-68 -111 -162 -111q-25 0 -122 68.5t-177 68.5q-43 0 -158 -88t-172 -88t-108 31q-57 35 -58 90z" />
<glyph unicode="&#xa4;" horiz-adv-x="1206" d="M10 346q0 20 93.5 113.5t93.5 115.5q0 10 -51.5 71t-51.5 142q0 86 68 216q63 119 68 119q1 0 1 -1q0 76 -49 101q-45 14 -90 30q-49 25 -49 99q0 57 39 107t94 50q61 0 86 -49l57 -119q46 -79 94 -79h1q27 0 87 15t95 15q63 0 137 -37.5t80 -37.5q10 0 16 8 q47 55 127 108q96 61 154 62q76 -1 76 -60q0 -35 -153.5 -177t-153.5 -169q0 -20 25.5 -81.5t25.5 -98.5q0 -51 -42 -90t-42 -57q0 -14 51 -94.5t51 -125.5q0 -39 -12 -75q-18 -47 -51 -48q-51 0 -125 105.5t-109 105.5q-12 0 -54 -28.5t-75 -28.5q-14 0 -34.5 9.5 t-34.5 9.5q-18 0 -158.5 -112t-181.5 -112q-37 0 -70 21.5t-33 56.5zM317 807q0 -111 144 -111q82 0 176 33q119 43 119 109q0 84 -82 145q-74 53 -162 53q-70 0 -132.5 -78.5t-62.5 -150.5z" />
<glyph unicode="&#xa5;" horiz-adv-x="970" d="M4 1243q0 41 26.5 73t67.5 32q37 0 57.5 -28t80.5 -138q86 -154 206 -260q131 100 232 233q25 33 29 101.5t16 84.5q25 41 90 41q59 0 98 -54.5t39 -115.5q0 -55 -187.5 -246.5t-187.5 -275.5q0 -27 25 -59.5t51 -32.5q14 0 34.5 8t33.5 8h41h12q143 0 143 -46 q0 -38 -40 -72.5t-76 -34.5q-23 0 -68 6t-70 6q-112 0 -112 -81q0 -58 127 -58q35 0 100.5 5t97.5 5q49 0 50 -47q0 -31 -27 -41q-33 -12 -168 -29q-113 -14 -160 -47q-29 -20 -28 -94q0 -31 -27 -58.5t-59 -27.5q-51 0 -76 37q-12 18 -23 65q-6 37 -20 37l-10 -2 q-63 -16 -158 -16q-27 0 -57.5 28.5t-30.5 55.5q0 57 44 105t101 48q12 0 45 -17t78 -17q35 0 35 38q0 31 -84 31q-18 0 -50 -9t-50 -9q-45 0 -90.5 57t-45.5 105q0 37 19 77q29 20 74 21q37 0 66.5 -27.5t53.5 -27.5q29 0 62 12q43 14 43 37q0 12 -55 114q-47 88 -66 117 l-244 336q-8 25 -8 47z" />
<glyph unicode="&#xa6;" horiz-adv-x="325" d="M16 1374q0 70 35 118t101 48q90 0 90 -207q0 -31 -5.5 -90t-5.5 -90q0 -27 10.5 -83t10.5 -87v-49q0 -166 -57 -166q-94 0 -134 182q-24 107 -24 247v11q0 27 -10.5 83.5t-10.5 82.5zM51 610q0 25 35 48.5t64 23.5q55 0 97 -34t40 -87l-2 -16q-4 -141 -11 -283 q-14 -223 -61 -246q-14 -6 -31 -6q-70 0 -92 189q-6 121 -14 241q0 25 -12.5 90.5t-12.5 79.5z" />
<glyph unicode="&#xa7;" horiz-adv-x="878" d="M113 215l151 49q16 -2 33.5 -24.5t17.5 -40.5q0 -25 -44 -54.5t-44 -52.5q0 -57 123 -57q104 0 197 59q102 66 102 166q0 78 -155 78q-23 0 -59 -2t-46 -2q-74 0 -106 18q-63 33 -136 154t-73 192q0 109 62.5 205t62.5 131q0 41 -22.5 120t-22.5 122q0 127 101 223 t230 96q43 0 86 -8q98 -20 166 -129q61 -98 62 -207q0 -178 -135 -239q-4 -4 -15 -4q-27 0 -48 21.5t-21 47.5q0 20 28.5 80t28.5 80q0 63 -45 115.5t-107 52.5q-84 0 -129 -68q-41 -59 -41 -147q0 -92 205 -256q233 -188 266 -252q70 -135 70 -307q0 -193 -115 -330 q-123 -147 -311 -147q-129 0 -242 39q-157 53 -157 154q0 85 82 124zM291 717q0 -109 76 -170q70 -55 180 -55q108 0 108 51q0 78 -111.5 167t-191.5 89q-61 0 -61 -82z" />
<glyph unicode="&#xa9;" horiz-adv-x="962" d="M0 1038q0 68 35 172q53 168 147 275q119 133 271 133q272 0 376 -133q93 -114 93 -395q0 -205 -125 -322t-336 -117q-184 0 -316 101q-145 111 -145 286zM141 1004q0 -14 4 -25q88 -197 338 -197q158 0 250 107q86 100 86 260q0 98 -61 248q-8 -2 -25.5 -8.5t-30.5 -6.5 q-76 0 -144.5 37t-96.5 37q-104 0 -199 -110q-88 -102 -96 -211l113 145q78 88 153 88q20 0 85 -44t69 -64q-31 -45 -82 -97q-2 0 -37 27q-25 18 -43 18q-25 0 -57 -45l-45 -65q10 -18 34 -51q199 14 250 14t51 -51q0 -96 -282 -97q-59 0 -131 59.5t-78 117.5 q-25 -45 -25 -86z" />
<glyph unicode="&#xaa;" horiz-adv-x="954" d="M31 715q0 92 159 190q147 92 248 92q94 0 183 -69q92 -76 92 -166q0 -41 -19.5 -120t-19.5 -120q0 -94 119.5 -289t119.5 -256q0 -45 -69 -45q-51 0 -107 52l-84 88q-135 -72 -207 -72q-117 0 -208 76q-98 82 -99 196q0 98 74 164q8 6 149 99q92 61 123 133q16 41 17 65 q0 47 -84 47q-88 0 -167 -86t-112 -86q-43 0 -75.5 32t-32.5 75zM301 246q0 -37 68 -62q53 -18 98 -18q123 0 123 80q0 43 -23 92q-25 59 -63 59q-51 0 -127 -51t-76 -100z" />
<glyph unicode="&#xad;" horiz-adv-x="874" d="M0 614q0 74 25.5 100.5t97.5 26.5q59 0 180 -5t182 -5q55 0 170 6t170 6h2q25 0 25 -30q0 -66 -43 -103q-23 -16 -328 -43q-263 -22 -341 -22h-7q-43 0 -82 14q-51 18 -51 55z" />
<glyph unicode="&#xae;" horiz-adv-x="913" d="M0 956q0 238 111 441q132 239 348 239h2q240 0 340 -301q67 -200 67 -501q0 -158 -114.5 -269.5t-272.5 -111.5q-193 0 -337 155.5t-144 347.5zM143 965q0 -61 13 -129h24l15 286h-25q-27 -68 -27 -157zM264 1350q8 2 25.5 13t40.5 11q117 0 186.5 -89t69.5 -212 q0 -16 -30 -68.5t-30 -68.5q0 -41 49 -113q51 -78 91 -78q39 2 34 17q31 114 31 239q0 127 -31 254q-98 27 -135 86q-18 47 -39 95q-29 43 -116 43q-51 0 -84 -43t-62 -86zM317 1171q0 -114 55 -114h1q23 0 41 39q16 32 16 61t-26.5 48.5t-57.5 19.5q-29 0 -29 -54zM365 674 q0 -51 6 -60q139 17 166 17h4q-10 16 -170 217q0 -29 -3 -86t-3 -88z" />
<glyph unicode="&#xb0;" horiz-adv-x="571" d="M4 1282q0 96 74 180t168 84q16 0 28.5 -14t28.5 -14t25.5 7t25.5 7q45 0 118 -94.5t73 -139.5q0 -80 -98.5 -150.5t-180.5 -70.5q-262 0 -262 205zM166 1309q6 -18 46 -58.5t54 -40.5q33 0 75 35t42 66q0 29 -29.5 59.5t-58.5 30.5q-27 0 -69 -33t-60 -59z" />
<glyph unicode="&#xb1;" horiz-adv-x="919" d="M23 465q0 31 26 31q57 0 171 -6.5t169 -6.5q61 0 182 5.5t181 5.5q72 0 97 -27.5t25 -99.5q0 -37 -51 -56q-39 -14 -82 -14q-84 0 -356 22q-299 27 -319 43q-43 39 -43 103zM23 903q0 72 25.5 99.5t94.5 27.5q61 0 191 -6q-12 172 -12 211q0 43 14 82q18 51 55 51 q72 0 99.5 -25.5t27.5 -97.5q0 -49 -8 -225q53 0 170 6q111 6 168 6q24 0 24 -31q0 -63 -43 -102q-18 -16 -321 -43q0 -47 6 -156q6 -100 6 -157q0 -25 -31 -25q-63 0 -102 43q-16 18 -39 283q-156 -10 -194 -10q-43 0 -80 14q-51 18 -51 55z" />
<glyph unicode="&#xb2;" horiz-adv-x="1492" d="M-2 1526q-2 4 16 47q37 0 97 -129l106 -242q68 -129 127 -129h55q84 0 154 129q35 68 92 242q43 131 64 131q25 0 45 -72q16 -59 16 -94v-360q0 -102 -103.5 -192.5t-205.5 -90.5q-6 0 -18.5 -5t-18.5 -5h-90q-104 0 -195 61q-96 68 -112 166q-8 43 -17 133zM37 -186 q0 12 16 180q12 125 94 325q98 242 185 242q119 0 280 -254q109 -168 191 -362q55 -129 55 -162q0 -41 -39 -41q-37 0 -102 53q-102 84 -129 103q-86 53 -170 53q-66 0 -152 -51q-57 -35 -131 -97q-61 -51 -63 -51q-35 0 -35 62zM299 289q0 -135 57 -162q20 4 61.5 33 t41.5 45q0 33 -48.5 102.5t-78.5 69.5q-33 0 -33 -88zM920 1096q43 47 131 47q35 0 61 -10l55 -86q31 61 43 71q20 20 76 21q39 -1 78 -21l-217 -389l-170 4l90 164q-59 123 -147 199zM950 244q8 84 8 205q0 115 -8 198q27 4 103 4q8 0 61 -4t62 -4q137 0 137 -164 q0 -59 -37 -101t-94 -42q-6 0 -17.5 2t-17.5 2q-41 0 -45 -37q0 6 0 -70h-129q-14 0 -23 11zM981 152h254v-113l-82 10l-20 -47h102v-76h-10q-25 0 -68 -8q-18 -10 -22 -37l12 -12h88q20 -11 20 -31v-90l-256 6q0 147 -18 398zM983 1524l12 100q41 14 90 14q25 0 191 -18 v-100q-14 -25 -47 -15q-20 0 -27.5 -23.5t-5.5 -47.5l14 -220h-155q4 68 4 152t-4 139zM1108 483q0 -6 3 -19t3 -22q14 0 40 19t26 35q0 6 -26 21t-28 18q-18 -27 -18 -52z" />
<glyph unicode="&#xb3;" horiz-adv-x="2048" d="M-10 969v78v-3q45 20 53 21q43 0 55 -18q8 -27 19 -54h94q8 0 19.5 5.5t17.5 5.5q57 0 57 -74q0 -12 -4 -27q-117 -41 -199 -41q-113 0 -112 107zM37 985q0 -43 11 -59.5t50 -16.5q31 0 154 27l-6 16q-29 -8 -86 -8q-49 0 -70.5 6t-24 28.5t-20.5 35.5q-8 -27 -8 -29z M61 625l35 8q47 -6 119 -27q109 -33 119 -35q-27 -31 -51 -30q-35 0 -123 28q-94 33 -99 56zM139 758q10 14 29 14q41 0 94 -41l82 -67q-12 -31 -41 -29q-162 96 -164 123zM289 803q0 25 30 24l7 -2l65 -73q47 -55 47 -80q0 -8 -6 -25q-25 14 -84 76.5t-59 79.5zM334 600v21 h4q27 0 57 -48q276 59 520 60q27 0 78 -6t76 -6q4 0 16 2q31 16 56 61q37 63 43 72q47 47 135 147l53 74q0 70 -60.5 206t-60.5 206q0 23 29 61l133 -422l156 182q-102 94 -103 201q0 88 73 153.5t163 65.5q102 0 184 -81t82 -185q0 -86 -67.5 -150.5t-155.5 -64.5 q-76 0 -131 37q-57 -59 -162 -187q180 27 305 27q25 0 62 -12l59 -23q-26 -30 -55 -30h-2q-12 0 -33 9t-31 9q-51 0 -172 -16q-92 -13 -150 -13h-20q-31 -43 -151 -176q-96 -106 -131 -190v-660q0 -33 2 -55q25 0 53 -21q-22 -26 -56 -26h-2q-23 0 -45 10q-2 27 -2 64v333 q2 227 2 334q-41 23 -170 23q-225 0 -571 -64q0 12 -6 38q-5 19 -4 32v8zM399 1610q31 -84 74 -84q8 0 14 2q4 -152 48 -318q59 -233 157 -233q115 0 197 240q57 164 78 342h8q61 0 61 -86q0 -190 -84 -386q-106 -239 -269 -239h-1q-86 0 -164 129q-57 96 -86 209 q-27 102 -33 424zM1085 -319q0 25 27 77t47 62v-51q0 -33 -45 -127q-29 12 -29 39zM1223 -170q65 -117 65 -137q0 -27 -26 -27h-11q-67 129 -67 141q0 25 39 23zM1212 -160q35 29 84 29q68 0 66 -55v-9h-33q-82 0 -117 35zM1237 29q127 121 199 266l133 274q96 164 207 209 q26 -366 239 -663l-94 -72q-96 57 -154 209l-81 254q-53 -29 -107 -160q-27 -55 -76 -166q-41 -90 -89 -120.5t-146 -30.5h-31zM1444 -176q0 51 53 51q37 0 57 -8q14 -25 15 -60q0 -45 4 -52t45 -11q35 -2 35 -55q0 -72 -92 -72q-117 0 -117 207zM1493 -170q0 -166 63 -166 q30 1 50 19v10q-10 4 -64 8q-18 20 -20 55v60v16q-14 0 -29 -2zM1516 1411q0 -96 73.5 -157.5t171.5 -61.5q59 0 109.5 56.5t50.5 115.5q0 92 -71.5 154.5t-163.5 62.5q-68 0 -119 -51t-51 -119zM1595 319q19 -8 95 -8h32q-25 -37 -82 -104q0 10 -45 112zM1616 1434v61 q25 23 37 23h35q16 -46 16 -56q0 -41 -53 -41q-20 0 -35 13zM1772 1300v62q22 24 33 24h1h37q15 -47 15 -57q0 -41 -52 -41q-23 0 -34 12z" />
<glyph unicode="&#xb4;" horiz-adv-x="1597" d="M0 -285v1923h1513v-1923h-1513zM68 -217h1378v1788h-1378v-1788zM150 1274v6q16 0 49 4q-2 -20 19.5 -34.5t39.5 -14.5q51 0 51 35q0 20 -75.5 41.5t-75.5 74.5q0 76 98 76q84 0 98 -82h-10q-18 2 -39 -4l-21 25q-10 14 -30 14q-45 0 -45 -26q0 -12 59 -35q68 -23 84 -43 q6 -27 6 -39q0 -84 -104 -84q-37 0 -72 26q-32 23 -32 55v5zM172 113v430h86v-437q0 -151 180 -151h2q59 0 107.5 39t48.5 96v453h86v-449q0 -94 -71.5 -154.5t-168.5 -60.5q-2 0 -77 2q-88 4 -142 76q-51 66 -51 156zM307 788v259h49v-211h129v-48h-178zM406 1194v262h126 q31 0 51.5 -25.5t20.5 -56.5q0 -59 -51 -74q-20 -6 -98 -6v-100q-37 4 -49 0zM455 1339h55q39 0 39 35q0 37 -33 37h-61v-72zM522 788v259h56v-259h-56zM623 788v259h82l47 -173l45 173h80v-259h-52v195l-49 -195h-47l-53 201v-201h-53zM649 1194v260h193v-41h-142v-59h127 v-47h-127v-66h142v-47h-193zM760 -106l246 649h94l264 -649h-98l-74 194h-274l-74 -194h-84zM887 1194v262h194v-43h-139v-59h131v-47l-133 2v-68h141v-47h-194zM928 788v259h53v-259h-53zM946 162h217l-114 307zM1014 1004v43h205v-46h-74v-213h-53v216h-78zM1133 1198v258 h118q47 0 74 -42t27 -91q0 -125 -113 -125h-106zM1184 1243q20 -2 33 -2q79 0 79 84q0 86 -49 86h-63v-168z" />
<glyph unicode="&#xb5;" horiz-adv-x="706" d="M16 487q0 88 38 122t124 34q61 0 80 -55q8 -27 12 -123q4 -82 29 -115q57 25 72 117l16 158q18 77 90 77h2q57 0 86 -81q12 -35 33 -166q16 -106 41 -140q33 -40 33 -77q0 -106 -127 -107q-18 0 -47 31q-35 37 -54 43q-51 -92 -186 -92q-25 0 -45 6q-14 -80 -14 -172 q0 -43 6 -128t6 -128q0 -100 -61 -101q-35 0 -68 17.5t-37 48.5q-4 109 -8 293q-20 532 -21 538z" />
<glyph unicode="&#x3bc;" horiz-adv-x="706" d="M16 487q0 88 38 122t124 34q61 0 80 -55q8 -27 12 -123q4 -82 29 -115q57 25 72 117l16 158q18 77 90 77h2q57 0 86 -81q12 -35 33 -166q16 -106 41 -140q33 -40 33 -77q0 -106 -127 -107q-18 0 -47 31q-35 37 -54 43q-51 -92 -186 -92q-25 0 -45 6q-14 -80 -14 -172 q0 -43 6 -128t6 -128q0 -100 -61 -101q-35 0 -68 17.5t-37 48.5q-4 109 -8 293q-20 532 -21 538z" />
<glyph unicode="&#xb6;" horiz-adv-x="1056" d="M6 1182q0 174 68 223q53 39 231 39q51 0 153.5 -7t153.5 -7q16 0 47 15t50 15q-2 0 227 -26q27 -2 78 -7q35 -3 35 -34q0 -55 -59.5 -69.5t-117.5 -25.5q-61 -18 -61 -81q0 -170 24.5 -512.5t24.5 -514.5q0 -145 -61 -145q-31 0 -54 92q-16 70 -38 645q-20 489 -82 518 q-10 4 -29 5q-16 0 -25 -5q-55 -35 -55 -436q0 -498 43 -663q12 -53 12 -88q0 -57 -12 -76q-18 -20 -74 -21q-98 0 -98 705v84q-10 6 -20 6q-8 0 -26.5 -5t-27.5 -5q-100 0 -207 141q-100 135 -100 240z" />
<glyph unicode="&#xb7;" horiz-adv-x="1492" d="M-2 1526q-2 4 16 47q37 0 97 -129l106 -242q68 -129 127 -129h55q84 0 154 129q35 68 92 242q43 131 64 131q25 0 45 -72q16 -59 16 -94v-360q0 -102 -103.5 -192.5t-205.5 -90.5q-6 0 -18.5 -5t-18.5 -5h-90q-104 0 -195 61q-96 68 -112 166q-8 43 -17 133zM37 -186 q0 12 16 180q12 125 94 325q98 242 185 242q119 0 280 -254q109 -168 191 -362q55 -129 55 -162q0 -41 -39 -41q-37 0 -102 53q-102 84 -129 103q-86 53 -170 53q-66 0 -152 -51q-57 -35 -131 -97q-61 -51 -63 -51q-35 0 -35 62zM299 289q0 -135 57 -162q20 4 61.5 33 t41.5 45q0 33 -48.5 102.5t-78.5 69.5q-33 0 -33 -88zM920 1096q43 47 131 47q35 0 61 -10l55 -86q31 61 43 71q20 20 76 21q39 -1 78 -21l-217 -389l-170 4l90 164q-59 123 -147 199zM950 244q8 84 8 205q0 115 -8 198q27 4 103 4q8 0 61 -4t62 -4q137 0 137 -164 q0 -59 -37 -101t-94 -42q-6 0 -17.5 2t-17.5 2q-41 0 -45 -37q0 6 0 -70h-129q-14 0 -23 11zM981 152h254v-113l-82 10l-20 -47h102v-76h-10q-25 0 -68 -8q-18 -10 -22 -37l12 -12h88q20 -11 20 -31v-90l-256 6q0 147 -18 398zM983 1524l12 100q41 14 90 14q25 0 191 -18 v-100q-14 -25 -47 -15q-20 0 -27.5 -23.5t-5.5 -47.5l14 -220h-155q4 68 4 152t-4 139zM1108 483q0 -6 3 -19t3 -22q14 0 40 19t26 35q0 6 -26 21t-28 18q-18 -27 -18 -52z" />
<glyph unicode="&#x2219;" horiz-adv-x="1492" d="M-2 1526q-2 4 16 47q37 0 97 -129l106 -242q68 -129 127 -129h55q84 0 154 129q35 68 92 242q43 131 64 131q25 0 45 -72q16 -59 16 -94v-360q0 -102 -103.5 -192.5t-205.5 -90.5q-6 0 -18.5 -5t-18.5 -5h-90q-104 0 -195 61q-96 68 -112 166q-8 43 -17 133zM37 -186 q0 12 16 180q12 125 94 325q98 242 185 242q119 0 280 -254q109 -168 191 -362q55 -129 55 -162q0 -41 -39 -41q-37 0 -102 53q-102 84 -129 103q-86 53 -170 53q-66 0 -152 -51q-57 -35 -131 -97q-61 -51 -63 -51q-35 0 -35 62zM299 289q0 -135 57 -162q20 4 61.5 33 t41.5 45q0 33 -48.5 102.5t-78.5 69.5q-33 0 -33 -88zM920 1096q43 47 131 47q35 0 61 -10l55 -86q31 61 43 71q20 20 76 21q39 -1 78 -21l-217 -389l-170 4l90 164q-59 123 -147 199zM950 244q8 84 8 205q0 115 -8 198q27 4 103 4q8 0 61 -4t62 -4q137 0 137 -164 q0 -59 -37 -101t-94 -42q-6 0 -17.5 2t-17.5 2q-41 0 -45 -37q0 6 0 -70h-129q-14 0 -23 11zM981 152h254v-113l-82 10l-20 -47h102v-76h-10q-25 0 -68 -8q-18 -10 -22 -37l12 -12h88q20 -11 20 -31v-90l-256 6q0 147 -18 398zM983 1524l12 100q41 14 90 14q25 0 191 -18 v-100q-14 -25 -47 -15q-20 0 -27.5 -23.5t-5.5 -47.5l14 -220h-155q4 68 4 152t-4 139zM1108 483q0 -6 3 -19t3 -22q14 0 40 19t26 35q0 6 -26 21t-28 18q-18 -27 -18 -52z" />
<glyph unicode="&#xb8;" horiz-adv-x="2048" d="M-10 969v78v-3q45 20 53 21q43 0 55 -18q8 -27 19 -54h94q8 0 19.5 5.5t17.5 5.5q57 0 57 -74q0 -12 -4 -27q-117 -41 -199 -41q-113 0 -112 107zM37 985q0 -43 11 -59.5t50 -16.5q31 0 154 27l-6 16q-29 -8 -86 -8q-49 0 -70.5 6t-24 28.5t-20.5 35.5q-8 -27 -8 -29z M61 625l35 8q47 -6 119 -27q109 -33 119 -35q-27 -31 -51 -30q-35 0 -123 28q-94 33 -99 56zM139 758q10 14 29 14q41 0 94 -41l82 -67q-12 -31 -41 -29q-162 96 -164 123zM289 803q0 25 30 24l7 -2l65 -73q47 -55 47 -80q0 -8 -6 -25q-25 14 -84 76.5t-59 79.5zM334 600v21 h4q27 0 57 -48q276 59 520 60q27 0 78 -6t76 -6q4 0 16 2q31 16 56 61q37 63 43 72q47 47 135 147l53 74q0 70 -60.5 206t-60.5 206q0 23 29 61l133 -422l156 182q-102 94 -103 201q0 88 73 153.5t163 65.5q102 0 184 -81t82 -185q0 -86 -67.5 -150.5t-155.5 -64.5 q-76 0 -131 37q-57 -59 -162 -187q180 27 305 27q25 0 62 -12l59 -23q-26 -30 -55 -30h-2q-12 0 -33 9t-31 9q-51 0 -172 -16q-92 -13 -150 -13h-20q-31 -43 -151 -176q-96 -106 -131 -190v-660q0 -33 2 -55q25 0 53 -21q-22 -26 -56 -26h-2q-23 0 -45 10q-2 27 -2 64v333 q2 227 2 334q-41 23 -170 23q-225 0 -571 -64q0 12 -6 38q-5 19 -4 32v8zM399 1610q31 -84 74 -84q8 0 14 2q4 -152 48 -318q59 -233 157 -233q115 0 197 240q57 164 78 342h8q61 0 61 -86q0 -190 -84 -386q-106 -239 -269 -239h-1q-86 0 -164 129q-57 96 -86 209 q-27 102 -33 424zM1085 -319q0 25 27 77t47 62v-51q0 -33 -45 -127q-29 12 -29 39zM1223 -170q65 -117 65 -137q0 -27 -26 -27h-11q-67 129 -67 141q0 25 39 23zM1212 -160q35 29 84 29q68 0 66 -55v-9h-33q-82 0 -117 35zM1237 29q127 121 199 266l133 274q96 164 207 209 q26 -366 239 -663l-94 -72q-96 57 -154 209l-81 254q-53 -29 -107 -160q-27 -55 -76 -166q-41 -90 -89 -120.5t-146 -30.5h-31zM1444 -176q0 51 53 51q37 0 57 -8q14 -25 15 -60q0 -45 4 -52t45 -11q35 -2 35 -55q0 -72 -92 -72q-117 0 -117 207zM1493 -170q0 -166 63 -166 q30 1 50 19v10q-10 4 -64 8q-18 20 -20 55v60v16q-14 0 -29 -2zM1516 1411q0 -96 73.5 -157.5t171.5 -61.5q59 0 109.5 56.5t50.5 115.5q0 92 -71.5 154.5t-163.5 62.5q-68 0 -119 -51t-51 -119zM1595 319q19 -8 95 -8h32q-25 -37 -82 -104q0 10 -45 112zM1616 1434v61 q25 23 37 23h35q16 -46 16 -56q0 -41 -53 -41q-20 0 -35 13zM1772 1300v62q22 24 33 24h1h37q15 -47 15 -57q0 -41 -52 -41q-23 0 -34 12z" />
<glyph unicode="&#xb9;" horiz-adv-x="1597" d="M0 -285v1923h1513v-1923h-1513zM68 -217h1378v1788h-1378v-1788zM150 1274v6q16 0 49 4q-2 -20 19.5 -34.5t39.5 -14.5q51 0 51 35q0 20 -75.5 41.5t-75.5 74.5q0 76 98 76q84 0 98 -82h-10q-18 2 -39 -4l-21 25q-10 14 -30 14q-45 0 -45 -26q0 -12 59 -35q68 -23 84 -43 q6 -27 6 -39q0 -84 -104 -84q-37 0 -72 26q-32 23 -32 55v5zM172 113v430h86v-437q0 -151 180 -151h2q59 0 107.5 39t48.5 96v453h86v-449q0 -94 -71.5 -154.5t-168.5 -60.5q-2 0 -77 2q-88 4 -142 76q-51 66 -51 156zM307 788v259h49v-211h129v-48h-178zM406 1194v262h126 q31 0 51.5 -25.5t20.5 -56.5q0 -59 -51 -74q-20 -6 -98 -6v-100q-37 4 -49 0zM455 1339h55q39 0 39 35q0 37 -33 37h-61v-72zM522 788v259h56v-259h-56zM623 788v259h82l47 -173l45 173h80v-259h-52v195l-49 -195h-47l-53 201v-201h-53zM649 1194v260h193v-41h-142v-59h127 v-47h-127v-66h142v-47h-193zM760 -106l246 649h94l264 -649h-98l-74 194h-274l-74 -194h-84zM887 1194v262h194v-43h-139v-59h131v-47l-133 2v-68h141v-47h-194zM928 788v259h53v-259h-53zM946 162h217l-114 307zM1014 1004v43h205v-46h-74v-213h-53v216h-78zM1133 1198v258 h118q47 0 74 -42t27 -91q0 -125 -113 -125h-106zM1184 1243q20 -2 33 -2q79 0 79 84q0 86 -49 86h-63v-168z" />
<glyph unicode="&#xba;" horiz-adv-x="583" d="M6 375q0 37 33 155q29 100 49 156q12 29 12 37t-8 8q-10 0 -28.5 -8t-28.5 -8q-16 0 -17 20q0 72 91 137q82 63 157 64q106 0 205 -199q88 -176 88 -297q0 -115 -92 -229q-98 -121 -209 -121q-115 0 -183.5 84t-68.5 201zM165 298q13 -24 62 -46q8 -4 23 -4q68 0 115 84 q38 71 38 145q0 160 -104 160q-70 0 -113 -100q-34 -78 -34 -157q0 -58 13 -82z" />
<glyph unicode="&#xbc;" horiz-adv-x="821" d="M12 451q0 23 105 180l131 196l-8 4q-6 -2 -23.5 -14t-36.5 -12q-66 0 -92 90q-14 49 -22 186q-8 119 -25 152q25 61 115 61q55 0 65 -45q2 -8 2 -90q0 -41 22.5 -118.5t22.5 -116.5q0 -12 -3 -36t-3 -36q12 10 156 192q125 160 145 160q33 0 68 -44t37 -77 q-174 -199 -312 -374l-237 -312q-23 -12 -41 -12q16 0 -47 4q-2 8 -10.5 26.5t-8.5 35.5zM315 485q0 35 27 100.5t27 100.5q78 0 112.5 -23.5t50.5 -97.5l50 121q35 82 80 82q29 0 34 -29q2 -57 25 -172q8 -20 45 -53q29 -26 29 -51q0 -86 -64 -86q-9 0 -20 2 q-6 -74 -15 -150q-12 -90 -57 -135q-68 4 -88 41q-6 14 -16 80q-8 55 -42 82t-87.5 35t-65.5 24q-25 31 -25 129z" />
<glyph unicode="&#xbd;" horiz-adv-x="1095" d="M25 1188q0 18 9 51t9 51q12 0 36.5 9.5t41.5 9.5q84 0 121 -129q22 -84 22 -199q0 -33 -20.5 -65.5t-50.5 -32.5q-53 0 -113 127q-55 115 -55 178zM74 477q0 12 606 815q96 0 96 -102q0 -57 -296 -425t-326 -368q-29 0 -54.5 26t-25.5 54zM426 633q200 67 322 67h4 q27 0 61 -18l57 -33q29 -31 29 -84q0 -59 -57 -135l-99 -119q20 -14 50 -14q33 0 96 19.5t96 19.5q63 0 94 -57q-27 -39 -227.5 -112t-259.5 -73q-49 0 -103 51v56q20 31 109 139q68 86 98 147v43q-10 12 -12 13q-37 0 -88 -24.5t-76 -24.5q-39 0 -74 22q-40 26 -40 60 q0 31 20 57z" />
<glyph unicode="&#xbe;" horiz-adv-x="1034" d="M23 1364q0 68 106 88l160 23q66 18 92 18q106 0 106 -57q0 -16 -7 -46t-7 -47q0 -23 50 -76t50 -112q0 -102 -80.5 -178t-181.5 -76q-18 0 -36.5 8.5t-26.5 10.5q-8 12 -8 28q0 25 71 78q84 61 92 74q-8 16 -18 32.5t-33 16.5q-16 0 -32.5 -12.5t-32.5 -12.5 q-31 0 -61.5 42t-30.5 75q0 16 6 31q-14 -2 -31 -2q-53 0 -94 20q-53 25 -53 74zM154 520q0 16 6 29q106 68 354 373q242 299 279 317q41 -2 72.5 -40t31.5 -79q0 -49 -306 -364.5t-351 -315.5q-29 0 -57.5 27t-28.5 53zM528 469q0 37 27 101.5t27 101.5q78 0 112.5 -24.5 t50.5 -98.5l50 121q35 82 79 82q35 0 44 -78q10 -109 16 -123t43 -49q31 -30 31 -53q0 -86 -64 -86q-10 0 -20 2q-6 -76 -15 -152q-12 -90 -57 -135q-68 4 -88 43q-6 12 -16 80q-8 53 -43 80.5t-87.5 35t-64.5 25.5q-25 29 -25 127z" />
<glyph unicode="&#xbf;" horiz-adv-x="819" d="M14 266q0 100 129 209q70 57 238 156q129 76 129 98q0 55 -51 157.5t-51 123.5q0 39 24.5 78.5t63.5 39.5t67 -69q43 -100 45 -105q106 -135 107 -262q0 -74 -133 -143l-248 -121q-133 -74 -133 -156q0 -33 96 -69q84 -31 127 -31q45 0 132 35t132 35q31 0 54.5 -36 t23.5 -67q0 -139 -272 -139q-131 0 -291 70q-188 84 -189 196zM330 1366q0 84 35.5 118t121.5 34q39 0 64 -64q20 -49 20 -98q0 -127 -110 -127q-131 0 -131 137z" />
<glyph unicode="&#xc0;" horiz-adv-x="737" d="M-10 -57q0 27 84 241q92 240 102 281l88 317q47 188 55 324q2 104 17 235q12 25 45 52.5t57 27.5q18 0 56 -39q23 -29 47 -55q26 -59 26 -145v-6q0 -53 -13 -160t-13 -160q0 -332 209 -856q-14 -53 -48 -53q-53 0 -141 192q-6 12 -102 254q-25 8 -47 8q-86 0 -158 -133 q-14 -29 -86 -211q-49 -125 -102 -202q-76 45 -76 88zM33 1743q0 51 37 51q23 0 63 -65q49 -80 57 -89q35 -29 72 -55q45 -41 45 -72q0 -35 -27.5 -58t-62.5 -23q-63 0 -127 124q-57 113 -57 187zM330 526l108 35q-2 119 -22 357q-35 -129 -86 -392z" />
<glyph unicode="&#xc1;" horiz-adv-x="737" d="M-10 -57q0 27 84 241q92 240 102 281l88 317q47 188 55 324q2 104 17 235q12 25 45 52.5t57 27.5q18 0 56 -39q23 -29 47 -55q26 -59 26 -145v-6q0 -53 -13 -160t-13 -160q0 -332 209 -856q-14 -53 -48 -53q-53 0 -141 192q-6 12 -102 254q-25 8 -47 8q-86 0 -158 -133 q-14 -29 -86 -211q-49 -125 -102 -202q-76 45 -76 88zM330 526l108 35q-2 119 -22 357q-35 -129 -86 -392zM530 1501q0 31 45 70l72 55q8 8 58 88q41 68 63 68q35 0 35 -51q0 -74 -55 -187q-63 -127 -127 -127q-37 0 -64 23.5t-27 60.5z" />
<glyph unicode="&#xc2;" horiz-adv-x="737" d="M-10 -57q0 27 84 241q92 240 102 281l88 317q47 188 55 324q2 104 17 235q12 25 45 52.5t57 27.5q18 0 56 -39q23 -29 47 -55q26 -59 26 -145v-6q0 -53 -13 -160t-13 -160q0 -332 209 -856q-14 -53 -48 -53q-53 0 -141 192q-6 12 -102 254q-25 8 -47 8q-86 0 -158 -133 q-14 -29 -86 -211q-49 -125 -102 -202q-76 45 -76 88zM238 1559q0 37 37.5 61.5t46.5 44.5q16 53 30 109q25 47 94 47q51 0 82 -47l47 -88q127 -195 127 -252q0 -20 -19 -35t-40 -15q-31 0 -90 116t-107 116q-33 0 -67.5 -73t-87.5 -73t-53 89zM330 526l108 35 q-2 119 -22 357q-35 -129 -86 -392z" />
<glyph unicode="&#xc3;" horiz-adv-x="737" d="M-10 -57q0 27 84 241q92 240 102 281l88 317q47 188 55 324q2 104 17 235q12 25 45 52.5t57 27.5q18 0 56 -39q23 -29 47 -55q26 -59 26 -145v-6q0 -53 -13 -160t-13 -160q0 -332 209 -856q-14 -53 -48 -53q-53 0 -141 192q-6 12 -102 254q-25 8 -47 8q-86 0 -158 -133 q-14 -29 -86 -211q-49 -125 -102 -202q-76 45 -76 88zM307.5 1684.5q114.5 74.5 165.5 74.5q68 0 110 -74.5t70 -74.5q8 0 39 34.5t49 34.5q39 0 39 -63q0 -49 -37 -117q-41 -74 -86 -74q-70 0 -116.5 81t-71.5 81q-27 0 -101.5 -49t-99.5 -49q-75 0 -75 72 q0 49 114.5 123.5zM330 526l108 35q-2 119 -22 357q-35 -129 -86 -392z" />
<glyph unicode="&#xc4;" horiz-adv-x="737" d="M-10 -57q0 27 84 241q92 240 102 281l88 317q47 188 55 324q2 104 17 235q12 25 45 52.5t57 27.5q18 0 56 -39q23 -29 47 -55q26 -59 26 -145v-6q0 -53 -13 -160t-13 -160q0 -332 209 -856q-14 -53 -48 -53q-53 0 -141 192q-6 12 -102 254q-25 8 -47 8q-86 0 -158 -133 q-14 -29 -86 -211q-49 -125 -102 -202q-76 45 -76 88zM233 1634q0 33 39 61.5t74 28.5q27 0 56.5 -41.5t29.5 -72.5q0 -84 -110 -84q-88 0 -89 108zM330 526l108 35q-2 119 -22 357q-35 -129 -86 -392zM487 1583q0 31 32 74t63 43q108 0 108 -109q0 -31 -33.5 -61.5 t-66.5 -30.5q-31 0 -67 27.5t-36 56.5z" />
<glyph unicode="&#xc5;" horiz-adv-x="737" d="M-10 -57q0 31 84 245q92 240 102 277l105 395q14 59 47 178q-84 63 -84 185q0 45 34.5 144t36.5 116l-2 2q-6 -2 -19 -7t-22 -5q-18 0 -18 20q0 57 65.5 106.5t124.5 49.5q82 0 158 -152q68 -133 68 -225q0 -63 -39 -129t-92 -105q4 -2 4 -30v-76q-2 -51 -2 -76 q0 -332 209 -856q-12 -53 -48 -53q-53 0 -141 194q-8 16 -102 252q-25 8 -47 8q-88 0 -158 -133q-16 -29 -86 -211q-49 -125 -102 -202q-76 43 -76 88zM330 526l108 35q-2 119 -22 357q-35 -129 -86 -392zM422 1135l12 2l10 -2q43 8 74 65q25 49 25 98q0 115 -74 115 q-49 0 -80 -74q-24 -57 -24 -112q0 -78 57 -92z" />
<glyph unicode="&#xc6;" horiz-adv-x="1286" d="M-10 -57q0 31 84 245q92 240 102 277l88 317q47 182 55 324q2 104 17 235q12 25 45 52.5t57 27.5q18 0 43 -41l37 -57l12 -37q39 -14 68 -14q82 0 239.5 50t241.5 50q47 0 98.5 -41t51.5 -88q0 -39 -35 -39q-18 0 -54 5t-55 5q-43 0 -125.5 -26.5t-125.5 -26.5 q-35 0 -145.5 -24.5t-145.5 -40.5q56 -191 56 -417q0 -29 -1 -58q66 0 166 20l162 35q14 -31 32 -94q-113 -68 -149 -86q-88 -41 -164 -41q-18 -8 -18 -35q0 -104 86 -326q68 12 209 99q117 71 248 71h4q79 0 79 -61q0 -70 -239 -164q-199 -76 -312 -92l-43 -6 q-51 20 -116 204l-84 248q-25 8 -47 8q-88 0 -158 -133q-16 -29 -86 -211q-49 -125 -102 -202q-76 43 -76 88zM330 526l108 35q-2 119 -22 357q-35 -129 -86 -392z" />
<glyph unicode="&#xc7;" horiz-adv-x="897" d="M18 485q0 240 134 543q160 365 368 365q72 0 162 -86t90 -158q0 -14 -8 -39t-8 -33q-23 -12 -47 -12q-33 0 -86.5 74.5t-102.5 74.5q-147 0 -266 -299q-96 -248 -96 -423q0 -225 266 -226q162 0 248 41q96 43 141 43q64 0 64 -51q0 -35 -191.5 -106.5t-191.5 -108.5 q0 -55 53 -76q80 -29 100 -49q53 -53 53 -195q0 -49 -103 -114.5t-159 -65.5q-14 0 -43 39l-39 55q10 27 70 52q53 20 53 41q0 23 -59 63q-68 47 -78 62q-18 29 -23 88q-6 47 -10 94q-152 109 -203 168q-88 102 -88 239z" />
<glyph unicode="&#xc8;" horiz-adv-x="892" d="M-14 41q209 471 209 817q0 111 -45 227l-33 82q-18 49 -19 86q0 16 8.5 46t10.5 40q12 -4 78 -24q49 -16 77 -17q80 0 229.5 47.5t227.5 47.5q49 0 99.5 -41t50.5 -88q0 -39 -35 -39q-18 0 -54 6t-53 6q-45 0 -127 -27.5t-127 -27.5t-172 -58q29 -100 29 -262 q0 -18 -4 -194q70 0 242 28q14 -31 32 -94l-129 -84q-71 -39 -140 -39h-7q-45 -20 -82 -133l-43 -164q76 2 227.5 40t229.5 38q29 0 80 12.5t77 12.5q80 -1 80 -62t-319 -157q-293 -86 -396 -86q-43 0 -102 24q-82 33 -100 37zM33 1743q0 51 37 51q23 0 63 -65 q49 -80 57 -89q35 -29 72 -55q45 -41 45 -72q0 -35 -27.5 -58t-62.5 -23q-63 0 -127 124q-57 113 -57 187z" />
<glyph unicode="&#xc9;" horiz-adv-x="892" d="M-14 41q209 471 209 817q0 111 -45 227l-33 82q-18 49 -19 86q0 16 8.5 46t10.5 40q12 -4 78 -24q49 -16 77 -17q80 0 229.5 47.5t227.5 47.5q49 0 99.5 -41t50.5 -88q0 -39 -35 -39q-18 0 -54 6t-53 6q-45 0 -127 -27.5t-127 -27.5t-172 -58q29 -100 29 -262 q0 -18 -4 -194q70 0 242 28q14 -31 32 -94l-129 -84q-71 -39 -140 -39h-7q-45 -20 -82 -133l-43 -164q76 2 227.5 40t229.5 38q29 0 80 12.5t77 12.5q80 -1 80 -62t-319 -157q-293 -86 -396 -86q-43 0 -102 24q-82 33 -100 37zM358 1542q0 31 45 70l72 57q8 6 57 88 q39 66 64 66q35 0 35 -51q0 -74 -56 -187q-63 -125 -126 -125q-37 0 -64 22.5t-27 59.5z" />
<glyph unicode="&#xca;" horiz-adv-x="892" d="M-14 41q209 471 209 817q0 111 -45 227l-33 82q-18 49 -19 86q0 16 8.5 46t10.5 40q12 -4 78 -24q49 -16 77 -17q80 0 229.5 47.5t227.5 47.5q49 0 99.5 -41t50.5 -88q0 -39 -35 -39q-18 0 -54 6t-53 6q-45 0 -127 -27.5t-127 -27.5t-172 -58q29 -100 29 -262 q0 -18 -4 -194q70 0 242 28q14 -31 32 -94l-129 -84q-71 -39 -140 -39h-7q-45 -20 -82 -133l-43 -164q76 2 227.5 40t229.5 38q29 0 80 12.5t77 12.5q80 -1 80 -62t-319 -157q-293 -86 -396 -86q-43 0 -102 24q-82 33 -100 37zM238 1559q0 37 37.5 61.5t46.5 44.5 q16 53 30 109q25 47 94 47q51 0 82 -47l47 -88q95 -146 95 -191q0 -20 -18.5 -35.5t-41.5 -15.5q-29 0 -72.5 86t-91.5 86q-33 0 -67.5 -73t-87.5 -73t-53 89z" />
<glyph unicode="&#xcb;" horiz-adv-x="892" d="M-14 41q209 471 209 817q0 111 -45 227l-33 82q-18 49 -19 86q0 16 8.5 46t10.5 40q12 -4 78 -24q49 -16 77 -17q80 0 229.5 47.5t227.5 47.5q49 0 99.5 -41t50.5 -88q0 -39 -35 -39q-18 0 -54 6t-53 6q-45 0 -127 -27.5t-127 -27.5t-172 -58q29 -100 29 -262 q0 -18 -4 -194q70 0 242 28q14 -31 32 -94l-129 -84q-71 -39 -140 -39h-7q-45 -20 -82 -133l-43 -164q76 2 227.5 40t229.5 38q29 0 80 12.5t77 12.5q80 -1 80 -62t-319 -157q-293 -86 -396 -86q-43 0 -102 24q-82 33 -100 37zM164 1604q0 33 39 61.5t73 28.5q27 0 56.5 -42 t29.5 -73q0 -84 -110 -84q-88 0 -88 109zM418 1552q0 31 31.5 74t62.5 43h2q104 0 104 -108q0 -31 -32.5 -62t-65.5 -31q-31 0 -66.5 28t-35.5 56z" />
<glyph unicode="&#xcc;" horiz-adv-x="1042" d="M-12 1098q0 68 422 164q387 90 526 90q45 0 82 -41q0 -68 -182 -119q-221 -61 -244 -80q2 -82 2 -176q0 -129 -8 -383q-10 -266 -11 -385q35 2 119 12q78 8 121 8q96 0 96 -65q0 -86 -75 -86q-12 0 -35 7t-35 7q-16 0 -137 -35l-260 -79q-199 -57 -244 -58 q-29 0 -61.5 23.5t-32.5 50.5q0 49 80 86q51 23 165 53q109 29 134 41q4 178 20 475q18 330 19 324q0 45 -19 84q-20 47 -61 47q-20 0 -105.5 -45t-154.5 -45q-49 0 -85 38t-36 87zM55 1647q0 51 35 51q25 0 64 -68q49 -80 57 -88l72 -55q45 -39 45 -70q0 -37 -27 -60.5 t-63 -23.5q-63 0 -127 127q-55 113 -56 187z" />
<glyph unicode="&#xcd;" horiz-adv-x="1042" d="M-12 1098q0 68 422 164q387 90 526 90q45 0 82 -41q0 -68 -182 -119q-221 -61 -244 -80q2 -82 2 -176q0 -129 -8 -383q-10 -266 -11 -385q35 2 119 12q78 8 121 8q96 0 96 -65q0 -86 -75 -86q-12 0 -35 7t-35 7q-16 0 -137 -35l-260 -79q-199 -57 -244 -58 q-29 0 -61.5 23.5t-32.5 50.5q0 49 80 86q51 23 165 53q109 29 134 41q4 178 20 475q18 330 19 324q0 45 -19 84q-20 47 -61 47q-20 0 -105.5 -45t-154.5 -45q-49 0 -85 38t-36 87zM496 1493q0 31 45 70l71 57q8 6 58 88q41 66 63 66q37 -1 37 -52q0 -74 -57 -186 q-63 -127 -127 -127q-35 0 -62.5 23.5t-27.5 60.5z" />
<glyph unicode="&#xce;" horiz-adv-x="1042" d="M-12 1098q0 68 422 164q387 90 526 90q45 0 82 -41q0 -68 -182 -119q-221 -61 -244 -80q2 -82 2 -176q0 -129 -8 -383q-10 -266 -11 -385q35 2 119 12q78 8 121 8q96 0 96 -65q0 -86 -75 -86q-12 0 -35 7t-35 7q-16 0 -137 -35l-260 -79q-199 -57 -244 -58 q-29 0 -61.5 23.5t-32.5 50.5q0 49 80 86q51 23 165 53q109 29 134 41q4 178 20 475q18 330 19 324q0 45 -19 84q-20 47 -61 47q-20 0 -105.5 -45t-154.5 -45q-49 0 -85 38t-36 87zM190 1554q0 37 39 61.5t45 47.5q16 53 36 104.5t89 51.5q51 0 82 -50l47 -86 q127 -196 127 -251q0 -20 -19.5 -36t-39.5 -16q-31 0 -90.5 116t-106.5 116q-33 0 -66.5 -73t-88.5 -73q-53 0 -54 88z" />
<glyph unicode="&#xcf;" horiz-adv-x="1042" d="M-12 1098q0 68 422 164q387 90 526 90q45 0 82 -41q0 -68 -182 -119q-221 -61 -244 -80q2 -82 2 -176q0 -129 -8 -383q-10 -266 -11 -385q35 2 119 12q78 8 121 8q96 0 96 -65q0 -86 -75 -86q-12 0 -35 7t-35 7q-16 0 -137 -35l-260 -79q-199 -57 -244 -58 q-29 0 -61.5 23.5t-32.5 50.5q0 49 80 86q51 23 165 53q109 29 134 41q4 178 20 475q18 330 19 324q0 45 -19 84q-20 47 -61 47q-20 0 -105.5 -45t-154.5 -45q-49 0 -85 38t-36 87zM219 1479q0 106 107 106q33 0 63.5 -42t30.5 -75q0 -29 -35 -56.5t-66 -27.5 q-33 0 -66.5 31t-33.5 64zM477 1497q0 29 30 71t56 42q35 0 74 -27.5t39 -60.5q0 -111 -88 -111q-111 0 -111 86z" />
<glyph unicode="&#xd0;" horiz-adv-x="913" d="M-100 571q0 55 19.5 76t72.5 21q47 0 117 -6q-4 104 -5 208q0 29 3.5 90.5t3.5 90.5q0 20 -19.5 68t-19.5 75q0 20 150.5 87t187.5 67q197 0 319 -295q100 -236 100 -465q0 -264 -127 -418q-137 -166 -395 -166q-10 0 -30.5 -7t-30.5 -7q-113 0 -113 76q0 14 10.5 41.5 t10.5 42.5q0 66 -15 186q-20 145 -22 188q-90 -4 -117 -4q-100 0 -100 51zM233 655q33 0 99.5 2t99.5 2q18 0 19 -22q0 -45 -31 -76q-14 -12 -184 -26q2 -135 26 -228q16 -59 37 -184q203 41 291 164q82 114 82 327q0 172 -54 344q-72 233 -202 234q-74 0 -160 -109 q-20 -156 -23 -428z" />
<glyph unicode="&#xd1;" horiz-adv-x="966" d="M16 397q57 334 58 475q0 63 -37 184.5t-37 168.5q0 49 55 90q49 37 101 37q59 0 159 -197q10 -18 177 -383q104 -227 157 -272q6 33 6 86q0 113 -17 338t-17 338q0 29 20.5 52t46.5 23q131 0 131 -366q0 -55 -8 -166t-8 -166q0 -428 43 -543l47 -104q22 -51 22 -123 q0 -37 -22 -94q-12 -6 -21 -6q-70 0 -251 385l-213 481q-94 209 -170 334q-16 -68 -29 -203l-25 -424q-31 -340 -102 -340q-35 0 -68 84q-28 70 -28 112q0 28 30 199zM106 1585q0 45 115 120t168 75q66 0 109 -75t69 -75q8 0 39 35t49 35q39 -1 39 -64q0 -47 -37 -114 q-41 -76 -84 -76q-72 0 -118.5 81t-71.5 81q-27 0 -101.5 -49.5t-99.5 -49.5q-76 0 -76 76z" />
<glyph unicode="&#xd2;" d="M-14 1735q0 51 37 51q23 0 63 -66q49 -82 57 -88l72 -57q45 -39 45 -70q0 -37 -27.5 -59.5t-62.5 -22.5q-63 0 -127 125q-57 113 -57 187zM-8 557q0 53 37 197q176 692 409 692q190 0 281 -346q57 -230 57 -504q0 -240 -69 -395q-96 -211 -308 -211q-199 0 -311 192 q-96 162 -96 375zM135 520q0 -115 64 -233q76 -139 178 -140q229 1 229 613q0 270 -35 350q-18 43 -61 79t-86 36q-23 0 -41 -25q-92 -117 -170 -323q-78 -213 -78 -357z" />
<glyph unicode="&#xd3;" d="M-8 557q0 53 37 197q176 692 409 692q190 0 281 -346q57 -230 57 -504q0 -240 -69 -395q-96 -211 -308 -211q-199 0 -311 192q-96 162 -96 375zM135 520q0 -115 64 -233q76 -139 178 -140q229 1 229 613q0 270 -35 350q-18 43 -61 79t-86 36q-23 0 -41 -25 q-92 -117 -170 -323q-78 -213 -78 -357zM596 1577q0 31 45 70l72 55q8 8 57 88q41 68 64 68q36 -1 36 -52q0 -74 -57 -186q-63 -127 -127 -127q-35 0 -62.5 23.5t-27.5 60.5z" />
<glyph unicode="&#xd4;" d="M-8 557q0 53 37 197q176 692 409 692q190 0 281 -346q57 -230 57 -504q0 -240 -69 -395q-96 -211 -308 -211q-199 0 -311 192q-96 162 -96 375zM135 520q0 -115 64 -233q76 -139 178 -140q229 1 229 613q0 270 -35 350q-18 43 -61 79t-86 36q-23 0 -41 -25 q-92 -117 -170 -323q-78 -213 -78 -357zM276 1612q0 37 39 61.5t45 44.5l33 109q23 47 92 47q51 0 82 -47l47 -88q127 -195 127 -252q0 -20 -19.5 -34.5t-39.5 -14.5q-31 0 -90.5 115.5t-106.5 115.5q-33 0 -66.5 -72.5t-88.5 -72.5q-53 0 -54 88z" />
<glyph unicode="&#xd5;" d="M-8 557q0 53 37 197q176 692 409 692q190 0 281 -346q57 -230 57 -504q0 -240 -69 -395q-96 -211 -308 -211q-199 0 -311 192q-96 162 -96 375zM135 520q0 -115 64 -233q76 -139 178 -140q229 1 229 613q0 270 -35 350q-18 43 -61 79t-86 36q-23 0 -41 -25 q-92 -117 -170 -323q-78 -213 -78 -357zM213 1602q0 47 119 122q113 74 164 74q68 0 109.5 -74.5t68.5 -74.5q10 0 40.5 34.5t49.5 34.5q37 0 37 -63q0 -49 -37 -117q-41 -74 -84 -74q-70 0 -117 81t-74 81t-100.5 -49t-99.5 -49q-76 0 -76 74z" />
<glyph unicode="&#xd6;" d="M-8 557q0 53 37 197q176 692 409 692q190 0 281 -346q57 -230 57 -504q0 -240 -69 -395q-96 -211 -308 -211q-199 0 -311 192q-96 162 -96 375zM135 520q0 -115 64 -233q76 -139 178 -140q229 1 229 613q0 270 -35 350q-18 43 -61 79t-86 36q-23 0 -41 -25 q-92 -117 -170 -323q-78 -213 -78 -357zM272 1614q0 33 39 61.5t74 28.5q27 0 56.5 -42t29.5 -73q0 -84 -111 -84q-88 0 -88 109zM526 1563q0 31 32 73.5t63 42.5h2q104 0 104 -108q0 -31 -34 -61.5t-66 -30.5q-29 0 -65 27.5t-36 56.5z" />
<glyph unicode="&#xd7;" horiz-adv-x="718" d="M16 981q0 6 2 14q76 74 109 74q27 0 121 -82l119 -106l102 120q74 84 119 84q33 0 55.5 -33.5t22.5 -68.5q0 -25 -82 -115l-107 -114q68 -80 127 -179q82 -129 82 -190q0 -59 -73 -59h-5h-20q-14 0 -86 114q-80 125 -119 152q-43 -2 -121 -128t-137 -126 q-31 0 -65.5 24.5t-34.5 53.5q0 23 106.5 161t106.5 160q0 33 -74 105q-66 63 -107 84.5t-41 54.5z" />
<glyph unicode="&#xd8;" d="M-8 557q0 55 37 197q178 692 409 692q94 0 164 -84q47 94 92 94t45 -119q0 -53 -43 -161q80 -244 80 -580q0 -238 -69 -395q-98 -211 -308 -211q-135 0 -233 94q-45 -70 -76 -70q-27 0 -44 29t-17 57q0 31 43 111q-80 156 -80 346zM135 520q0 -68 29 -149l14 26l236 510 q44 86 118 260q-53 57 -108 58q-23 0 -41 -25q-92 -113 -170 -325.5t-78 -354.5zM244 221q59 -74 133 -74q229 1 229 613q0 123 -6 198q-115 -250 -356 -737z" />
<glyph unicode="&#xd9;" horiz-adv-x="991" d="M18 416q0 299 261 798q82 156 114 156q35 0 62 -49q20 -43 20 -82q0 -74 -149.5 -372t-149.5 -441q0 -162 141 -162q205 0 318 244q68 150 121 469q45 268 78 291q18 10 55 10q68 0 65 -37l-2 -12l-24 -279q-14 -166 -15 -280q0 -139 13 -269q4 -41 26 -217 q19 -137 19 -213q0 -49 -45 -49q-57 0 -97 199l-49 254l-192 -211q-123 -121 -248 -121t-225 125q-96 119 -97 248zM420 1737q0 51 35 51q25 0 63 -66q49 -82 57 -90l72 -55q45 -39 45 -70q0 -37 -26.5 -60.5t-63.5 -23.5q-63 0 -127 127q-55 113 -55 187z" />
<glyph unicode="&#xda;" horiz-adv-x="991" d="M18 416q0 299 261 798q82 156 114 156q35 0 62 -49q20 -43 20 -82q0 -74 -149.5 -372t-149.5 -441q0 -162 141 -162q205 0 318 244q68 150 121 469q45 268 78 291q18 10 55 10q68 0 65 -37l-2 -12l-24 -279q-14 -166 -15 -280q0 -139 13 -269q4 -41 26 -217 q19 -137 19 -213q0 -49 -45 -49q-57 0 -97 199l-49 254l-192 -211q-123 -121 -248 -121t-225 125q-96 119 -97 248zM530 1501q0 31 45 70l72 55q8 8 58 88q41 68 63 68q35 0 35 -51q0 -74 -55 -187q-63 -127 -127 -127q-37 0 -64 23.5t-27 60.5z" />
<glyph unicode="&#xdb;" horiz-adv-x="991" d="M18 416q0 299 261 798q82 156 114 156q35 0 62 -49q20 -43 20 -82q0 -74 -149.5 -372t-149.5 -441q0 -162 141 -162q205 0 318 244q68 150 121 469q45 268 78 291q18 10 55 10q68 0 65 -37l-2 -12l-24 -279q-14 -166 -15 -280q0 -139 13 -269q4 -41 26 -217 q19 -137 19 -213q0 -49 -45 -49q-57 0 -97 199l-49 254l-192 -211q-123 -121 -248 -121t-225 125q-96 119 -97 248zM338 1534q0 37 38 61.5t46 44.5q14 53 31 109q25 47 94 47q49 0 80 -47l49 -88q125 -195 125 -252q0 -20 -18.5 -34.5t-41.5 -14.5q-29 0 -89 115.5 t-105 115.5q-35 0 -69 -72.5t-87 -72.5t-53 88z" />
<glyph unicode="&#xdc;" horiz-adv-x="991" d="M18 416q0 299 261 798q82 156 114 156q35 0 62 -49q20 -43 20 -82q0 -74 -149.5 -372t-149.5 -441q0 -162 141 -162q205 0 318 244q68 150 121 469q45 268 78 291q18 10 55 10q68 0 65 -37l-2 -12l-24 -279q-14 -166 -15 -280q0 -139 13 -269q4 -41 26 -217 q19 -137 19 -213q0 -49 -45 -49q-57 0 -97 199l-49 254l-192 -211q-123 -121 -248 -121t-225 125q-96 119 -97 248zM438 1567q0 33 39 61.5t74 28.5q27 0 56.5 -43t29.5 -72q0 -84 -111 -84q-88 0 -88 109zM692 1513q0 33 32 75t62 42q109 0 109 -106q0 -33 -34 -63.5 t-66 -30.5q-31 0 -67 27.5t-36 55.5z" />
<glyph unicode="&#xdd;" horiz-adv-x="759" d="M17.5 1432.5q23.5 29.5 54.5 29.5q59 0 153 -202q102 -221 172 -252q20 29 103 249q72 197 104 207q8 4 23 4q65 0 65 -82q0 -117 -239.5 -739t-315.5 -690q-12 -10 -31 -10q-51 0 -51 82q0 63 131 374q143 344 164 422q-16 29 -203 277q-153 202 -153 269 q0 32 23.5 61.5zM354 1595q0 33 45 72l72 55q8 8 57 88q41 68 64 68q37 0 37 -51q0 -74 -58 -187q-63 -127 -127 -127q-35 0 -62.5 24t-27.5 58z" />
<glyph unicode="&#xde;" horiz-adv-x="972" d="M18 502q0 109 8.5 323.5t8.5 323.5q0 145 4 172q16 113 90 113q70 0 90 -138q10 -94 19 -190h34q47 0 142.5 6t142.5 6q383 0 383 -248q0 -137 -123 -255.5t-260 -118.5q-29 0 -74 -11q-55 -12 -71 -14q-78 -8 -158 -8q-18 -98 -18 -180q0 -119 38 -207q-20 -25 -41 -47 q-27 -29 -53 -29q-113 0 -149 406q-2 10 -8 49q-4 31 -5 47zM242 633h90q121 0 196 47q55 35 140 141q18 23 18 33q0 55 -285 55q-61 0 -88 -20l-69 -53z" />
<glyph unicode="&#xdf;" horiz-adv-x="976" d="M14 61q0 -6 15 39l10 43q23 92 33 258l20 433q27 293 109 448q113 207 338 207q49 0 126.5 -33t112.5 -70q27 -29 68 -100q47 -80 47 -108q0 -88 -21 -179q-27 -111 -71 -157q-16 -14 -32.5 -30.5t-16.5 -39.5q0 -31 47 -51q66 -29 90 -55q51 -55 59 -170q2 -19 2 -54 q0 -178 -51 -297q-72 -159 -225 -159h-2q-135 0 -256 139q-109 127 -133 270q27 59 86 60q74 0 110 -37q18 -18 54 -90t83 -115q68 45 76 53q45 37 45 74q0 57 -61.5 135t-116.5 78q-14 0 -44 -6t-44 -6q-6 14 -43 77q-33 55 -33 76q0 12 86 84q104 88 156 158 q86 111 86 219q0 49 -67.5 106.5t-116.5 57.5q-111 0 -181 -176q-53 -135 -53 -269v-24q2 -16 2 -25q0 -102 -42 -325.5t-42 -335.5q0 -49 6 -86q-18 -31 -116 -78q-98 2 -99 61z" />
<glyph unicode="&#xe0;" horiz-adv-x="954" d="M31 715q0 92 159 190q147 92 248 92q94 0 183 -69q92 -76 92 -166q0 -41 -19.5 -120t-19.5 -120q0 -94 119.5 -289t119.5 -256q0 -45 -69 -45q-51 0 -107 52l-84 88q-135 -72 -207 -72q-117 0 -208 76q-98 82 -99 196q0 98 74 164q8 6 149 99q92 61 123 133q16 41 17 65 q0 47 -84 47q-88 0 -167 -86t-112 -86q-43 0 -75.5 32t-32.5 75zM84 1417q0 51 35 51q25 0 65 -67q47 -80 58 -88q35 -27 69 -56q47 -38 47 -69q0 -37 -27.5 -60.5t-64.5 -23.5q-63 0 -127 127q-55 113 -55 186zM301 246q0 -37 68 -62q53 -18 98 -18q123 0 123 80 q0 43 -23 92q-25 59 -63 59q-51 0 -127 -51t-76 -100z" />
<glyph unicode="&#xe1;" horiz-adv-x="954" d="M31 715q0 92 159 190q147 92 248 92q94 0 183 -69q92 -76 92 -166q0 -41 -19.5 -120t-19.5 -120q0 -94 119.5 -289t119.5 -256q0 -45 -69 -45q-51 0 -107 52l-84 88q-135 -72 -207 -72q-117 0 -208 76q-98 82 -99 196q0 98 74 164q8 6 149 99q92 61 123 133q16 41 17 65 q0 47 -84 47q-88 0 -167 -86t-112 -86q-43 0 -75.5 32t-32.5 75zM301 246q0 -37 68 -62q53 -18 98 -18q123 0 123 80q0 43 -23 92q-25 59 -63 59q-51 0 -127 -51t-76 -100zM385 1212q0 31 47 70q35 29 70 55q8 8 57 88q41 68 66 68q34 0 34 -51q0 -74 -57 -187 q-61 -127 -127 -127q-35 0 -62.5 24t-27.5 60z" />
<glyph unicode="&#xe2;" horiz-adv-x="954" d="M31 715q0 92 159 190q147 92 248 92q94 0 183 -69q92 -76 92 -166q0 -41 -19.5 -120t-19.5 -120q0 -94 119.5 -289t119.5 -256q0 -45 -69 -45q-51 0 -107 52l-84 88q-135 -72 -207 -72q-117 0 -208 76q-98 82 -99 196q0 98 74 164q8 6 149 99q92 61 123 133q16 41 17 65 q0 47 -84 47q-88 0 -167 -86t-112 -86q-43 0 -75.5 32t-32.5 75zM289 1266q0 37 38 61.5t44 46.5q16 53 35.5 104.5t89.5 51.5q51 0 82 -49q25 -43 47 -86q127 -197 127 -252q0 -20 -18.5 -35.5t-41.5 -15.5q-29 0 -89 115.5t-105 115.5q-35 0 -69 -72.5t-89 -72.5 q-51 0 -51 88zM301 246q0 -37 68 -62q53 -18 98 -18q123 0 123 80q0 43 -23 92q-25 59 -63 59q-51 0 -127 -51t-76 -100z" />
<glyph unicode="&#xe3;" horiz-adv-x="954" d="M31 715q0 92 159 190q147 92 248 92q94 0 183 -69q92 -76 92 -166q0 -41 -19.5 -120t-19.5 -120q0 -94 119.5 -289t119.5 -256q0 -45 -69 -45q-51 0 -107 52l-84 88q-135 -72 -207 -72q-117 0 -208 76q-98 82 -99 196q0 98 74 164q8 6 149 99q92 61 123 133q16 41 17 65 q0 47 -84 47q-88 0 -167 -86t-112 -86q-43 0 -75.5 32t-32.5 75zM166 1241q0 45 119 123q113 74 164 74q68 0 109.5 -76t68.5 -76q10 0 40.5 36t49.5 36q37 0 37 -66q0 -47 -37 -114q-41 -76 -84 -76q-70 0 -118 81t-73 81q-27 0 -100.5 -49.5t-99.5 -49.5q-76 0 -76 76z M301 246q0 -37 68 -62q53 -18 98 -18q123 0 123 80q0 43 -23 92q-25 59 -63 59q-51 0 -127 -51t-76 -100z" />
<glyph unicode="&#xe4;" horiz-adv-x="954" d="M31 715q0 92 159 190q147 92 248 92q94 0 183 -69q92 -76 92 -166q0 -41 -19.5 -120t-19.5 -120q0 -94 119.5 -289t119.5 -256q0 -45 -69 -45q-51 0 -107 52l-84 88q-135 -72 -207 -72q-117 0 -208 76q-98 82 -99 196q0 98 74 164q8 6 149 99q92 61 123 133q16 41 17 65 q0 47 -84 47q-88 0 -167 -86t-112 -86q-43 0 -75.5 32t-32.5 75zM272 1239q0 33 39 60.5t72 27.5q29 0 58.5 -42t29.5 -71q0 -86 -113 -86q-86 0 -86 111zM301 246q0 -37 68 -62q53 -18 98 -18q123 0 123 80q0 43 -23 92q-25 59 -63 59q-51 0 -127 -51t-76 -100zM526 1186 q0 33 32 75t63 42q106 0 106 -109q0 -31 -34 -61.5t-66 -30.5q-29 0 -65 27.5t-36 56.5z" />
<glyph unicode="&#xe5;" horiz-adv-x="954" d="M31 715q0 68 90 141q66 55 151 94q-36 59 -36 133q0 37 24 127q23 84 41 125q-16 -8 -29 -8q-29 0 -28 31q0 61 69.5 113.5t130.5 52.5q88 0 166 -154q70 -135 70 -233t-84 -193q117 -78 117 -182q0 -41 -19.5 -120t-19.5 -120q0 -96 119.5 -290t119.5 -255 q0 -45 -69 -45q-51 0 -107 52l-84 88q-135 -72 -207 -72q-117 0 -208 76q-98 82 -99 196q0 96 74 162q8 8 149 101q92 61 123 133q16 41 17 65q0 47 -84 47q-86 0 -166 -86t-113 -86q-43 0 -75.5 32t-32.5 75zM301 246q0 -37 68 -62q53 -18 98 -18q123 0 123 80q0 43 -23 92 q-25 59 -63 59q-51 0 -127 -51t-76 -100zM375 1087q0 -79 56 -79h1q45 0 74 59q26 49 26 98q0 104 -63 105q-47 0 -74 -72q-20 -53 -20 -111z" />
<glyph unicode="&#xe6;" horiz-adv-x="1329" d="M31 715q0 92 159 190q145 92 248 92q82 0 164 -57t105 -135q117 170 262 170q104 0 192 -68q98 -72 99 -172q0 -96 -86 -211q-90 -121 -183 -121q-27 0 -85 12q-50 11 -80 11h-9h-18q-45 -29 -45 -94q0 -86 82 -137q70 -43 161 -43q35 0 104.5 8t104.5 8q86 0 86 -47 t-135 -86q-113 -35 -178 -35q-14 0 -44 2t-44 2q-168 0 -238 68q-135 -72 -207 -72q-117 0 -208 76q-98 82 -99 196q0 96 74 162q8 8 147 101q94 61 125 133q16 39 17 65q0 47 -84 47q-86 0 -166 -86t-113 -86q-43 0 -75.5 32t-32.5 75zM301 246q0 -37 68 -62q51 -18 98 -18 q123 0 123 80q0 43 -23 92q-25 59 -63 59q-53 0 -125 -49q-78 -53 -78 -102zM776 631q0 -92 101 -92q72 0 145 49q82 55 82 123q0 31 -62 55q-51 18 -88 18q-68 0 -123 -43t-55 -110z" />
<glyph unicode="&#xe7;" horiz-adv-x="765" d="M16 348q0 203 86 377q103 211 279 211h10h12q43 0 99 -25q47 -23 114 -75q82 -66 82 -105q0 -29 -44 -60.5t-74 -31.5q-18 0 -104.5 45t-108.5 45q-74 0 -138 -154q-53 -133 -53 -223q0 -51 49 -82q40 -28 95 -28h4q53 0 162.5 22.5t164.5 22.5q64 0 64 -31 q0 -57 -293 -131q-41 -10 -51 -47q-2 -8 -4 -74q29 -41 84 -59q66 -23 75 -33q33 -27 33 -100q0 -90 -85 -156t-177 -66q-37 0 -70 29v66q6 14 14.5 29.5t22.5 15.5q12 0 19 -2q4 -14 26 -15q23 0 45.5 13.5t22.5 33.5q0 27 -84 66q-55 27 -111 51q29 86 29 137q0 68 -51 90 q-80 39 -92 52q-51 53 -52 192z" />
<glyph unicode="&#xe8;" horiz-adv-x="677" d="M2 344q0 154 107 309q117 170 262 170q82 0 158.5 -72.5t76.5 -154.5q0 -84 -91 -164t-177 -80q-25 0 -73 18q-43 17 -70 17h-5h-8q-45 -29 -45 -94q0 -88 56 -119q39 -22 129 -22h8q35 0 104.5 8t104.5 8q86 0 86 -47q0 -45 -148 -86q-123 -35 -190 -35q-285 0 -285 344 zM66 1270q0 51 34 51q25 0 66 -66q49 -80 57 -88q35 -29 70 -55q47 -41 47 -72q0 -35 -27.5 -58.5t-62.5 -23.5q-66 0 -127 125q-57 113 -57 187zM246 557q0 -27 29.5 -49.5t58.5 -22.5q35 0 87 37t52 70q0 57 -111 57q-39 0 -77.5 -28.5t-38.5 -63.5z" />
<glyph unicode="&#xe9;" horiz-adv-x="677" d="M2 344q0 154 107 309q117 170 262 170q82 0 158.5 -72.5t76.5 -154.5q0 -84 -91 -164t-177 -80q-25 0 -73 18q-43 17 -70 17h-5h-8q-45 -29 -45 -94q0 -88 56 -119q39 -22 129 -22h8q35 0 104.5 8t104.5 8q86 0 86 -47q0 -45 -148 -86q-123 -35 -190 -35q-285 0 -285 344 zM246 557q0 -27 29.5 -49.5t58.5 -22.5q35 0 87 37t52 70q0 57 -111 57q-39 0 -77.5 -28.5t-38.5 -63.5zM324 1087q0 31 45 72q37 27 71 55q8 8 58 89q40 65 64 65h1q35 0 35 -51q0 -74 -57 -187q-61 -124 -126 -124h-1q-35 0 -62.5 23.5t-27.5 57.5z" />
<glyph unicode="&#xea;" horiz-adv-x="677" d="M2 344q0 154 107 309q117 170 262 170q82 0 158.5 -72.5t76.5 -154.5q0 -84 -91 -164t-177 -80q-25 0 -73 18q-43 17 -70 17h-5h-8q-45 -29 -45 -94q0 -88 56 -119q39 -22 129 -22h8q35 0 104.5 8t104.5 8q86 0 86 -47q0 -45 -148 -86q-123 -35 -190 -35q-285 0 -285 344 zM190 1087q0 37 38 62t46 45q14 55 31 109q25 47 94 47q49 0 82 -47l47 -89q125 -194 125 -251q0 -20 -18.5 -35t-40.5 -15q-29 0 -89.5 116t-105.5 116q-35 0 -68.5 -73t-86.5 -73t-54 88zM246 557q0 -27 29.5 -49.5t58.5 -22.5q35 0 87 37t52 70q0 57 -111 57 q-39 0 -77.5 -28.5t-38.5 -63.5z" />
<glyph unicode="&#xeb;" horiz-adv-x="677" d="M2 344q0 154 107 309q117 170 262 170q82 0 158.5 -72.5t76.5 -154.5q0 -84 -91 -164t-177 -80q-25 0 -73 18q-43 17 -70 17h-5h-8q-45 -29 -45 -94q0 -88 56 -119q39 -22 129 -22h8q35 0 104.5 8t104.5 8q86 0 86 -47q0 -45 -148 -86q-123 -35 -190 -35q-285 0 -285 344 zM150 1102q0 33 38.5 61.5t73.5 28.5q27 0 56.5 -42t29.5 -73q0 -84 -110 -84q-88 0 -88 109zM246 557q0 -27 29.5 -49.5t58.5 -22.5q35 0 87 37t52 70q0 57 -111 57q-39 0 -77.5 -28.5t-38.5 -63.5zM403 1051q0 31 32 73.5t63 42.5h2q106 0 106 -108q0 -31 -33.5 -61.5 t-66.5 -30.5q-31 0 -67 27.5t-36 56.5z" />
<glyph unicode="&#xec;" horiz-adv-x="344" d="M-33 1100q0 51 35 51q25 0 66 -66q49 -82 57 -88l70 -57q47 -39 47 -70q0 -35 -28 -58.5t-64 -23.5q-63 0 -127 125q-55 113 -56 187zM0 0q0 41 12 104q18 86 21 103q4 25 24 338q2 33 23.5 66.5t52.5 33.5q119 0 119 -180q0 -66 -51 -303q-53 -252 -77 -269.5t-44 -17.5 q-37 0 -62 45q-18 39 -18 80z" />
<glyph unicode="&#xed;" horiz-adv-x="344" d="M0 0q0 41 12 104q18 86 21 103q4 25 24 338q2 33 23.5 66.5t52.5 33.5q119 0 119 -180q0 -66 -51 -303q-53 -252 -77 -269.5t-44 -17.5q-37 0 -62 45q-18 39 -18 80zM104 895q0 33 46 72q37 27 71 55q8 8 58 88q41 66 63 66q37 -1 37 -52q0 -72 -57 -184 q-63 -127 -127 -127q-35 0 -63 23.5t-28 58.5z" />
<glyph unicode="&#xee;" horiz-adv-x="344" d="M-23 862q0 37 38 61.5t46 47.5q14 53 31 106q25 49 94 49q49 0 80 -47l47 -88q127 -197 127 -252q0 -20 -18.5 -35.5t-40.5 -15.5q-29 0 -89.5 116t-105.5 116q-35 0 -68.5 -73t-86.5 -73t-54 88zM0 0q0 41 12 104q18 86 21 103q4 25 24 338q2 33 23.5 66.5t52.5 33.5 q119 0 119 -180q0 -66 -51 -303q-53 -252 -77 -269.5t-44 -17.5q-37 0 -62 45q-18 39 -18 80z" />
<glyph unicode="&#xef;" horiz-adv-x="344" d="M-39 915q0 33 39 62t74 29q27 0 56.5 -43t29.5 -72q0 -84 -111 -84q-88 0 -88 108zM0 0q0 41 12 104q18 86 21 103q4 25 24 338q2 33 23.5 66.5t52.5 33.5q119 0 119 -180q0 -66 -51 -303q-53 -252 -77 -269.5t-44 -17.5q-37 0 -62 45q-18 39 -18 80zM215 864q0 31 32 73 t62 42q109 -1 109 -107q0 -33 -34 -62.5t-67 -29.5q-31 0 -66.5 28t-35.5 56z" />
<glyph unicode="&#xf0;" horiz-adv-x="856" d="M20 463v8q-4 68 112 183.5t185 121.5l-2 27v6q0 51 30 83q32 34 69 64q-43 33 -135 82q-6 12 -7 29q0 74 103 74q10 0 31.5 -2t34 -2t79 -59.5t90.5 -59.5q25 0 95.5 43t93.5 43q41 0 41 -29t-85 -109.5t-85 -101.5q0 -43 59 -196.5t59 -196.5q0 -170 -96 -301 q-106 -141 -272 -141q-121 0 -154 10q-225 78 -246 424zM225 375l2 -15q20 -35 60 -69q45 -41 78 -41h77q16 18 54 53q35 18 69.5 40t34.5 69q0 49 -91 100t-144 51q-27 0 -50 -6q-2 -6 -59 -84q-31 -45 -31 -98zM457 756q84 -13 143 -64q-6 121 -84 121q-10 0 -22 -2 q-2 -18 -37 -55z" />
<glyph unicode="&#xf1;" horiz-adv-x="649" d="M95.5 1272q115.5 76 166.5 76q68 0 110 -76t68 -76q10 0 41 36t49 36q37 0 37 -66q0 -47 -37 -115q-40 -75 -83 -75h-1q-72 0 -118.5 81t-71.5 81q-27 0 -100.5 -49.5t-100.5 -49.5q-75 0 -75 74q0 47 115.5 123zM12 788q0 35 13 68q16 45 47 45q53 0 145 -104 q94 96 129 96q133 0 209 -184q59 -145 59 -303q0 -213 -63 -213q-39 0 -64 129q-18 119 -38 237q-29 127 -76 127q-70 0 -129 -240l-68 -307q-16 -59 -33 -59q-70 0 -106 315q-25 213 -25 393z" />
<glyph unicode="&#xf2;" horiz-adv-x="583" d="M6 375q0 37 33 155q29 100 49 156q12 29 12 37t-8 8q-10 0 -28.5 -8t-28.5 -8q-16 0 -17 20q0 72 91 137q82 63 157 64q106 0 205 -199q88 -176 88 -297q0 -115 -92 -229q-98 -121 -209 -121q-115 0 -183.5 84t-68.5 201zM29 1341q0 51 34 52q25 0 66 -68q47 -80 57 -88 l70 -55q47 -39 47 -70q0 -37 -27.5 -60.5t-64.5 -23.5q-63 0 -127 127q-55 113 -55 186zM165 298q13 -24 62 -46q8 -4 23 -4q68 0 115 84q38 71 38 145q0 160 -104 160q-70 0 -113 -100q-34 -78 -34 -157q0 -58 13 -82z" />
<glyph unicode="&#xf3;" horiz-adv-x="583" d="M6 375q0 37 33 155q29 100 49 156q12 29 12 37t-8 8q-10 0 -28.5 -8t-28.5 -8q-16 0 -17 20q0 72 91 137q82 63 157 64q106 0 205 -199q88 -176 88 -297q0 -115 -92 -229q-98 -121 -209 -121q-115 0 -183.5 84t-68.5 201zM165 298q13 -24 62 -46q8 -4 23 -4q68 0 115 84 q38 71 38 145q0 160 -104 160q-70 0 -113 -100q-34 -78 -34 -157q0 -58 13 -82zM252 1169q0 33 45 72q35 29 72 55q8 8 57 88q39 68 63 68q35 0 35 -51q0 -74 -55 -187q-63 -127 -127 -127q-37 0 -63.5 24t-26.5 58z" />
<glyph unicode="&#xf4;" horiz-adv-x="583" d="M6 375q0 37 33 155q29 100 49 156q12 29 12 37t-8 8q-10 0 -28.5 -8t-28.5 -8q-16 0 -17 20q0 72 91 137q82 63 157 64q106 0 205 -199q88 -176 88 -297q0 -115 -92 -229q-98 -121 -209 -121q-115 0 -183.5 84t-68.5 201zM94 1128q0 37 38 61.5t46 47.5q14 53 31 106 q25 49 94 50q49 0 82 -50l47 -88q125 -194 125 -249q0 -23 -18.5 -37.5t-40.5 -14.5q-29 0 -89.5 116t-105.5 116q-35 0 -68.5 -73t-87.5 -73q-53 0 -53 88zM165 298q13 -24 62 -46q8 -4 23 -4q68 0 115 84q38 71 38 145q0 160 -104 160q-70 0 -113 -100q-34 -78 -34 -157 q0 -58 13 -82z" />
<glyph unicode="&#xf5;" horiz-adv-x="583" d="M0 1133q0 47 114.5 121.5t168.5 74.5q68 0 109.5 -74.5t68.5 -74.5q10 0 40.5 34.5t49.5 34.5q37 0 37 -63q0 -49 -37 -117q-41 -74 -84 -74q-72 0 -119 81t-72 81q-27 0 -100.5 -49t-99.5 -49q-76 0 -76 74zM6 375q0 37 33 155q29 100 49 156q12 29 12 37t-8 8 q-10 0 -28.5 -8t-28.5 -8q-16 0 -17 20q0 72 91 137q82 63 157 64q106 0 205 -199q88 -176 88 -297q0 -115 -92 -229q-98 -121 -209 -121q-115 0 -183.5 84t-68.5 201zM165 298q13 -24 62 -46q8 -4 23 -4q68 0 115 84q38 71 38 145q0 160 -104 160q-70 0 -113 -100 q-34 -78 -34 -157q0 -58 13 -82z" />
<glyph unicode="&#xf6;" horiz-adv-x="583" d="M6 375q0 37 33 155q29 100 49 156q12 29 12 37t-8 8q-10 0 -28.5 -8t-28.5 -8q-16 0 -17 20q0 72 91 137q82 63 157 64q106 0 205 -199q88 -176 88 -297q0 -115 -92 -229q-98 -121 -209 -121q-115 0 -183.5 84t-68.5 201zM78 1174q0 33 39 61.5t71 28.5q29 0 58.5 -43 t29.5 -72q0 -84 -112 -84q-86 0 -86 109zM165 298q13 -24 62 -46q8 -4 23 -4q68 0 115 84q38 71 38 145q0 160 -104 160q-70 0 -113 -100q-34 -78 -34 -157q0 -58 13 -82zM332 1120q0 33 31.5 75t62.5 42q106 -1 106 -107q0 -33 -33.5 -63.5t-66.5 -30.5q-29 0 -64.5 28 t-35.5 56z" />
<glyph unicode="&#xf7;" horiz-adv-x="696" d="M29 655q0 25 35.5 64t58.5 39q57 0 172 9t172 9q166 0 211 -76q-37 -112 -100 -112h-7q-57 2 -71 2q-57 0 -171 -12.5t-171 -12.5q-33 0 -81 30t-48 60zM217 338q10 66 47 119q45 63 105 63q49 0 80 -45q24 -37 24 -88q0 -41 -51 -73.5t-94 -32.5q-53 0 -111 57zM289 965 q0 27 14 49q8 2 66 41q42 28 67 28h2q37 0 61.5 -31.5t24.5 -70.5q0 -53 -36.5 -87t-92.5 -34q-37 0 -71.5 33t-34.5 72z" />
<glyph unicode="&#xf8;" horiz-adv-x="583" d="M6 375q0 39 33 155q29 104 49 156q6 12 12 37l-8 8q-10 0 -28.5 -8t-28.5 -8q-16 0 -17 20q0 72 91 137q82 63 157 64q70 0 140 -92q27 76 51 151q45 111 86 111q32 0 32 -86q0 -66 -100 -291q84 -172 84 -289q0 -115 -92 -229q-98 -121 -209 -121q-39 0 -76 10 q-92 -186 -127 -186q-45 0 -45 66q0 31 82 176q-86 84 -86 219zM162 303l149 334h-12h-5q-67 0 -108 -98q-34 -80 -34 -159q0 -54 10 -77zM254 248q66 2 111 86q38 69 38 143q0 41 -10 76z" />
<glyph unicode="&#xf9;" horiz-adv-x="710" d="M16 387q0 96 74 285q82 213 158 213q100 0 100 -92q0 -41 -43 -97q-59 -78 -80 -123q-43 -94 -43 -229q0 -104 74 -104q104 0 158 163q10 27 63 304q33 161 85 161h1q53 0 88 -59q31 -52 31 -107q0 -59 -18.5 -182t-18.5 -188q0 -41 9.5 -124t9.5 -124q0 -193 -84 -193 q-57 0 -58 60q0 68 -55 178q-172 -129 -215 -129q-113 0 -180 143q-55 117 -56 244zM186 1331q0 51 35 51q25 0 66 -65q49 -82 57 -88l70 -58q47 -38 47 -69q0 -37 -27.5 -59.5t-62.5 -22.5q-66 0 -127 125q-57 113 -58 186z" />
<glyph unicode="&#xfa;" horiz-adv-x="710" d="M16 387q0 96 74 285q82 213 158 213q100 0 100 -92q0 -41 -43 -97q-59 -78 -80 -123q-43 -94 -43 -229q0 -104 74 -104q104 0 158 163q10 27 63 304q33 161 85 161h1q53 0 88 -59q31 -52 31 -107q0 -59 -18.5 -182t-18.5 -188q0 -41 9.5 -124t9.5 -124q0 -193 -84 -193 q-57 0 -58 60q0 68 -55 178q-172 -129 -215 -129q-113 0 -180 143q-55 117 -56 244zM387 1083q0 31 45 70q35 29 72 55q8 8 57 88q39 68 64 68q34 0 34 -51q0 -74 -55 -187q-63 -127 -127 -127q-37 0 -63.5 24t-26.5 60z" />
<glyph unicode="&#xfb;" horiz-adv-x="710" d="M16 387q0 96 74 285q82 213 158 213q100 0 100 -92q0 -41 -43 -97q-59 -78 -80 -123q-43 -94 -43 -229q0 -104 74 -104q104 0 158 163q10 27 63 304q33 161 85 161h1q53 0 88 -59q31 -52 31 -107q0 -59 -18.5 -182t-18.5 -188q0 -41 9.5 -124t9.5 -124q0 -193 -84 -193 q-57 0 -58 60q0 68 -55 178q-172 -129 -215 -129q-113 0 -180 143q-55 117 -56 244zM223 1137q0 37 39 61.5t45 46.5q16 53 35.5 104.5t89.5 51.5q51 0 82 -49q25 -43 47 -88q127 -195 127 -250q0 -23 -19.5 -37t-39.5 -14q-31 0 -90.5 115.5t-106.5 115.5 q-33 0 -66.5 -72.5t-89.5 -72.5q-53 0 -53 88z" />
<glyph unicode="&#xfc;" horiz-adv-x="710" d="M16 387q0 96 74 285q82 213 158 213q100 0 100 -92q0 -41 -43 -97q-59 -78 -80 -123q-43 -94 -43 -229q0 -104 74 -104q104 0 158 163q10 27 63 304q33 161 85 161h1q53 0 88 -59q31 -52 31 -107q0 -59 -18.5 -182t-18.5 -188q0 -41 9.5 -124t9.5 -124q0 -193 -84 -193 q-57 0 -58 60q0 68 -55 178q-172 -129 -215 -129q-113 0 -180 143q-55 117 -56 244zM219 1165q0 33 39 61.5t74 28.5q27 0 56.5 -42.5t29.5 -71.5q0 -84 -111 -84q-88 0 -88 108zM473 1114q0 31 32 73t62 42q109 -1 109 -107q0 -31 -34 -61.5t-67 -30.5q-31 0 -66.5 27.5 t-35.5 56.5z" />
<glyph unicode="&#xfd;" horiz-adv-x="772" d="M20 698q0 29 29 46.5t60 17.5q74 0 159 -172l109 -244q41 39 147 293q98 231 129 231q33 0 60 -47q20 -43 20 -78q0 -141 -223 -571l-315 -577q-23 -10 -41 -11q-57 0 -58 72q0 35 95.5 236.5t95.5 236.5q0 82 -133 325zM379 1071q0 31 45 72l72 55q8 8 57 88 q39 66 63 66q35 -1 35 -52q0 -74 -55 -186q-63 -125 -127 -125q-37 0 -63.5 23.5t-26.5 58.5z" />
<glyph unicode="&#xfe;" horiz-adv-x="731" d="M6 1364q0 45 28.5 91t71.5 46q98 0 99 -145q0 -25 -5 -69t-7 -64q61 -29 129 -29q20 0 47.5 20.5t52.5 20.5q27 0 82 -27q207 -98 207 -323q0 -213 -121 -373q-113 -152 -316 -231q0 -155 2 -155v3q-6 -102 -51 -129q-61 0 -92 47q-27 41 -78 625q-49 547 -49 692z M201 905q0 -10 6 -20q18 -51 22 -215q4 -156 19 -174h61q88 88 101 102q63 72 65 121q2 33 21.5 100.5t19.5 100.5q0 25 -16.5 31.5t-93 22t-101.5 15.5q-35 0 -69.5 -25.5t-34.5 -58.5z" />
<glyph unicode="&#xff;" horiz-adv-x="772" d="M20 698q0 29 29 46.5t60 17.5q74 0 159 -172l109 -244q41 39 147 293q98 231 129 231q33 0 60 -47q20 -43 20 -78q0 -141 -223 -571l-315 -577q-23 -10 -41 -11q-57 0 -58 72q0 35 95.5 236.5t95.5 236.5q0 82 -133 325zM160 1075q0 33 39 61.5t73 28.5q27 0 56.5 -42.5 t29.5 -71.5q0 -84 -110 -84q-88 0 -88 108zM414 1024q0 31 31.5 73t62.5 42q106 -1 106 -107q0 -33 -32.5 -62.5t-65.5 -29.5q-31 0 -66.5 27.5t-35.5 56.5z" />
<glyph unicode="&#x152;" horiz-adv-x="1692" d="M-8 557q0 53 37 197q176 692 409 692q190 0 281 -346q57 -230 57 -504q0 -240 -69 -395q-96 -211 -308 -211q-199 0 -311 192q-96 162 -96 375zM135 520q0 -115 64 -233q76 -139 178 -140q229 1 229 613q0 270 -35 350q-18 43 -61 79t-86 36q-23 0 -41 -25 q-92 -117 -170 -323q-78 -213 -78 -357zM786 41q209 471 209 817q0 111 -45 227l-33 82q-18 49 -19 86q0 16 8.5 46t10.5 40q12 -4 78 -24q49 -16 77 -17q80 0 229.5 47.5t227.5 47.5q49 0 99.5 -41t50.5 -88q0 -39 -35 -39q-18 0 -54 6t-53 6q-45 0 -127 -27.5t-127 -27.5 t-172 -58q29 -100 29 -262q0 -18 -4 -194q70 0 242 28q14 -31 32 -94l-129 -84q-71 -39 -140 -39h-7q-45 -20 -82 -133l-43 -164q76 2 227.5 40t229.5 38q29 0 80 12.5t77 12.5q80 -1 80 -62t-319 -157q-293 -86 -396 -86q-43 0 -102 24q-82 33 -100 37z" />
<glyph unicode="&#x153;" horiz-adv-x="1260" d="M6 375q0 37 33 155q29 100 49 156q12 29 12 37t-8 8q-10 0 -28.5 -8t-28.5 -8q-16 0 -17 20q0 72 91 137q82 63 157 64q106 0 205 -199q88 -176 88 -297q0 -115 -92 -229q-98 -121 -209 -121q-115 0 -183.5 84t-68.5 201zM165 298q13 -24 62 -46q8 -4 23 -4q68 0 115 84 q38 71 38 145q0 160 -104 160q-70 0 -113 -100q-34 -78 -34 -157q0 -58 13 -82zM585 344q0 154 107 309q117 170 262 170q82 0 158.5 -72.5t76.5 -154.5q0 -84 -91 -164t-177 -80q-25 0 -73 18q-43 17 -70 17h-5h-8q-45 -29 -45 -94q0 -88 56 -119q39 -22 129 -22h8 q35 0 104.5 8t104.5 8q86 0 86 -47q0 -45 -148 -86q-123 -35 -190 -35q-285 0 -285 344zM829 557q0 -27 29.5 -49.5t58.5 -22.5q35 0 87 37t52 70q0 57 -111 57q-39 0 -77.5 -28.5t-38.5 -63.5z" />
<glyph unicode="&#x2c6;" horiz-adv-x="643" d="M4 1192q0 49 47 80q55 35 66 63l41 144q33 65 122 65h3q68 0 108 -65q33 -57 64 -117q168 -260 168 -334q0 -29 -25 -48t-53 -19q-41 0 -121 154.5t-141 154.5q-45 0 -90.5 -97.5t-116.5 -97.5q-72 0 -72 117z" />
<glyph unicode="&#x2dc;" horiz-adv-x="536" d="M-416 327q0 70 174 182q166 109 244 109t127 -58q8 -10 65 -106q33 -57 72 -57q14 0 59 51t74 51q27 0 41 -31.5t14 -62.5q0 -72 -55 -170q-59 -113 -125 -113q-80 0 -133 64q-14 16 -74 114q-37 61 -73 62q-39 0 -149.5 -73t-147.5 -73q-49 0 -81 32t-32 79z" />
<glyph unicode="&#x2000;" horiz-adv-x="939" />
<glyph unicode="&#x2001;" horiz-adv-x="1878" />
<glyph unicode="&#x2002;" horiz-adv-x="939" />
<glyph unicode="&#x2003;" horiz-adv-x="1878" />
<glyph unicode="&#x2004;" horiz-adv-x="626" />
<glyph unicode="&#x2005;" horiz-adv-x="469" />
<glyph unicode="&#x2006;" horiz-adv-x="313" />
<glyph unicode="&#x2007;" horiz-adv-x="313" />
<glyph unicode="&#x2008;" horiz-adv-x="234" />
<glyph unicode="&#x2009;" horiz-adv-x="375" />
<glyph unicode="&#x200a;" horiz-adv-x="104" />
<glyph unicode="&#x2010;" horiz-adv-x="874" d="M0 614q0 74 25.5 100.5t97.5 26.5q59 0 180 -5t182 -5q55 0 170 6t170 6h2q25 0 25 -30q0 -66 -43 -103q-23 -16 -328 -43q-263 -22 -341 -22h-7q-43 0 -82 14q-51 18 -51 55z" />
<glyph unicode="&#x2011;" horiz-adv-x="874" d="M0 614q0 74 25.5 100.5t97.5 26.5q59 0 180 -5t182 -5q55 0 170 6t170 6h2q25 0 25 -30q0 -66 -43 -103q-23 -16 -328 -43q-263 -22 -341 -22h-7q-43 0 -82 14q-51 18 -51 55z" />
<glyph unicode="&#x2012;" horiz-adv-x="874" d="M0 614q0 74 25.5 100.5t97.5 26.5q59 0 180 -5t182 -5q55 0 170 6t170 6h2q25 0 25 -30q0 -66 -43 -103q-23 -16 -328 -43q-263 -22 -341 -22h-7q-43 0 -82 14q-51 18 -51 55z" />
<glyph unicode="&#x2013;" horiz-adv-x="1024" d="M204 512v204h616v-204h-616z" />
<glyph unicode="&#x2014;" horiz-adv-x="2048" d="M204 512v204h1640v-204h-1640z" />
<glyph unicode="&#x2018;" horiz-adv-x="405" d="M0 1495q0 68 47 68q33 0 86 -88q66 -106 76 -117l94 -74q62 -53 62 -94q0 -49 -36 -80t-85 -31q-84 0 -168 168q-76 150 -76 248z" />
<glyph unicode="&#x2019;" horiz-adv-x="284" d="M27 1229q0 88 30 209q43 155 108 155h1q43 0 43 -92q0 -23 -3 -70t-3 -69q0 -37 24.5 -106.5t24.5 -108.5q0 -41 -29.5 -66.5t-72.5 -25.5q-123 0 -123 174z" />
<glyph unicode="&#x201c;" horiz-adv-x="468" d="M0 1247q0 49 91 199.5t130 150.5q29 0 86.5 -31.5t100.5 -72.5q8 -8 8 -29q0 -66 -55.5 -162t-104.5 -96q-27 0 -44 18l-34 33q-27 -45 -82 -102q-29 0 -62.5 31t-33.5 61z" />
<glyph unicode="&#x201d;" horiz-adv-x="464" d="M0 1495q12 39 74 59q47 16 96 17q102 0 171 -78t69 -180q0 -274 -93 -275q-55 0 -69 64q-10 55 -21 108l-39 -72q-20 -36 -77 -36q-49 0 -70 82q-12 47 -21 170q-8 111 -20 141z" />
<glyph unicode="&#x2026;" horiz-adv-x="1215" d="M74 -29v105q-2 51 55 86q43 26 77 26h3q49 0 88 -88q31 -69 31 -98t-34 -54.5t-69 -31.5q-18 -4 -35 -4q-74 0 -116 59zM479 -29v105q-2 51 55 86q43 26 77 26h3q49 0 88 -88q31 -69 31 -98t-34 -54.5t-69 -31.5q-18 -4 -35 -4q-74 0 -116 59zM884 -29v105q-2 51 55 86 q43 26 77 26h3q49 0 88 -88q31 -69 31 -98t-34 -54.5t-69 -31.5q-18 -4 -35 -4q-74 0 -116 59z" />
<glyph unicode="&#x202f;" horiz-adv-x="375" />
<glyph unicode="&#x2039;" horiz-adv-x="763" d="M0 649q0 76 121 154l184 108q63 41 139 115q20 20 39 21q35 0 62 -56q20 -42 20 -77v-9l-2 -14q-2 -53 -52 -83t-99 -54q-63 -39 -121 -97q25 -27 149 -59q139 -37 199 -74q98 -60 98 -162q0 -26 -34 -26h-3q-135 0 -401 102q-299 113 -299 211z" />
<glyph unicode="&#x203a;" horiz-adv-x="649" d="M0 973q0 37 18 74q23 45 56 45q6 0 14 -5l307 -112q238 -99 238 -160q0 -94 -192.5 -285.5t-286.5 -191.5q-41 0 -41 59q0 84 96 176q133 127 149 154q2 68 -90 92q-88 16 -174 35q-94 31 -94 119z" />
<glyph unicode="&#x205f;" horiz-adv-x="469" />
<glyph unicode="&#x2122;" horiz-adv-x="2086" d="M0 1182q0 78 403 151q338 59 502 60h115q119 0 162 -2q80 -6 80 -74q0 -63 -80 -86q-6 -2 -264 -12q-207 -10 -216 -60q-10 -57 -16 -213v1v-425q0 -262 -35 -420q-25 -106 -73 -106q-61 0 -62 266q0 86 6 254t6 254q0 344 -92 344q-41 0 -138 -45t-140 -45 q-158 0 -158 158zM1280 1159q0 33 21.5 70t54.5 37q55 0 176 -170l151 -232l111 193q88 141 135 141q115 0 115 -473q0 -807 -129 -807q-59 0 -60 152q0 96 21.5 290.5t21.5 292.5q0 176 -41 176q-33 0 -135 -201.5t-141 -201.5q-47 0 -47 88q0 49 21.5 91t21.5 79 q0 33 -55 113q-43 -98 -60 -324q-10 -170 -22 -340q-10 -92 -56 -92q-37 0 -63 51q-23 43 -23 84q0 84 10.5 250t10.5 248q0 166 -15 280q0 6 -16 103q-8 61 -8 102z" />
<glyph unicode="&#xe000;" horiz-adv-x="995" d="M0 995h995v-995h-995v995z" />
<glyph unicode="&#xfb01;" horiz-adv-x="1204" d="M0 614q0 25 24.5 52.5t61.5 31.5h-1h75q66 0 92 50q20 158 90 362q96 274 190 274t207 -180q105 -170 105 -274q0 -61 -58 -62q-70 0 -128 121t-103 121q-55 0 -117 -139q-55 -127 -55 -193q0 -41 49 -41q51 0 152.5 13.5t152.5 13.5q80 0 80 -35q0 -49 -174 -82 q-188 -35 -215 -69q-43 -57 -43 -121q0 -84 64 -215q8 -20 63 -76q49 -47 49 -68q0 -59 -69 -59q-106 0 -150 117l-51 231q-33 131 -111 154l-108 12q-72 12 -72 61zM860 0q0 41 12 104q18 86 21 103q4 25 24 338q2 33 23.5 66.5t52.5 33.5q119 0 119 -180q0 -66 -51 -303 q-53 -252 -77 -269.5t-44 -17.5q-37 0 -62 45q-18 39 -18 80zM954 967q0 37 44 94t77 57q41 0 79 -42t38 -83q0 -37 -56.5 -82t-93.5 -45q-88 0 -88 101z" />
<glyph unicode="&#xfb02;" horiz-adv-x="1161" d="M0 614q0 25 24.5 52.5t61.5 31.5h-1h75q66 0 92 50q20 158 90 362q96 274 190 274t207 -180q105 -170 105 -274q0 -61 -58 -62q-70 0 -128 121t-103 121q-55 0 -117 -139q-55 -127 -55 -193q0 -41 49 -41q51 0 152.5 13.5t152.5 13.5q80 0 80 -35q0 -49 -174 -82 q-188 -35 -215 -69q-43 -57 -43 -121q0 -84 64 -215q8 -20 63 -76q49 -47 49 -68q0 -59 -69 -59q-106 0 -150 117l-51 231q-33 131 -111 154l-108 12q-72 12 -72 61zM880 1126q0 39 82 39h1q153 0 153 -237q0 -199 -18 -451q-27 -367 -76 -407q-10 -8 -25 -9 q-31 0 -60.5 47.5t-29.5 79.5q0 119 33 354.5t33 354.5q0 162 -64 199q-29 16 -29 30z" />
<glyph unicode="&#xfb03;" horiz-adv-x="2064" d="M0 614q0 25 24.5 52.5t61.5 31.5h-1h75q66 0 92 50q20 158 90 362q96 274 190 274t207 -180q105 -170 105 -274q0 -61 -58 -62q-70 0 -128 121t-103 121q-55 0 -117 -139q-55 -127 -55 -193q0 -41 49 -41q51 0 152.5 13.5t152.5 13.5q80 0 80 -35q0 -49 -174 -82 q-188 -35 -215 -69q-43 -57 -43 -121q0 -84 64 -215q8 -20 63 -76q49 -47 49 -68q0 -59 -69 -59q-106 0 -150 117l-51 231q-33 131 -111 154l-108 12q-72 12 -72 61zM860 614q0 25 24.5 52.5t61.5 31.5h-1h75q66 0 92 50q20 158 90 362q96 274 190 274t207 -180 q105 -170 105 -274q0 -61 -58 -62q-70 0 -128 121t-103 121q-55 0 -117 -139q-55 -127 -55 -193q0 -41 49 -41q51 0 152.5 13.5t152.5 13.5q80 0 80 -35q0 -49 -174 -82q-188 -35 -215 -69q-43 -57 -43 -121q0 -84 64 -215q8 -20 63 -76q49 -47 49 -68q0 -59 -69 -59 q-106 0 -150 117l-51 231q-33 131 -111 154l-108 12q-72 12 -72 61zM1720 0q0 41 12 104q18 86 21 103q4 25 24 338q2 33 23.5 66.5t52.5 33.5q119 0 119 -180q0 -66 -51 -303q-53 -252 -77 -269.5t-44 -17.5q-37 0 -62 45q-18 39 -18 80zM1814 967q0 37 44 94t77 57 q41 0 79 -42t38 -83q0 -37 -56.5 -82t-93.5 -45q-88 0 -88 101z" />
<glyph unicode="&#xfb04;" horiz-adv-x="2021" d="M0 614q0 25 24.5 52.5t61.5 31.5h-1h75q66 0 92 50q20 158 90 362q96 274 190 274t207 -180q105 -170 105 -274q0 -61 -58 -62q-70 0 -128 121t-103 121q-55 0 -117 -139q-55 -127 -55 -193q0 -41 49 -41q51 0 152.5 13.5t152.5 13.5q80 0 80 -35q0 -49 -174 -82 q-188 -35 -215 -69q-43 -57 -43 -121q0 -84 64 -215q8 -20 63 -76q49 -47 49 -68q0 -59 -69 -59q-106 0 -150 117l-51 231q-33 131 -111 154l-108 12q-72 12 -72 61zM860 614q0 25 24.5 52.5t61.5 31.5h-1h75q66 0 92 50q20 158 90 362q96 274 190 274t207 -180 q105 -170 105 -274q0 -61 -58 -62q-70 0 -128 121t-103 121q-55 0 -117 -139q-55 -127 -55 -193q0 -41 49 -41q51 0 152.5 13.5t152.5 13.5q80 0 80 -35q0 -49 -174 -82q-188 -35 -215 -69q-43 -57 -43 -121q0 -84 64 -215q8 -20 63 -76q49 -47 49 -68q0 -59 -69 -59 q-106 0 -150 117l-51 231q-33 131 -111 154l-108 12q-72 12 -72 61zM1740 1126q0 39 82 39h1q153 0 153 -237q0 -199 -18 -451q-27 -367 -76 -407q-10 -8 -25 -9q-31 0 -60.5 47.5t-29.5 79.5q0 119 33 354.5t33 354.5q0 162 -64 199q-29 16 -29 30z" />
</font>
</defs>
</svg>
