<?xml version="1.0" standalone="no"?>
<!DOCTYPE svg PUBLIC "-//W3C//DTD SVG 1.1//EN" "http://www.w3.org/Graphics/SVG/1.1/DTD/svg11.dtd" >
<svg xmlns="http://www.w3.org/2000/svg">
<metadata></metadata>
<defs>
<font id="pwsmalliconsmedium" horiz-adv-x="1413" >
<font-face units-per-em="2048" ascent="1638" descent="-410" />
<missing-glyph horiz-adv-x="614" />
<glyph horiz-adv-x="2048" />
<glyph horiz-adv-x="2048" />
<glyph unicode="&#xd;" horiz-adv-x="681" />
<glyph unicode=" "  horiz-adv-x="614" />
<glyph unicode="&#x09;" horiz-adv-x="614" />
<glyph unicode="&#xa0;" horiz-adv-x="614" />
<glyph unicode="0" horiz-adv-x="1517" d="M692 1114q176 12 232 -4q63 -18 120 -102l23 -35h68q61 0 143 6q63 4 88 -2t31 -27q4 -16 -11 -217q-14 -219 -22 -448q-2 -59 -7 -82t-19.5 -27t-550 -4t-549.5 4q-49 12 -66 43q-6 14 -7 32.5t5 80.5q6 96 6 354q0 180 1 222t9 50q23 27 60 15q14 -6 110.5 -9t116.5 1 q16 2 33 34q29 57 70.5 83t115.5 32zM876.5 1012q-24.5 6 -34.5 4q-2 0 -18.5 -1t-26.5 -3q-25 0 -33 -5.5t-25 -25.5q-25 -33 -94 -113l-45 -57q53 49 84 78q123 115 158 115q6 0 6 -5.5t-43 -54.5t-78 -84q-33 -31 -33 -37q0 -14 107 82q72 66 88 80q16 12 14 16.5 t-26.5 10.5zM705 985q23 18 21.5 22.5t-30.5 0.5q-12 -4 -108 -97.5t-139 -146.5q-45 -49 -93 -115l-53 -69l82 82q104 106 184 190q103 106 136 133zM901.5 946q24.5 33 22.5 39q-4 12 -197 -164q-2 -4 29 0q20 2 32.5 9.5t42.5 37.5q46 45 70.5 78zM717 971q12 14 7 14 t-128 -125q-283 -291 -299 -301q-12 -6 -10 -55l2 -51l41 51q92 111 125 174q10 23 53 63q47 45 119 129q67 74 90 101zM801 958q4 6 8 10.5t6 6.5v4q-6 0 -57 -43t-86 -78l-58 -53l25 4q25 4 84 68q58 56 78 81zM956 940q0 6 -10 21l-12 14l-6 -17q-8 -16 -58 -69l-51 -53 l68 49q65 49 69 55zM971 915q0 12 -43 -16q-23 -16 -84 -59q-14 -10 -13.5 -14.5t17.5 -8.5q18 -4 26 -8q10 -2 54 47q43 51 43 59zM993 885q0 27 -45 -25l-33 -37l39 27q39 29 39 35zM1028 866q2 14 -24 2q-16 -10 -48 -32l-55 -39l21 -13l18 -12l43 43q43 47 45 51z M1081 864q4 2 0 4t-12 2q-18 -2 -63 -49q-59 -63 10 -10q24 18 65 53zM1188 868q0 2 -10 2q-29 -2 -40.5 -8t-23.5 -24q-16 -23 -61 -62q-45 -35 -45 -39t69 54q59 45 82 59q29 14 29 18zM1290 865q0 5 -34.5 5t-34.5 -8t-27 -33q-18 -20 -20.5 -25t6.5 -11q8 -8 17 -4 t44 30q49 41 49 46zM328 854q-2 2 -23 6q-18 2 -20 0t0 -18l2 -23l20 17zM457 795l57 69q-2 0 -115 -112q-82 -82 -98 -100.5t-16 -37.5q2 -23 6 -22q8 6 57 70q50 65 109 133zM1110 858q0 14 -59 -37q-53 -43 -72 -51q-14 -6 -16 -10t2 -12q8 -12 12 -13q10 0 71.5 57.5 t61.5 65.5zM334 809q37 49 26 47q-8 0 -41 -27l-34 -26v-64q0 -59 6 -57q18 23 47 57l41 52l-29 -21q-51 -37 -47 -14q2 14 31 53zM408 852q0 6 -11.5 6t-40.5 -41q-39 -49 -34 -51q2 0 20 14q20 16 43 41t23 31zM483 856q0 2 -15 2t-60 -53q-82 -96 -76 -96q4 0 63 59 q88 86 88 88zM1180 834q25 25 20 24q-2 0 -37 -22.5t-41 -28.5l15 -2q18 2 43 29zM1264 813l4 10q-4 -2 -37 -28q-37 -29 -37 -41.5t3 -12.5t31 30t36 42zM1284 778q0 35 -2 35t-20 -20q-14 -20 -41 -47t-27 -43.5t6 -16.5t45 31l39 26v35zM1096 782q25 27 -27 -16 q-23 -18 -53 -43l-21 -16l11 -29q10 -29 10 -68l2 -41l41 41q39 41 35 52.5t-15 5.5q-10 -4 -20 -6.5t-17.5 -1t-7.5 5.5q0 25 35 57q16 14 16 31q1 18 11 28zM1268 555q10 164 8 166t-4 -2t-4 -10q-6 -14 -195 -203q-190 -188 -205 -211q-4 -6 -2 -6q8 4 49 45 q59 57 88 80.5t117 89.5q96 72 101 67q2 0 -8.5 -13t-31 -34.5t-42.5 -46.5q-59 -59 -113.5 -122.5t-54.5 -71.5l10 8q10 10 28.5 27.5t41.5 39.5q61 59 108 95t55 28q16 -16 -55 -96q-55 -59 -51 -61q2 0 29 20q72 59 84 47q14 -12 -27 -65q-8 -10 -13 -18.5t-6 -12.5 t-1 -6q6 -2 32 16q45 29 41 -2q0 -4 -2 -8q-6 -20 4 -21q8 0 8 58q1 61 11 223zM809 709q-45 2 -57 4q-20 4 -63.5 -3.5t-61.5 -17.5q-100 -51 -101 -151q0 -59 38 -100.5t104 -49.5q104 -12 178 62q57 55 64.5 127.5t-40.5 107.5q-22 17 -61 21zM1085 702q0 12 -2 13 q-4 2 -20 -19q-18 -25 -10 -24q4 0 16 6q16 8 16 24zM1222 675q3 9 1 9q-10 0 -118 -105.5t-130 -136.5q-12 -18 45 33q27 27 65 66q134 125 137 134zM1143 639h-19q-18 0 -63 -45t-51 -72l-2 -14q6 0 65 59q70 68 70 72zM420 567.5q0 22.5 -2 22.5t-49 -60l-47 -59l43 37 q41 37 47 37q8 0 8 22.5zM428 469q-4 14 -8 35l-4 22l-10 -18q-14 -23 -46 -68l-36 -49l43 35q43 35 55 33q6 -2 7 0t-1 10zM381 492q14 20 10 20q-2 0 -41 -35q-35 -33 -51 -41q-12 -8 -16 -39q-6 -33 -2 -37q2 0 16 17.5t36.5 48.5t47.5 66zM1083 440l52 60 q-6 -2 -93.5 -75t-115.5 -101l-47 -50h34l35 2l39 54q37 47 96 110zM1192 446q10 14 8 19q-10 8 -139 -117l-76 -72l86 -2q59 0 71.5 2.5t12.5 10.5q0 12 25 43q43 55 30 55q-4 0 -53 -41q-76 -61 -86 -61q-23 0 53 84q54 59 68 79zM446 422q-12 25 -16 24q-4 2 -8 -10 q-2 -12 -57 -84q-47 -63 -41 -63q2 0 6 2q18 10 59 55t47 45q10 0 15 -16q12 -29 -27 -76q-14 -18 -12 -19t39 23q51 35 71 12q6 -8 4 -22l-4 -19l158 2h160l20 29q16 23 15 26t-25 -12q-70 -37 -151 -37.5t-148 33.5q-25 12 -59 46t-46 61zM391 408q23 35 16.5 34.5 t-71.5 -63.5q-43 -41 -53.5 -54.5t-8.5 -25.5q2 -20 9 -20q4 -2 38.5 40t69.5 89zM442 352q14 45 -55 -26l-47 -52h22q16 0 24.5 6.5t25.5 26.5q26 33 30 45zM516 301q0 18 -43 0q-57 -27 0 -27q25 0 34 6.5t9 20.5zM1229 291q4 10 -2 8q-6 0 -23 -12l-20 -13h22q20 0 21 5z " />
<glyph unicode="1" horiz-adv-x="1896" d="M1352 1225q88 4 221 1t147 -9q18 -6 35 -31q18 -25 20.5 -65t-12.5 -79q-12 -33 -12 -43q0 -29 -102 -278q-184 -451 -207 -475q-12 -14 -35 -15.5t-37 9.5q-12 8 -231 10q-188 0 -421 6t-296 12q-57 6 -82 25q-55 39 -84 178q-18 82 -72 256q-98 328 -98 379q0 18 23 41 q14 16 27.5 21.5t70.5 13.5q170 20 254 2q55 -12 95 -45t56 -78q8 -27 11 -27q2 -2 8 10q4 14 16 78q10 55 24.5 71.5t51.5 14.5q39 -1 629 17zM1671 1102l2 18l-188 -2q-332 0 -633 -14l-98 -4l-13 -51q-14 -53 -10 -56q2 -2 250 6q352 10 391 -10q45 -25 37 -88 q-6 -49 5 -167t28 -199l4 -19l12 29q68 156 123 297t55 159q0 14 15 50q16 41 20 51zM317 1085q0 4 -41 -28q-39 -33 -51 -37q-10 -2 -8 -14.5t16 -59.5l11 -37l65 78q63 78 62 82q-2 2 -39 -27q-72 -57 -86 -57q-23 0 33 57q38 41 38 43zM369 1085l-15 2q-10 0 -42.5 -28.5 t-32.5 -36.5q0 -2 18 11.5t41 29.5t31 22zM268 1069q12 12 6 12h-6q-2 -2 -8 -2t-15 -1t-16 -1q-20 -2 -23 -5t-1 -17q4 -20 8 -25q2 -2 24.5 13.5t30.5 25.5zM442 1077q-20 8 -34.5 1t-36.5 -36q-33 -43 -56 -67q-25 -27 -18 -27q6 2 45 37q47 41 76 64q32 26 24 28z M502 1040q-18 23 -27.5 23t-19.5 -27q-10 -31 -78 -104q-55 -55 -51 -55t116 81q63 47 68 48q16 0 -4 28q-2 2 -4 6zM446 1044l5 13q-2 0 -146 -121q-39 -33 -47 -39q-10 -4 33 -147q47 -152 63 -232q31 -141 56 -141q6 0 32 47q27 43 72 111q51 72 207 249q47 53 43 56 q-2 0 -8 -4q-33 -27 -146.5 -148t-156.5 -178q-29 -37 -43 -41q-23 -4 -23 6q4 23 127 158q188 209 207 244q4 8 3 10t-9 2q-27 0 -199 -187q-139 -152 -151 -133q-2 6 62.5 87t137.5 165q68 76 57.5 76t-126.5 -111q-145 -137 -158 -122q-2 4 -2 10t117 121q76 74 95 95 t13 28q-10 10 -16 10t-62 -49q-123 -113 -153 -97q0 2 8 13.5t24.5 29t36.5 37.5q76 78 97 105q18 20 14 20t-121 -84q-115 -84 -117 -65q0 8 72 82q92 95 102 124zM528 967q0 20 -24 -15q-12 -16 -80 -86q-57 -59 -45 -57q12 4 90 74q66 59 63 69q-4 7 -4 15zM494 805 q29 27 51 49.5t33.5 34.5t9.5 12q-12 -2 -123 -113l-88 -92q8 7 117 109zM1044 838l54 59l-39 -2q-168 -4 -178 -6l-138 -4l-12 -19q-45 -59 -192 -227q-137 -152 -127 -152q6 2 53 60q53 63 153.5 168.5t124.5 126.5q47 35 48 12q0 -8 -101 -125q-100 -115 -145 -174 q-86 -119 -94 -149q16 4 182 212q78 98 149.5 175t83.5 77q8 0 8 -8q0 -18 -159 -209q-135 -164 -162 -204l-18 -35l20 18q43 35 164 182q59 74 149 168.5t101 94.5q23 0 -17 -62q-27 -37 -129 -164q-219 -268 -202 -284q10 -10 81 82q82 102 220 251q108 122 122 138z M1303 891q0 6 -82 6h-82l-9 -20q-18 -51 -151 -191q-119 -127 -188 -231l-27 -41l33 32q31 33 129 148q92 113 174 190q78 76 90 93q10 16 14 10q6 -6 -20.5 -52.5t-63.5 -89.5q-137 -166 -186 -241q-47 -70 -39 -66q16 6 131 144q104 121 256 280q21 23 21 29zM608 817 q63 70 56 72q-29 0 -183 -189l-69 -86q6 2 57 58q76 82 139 145zM1114 872q20 37 -24 -10q-14 -12 -31 -31q-12 -12 -57.5 -62t-67.5 -75q-129 -141 -211 -243q-23 -29 -49 -58l-25 -26l68 -5q68 -4 139 -4h37t19.5 2t8.5 4.5t1 6.5q-4 14 58 104t148 195l35 43 q-4 -4 -12 -13q-39 -39 -115 -129q-63 -74 -122.5 -134t-69.5 -60q-6 0 -6 4q2 6 75 115q66 102 107 151q141 172 141 177t-38 -32.5t-94 -100t-107 -122.5q-180 -207 -189 -184q0 8 42 70.5t77 109.5q33 41 113 125q122 127 149 182zM934 815q8 12 15 21.5t9 15.5l5 6 q-6 0 -106.5 -108.5t-139.5 -157.5q-119 -143 -158 -174q-53 -39 -41 -6q18 49 139 192q115 141 134 164l53 68l-45 -45q-43 -41 -107 -119q-18 -23 -63 -79t-58 -71q-61 -78 -98 -114l-37 -37h35q33 0 84 -4l49 -5l8 25q12 41 187 254q110 135 135 174zM1255 614l56 54 l-6 94l-5 96l-32 -43q-33 -45 -90 -110q-104 -123 -166 -209q-66 -88 -60 -90q8 0 162 153q47 51 90 93t67.5 64.5t24.5 20.5q0 -23 -127 -196l-59 -84l47 51q51 57 98 106zM1219 633q14 20 12 24q-2 2 -148 -147l-145 -150l135 -4q141 -2 184 0l50 4l16 27q33 49 8 47 q-18 -2 -57 -28q-61 -37 -62 -25q0 4 29 41q72 96 68 100q-2 0 -22.5 -17.5t-51.5 -45.5q-127 -115 -131 -82q0 6 74 82q137 143 137 170q0 12 -2 14t-10 -4q-8 -4 -117 -119q-121 -123 -129 -123q-4 6 71 111q30 39 91 125zM1331 535q-8 57 -10 59q-2 0 -5 -3t-7 -8 t-11 -12q-18 -27 -88 -96q-18 -18 -33.5 -35.5t-23.5 -27t-6 -9.5q6 0 67 56q61 57 82 71.5t27 8.5q12 -10 -45 -90l-29 -41l33 20q33 20 49 21q10 0 13.5 3t-1.5 11q-2 15 -12 72zM1356 383l-8 27v-7q0 -8 -15 -26l-12 -19h20q14 0 16.5 3.5t-1.5 21.5z" />
<glyph unicode="2" horiz-adv-x="1613" d="M1106 1325q8 10 24.5 11t83.5 -1q102 -6 127 -16t25 -47q0 -35 -37 -51q-4 -2 -10 -88l-4 -86l86 -56q72 -47 86 -65.5t-2 -48.5q-20 -41 -80 -17q-4 2 -6 -6q-6 -18 -8 -270q-2 -229 -7.5 -276.5t-31.5 -65.5q-12 -10 -56.5 -12.5t-281.5 -2.5q-489 2 -541 27 q-35 16 -45 82.5t-12 298.5q-4 242 -6 242t-23 -13q-33 -20 -60.5 -8t-27.5 47q0 20 17.5 37.5t125.5 93.5q223 160 326 211q78 39 134 34t155 -62q66 -37 67 -37q2 -2 2 24q0 29 -12 35q-25 10 -26.5 38t18.5 48zM911 1169q4 2 -10 2q-43 -2 -65 -10q-27 -12 -135.5 -79.5 t-108.5 -73.5l80 39q78 39 157.5 79.5t81.5 42.5zM893 1124q59 25 55 27q-14 0 -30 -8q-29 -14 -80 -35q-123 -51 -123 -61l14 6q14 6 41 16q62 30 123 55zM985 1135q-8 4 -12 3t-29 -22l-31 -24q2 -2 29 12q35 16 43 16q18 0 8 10q-2 3 -8 5zM915 1110q20 16 17 16 q-8 0 -96 -41t-142 -69q-172 -90 -172 -115q0 -6 2 -8t6 0q2 2 10.5 7t23 14.5t26.5 17.5q55 35 178 96q129 66 147 82zM1126 1047q-100 68 -108 67q-4 0 -19 -10q-12 -10 -90 -49q-150 -76 -250 -142q-53 -35 -92 -65.5t-37 -32.5q14 -14 107 53q88 61 135 76q16 4 84 49 q111 72 168 88q41 12 41 -6q0 -6 -74 -53q-117 -74 -112 -84l8 4q12 4 96 53q35 20 54.5 30.5t32.5 17t17.5 5.5t4.5 -6q0 -10 -56 -45q-53 -35 -73 -51l-15 -12l23 12q6 4 51 29q31 18 73 34.5t46 10.5q6 -4 -6 -12q-31 -16 -66 -43t-35 -31q0 -2 6.5 0t17.5 7t25 13 q35 18 66 28.5t35 2.5q2 -2 -12.5 -11t-34.5 -22q-55 -37 -56 -47q2 -4 68 29q70 33 82 31t8 2q-7 8 -113 80zM1024 1061q14 8 2 8q-29 0 -174 -94l-72 -47h39q27 0 34 3t15 15q13 23 156 115zM803 1028q0 2 -8.5 -2t-73.5 -37q-137 -70 -178 -106q10 0 135 69.5t125 75.5z M1034 954l25 25q-4 0 -39 -20.5t-39 -24.5q-6 -6 8 -6q16 -1 45 26zM940 944q10 12 9 13t-27 -13q-20 -16 -9 -16q17 0 27 16zM1292 928q2 4 -18 18q-23 14 -23 9t-39 -31q-68 -49 -88 -76q8 4 62 41q53 35 80 37q24 0 26 2zM1174 913q51 37 47 41q-6 0 -70 -34 q-63 -33 -64 -46q0 -6 -4 -124l-6 -113l21 16q80 59 119 78q12 4 19 10.5t5 8.5q-10 16 -61 -21q-70 -51 -82 -39q-18 18 73 94q94 78 84 80q-14 0 -88 -47q-59 -37 -59 -22q-2 6 6 20q8 16 4 16q-2 0 -6 -2q-16 -6 -16 7q-2 8 10 20q13 14 68 57zM1085 934l13 12 q-4 0 -21.5 -9t-17.5 -11q-1 -12 26 8zM1270 913l-2 2q-8 0 -35 -13t-27 -15t15.5 3t31 12t17.5 11zM1284 727q2 47 2 88v64l-2 22q-18 -2 -113 -51q-18 -10 -34 -29l-17 -18l17 10q4 2 12 8t21.5 13.5t21.5 13.5q68 41 84 26q2 -2 2 -6q0 -14 -107 -102q-74 -61 -65 -68 q4 -2 41 25q66 49 94 43q33 -8 10 -31q-8 -6 -22 -14q-20 -8 -59.5 -33.5t-69 -49.5t-25.5 -28q2 -2 84 37q121 57 111 41q-6 -12 -70 -57q-72 -45 -96 -68l-23 -18l41 22q121 68 140 43q2 -6 -48 -43q-80 -59 -133 -114q-4 -6 -2 -7q6 4 66 41q92 61 125 64h12zM592 885 q10 6 12 8l-18 -6q-16 -8 -43 -17q-18 -6 -22.5 -10t-4.5 -16q0 -18 2 -18.5t31 24.5q31 27 43 35zM702 883v12q-4 0 -49 -33q-88 -61 -123 -61q-10 0 -12 -4t-2 -19q0 -23 4 -22.5t55 35.5q29 18 89 55q36 23 38 37zM694 838q2 8 -6 6t-35 -19l-37 -26q2 0 33 12 q41 19 45 27zM977 788v31h-86h-86v-96l2 -94l33 -4q37 -4 80 -7h49l4 70q4 75 4 100zM693 805q3 8 -5 6q-12 -2 -88 -39l-84 -43v-57v-60l21 19q18 18 65 49q35 23 59.5 45.5t18.5 28.5q-4 4 -23 -11q-74 -53 -106 -57q-29 -2 -29 4q2 8 86 58q82 49 85 57zM698 651 q2 59 2 96v39q-2 0 -14 -8t-2 -12q27 -10 -12 -51q-20 -20 -15 -21q2 0 5 2q12 2 12 -2q2 -8 -15 -30l-14 -25h14q16 0 16.5 -4t-46.5 -51q-35 -37 -33 -37q2 -2 12 6q47 31 47 4q0 -14 -61 -76q-53 -51 -49 -53q2 0 37 25q27 16 45 18t22 -12q2 -10 -37 -51t-39 -46 q0 -2 9.5 2.5t23.5 10.5q59 29 58 6q-2 -10 -15 -25l-12 -16h20h23l8 88q8 84 10 223zM614 729l2 6l-61 -37q6 0 31.5 13.5t27.5 17.5zM629.5 651.5q29.5 26.5 25.5 26.5q-2 0 -65 -41q-66 -43 -66 -55q-2 -8 5.5 -5t31.5 19q39 29 68.5 55.5zM1200 651l-53 -22l-2 -2h-2 l-2 -2l-2 -2h-4q-41 -20 -51.5 -28.5t-10.5 -21.5v-16l27 21q25 20 63 47q37 24 37 26zM590 563q63 63 59 63.5t-51 -31.5t-61.5 -44t-12.5 -33q0 -14 9.5 -8t56.5 53zM1229 596q8 8 0 6q-31 -6 -119 -57l-45 -27v-29v-30l47 41q43 39 78 67q8 4 17.5 11.5t14.5 12.5t7 5z M637 547q6 8 4 8q-4 0 -43 -27q-43 -31 -57 -36q-18 -8 -19 -33v-25l56 51q55 50 59 62zM1257 522q23 10 23 12.5t-10 2.5q-29 2 -142 -74q-47 -35 -55 -35q-4 0 -10 -21.5t-2 -25.5q0 -2 25.5 16.5t60.5 44.5q83 66 110 80zM909 514q-57 4 -78 4q-25 0 -28.5 -10t-7.5 -76 q-4 -59 -9 -78l-4 -22h84h84l4 35q2 31 4 88l3 55zM1284 465q0 53 -6 53q-4 0 -66.5 -45t-62.5 -47l6 2q4 2 13.5 6t19.5 8q29 14 53.5 19.5t26.5 -4.5q4 -6 -37 -27q-29 -18 -72 -55t-39 -41q2 -2 84 37l80 39v55zM637 457q0 12 -62 -23q-37 -23 -44 -34t1 -40 q4 -14 12.5 -14t12.5 12.5t43 55.5q37 41 37 43zM1221 438q0 16 -138 -73q-43 -29 -10 -31q2 -2 4 -2q18 0 49 33q35 35 64 53q31 18 31 20zM635 358q16 18 10 18.5t-37 -14.5q-25 -12 -24.5 -14t12.5 -4q19 -4 39 14zM1221 362.5q0 4.5 -33 -14.5q-20 -12 -21 -16 q6 0 30 13t24 17.5zM1284 348q0 16 -6 16.5t-27 -16.5l-22 -16h28q18 0 22.5 3t4.5 13z" />
<glyph unicode="3" horiz-adv-x="1572" d="M711 1225q35 4 105.5 3t103.5 -7q301 -59 393 -359q8 -25 15 -34t30 -21q96 -53 94 -170q0 -98 -54.5 -157.5t-111.5 -24.5q-27 16 -36 48t-11 134q-4 102 -16.5 155.5t-48.5 125.5q-35 68 -82.5 108.5t-120.5 67.5q-139 51 -292 14t-253 -145q-51 -57 -92 -154 q-12 -29 -23 -31q-10 -4 -10 -140t-12 -161q-20 -43 -74 -43q-18 0 -28.5 6t-30.5 27q-57 59 -60 158q0 51 19 88q31 61 90 86q12 6 18 15t15 40q31 100 111.5 186t191.5 134q88 39 170 51zM696 1063q43 6 108.5 3t102.5 -13q137 -37 218 -145.5t81 -260.5q0 -201 -129 -332 t-327 -131q-94 -2 -162 27t-133 92q-51 51 -78 107q-53 111 -45 224.5t78 213.5q49 74 129 131q51 39 57 51q14 21 100 33zM872 950q-41 10 -94 10.5t-96 -20.5q-90 -43 -153.5 -114.5t-82.5 -153.5q-18 -72 3 -150q35 -135 154.5 -197.5t256.5 -17.5q106 35 168 121 q72 96 72 223q0 113 -62 193.5t-166 105.5zM592 750q27 27 59 12q31 -14 31 -51q0 -14 -19.5 -33t-36 -19t-35 18.5t-18 35.5t18.5 37zM829 750q27 27 60 12q31 -14 31 -51q0 -14 -19.5 -33t-36 -19t-35 18.5t-18.5 35.5t18 37zM569 557q16 6 27.5 4t48.5 -20q45 -25 84 -25 t80 14q47 16 70.5 11.5t31.5 -33.5q14 -49 -45 -72q-141 -53 -250 -2q-43 18 -59 35q-18 20 -15.5 49t27.5 39z" />
<glyph unicode="4" horiz-adv-x="1593" d="M1366 1130q18 8 43 5.5t39 -15.5q35 -35 20 -104q-6 -35 -18 -60q-14 -23 -47 -51t-49 -31l-17 -4l-24 -133q-29 -154 -52.5 -228.5t-58.5 -121.5l-18 -22l28 -31q68 -68 33 -164q-23 -59 -71 -91t-105 -24q-96 10 -137 76t0 143q14 29 10 31q-2 2 -172 -2 q-168 -6 -168 -14q4 -8 8 -43t-14 -70q-35 -70 -109.5 -101.5t-138.5 -4.5q-41 18 -64.5 58t-23.5 91q0 57 16.5 89t65.5 69l20 16l-18 35q-18 35 -32.5 72t-22.5 45q-8 6 -13 30q-4 23 -18 76.5t-35 65.5q-25 14 -25.5 45t23.5 45q12 6 457 4q299 0 373.5 -2t83.5 -10 q12 -10 32 -15q18 -4 29 -18q8 -10 10 -4q2 4 4 16q27 156 52 217q38 104 104 135zM1184 758q-29 31 -29 4q0 -14 -8 -29.5t-19 -19.5q-8 -2 -12 -13.5t-8 -48.5q-4 -31 3 -30.5t15 -22.5q18 -41 -16 -66q-12 -8 -12 -38q0 -33 -6 -50q-4 -10 -3 -12t9 2q47 27 88 211 q14 68 14 83.5t-16 29.5zM408 670v41h-78h-76l12 -45q14 -55 23 -54q4 0 10 6q6 8 57 9h52v43zM434 664q-4 35 -8 41q-2 4 -4 -3q-2 -8 -2 -32q0 -43 9 -43t5 37zM590 692q2 4 0 6t-9.5 3t-20.5 2.5t-40 1.5h-76v-23q0 -20 5 -41l4 -20h63h62l4 30q6 33 8 41zM643 684 q-4 16 -20 18q-14 2 -18.5 -6t-10.5 -45l-2 -30h33h32l-4 24q-6 29 -10 39zM778 680l4 25h-65h-66l11 -43l10 -41h47q33 0 40 3t9 15q6 25 10 41zM842 670q-4 25 -8.5 30t-18.5 5t-20.5 -10.5t-12.5 -45.5l-4 -28l33 4q35 4 37 6q2 4 -6 39zM956 684l7 21h-58 q-55 -2 -55 -11q4 -10 8 -37l4 -30h45q33 0 38 2t5 16q0 19 6 39zM1018 690.5q-2 14.5 -21.5 14.5t-25.5 -21q-8 -20 -8 -39q0 -12 5 -15t27 -3h29v24q-4 25 -6 39.5zM1098 668l4 37h-37q-12 0 -19.5 -1.5t-11.5 -2.5t-4 -3v-4q4 -12 4 -39v-28l31 2l31 2zM399 518 q-16 0 -49 4q-27 4 -30 2t-1 -12q6 -16 31 -66l25 -49l18 9l21 6v53q0 39 -2.5 46t-12.5 7zM1036 498q-2 23 -11 25.5t-52 -3.5q-14 -2 -17.5 -7t-5.5 -36q-4 -39 -8 -51q-6 -10 8 -10q10 0 49 2q63 6 65.5 8t-9.5 23q-13 24 -19 49zM1085 492q0 25 -3 28.5t-17 3.5t-16 -6 t6 -35q10 -41 20 -38.5t10 47.5zM483 471q-12 35 -16 41t-21 6h-20v-53v-55h39q35 2 37 8zM569 475l4 35l-45 4q-45 0 -45 -2q0 -4 19 -53q10 -35 15 -42t20 -7q16 0 22 12t10 53zM758 498q0 16 -7.5 19t-43.5 -3l-17 -2l8 -33q20 -61 39 -57q21 19 21 76zM874 485l-8 33 h-47h-47v-20q0 -39 -16 -76q-4 -10 8 -10q12 -2 61 -2q74 0 74 2t-8 20q-11 18 -17 53zM938 487v31h-29h-28l4 -22q4 -25 14 -47.5t19 -24.5q4 -2 9 6t8 23.5t3 33.5zM688 469l-10 39l-45 2l-45 2l-4 -31q-6 -31 -9 -51l-4 -20h72q66 4 66 10q-11 10 -21 49zM483 260 q-20 10 -60 13t-46 -5q-16 -20 -11 -55t29 -47q14 -8 42 3t46 34q35 39 0 57zM1135 258q-20 16 -74 6q-14 -2 -26.5 -22.5t-12.5 -40.5q0 -14 4 -19.5t18 -13.5q49 -20 82 14q20 20 22.5 43t-13.5 33z" />
<glyph unicode="A" horiz-adv-x="1198" d="M913 1602q35 6 56 -5q31 -16 46 -79.5t9 -149.5q-6 -70 4 -92q57 -109 49 -459q-6 -209 -31.5 -381t-64.5 -250q-33 -63 -100 -92q-82 -35 -221.5 -36t-231.5 32q-111 41 -139 141q-37 123 -10 422q10 109 16 211q10 160 28.5 297t32.5 164q18 35 109 47q176 27 297 23 l57 -2l12 51q33 148 82 158zM682 1270l29 16h-23q-23 0 -35 -16q-8 -14 -4 -14t33 14zM754 1278q6 8 -8.5 8t-28.5 -10q-10 -8 -64 -37q-53 -31 -67 -41q-12 -10 -4 -10q4 0 26 4q37 6 88 41q50 35 58 45zM606.5 1266.5q16.5 13.5 3.5 13.5q-10 0 -20 -12q-12 -12 -6 -13.5 t22.5 12zM809 1257q31 25 14 23q-14 -2 -49 -23q-37 -23 -67 -38q-31 -14 -31 -19q0 -2 7 -1t19 1q44 6 107 57zM535 1272q4 2 -3 2q-18 2 -43 -12q-25 -12 -30 -7q-10 10 -13 -6q-2 -6 -4 -22l-4 -31l47 37q46 35 50 39zM858 1233q10 8 17.5 16t11.5 13.5t2 7.5 q-12 6 -94 -43l-39 -23l26 -2q31 0 33 -2q4 0 43 33zM551 1247l20 19q-4 0 -32 -19q-33 -20 -60.5 -42.5t-42 -40t-8.5 -21.5q0 -2 7 3t18.5 15t23.5 23q51 45 74 63zM592 1223q41 37 39 41q-6 4 -158 -111q-53 -39 -53 -68q0 -4 18.5 10.5t38 32t19.5 21.5q0 8 13 18.5 t26 14.5q16 2 57 41zM940 1212q-4 16 -7 21.5t-7 2.5t-11 -13q-10 -20 -22 -35q-8 -10 -4 -8q2 0 14 6q20 10 31 10q12 0 6 16zM901 1219q6 12 4 14t-22.5 -9.5t-32.5 -19.5l-14 -12l16 -4q29 -6 49 31zM930 1153q16 16 13 25.5t-25 -0.5q-20 -8 -22.5 -12.5t7.5 -16.5 q6 -10 10.5 -9t16.5 13zM956 1139q0 25 -24 -2l-14 -17l20 2q12 0 15 3.5t3 13.5zM489 1092l5 28q-4 0 -38 -30.5t-38 -36.5q-6 -10 -4 -33l2 -21l35 33q34 33 38 60zM967 1075q-6 39 -9 39q-6 0 -12 -22q-8 -23 0 -43q10 -23 4 -31q-6 -10 -6 -27q0 -18 12 -18q8 0 11.5 5 t3.5 26q0 26 -4 71zM815 1083q-33 23 -147 9q-70 -8 -72 -11q-2 -6 -23 -108q-31 -160 -12 -193q14 -25 98 -24q133 0 152 49q16 39 23.5 123t-0.5 123q-5 24 -19 32zM477 1028q0 12 -10 2l-10 -10l-15 -16l19 8q16 8 16 16zM461 981q12 16 10 18q-4 4 -33 -12 q-31 -18 -30 -37v-18l20 16q19 17 33 33zM956 924q20 23 11 34q-4 4 -11 3q-10 -2 -14 -27l-2 -25zM459 939q0 15 -1 15t-28 -22q-33 -27 -18 -27q8 0 22 8q25 11 25 26zM977 903.5q0 18.5 -2 18.5q-4 0 -21.5 -19.5t-15.5 -21.5q4 -2 20 0q19 4 19 22.5zM444 901 q0 2 -22 -10q-20 -10 -20.5 -22.5t12.5 -0.5q4 2 8 9q22 22 22 24zM446 860l5 21q-4 2 -29 -24t-19.5 -30t12.5 3.5t18 7t13 22.5zM971 864q0 8 -25 0q-14 -6 -14 -24v-17l18 19q21 18 21 22zM971 803l2 41q-4 0 -29.5 -31t-28.5 -39q-6 -18 -16 -37l-12 -20l41 20l41 21z M420 809q10 10 10 14l-12 -6l-4 -4q-16 -12 -12 -15t18 11zM444 799q0 14 -2 14q-4 0 -26.5 -26.5t-20.5 -28.5q6 -6 27.5 11.5t21.5 29.5zM459 747.5q0 8.5 -6 10.5q-2 2 -19.5 -11.5t-32 -29t-12.5 -17.5q4 -4 37 17.5t33 30zM963 645q8 80 6 82t-71 -43t-73 -51l27 10 l4 2q84 47 90 29q2 -8 -26 -31q-186 -145 -186.5 -149.5t9 -15.5t13.5 -11q6 0 55 39q100 70 127 69q18 0 -47 -51q-14 -10 -33 -26q-82 -61 -113 -90q-27 -23 -32.5 -23t-65 -48t-80.5 -73q-6 -6 -2 -4q8 4 62 43q80 59 175 122.5t120 74.5q23 10 28 28.5t13 116.5z M528.5 669.5q-20.5 10.5 -41.5 28.5q-14 12 -19 13.5t-15 -6.5q-12 -8 -42 -44t-28 -38t47 22q59 37 59 21q0 -4 -53 -58q-55 -53 -55 -59q0 -2 38 21.5t78 50t48 32.5q4 6 -16.5 16.5zM905 709v2q-6 -2 -56 -30t-69 -42q-31 -20 -71 -47q-39 -23 -58 -35l-16 -12l16 -4 q23 -6 168 106q39 29 64 43q22 15 22 19zM406 678q14 18 11 19t-16 -11q-16 -12 -12 -20q3 -8 17 12zM541 573l106 72l-39 6q-41 4 -47 -2l-84 -76q-111 -100 -100 -110q2 -2 31 18q14 10 133 92zM774 653q4 4 -4 4t-51 -6q-35 -4 -53.5 -14t-90.5 -68q-180 -143 -165 -151 q2 0 12 4q35 18 70.5 44t39.5 34q2 10 22.5 23.5t33 13.5t39.5 20q51 33 86 53q57 37 61 43zM877 627q41 31 38 32q-12 0 -65 -31.5t-102 -70.5q-33 -23 -39.5 -30t0.5 -13q12 -10 20 -4q4 4 55 45q34 27 93 72zM444 638q0 3 -3 1t-29 -21q-31 -18 -31 -31.5t27 13.5 q2 2 6 4q30 31 30 34zM442 559q25 23 23 23q-4 0 -47 -28t-43 -46l2 -10q4 0 18 16t47 45zM496 522q16 14 -2 2q-14 -8 -58 -39l-63 -45l4 -65q8 -121 33 -150q14 -16 16 -8v4q0 14 33 51t84 78l57 49l-18 7q-18 8 -33 -3q-2 -2 -13.5 -10t-30 -22.5t-30.5 -24.5 q-61 -47 -65 -43q-10 10 88 92q43 37 36.5 43t-6.5 21v16l-26 -20q-29 -18 -69 -39t-42 -19q-6 6 10.5 30t42.5 48q10 10 22.5 20.5t20 17.5t9.5 9zM836 498l15 15t3 5q-4 0 -51 -36t-49 -42q-6 -14 73 52q5 4 9 6zM942 459q4 29 0 30q-2 4 -130 -101t-157 -136l-34 -37 l30 21q31 20 60 47q43 35 117.5 87t89.5 56q14 2 17 7.5t7 25.5zM860 446l8 9q-6 -2 -100 -66.5t-131 -95.5q-127 -98 -141 -90q-4 2 11 19.5t38 41.5l57 58l-49 -33q-115 -80 -115 -86q0 -4 64.5 -21.5t66.5 -13.5q49 82 209 209q76 61 82 69zM926 379q6 12 4 20 q-2 12 -119 -80q-23 -16 -62.5 -55t-69.5 -71.5t-25 -32.5t46 37q31 25 91 71q61 45 88 68q41 31 47 43zM647 387q-25 6 -26 6q-8 2 -87 -68.5t-90 -91.5q-4 -6 5 -2q6 2 20 13q4 4 46 33.5t67 48.5q72 49 73 57q0 2 -8 4zM913 317l5 19q-6 4 -105 -82q-70 -63 -53 -59 q6 2 31 20q31 25 81 59q39 27 41 43zM756 291l41 41q-8 0 -84 -66q-18 -18 -51 -39q-29 -18 -52 -39l-24 -20l24 -2q16 -2 25.5 4t36.5 35q35 39 84 86zM893 252q6 16 4 16q-4 0 -49 -39t-47 -43q-4 -8 2 -6q6 0 33 13q41 18 57 59zM762 223q20 25 -6 2q-10 -8 -27 -24 q-37 -33 -27 -35q13 0 60 57z" />
<glyph unicode="B" horiz-adv-x="1253" d="M569 1409q74 8 168 -1t156 -32q78 -29 138.5 -77t86.5 -103q18 -35 10 -55q-10 -33 -51 -33q-18 0 -28.5 9t-40.5 52q-59 86 -217 125q-35 8 -131.5 8.5t-149.5 -14.5q-82 -23 -135 -57.5t-109 -102.5q-18 -20 -43.5 -20t-40.5 16q-27 35 17 93q53 74 152 125t218 67z M670 1042q158 10 260 -55q53 -35 96 -95.5t61 -125.5q12 -45 26.5 -133t10.5 -98q-16 -37 -53 -35q-16 2 -26.5 -5.5t-40.5 -33.5q-170 -160 -390 -160q-209 0 -368 148q-37 33 -62 34q-27 2 -36 18.5t-9 61.5q0 51 15 66q14 16 43 73q78 154 199.5 242t273.5 98zM852 907 q-47 25 -47 17q2 -2 16 -15q55 -41 86 -102q14 -31 17.5 -47.5t3.5 -65.5q0 -72 -13 -102q-25 -61 -49 -90q-12 -16 -10 -19q4 -4 45 32t72 69l37 43l-11 45q-16 76 -38 123q-14 31 -47 64.5t-62 47.5zM684 856q-43 12 -57.5 11t-38.5 -13q-55 -27 -88 -92q-27 -51 -25 -88 q0 -6 4 -2q2 0 14.5 10t35 27.5t40.5 33.5q90 72 111 86q29 16 29 19.5t-25 7.5zM748 827q-2 4 -9 4q-2 0 -35.5 -25.5t-33.5 -29.5q0 -2 11 4t26.5 14.5t27.5 16.5q4 4 8.5 7t5.5 6t-1 3zM758 803q12 12 6 10q-37 -14 -137 -96q-8 -6 -15 -12q-8 -6 2 0q12 6 56 34 q80 56 88 64zM385 766l12 35q-2 0 -24.5 -26.5t-38.5 -49.5q-18 -27 -43 -76t-25 -61q0 -16 62.5 -68.5t107.5 -70.5l19 -9l-17 19q-39 43 -53 84t-14 112q2 78 14 111zM793 795q-2 6 -7 4q-6 0 -42.5 -25.5t-55.5 -44.5l-22 -20l26 14q23 12 35 22q10 8 41 27 q12 6 19.5 13.5t5.5 9.5zM813 754q2 4 -2 12t-41 -14q-27 -16 -89.5 -63.5t-62.5 -51.5q0 -2 15.5 8t42.5 27q55 37 95 57.5t42 24.5zM818 718q5 5 3 15q-2 8 -41 -20q-41 -33 -53 -41l31 12q2 0 4 2q51 27 56 32zM825 672q4 4 2 18q-2 12 -14 4q-4 -4 -16 -12 q-37 -25 -56 -41l-24 -20l51 22q53 27 57 29zM580 657q8 10 2 7q-4 -2 -29 -19q-53 -37 -61.5 -47t-2.5 -27l9 -20l39 33q68 59 69 63q0 2 -33 -20q-51 -31 -57 -31q-25 0 25 31q33 20 39 30zM739 657l-2 2q-4 -2 -55 -37.5t-70 -50.5q-27 -25 -51 -36q-23 -10 -24.5 -13.5 t2.5 -9.5q4 -8 32 18q35 27 101 74q67 49 67 53zM803 606q20 41 18 43q-4 4 -49 -24.5t-67 -51.5l67 35q8 6 10 8q8 6 15 2q2 -4 -12.5 -17t-86.5 -73l-45 -41q4 0 41 25q33 23 64 37q27 14 45 57zM664 643q0 6 -74 -49q-72 -57 -72 -62q4 -4 23 13q25 23 69 57q54 39 54 41 zM682 573q23 20 18.5 20.5t-72 -45.5t-67.5 -50q0 -2 3 -4t7 -2q13 -5 111 81zM672 524q20 20 16 21q-2 0 -12 -7.5t-22.5 -15.5t-24 -17t-19.5 -16.5t-6 -7.5q8 -2 30 11.5t38 31.5z" />
<glyph unicode="C" horiz-adv-x="1642" d="M696 1311q162 29 291 -56q61 -39 103.5 -117.5t50.5 -170.5l4 -43l96 2q84 2 126 -6.5t79 -36.5q78 -59 76 -183q-2 -184 -154 -340q-111 -113 -266.5 -185.5t-331.5 -90.5q-70 -8 -174 -5t-164 17q-252 53 -403 205q-102 102 -103 248q0 127 80 211q84 90 230 106l36 4 v25q0 82 66 184q53 82 154.5 149t203.5 83zM889 1188q-37 16 -98 20l-62 2l-141 -139q-143 -143 -166 -172l-29 -35l25 -4q16 -2 28.5 6t59.5 54q92 92 181 166.5t99 68.5q6 -4 -16 -22q-10 -8 -37 -29q-45 -35 -113.5 -96.5t-114.5 -108.5t-38 -47q6 0 82 68 q295 260 313 247q4 -2 -8 -20.5t-36.5 -44t-51.5 -49.5q-92 -82 -291 -297l-14 -21q10 6 51 47q74 68 177.5 153t181 140t83.5 47q2 -8 -102 -94q-68 -57 -252 -231t-260 -254q-14 -14 -8 -10t39 36q254 242 469 387q57 37 84 60q45 31 53 14q0 -12 -109 -102 q-72 -59 -209 -184.5t-182 -172.5l-18 -20q6 4 37 35q63 59 183 152t202 147q37 23 56 35t33.5 20t15.5 6t3 -4q0 -23 -139 -141q-199 -166 -311 -285l-41 -43q2 2 6 4q84 80 201 164q223 162 249 172q14 6 17 2q0 -8 -35 -31q-33 -20 -133 -118l-70 -74q2 2 21 18 q135 109 256 183l49 28l-10 17q-10 14 -15 90q-8 104 -41.5 165.5t-103.5 94.5zM612 1122q18 18 34 37t24 28t6 9q-14 0 -56 -19.5t-73 -41.5q-43 -29 -78 -66q-25 -27 -48.5 -61.5t-19.5 -38.5q2 0 7.5 4t14.5 13t19 22q68 72 103 79q8 2 8 -4q0 -4 -39 -53l-39 -47l33 31 q36 34 104 108zM775 1079q42 37 38 41q-4 0 -33 -20q-106 -86 -243 -209q-37 -33 -43.5 -42t-1.5 -20q8 -16 12 -16t114 113q115 116 157 153zM502 1038l6 11q-16 -6 -68 -64q-31 -35 -20 -35q14 2 82 88zM932 1001q0 4 -68 -43q-160 -113 -278.5 -214t-272.5 -252 q-55 -57 -95 -93.5t-40 -33.5q-6 14 88 116.5t238 241.5q252 244 252 248q0 2 -11 -4q-63 -45 -276 -248t-270 -275q-47 -63 -47 -43q0 8 75.5 99.5t137.5 154.5q82 88 79.5 90.5t-24.5 6.5q-16 4 -32.5 -11.5t-96.5 -105.5q-117 -131 -146 -164q-18 -23 -28.5 -34 t-17.5 -18t-10 -6t-5 3q-6 8 10 22q10 12 8 15l-6 -2q-6 -2 -7 -1t1 11q4 12 71.5 111.5t108.5 154.5l17 25q-2 -4 -8 -11q-35 -37 -129.5 -163.5t-94.5 -135t31 -44.5t57 -56q174 -139 436.5 -156.5t489.5 93.5q160 78 255 193.5t93 232.5q0 76 -53 102.5t-182 9.5 q-80 -10 -90 -6q-12 4 -13 -2q0 -14 -188 -184q-88 -78 -174 -162l-51 -53q160 145 393 323q33 25 52 39t31.5 22.5t15.5 8.5t7 -2q2 -6 -94 -78t-219 -195q-92 -92 -166 -176t-90 -114q-6 -12 22 14q31 27 107 100q227 223 319 287q53 39 105 78q86 63 102 63q20 0 -51 -61 q-82 -68 -80 -72l39 27q139 98 152 90q8 -4 -4 -10q-55 -33 -182.5 -144.5t-209.5 -199.5l-51 -54l64 58q53 47 142 116.5t161 118.5t74 43q4 -6 -68 -65q-59 -49 -149.5 -135t-118.5 -123q-23 -25 0 -7q10 10 32 29q135 129 240 191q117 70 125 61q2 -2 -12.5 -18.5 t-42 -41t-60.5 -53.5q-66 -53 -98 -84l-39 -36l53 34q45 31 96.5 56.5t57.5 21.5q2 -4 -80 -82q-68 -63 -115 -112q-33 -33 -36 -33q-18 0 88 102q86 86 73 82q-63 -31 -180 -125q-94 -78 -94 -63q0 6 105.5 106.5t164.5 147.5q74 61 68 61q-2 0 -10 -4q-76 -41 -138.5 -87 t-165.5 -142q-41 -37 -65.5 -58.5t-41.5 -36t-23.5 -16.5t-8.5 0q-4 14 191 213l94 96l-72 -53q-74 -57 -168 -141q-125 -115 -133 -107q-4 4 8 21q16 20 125 129.5t152 150.5l55 52l-45 -33q-139 -106 -291 -256q-98 -96 -102 -94q-8 10 105.5 122.5t244.5 225.5 q129 111 129 112l-10 -6q-10 -6 -27.5 -17t-36.5 -26q-121 -84 -354 -317q-145 -141 -156 -141q-8 0 -10 8t6 14q6 4 23 33q29 57 178 217l72 76l-78 -66q-80 -68 -174 -158q-111 -104 -111 -92q0 2 2 4q2 8 82 95q131 145 383 370q123 109 115 111q-2 2 -6 -2 q-133 -78 -248 -171t-279 -255q-150 -145 -153 -144q-8 10 274 297l164 170q-207 -143 -393 -321q-113 -109 -113 -88q0 6 139 149q201 209 359 340q72 59 108 94l37 35l-69 -43q-88 -55 -219.5 -161.5t-249.5 -219.5q-162 -156 -162 -139v6q2 6 127 135q215 223 463 433 q94 79 94 81zM399 911q16 16 13 17q-2 0 -15.5 -14.5t-18.5 -23.5t3 -1q4 4 18 22zM348 756q0 4 -14 6q-10 2 -21.5 -9.5t-46.5 -54.5q-121 -164 -123 -184q4 4 86 102.5t100.5 117t18.5 22.5zM217 737q6 6 9 12.5t5 8.5l2 4q-2 0 -51 -17q-121 -41 -143 -141q-4 -10 -2 -10 t16 20q20 29 64.5 72t54.5 43q12 0 6 -22l-4 -25l12 16q15 16 31 39zM362 737q20 25 17 25q-2 0 -57 -66l-31 -37q4 2 14 13q41 45 57 65zM170 705q0 6 -6 6t-50 -47.5t-61 -75.5q-18 -25 -21 -35t1 -31l4 -30l16 24q27 39 72 112t45 77zM145 606q18 25 31.5 46.5t22 33.5 t6.5 12q-6 0 -85 -112.5t-77 -116.5q2 0 8 6t19.5 22.5t30.5 43t44 65.5z" />
<glyph unicode="D" horiz-adv-x="1069" d="M422 1264q43 6 85 3t56.5 -16.5t38.5 -25.5q47 -25 88 -80t60 -117q10 -35 11 -94.5t-9 -95.5q-27 -115 -111 -185.5t-192 -70.5q-111 0 -197 53t-127 145q-12 33 -17.5 95.5t5.5 103.5q14 74 63 139.5t115 102.5q53 29 131 43zM532 1147q-80 41 -180 -6 q-115 -57 -143.5 -182t53.5 -207q47 -45 118 -63.5t128 -0.5q74 27 117 97.5t37 160.5q-4 68 -38.5 120t-91.5 81zM375 1094q59 20 78 -23q14 -41 -41 -67q-31 -14 -43.5 -32t-20.5 -57q-8 -47 -18 -59q-14 -12 -35 -11t-35 15q-12 12 -13 21.5t5 44.5q19 133 123 168z M639 629q27 4 55 -6q82 -27 157 -87.5t93 -111.5q10 -37 -1 -71t-42 -52q-27 -18 -66.5 -17t-74.5 19q-115 63 -148 250q-12 70 27 76z" />
<glyph unicode="E" horiz-adv-x="1331" d="M442 1178q82 4 242 4h160l26 -31q47 -51 68 -172q2 -10 4 -21.5t4 -18.5t2 -9q2 -6 35 -12q109 -25 171.5 -105t57.5 -184q-4 -53 -24 -94q-23 -47 -70 -83t-100 -46l-25 -5l4 -36q6 -41 27 -105q18 -51 18 -71.5t-16 -32.5q-14 -12 -291.5 -31t-410.5 -14q-90 2 -124 9 t-40 30q-6 14 -6 116v103l-29 4q-76 10 -115 47q-78 72 -63 194q14 127 133 191l39 20v58q0 76 16.5 147.5t40.5 97.5q16 20 69.5 30t196.5 20zM811 1061l-10 24h-107q-106 0 -271 -9t-177 -17q-6 -4 -20.5 -83t-8.5 -85q2 0 113 14q213 31 379 35l139 4l-12 47 q-11 43 -25 70zM727 838q-2 6 -36 6t-100.5 -6.5t-156.5 -18.5q-102 -12 -110 -12q-6 0 -5 -25q0 -16 4.5 -20t18.5 -8q51 -10 183 -8t165 14q6 2 21.5 34t15.5 44zM846 821l18 15l-18 4q-16 4 -20.5 -12.5t0 -17.5t20.5 11zM846 787.5q37 37.5 35 39.5q-4 4 -37 -23.5 t-35 -37.5q-6 -12 -4 -14q4 -2 41 35.5zM944 825q-29 10 -48 -6t-108 -112q-27 -29 -26.5 -33t26.5 20q29 25 94.5 75t71.5 50q2 2 -2 4q-2 0 -8 2zM1042 782q-25 16 -47 27q-18 8 -22 7t-6 -11q-4 -12 -31 -43l-27 -29l25 19q43 27 49 14q2 -6 -14 -21q-29 -27 -15 -43 q4 -8 11.5 -5t29.5 22q37 29 54 37l20 10zM889 737q57 55 55 57.5t-63.5 -45t-104.5 -85.5q-51 -45 -170 -185q-8 -10 2 -12h23l31 4q-4 4 14 43q20 39 88 104q64 60 125 119zM258 682q-18 10 -31 43l-12 25v-2q0 -10 -10 -19q-10 -6 -6 -16q6 -14 -37 -80l-21 -29l33 31 q33 31 47.5 38t24.5 -3q8 -10 0 -25l-2 -10l4 4q20 16 24 -6q4 -20 -12 -43l-16 -23l18 11q29 20 29 4q0 -2 -2 -7q-2 -10 2 -8q6 2 51 35q55 43 57 25q0 -6 -6 -23q-8 -20 0 -18q6 2 29 18q31 25 49 31q16 8 0 10q-10 0 -55 4q-119 6 -158 33zM164 719l31 31 q-10 -2 -43 -17.5t-48 -25.5q-43 -31 -59 -86q-2 -8 4 -5q8 4 35 31q51 47 80 72zM1100 715q-14 27 -20.5 31t-28.5 -27q-29 -35 -93 -98l-40 -41q2 0 6 4q25 20 64.5 50t71.5 49t34 15q6 -8 -8.5 -26.5t-63.5 -67.5l-68 -67l41 22q94 53 101 47q4 -4 -27 -43 q-29 -39 -25 -39q23 0 52 49q18 31 18 71t-14 71zM1034 719q14 16 8 16q-8 0 -44.5 -32.5t-47.5 -47.5q-12 -20 -32 -24q-41 -10 -140 -115l-45 -43l66 4q66 4 78 10q12 4 106 97q76 76 72 78l-8 -5q-45 -29 -160 -122q-45 -37 -49 -33q-10 10 100 119q86 88 96 98zM170 672 q8 12 2 12q-14 0 -84 -94q-41 -51 -37 -66q2 -4 5 -7t5 -1q4 2 51.5 71t57.5 85zM856 643q10 14 6 29q-4 12 -18 0q-6 -8 -27 -29q-41 -45 -69 -84q-33 -41 -56 -63l-24 -29h18q12 0 22.5 9t36.5 40q41 49 72 82q29 35 39 45zM90 625l41 47q-4 0 -47 -45t-41 -47t47 45z M719 641q10 14 15 22.5t3 8.5q-10 0 -86 -92q-63 -78 -71 -78q-35 0 14 69q18 25 43 52q29 31 20 30q-10 0 -95 -89t-85 -99q0 -4 58.5 -4t54.5 6q-10 16 61 94q52 55 68 80zM240 659q0 18 -76 -55q-100 -96 -86 -110q2 -4 43 35.5t80 82.5t39 47zM690 651q10 14 -6 0 q-10 -10 -29 -28q-27 -29 -52 -64t-21 -39q2 0 26.5 29t51 61.5t30.5 40.5zM532 637q10 8 5 8q-2 0 -17 2q-16 0 -20 -3t-4 -13q0 -20 22 -4q6 4 14 10zM598 643q0 16 -49 -12q-6 -2 -12 -6q-45 -33 -115 -127l-29 -37h29q29 0 29 6q0 4 53 61q94 103 94 115zM887 637 q0 2 -8.5 2t-36.5 -33l-29 -33l37 31zM262 623q-4 4 -8 4q-8 0 -29.5 -20.5t-36.5 -41.5q-23 -33 -49 -59q-27 -29 -18 -33l6 -2q14 -4 41 25q27 27 61.5 74t32.5 53zM481 608q2 14 2 17q-8 6 -56 -33t-103 -94l-35 -33l30 -2l33 -2l62 65q61 66 67 82zM369 582q18 27 10 26 q-12 0 -70 -47q-43 -35 -78 -92q-2 -4 1.5 -6t15.5 -2q14 0 25.5 9t39.5 42q48 54 56 70zM729 559q12 14 16 23l7 8q-4 0 -21.5 -20.5t-25.5 -34.5l-7 -13q4 2 31 37zM1038 545q8 10 14.5 18t8.5 15l4 4q-4 0 -56.5 -31t-66.5 -41q-31 -20 8 -16q10 2 27 6q25 4 34 11t27 34 zM268 553q6 16 -10 4q-14 -8 -45 -39q-41 -47 -33 -51q14 -6 17 -6q4 0 35.5 41t35.5 51zM899 360v25l-29 -2q-12 0 -131 -8q-88 -8 -290 -15l-193 -4v-71q0 -70 6 -76q14 -10 262 2q94 4 246 15.5t154 13.5l-11 49q-14 46 -14 71z" />
<glyph unicode="F" horiz-adv-x="1120" d="M782 1305q20 12 52 5t55 -28q20 -20 32.5 -49t28.5 -96q98 -399 4 -766q-14 -51 -40.5 -121t-34.5 -76q-14 -8 -72.5 -12t-114.5 -2q-129 8 -322.5 34.5t-254.5 45.5q-63 20 -58 71q2 27 13 41q10 8 38.5 72.5t49.5 120.5q39 109 39 235q0 119 -37 312q-23 115 -39 129 q-18 16 -15 39.5t25 35.5q16 8 113 -2q117 -10 316 -5.5t222 16.5zM840 1165q-14 41 -23 41q-10 2 -72.5 -62.5t-57.5 -69.5t46 20q51 31 51 13.5t-49 -50.5q-31 -20 -39 -41q-6 -18 -26 -21q-25 -6 -78 -59q-20 -20 -13 -20.5t80 51.5q147 104 191 118q10 4 8 15.5 t-18 64.5zM295 1192q-14 2 -37 4q-12 0 -15 -2t1 -10q2 -18 2 -25q0 -10 16 6q16 14 20.5 10t18.5 5q12 6 -6 12zM713 1174l37 22h-39h-39l-58 -53q-53 -51 -45 -56q8 -2 58 33q39 25 86 54zM725 1143q14 14 27.5 26.5t19.5 18.5l6 8q-4 0 -77.5 -45t-82.5 -53q4 -8 21 -11 q23 0 34 7.5t52 48.5zM340 1159l31 31h-19q-18 0 -47 -23q-8 -6 -23.5 -16t-17.5 -12q-8 -6 -8 -15.5t8 -46.5l10 -53l19 16q18 18 18 26.5t17 20.5q18 10 64 52.5t46 46.5t-16 4q-18 0 -45 -18.5t-47 -45.5q-20 -25 -27 -22q-2 2 -2 6t4 10t12.5 15.5t22.5 23.5zM483 1188 l-10 2q-10 0 -53 -43l-41 -41l51 39q49 39 53 43zM502 1143q35 45 28 47q-20 0 -79 -45l-60 -47l31 -2l33 -2zM573 1178q23 12 9 12q-12 0 -35 -23q-12 -16 -8 -14q5 7 34 25zM592 1139q55 51 41 51q-10 0 -48 -22.5t-70 -47t-28 -28.5q6 -4 27 -5q16 0 29.5 9.5t48.5 42.5z M758 1091.5q0 4.5 -29 -14t-29 -22.5q0 -6 29 13t29 23.5zM840 1044q8 6 14 12.5t8 10.5t0 4q-8 4 -75.5 -37t-143.5 -96q-33 -29 -25 -29q18 0 28.5 -10t21.5 -2q20 18 77 66q48 38 95 81zM879 1004q-6 41 -15 40q-4 2 -12 -8q-10 -10 -100 -88q-88 -72 -88 -84t-7 -24 q-2 -6 7 -2q6 2 22 14q29 20 107.5 67.5t85.5 47.5q2 0 3 4t0 13.5t-3 19.5zM319 1012q-10 12 -15 12t-15 -12q-12 -12 -4 -58q6 -45 6 -69q0 -27 6 -27t19.5 15.5t13.5 23.5t16 22.5t24.5 14.5t39.5 29l32 28h-32q-33 0 -58 -22q-31 -27 -35 -21t17 31q16 20 6.5 20.5 t-21.5 12.5zM512 954l39 37h-39q-27 0 -38 -4t-38 -26q-31 -25 -28.5 -29t45.5 -12q16 -2 25 2.5t34 31.5zM580 989q0 8 -31 -20l-25 -23l29 21q27 20 27 22zM592 954q39 37 28.5 38t-53.5 -34q-47 -35 -49 -38q0 -4 14 -5q19 0 60 39zM840 926q33 27 -6 2q-20 -12 -62 -37 q-129 -80 -182 -125l-21 -16h23q20 0 57 30q44 37 191 146zM889 930q0 4 -3 7t-5 3q-8 0 -126 -93t-118 -99q0 -16 49 16q35 23 70 43q29 14 88 53q37 23 45 36.5t0 33.5zM336 856q0 20 -25 -8q-14 -14 -12 -57l2 -46l41 43l41 43l-23 11q-24 8 -24 14zM864 850q8 10 8 12 q2 4 -16 -10q-12 -12 -80 -49q-74 -41 -92 -56.5t-12 -25.5q8 -14 8 -16.5t87 66.5t97 79zM899 820q0 44 -2 44l-16 -16q-14 -16 -101 -82q-76 -59 -104 -88q-23 -25 -29 -25t-51 -37q-35 -29 -55 -45q-8 -8 0 -8q10 0 61 37q59 43 168 109.5t119 66.5t10 44zM442 821 q-16 6 -32.5 -2t-57.5 -49q-39 -39 -48 -51t-11 -33l-4 -31l18 17q16 14 17 33q0 20 14 35.5t33 15.5q20 0 51 30q10 10 15 16.5t7 9.5t1 6t-3 3zM547 813q-23 0 -35 2q-12 4 -47 -27q-33 -31 -25 -32q2 -2 6 -2q29 -8 46.5 -3t44.5 29l32 33h-22zM625 811l-17 2 q-20 0 -51 -33q-33 -33 -20 -30q10 0 47 28q37 31 41 33zM899 746.5q0 21.5 -4 21.5q-12 0 -141 -100.5t-129 -108.5q0 -2 14 -2t66 39q41 33 100 73t80 50q14 6 14 27.5zM881 670q20 18 18 30q0 2 -3 3.5t-10 -2t-17.5 -9.5t-28.5 -16q-59 -37 -113 -80l-55 -43l14 -10 q10 -8 15.5 -7t23.5 17q31 27 78 59q55 42 78 58zM377 659q-23 4 -35 9q-8 4 -24.5 -9.5t-24.5 -9.5q-4 2 -6 -1t-2 -9q0 -20 -29 -115l-2 -10q2 0 18 14q18 18 19 31q0 29 39 39q16 4 43 33l28 24zM897 618q4 8 2 27l-2 19l-51 -37q-143 -104 -146 -125q-2 -10 2 -8 q6 2 43 26q49 35 99 62q51 26 53 36zM711 653q12 12 -9 0q-14 -10 -57 -41q-55 -43 -55 -49q15 -6 121 90zM422 647q6 6 0 6t-29 -24l-22 -25l22 21q27 20 29 22zM483 631l23 22h-29q-18 0 -29.5 -5t-33.5 -25l-35 -33l24 -2q20 -4 35.5 4t44.5 39zM535 651l-5 2 q-6 0 -41 -37l-34 -36l39 34q37 33 41 37zM606 643q0 4 -28 4q-18 0 -28.5 -6t-35.5 -27q-37 -35 -33 -39q14 -23 80 29q45 37 45 39zM870 571q20 16 14.5 15.5t-38.5 -19.5q-43 -23 -137.5 -90t-171 -127.5t-70.5 -66.5q2 0 45 -7l43 -6l74 76q102 106 241 225zM889 543 q2 10 2 18v8q-2 0 -64.5 -55t-97.5 -88l-37 -37l33 23q35 25 82 50t57 25q17 1 25 56zM335 500q-9 0 -26 12l-14 12l-31 -26q-31 -29 -59 -97q-29 -72 -21 -75q4 -4 83 -16.5t128 -18.5l35 -4l90 86l90 84l-26 2q-20 2 -29.5 -3t-32.5 -30q-31 -33 -72.5 -63.5t-48 -26.5 t11 26.5t56.5 67.5q35 37 35 40t-21 3q-23 0 -94 -59q-115 -98 -129 -84q-2 4 76 78q74 72 70 75q-2 2 -9 4q-18 6 -28 -4q-2 0 -12.5 -9t-25 -22.5t-28.5 -25.5q-70 -59 -70 -43q0 4 56 59q55 58 46 58zM438 471q10 8 2 8t-51 -41l-43 -43l41 33q47 39 51 43zM866 471 q6 4 -2 2q-12 -4 -53 -27q-96 -51 -182 -129q-47 -43 -41 -47q2 0 8 -2q14 -4 45 -6q18 0 34.5 14.5t90.5 88.5zM535 463q0 4 -4.5 4t-35 -30.5t-46.5 -51.5l-9 -14q2 2 9 6q14 10 50 46t36 40zM653 455q4 6 -6 6q-6 0 -59 -43t-53 -49q0 -2 25.5 16t55 41t37.5 29zM854 387 q18 63 18 66q-2 0 -97 -96.5t-83 -98.5q10 -4 25 10q14 12 49 35t39 23q16 0 -8 -37q-6 -10 -11 -17l-18 -18l23 4q14 0 19 6t13 27q15 35 31 96zM771.5 277.5q23.5 23.5 12.5 21.5q-6 -2 -32 -18q-29 -20 -17 -23q13 -4 36.5 19.5z" />
<glyph unicode="G" horiz-adv-x="1730" d="M1473 1241q51 12 53 12q2 2 35 -8q35 -10 43 -26q10 -25 -2.5 -45.5t-94.5 -114.5q-158 -184 -213 -309q-33 -74 -45 -175q-6 -43 -11 -57t-15 -22q-23 -20 -49 -9q-20 8 -24.5 28t-0.5 69q23 201 156 381l24 32l-59 -26q-154 -72 -348 -183q-819 -463 -1053 -862 q-29 -45 -39 -56t-31.5 -12t-37 16t-11.5 36q10 47 109 180q39 51 138 152.5t169 160.5q367 301 967 611l174 90q-113 -27 -313.5 -50.5t-237.5 -13.5q-14 2 -24.5 21.5t-6.5 36.5q4 23 24.5 30t102.5 13q254 14 621 100z" />
<glyph unicode="H" horiz-adv-x="1935" d="M1604 1319q70 12 125 12t71 -14q14 -12 14.5 -32.5t-14 -34t-100.5 -19.5q-207 -16 -447 -133q-358 -172 -692 -494q-139 -133 -213 -231q-10 -18 -6 -19q90 53 346 176q160 78 204 96.5t54 14.5q29 -10 34 -36.5t-17 -47.5q-14 -12 -226 -113q-348 -168 -504 -276 q-76 -55 -101.5 -63.5t-49.5 14.5q-25 27 4 96q10 27 39 117q29 86 131 293q106 207 127 264q37 90 72 90q16 0 32.5 -15.5t16.5 -29.5q0 -53 -189 -412l-36 -71l36 43q51 57 162 165.5t172 157.5q248 207 494 336t461 166z" />
<glyph unicode="I" horiz-adv-x="1617" d="M1042 1075q10 12 35 11t176 -21q184 -23 207 -37q55 -37 29 -162q-14 -66 -62.5 -209t-58.5 -149q-20 -16 -49 -4t-29 39q0 14 49.5 164.5t44.5 152.5q-2 4 -57 -17.5t-70 -31.5q-12 -8 -63 -75.5t-84 -91t-80 -23.5q-39 0 -71.5 20.5t-92.5 81.5q-70 72 -75 72 q-10 0 -21.5 -35t-17.5 -78q-8 -59 -4 -209q4 -162 -5.5 -234.5t-40.5 -107.5q-74 -80 -204 10q-29 20 -191 178q-145 143 -206.5 190.5t-104.5 47.5q-23 0 -39 -12q-49 -41 -52 -175t38 -277.5t106 -209.5q31 -31 36 -47t-11 -37q-14 -16 -39 -16q-16 0 -26.5 6t-35.5 31 q-100 96 -147 332.5t6 375.5q41 111 139 123q80 10 154 -38t254 -222q164 -164 203 -182q35 -20 45 -10q14 10 18 65t4 211q2 209 14.5 276.5t59.5 112.5q23 18 38 23.5t50 1.5q37 -2 129 -101q63 -66 78 -69q18 -4 40.5 14.5t61.5 71.5q43 55 72 77.5t86 47.5q51 20 51 24 t-94 15q-170 20 -191 37q-16 12 -17 32.5t15 36.5z" />
<glyph unicode="J" horiz-adv-x="1277" d="M500 1278q47 25 104.5 1t235.5 -142q272 -182 280 -209q4 -10 21 -29l16 -18l-4 -119q-18 -471 -72 -565q-18 -29 -43.5 -39.5t-117 -15.5t-267.5 1q-346 4 -456 21q-33 4 -48.5 22.5t-21.5 55.5q-4 31 0 232.5t10 307.5q6 104 0 123q-8 23 12.5 51.5t108.5 118.5 q166 164 242 203zM616.5 1160q-61.5 36 -63.5 36t-57 -41q-47 -35 -144.5 -129t-97.5 -104q0 -8 86 -4t217 20q111 14 244 25l108 6l-116 78q-115 77 -176.5 113zM956 848q18 27 13 29h-6q-205 -14 -347 -33q-90 -10 -194 -21l-90 -6l39 -49q41 -49 108.5 -118.5t93.5 -90.5 q35 -25 53.5 -24.5t55.5 22.5q49 35 133 122t141 169zM1057 786q0 12 1 18.5t-1 8.5l-43 -53q-35 -47 -82 -101l-41 -49l47 45q53 51 80 74q35 30 39 57zM254 729q8 20 -6 35l-15 12v-35q1 -57 21 -12zM1053 713q0 23 -2 22.5t-52 -51.5q-51 -53 -106 -100q-49 -43 -88 -88 l-35 -39l41 39q45 43 110.5 98t96.5 76q25 14 30 21.5t5 21.5zM287 713q-10 18 -14.5 15t-6.5 -28q0 -25 4 -24q2 -2 9 2q14 8 16 15.5t-8 19.5zM246 672q10 16 4 16q-4 0 -10 -4q-8 -4 -11 -51q-2 -41 0 -41q2 -2 9 4q12 10 38 45l29 37l-29 -14q-35 -16 -34 -5q0 5 4 13z M324 666q0 14 -13 0q-2 -2 -6 -7q-6 -10 -5 -11t11 5q13 7 13 13zM1044 649q12 20 5 19q-6 0 -31 -17q-43 -27 -128 -102.5t-167 -161.5q-111 -113 -117 -113q-20 0 45 70q94 98 82 94q-4 0 -45 -43q-76 -78 -82 -71q-6 4 2 20t23 31q33 29 45 61v4q-10 -2 -68 -73 q-27 -33 -39 -48.5t-22 -26.5t-11 -10t-6 1q-4 4 18.5 35.5t47.5 58.5q41 47 31 57q-6 0 -52.5 -44t-78.5 -83q-47 -57 -56 -57q-18 -2 27 59q18 25 37 39q37 33 57 62q18 20 19.5 25t-7.5 9q-12 6 -36 -10q-33 -23 -81 -65.5t-67 -67.5q-23 -31 -29 -31q-12 -2 11 29 q14 20 47 61t49 61.5t27.5 36t10.5 18.5t-1 7q-16 8 -84 -49t-113 -117q-41 -55 -41 -34q0 6 43 62t74 89t31 39q0 8 -26 -13.5t-58.5 -53t-48.5 -52.5q-37 -47 -43 -41q-10 10 59 86q145 158 125 158q-6 0 -30.5 -14.5t-31.5 -24.5q-14 -14 -43 -31q-31 -20 -49 -45 q-18 -23 -32 -34q-10 -8 -12.5 -19.5t-2.5 -54.5q0 -61 4 -70q10 -12 320.5 -22.5t324.5 2.5q12 8 65.5 83.5t65.5 100.5l15 29l-25 -17q-78 -45 -160 -133q-47 -47 -51 -43q-6 6 133 156q63 68 60 69q-2 0 -17 -10q-25 -16 -103.5 -82.5t-117.5 -105.5q-49 -45 -47 -31 q2 10 27 39q23 27 172 182q143 148 157 168zM360 627q-25 31 -24 8q0 -8 -28.5 -47t-59.5 -70q-20 -23 -25 -61l-4 -37l29 29q102 102 119 139q8 14 6.5 19.5t-13.5 19.5zM324 635q0 16 -56 -35q-27 -25 -34 -36t-7 -25q2 -18 6 -17q8 4 49.5 55.5t41.5 57.5zM1044 565 q0 14 1.5 24.5t1.5 19.5v14v4q-2 0 -78 -80t-117 -125l-45 -47l61 51q135 113 146 102q8 -10 -58 -84l-24 -26l43 28q43 29 49 25q4 -2 7 1t5 14.5t4 28.5t4 50zM403 584q-10 10 -13 10t-13 -16.5t-31 -42.5l-18 -27l22 20q18 18 43 31q14 8 16 11.5t-6 13.5zM463 481l26 15 l-28 28q-29 29 -29 17.5t-26 -39.5l-19 -23q4 2 12 8q23 18 29 19q12 0 -6 -41q-2 -8 -2 -9t6 3q12 8 37 22zM709 434l36 45q-25 -6 -59 -53q-25 -35 -20 -35q2 0 43 43zM535 465q-18 16 -19 4q0 -6 -27 -39l-24 -35l39 31q14 12 21 17.5t11.5 10.5t3.5 7t-5 4zM1024 377 q14 90 6 84q-2 -2 -6 -15q-8 -33 -104 -165q-8 -10 -6.5 -10.5t18.5 8.5q18 10 35.5 8t20.5 -13.5t-4 -11.5t-7 10.5t-4 10.5q-6 0 -35 -15.5t-33 -23.5q-8 -8 0 -8q4 2 17 4q25 4 49 4q18 0 22 4t11 26q10 33 20 103zM678 797q20 2 42.5 4t35 3t14.5 1q12 2 26.5 -8.5 t20.5 -22.5q6 -18 -1 -36.5t-23 -24.5q-14 -6 -95.5 -13.5t-144.5 -9.5q-43 -2 -52 0t-22 17q-20 23 -8 51q14 29 82 30q49 1 125 9z" />
<glyph unicode="K" horiz-adv-x="1306" d="M231 1104q156 31 335 -38t325 -212q213 -213 270 -492q33 -166 23 -248.5t-66 -111.5q-76 -37 -224.5 17.5t-199.5 140.5q-20 31 -11 77t44 85q16 18 43 65q16 31 20.5 46.5t4.5 49.5q0 49 -15.5 79t-68.5 81q-49 49 -87 69.5t-81 18.5q-33 0 -65 -13t-113 -59 q-35 -20 -50.5 -24t-52.5 -4q-49 0 -80 16q-55 33 -105 93.5t-67 115.5q-18 61 -8 105.5t51 82.5q53 51 82 41q8 -2 29 5q12 4 67 14zM289 995q10 8 6 9q-2 2 -4 2q-12 0 -15 -9q-6 -8 -2 -8q7 0 15 6zM330 987q6 16 0 16.5t-35 -20.5q-41 -33 -43 -16v12q2 12 0 16t-10 4 q-14 0 -15 -8q0 -4 32 -53t36 -49t30.5 38t30.5 50q6 14 0 12q-6 -4 -28 -39q-25 -35 -31 -35q-16 2 10 37q17 21 23 35zM397 1001q-12 4 -17 1t-9 -19q-6 -20 -2 -21t20 17q18 18 8 22zM444 985q0 23 -55 -24q-39 -33 -61 -60q-14 -18 -16.5 -25.5t3.5 -15.5q4 -4 6.5 -7 t4.5 -1t61 66q57 61 57 67zM481 961q10 18 4 18q-8 0 -42.5 -30.5t-63.5 -65.5q-33 -37 -37 -45.5t4 -20.5q10 -12 10 -24.5t2 -12.5q4 0 21.5 10.5t34 19.5t14.5 11q-4 4 35 49q66 84 53 84q-8 0 -36.5 -26.5t-53.5 -59.5q-33 -43 -43 -43q-18 0 23 54q16 23 32 34 q35 30 43 48zM238 782q-49 70 -78 113q-43 57 -49 55q-12 -29 5 -70.5t56 -82.5q25 -29 55.5 -49.5t38.5 -14.5q2 2 -6 15.5t-22 33.5zM555 956q-4 4 -12 3t-11 -9q-4 -12 0.5 -14t14.5 6q14 10 8 14zM586 942q0 10 -41 -16q-37 -23 -96 -92l-11 -15l25 8q25 8 49 29 q23 18 48.5 49t25.5 37zM612 930q0 14 -14 -2q-4 -2 -6 -6l-2 -11l8 7q14 6 14 12zM643 911q0 14 -16 -4q-2 -4 -6 -8l-11 -18l17 12q16 14 16 18zM608 901q4 8 0 6q-2 -2 -24 -16q-55 -33 -56 -47q0 -6 22.5 -6t22.5 7t15 27q4 4 8 11.5t7 11.5t5 6zM676 889q0 29 -53 -17 q-16 -12 -25.5 -21t-9.5 -11q4 -2 22 -6q14 -4 20.5 -1t22.5 21q23 29 23 35zM725 834l12 14l-22 16q-18 12 -22.5 13.5t-10.5 -9.5q-4 -8 -3 -9t12 1t13.5 -1t4.5 -17l2 -25zM694 827l4 25l-28 -14l-27 -15l21 -10q23 -12 24 -10q0 1 6 24zM764 821q-8 25 -41 -8 q-14 -14 -15 -18t9 -13q8 -6 13 -4t18 17q18 18 16 26zM784 793q8 4 9.5 6t-2.5 6q-10 8 -19 -2q-10 -12 -2 -12q4 0 14 2zM795 750q12 23 8 28.5t-27 -0.5q-31 -12 -28 -18l18 -17l16 -14zM825 752q12 8 2 14q-8 8 -16 -8q-6 -12 -2 -14t16 8zM847 706.5q13 22.5 5 30.5 q-8 10 -27 -2q-20 -12 -24 -14t2 -10.5t14 -17.5t12.5 -9t17.5 22.5zM870 700q12 8 6 12.5t-16 -5.5q-8 -12 -2 -13q4 0 12 6zM899 676q0 4 -4 14q-6 8 -51 -22q-2 0 12 -25l14 -25l15 25q14 29 14 33zM938 623q0 31 -37 4l-27 -19l11 -24l12 -27l21 31q20 29 20 35z M963 590q0 2 -7 10q-8 6 -28 -20l-21 -29l27 16q29 15 29 23zM979 559q-6 16 -43 -6q-23 -14 -27 -24.5t-2 -39.5l2 -28l37 45q37 43 33 53zM1001 512q0 39 -38 -8q-37 -43 -31 -43q6 2 31 16q38 25 38 35zM1016 475.5q0 18.5 -2 18.5t-35 -19q-72 -43 -98 -104l-19 -43 l23 -6l20 -7l56 70q55 72 55 90.5zM1036 426q-6 27 -20 10q-6 -6 -15 -18q-29 -39 -26 -41q0 -2 16 12q25 20 35 21q12 0 10 16zM999 332q29 41 27 53t-29 -10q-6 -4 -14 -10q-41 -33 -49 -46q-6 -8 -4 -11t14 -11q20 -10 22 -8t33 43zM1059 322q-14 76 -16.5 75.5t-2.5 -19 t-6 -24.5q-4 -2 -18 -22l-15 -19l23 4q14 2 18.5 0t6.5 -16q4 -23 4 -45.5t12 -34.5q12 -10 12 -4q0 9 -18 105zM1040 274q0 29 -9 33t-30 -16l-18 -15l14 -6q14 -8 29 -18l14 -10v32zM850 221q-41 14 -46 14.5t-13 -8.5q-8 -10 12 -32q29 -29 99.5 -61t129.5 -40 q25 -4 36 5.5t11 37.5q0 18 -2 20.5t-8 -7.5q-10 -14 -32.5 -18.5t-51.5 15.5q-69 49 -135 74z" />
<glyph unicode="L" horiz-adv-x="968" d="M623 1602q20 4 59 2q43 -2 82 -23q84 -45 84 -86q0 -31 -24.5 -46t-51.5 1q-61 41 -84.5 47t-46.5 -8q-43 -29 -80 -162t-51 -319q-8 -88 -5 -232.5t13 -238.5q8 -68 24.5 -162t22.5 -113q4 -12 15 2l6 12q23 41 64.5 101.5t51.5 66.5q37 25 66 -6q20 -20 13 -44.5 t-52 -96.5q-57 -84 -82 -125q-47 -74 -90 -94q-57 -29 -127 9t-172 153q-31 35 -37 46t-4 27q8 45 53 45q14 0 31.5 -14t77.5 -74l43 -43t32.5 -30.5t14.5 -8.5t-10 60q-63 270 -62.5 590.5t66.5 537.5q31 109 78 164q39 46 82 62z" />
<glyph unicode="M" horiz-adv-x="1384" d="M580 1278q27 8 95 7t105 -9q47 -8 70 -8q29 0 84 -27t106 -63q131 -98 193 -258q33 -88 32 -210t-36 -218q-78 -213 -252 -330t-381 -92q-250 31 -401 192q-111 117 -138 283q-14 88 0 184q25 160 120 290t241 204q60 28 162 55zM788 1163q-90 23 -161.5 14.5 t-157.5 -53.5q-88 -43 -164 -125q-158 -166 -145 -389q6 -121 68.5 -218t168.5 -150q170 -84 327 -63.5t275 143.5q147 152 158.5 360.5t-119.5 351.5q-45 51 -98.5 77.5t-151.5 51.5zM557 1122q10 2 92 2q129 -4 223 -59q117 -70 180.5 -199t47.5 -262q-29 -223 -228 -321 q-55 -29 -104 -38t-125 -5q-80 2 -143 22q-197 66 -260 250q-14 41 -15 135q0 92 15 139q31 98 86 174t123 111q18 8 30 23q15 14 78 28zM729 1008q-39 10 -96 10q-39 0 -54.5 -4t-48.5 -21q-45 -25 -67 -41q-37 -29 -76 -96.5t-49 -124.5q-10 -43 -8 -101.5t14 -90.5 q55 -145 229 -187l23 -4l-35 78q-86 178 -86 238q0 29 27 104q25 74 43 137q25 94 61 94q16 0 50 -18t38 -29q8 -16 33 -141t25 -142.5t-29 -158.5t-35 -155.5t2 -14.5q6 0 39 6q94 16 172 88q61 57 84 146q35 133 -43 263t-213 165zM637 715q-8 41 -11 50t-8.5 2t-17.5 -44 l-20 -59l16 -50q18 -53 23.5 -54t15.5 50q10 62 2 105z" />
<glyph unicode="N" horiz-adv-x="1345" d="M590 1292q63 6 191 3t177 -11q162 -31 230 -90l24 -23l9 -75q8 -76 2 -287q-6 -207 -6 -367v-157l-21 -27q-92 -115 -291 -156q-55 -12 -145 -14t-148 8q-125 18 -232.5 71.5t-164.5 123.5q-41 47 -12 82q10 14 11 34.5t-5 122.5q-10 201 -3 419t23 243q14 23 136.5 56.5 t224.5 43.5zM915 1182q-59 8 -175.5 8t-180.5 -8q-139 -20 -129 -31q16 -14 101 -37.5t155 -32.5q84 -8 193.5 7.5t164.5 44.5l25 12l-45 12q-46 15 -109 25zM342 1055q16 12 6 16t-20 -8q-18 -20 -6 -21q8 3 20 13zM365 1042q12 12 9 12.5t-30 -14.5q-27 -16 -27 -26t19 2 q19 14 29 26zM414 1024q8 16 -6 12q-12 -4 -47 -24.5t-42.5 -27.5t-7.5 -21q0 -23 6.5 -23t48.5 37t48 47zM1120 1001q-2 10 -3 20.5t-3 14.5l-2 6q-4 0 -31 -12q-25 -10 -84 -27.5t-74.5 -17.5t-35.5 -27q-23 -27 -86.5 -75.5t-79.5 -65.5l-14 -16h28q20 0 31.5 6t44.5 37 q160 145 170 137q2 -2 2 -8t-61 -53q-49 -41 -97 -84l-37 -35h31h33l86 84q135 133 149 133q27 0 -63 -105q-18 -20 -39 -43q-51 -61 -43 -63q16 0 68 49q53 49 84 76l30 26zM444 1024q-2 12 -18 -4q-8 -8 -4 -8q2 0 12 4q10 2 10 8zM424 956q63 61 53 62q-29 0 -104 -66 l-37 -32l12 -15l14 -12zM488.5 984.5q27.5 19.5 18.5 22.5t-44 -32l-21 -25h2q17 15 44.5 34.5zM563 995q-14 12 -63 -22q-31 -18 -72 -53t-41 -43q0 -4 22.5 -14.5t36 -3.5t58.5 54q67 70 59 82zM616 981q-23 8 -30.5 5t-18.5 -21q-18 -27 -65 -72q-12 -12 -23.5 -24.5 t-16.5 -18.5t-5 -7t10 6t26.5 20.5t32.5 27.5q70 61 84 70q16 12 6 14zM651 963q14 20 2 16q-25 -8 -108 -82l-68 -61l21 -7q14 -4 25.5 4.5t54.5 51.5q61 60 73 78zM702 950l23 21l-25 4q-25 2 -24 -4q0 -4 -72 -78q-18 -18 -34.5 -35.5t-24.5 -28t-6 -10.5t65 51t98 80z M870 975q6 4 0 4q-4 -2 -43 -4l-36 -2l-82 -84l-84 -82h24q25 0 39 16q16 16 96 82q61 50 86 70zM1032 942q6 10 13.5 18.5t10.5 13.5t1 5t-90 -84q-88 -86 -76 -88q8 -2 57 45t84 90zM752 954q14 18 8 19q-4 0 -25 -15q-25 -18 -99.5 -79.5t-74.5 -63.5t25 -2 q14 0 29.5 10.5t58.5 50.5q66 60 78 80zM1124 877q0 45 -6 45q-4 0 -41 -38t-51 -55q-6 -10 6 -10q6 0 31 4q47 4 54 10.5t7 43.5zM348 770q0 4 -18 14l-19 11v-35v-33l19 18q18 19 18 25zM414 743q-8 2 -21 9q-8 4 -45 -23q-27 -18 -32 -25.5t-5 -23.5q0 -25 12.5 -37 t12.5 -4q0 6 45 53q45 49 33 51zM498 719q-2 2 -23 6q-10 4 -22.5 -4t-51.5 -47l-53 -56l19 -14q16 -14 24 -14t39 39q33 41 53 63q4 6 8.5 12.5t6.5 9.5t0 5zM1114 700q4 23 0 23q-59 -8 -76.5 -19.5t-95.5 -91.5q-94 -96 -108 -114l-13 -19h25q16 0 27.5 7.5t35.5 31.5 q39 41 101 90q82 66 92 56q12 -10 -68 -107l-41 -47l49 27q49 27 60 26q8 0 8 55q0 53 4 82zM553 694l16 15l-24 4q-14 0 -22.5 -4t-28.5 -25q-27 -29 -58 -70l-33 -41l27 19q20 14 66 53q45 41 57 49zM944 635l70 76q-10 -2 -68.5 -59.5t-111 -115t-43 -57.5t44 41 t108.5 115zM522 633l64 72q-2 0 -54.5 -46.5t-78.5 -64.5q-27 -20 -27 -24.5t13.5 -9.5t15.5 -3q-1 2 67 76zM655 694q-4 2 -26 6q-16 2 -27.5 -6t-58.5 -59q-74 -80 -70 -88l4 -4q10 -6 15 -4q2 2 44 39.5t80 76.5zM926 655q41 47 30 47q-37 -2 -57 -17t-90 -93l-92 -103 l22 -4q16 -2 27.5 5.5t54.5 52.5q74 75 105 112zM739 692q0 6 -22 6q-18 -2 -32.5 -13t-68.5 -71q-76 -82 -75 -88q0 -8 10 -8t18 -2q6 -4 88 81t82 95zM836 680l16 18h-21q-12 0 -25 -11t-48 -54q-31 -39 -80 -96q-39 -43 -23 -43q11 0 181 186zM872 686q10 12 4 12 t-54 -51t-92 -103t-42 -55q6 -4 8 -2t86 95q82 92 90 104zM780 684q4 8 -6 8q-12 -2 -96 -92t-84 -92l18 -4q12 -2 25.5 10t64.5 74q64 76 78 96zM1075 631q4 8 -2 8t-67.5 -51t-83.5 -76l-25 -27l25 4q25 4 41 15q10 6 57 59.5t55 67.5zM557 567q37 41 33 41t-24.5 -19.5 t-38 -39t-15.5 -19.5q6 -4 45 37zM358 436l23 31l-33 20l-31 19l5 -66q4 -66 -5 -82q-6 -10 -4 -15t13 -15q16 -12 23 -10.5t18 26.5q10 18 43 59q29 37 21.5 43.5t-44.5 -22.5q-51 -41 -51 -23q-1 2 22 35zM393 444q12 14 4 15q-4 -2 -12 -10q-12 -14 -6 -14.5t14 9.5z M1104 436q0 10 -2 10t-18.5 -10t-49.5 -24q-29 -10 -73 -54q-43 -39 -93.5 -93t-50.5 -60q0 -12 141 104q100 84 123 101q23 14 23 26zM485 424q-6 4 -18 8q-14 4 -49 -39q-59 -76 -43 -71q6 2 34.5 26.5t53 49t22.5 26.5zM530 412q-10 18 -79 -45q-55 -49 -70 -58 q-10 -8 -10 -10t8 -10q41 -29 131 -60q59 -18 59 -16q4 6 63.5 76.5t63.5 75.5q8 6 7 13t-9 7q-4 0 -47 -39q-72 -66 -86 -55q-8 6 -4 16t27 43q29 41 28.5 44t-13.5 3t-64 -43q-98 -78 -103 -57q0 6 51 57.5t47 57.5zM547 383q23 18 14 20q-10 0 -49 -38l-25 -29q2 0 13 8 q33 25 47 39zM1079 379q20 25 19 24q-4 0 -107 -86q-96 -82 -123 -98q-8 -8 -14 -12t-4 -6t49 8l47 12l58 68q48 57 75 90zM655 385q-14 8 -25.5 0t-33.5 -41q-25 -37 -21 -37q6 -2 52 39q10 10 16 16.5t10 11.5t4 7t-2 4zM934 352q39 37 29 37q-2 0 -13 -4q-12 -4 -86 -72 q-154 -139 -172 -108q-6 8 88 110q47 59 39 62q-18 0 -82 -66q-66 -68 -92 -86q-29 -20 -12 -24q14 -4 88 -6q59 -4 70.5 -2t11.5 10q0 10 43 60t88 89zM1112 356q-2 29 -4 33l-27 -31q-27 -31 -55.5 -65.5t-36.5 -44.5v-2l-4 -6q6 2 57 45l2 2l3 2l2 2l4 2q49 39 55 37t6 8 q0 6 -2 18zM893 356l27 27q-4 -2 -35 -4q-20 -2 -33.5 -11.5t-58.5 -58.5q-61 -68 -76 -84l-12 -16l24 14q35 16 164 133zM752 346l26 31h-24q-18 0 -31.5 -10.5t-65.5 -69.5q-20 -23 -35.5 -42t-22.5 -30.5t-5 -11.5q10 -4 65.5 42t92.5 91z" />
<glyph unicode="O" horiz-adv-x="1419" d="M678 1417q127 12 185.5 3t80.5 -46q14 -20 10 -88q-4 -70 -8 -84q-2 -12 1 -14t22 2q29 6 156.5 3t138.5 -9q12 -6 24 -23q8 -12 10 -56t2 -216q-2 -254 -15 -501t-30 -269q-10 -14 -43 -27q-35 -10 -249 -14q-166 -2 -360.5 4t-266.5 14q-80 10 -114 27.5t-34 48.5 q0 16 25 84q23 68 25 147q6 147 -50 545q-23 180 -18 195q10 25 35.5 31t154.5 10q160 6 181 10l22 4l-4 49q-4 49 -12 70q-8 23 0 47q8 29 31.5 38t99.5 15zM854 1307q0 6 -5 8t-22.5 3t-45 0t-74.5 -3l-43 -4v-21q0 -20 4 -73l4 -54l80 2l79 2l13 66q10 66 10 74z M729 1063q-98 0 -121.5 2t-36 10t-15.5 8t-13 -10q-12 -14 -8 -43q8 -37 37.5 -45t119.5 4q90 10 152 8q51 -4 61 1.5t17 41.5q4 23 -3.5 29t-28 0t-161.5 -6zM1079 1083q-39 6 -41 -2q-4 -8 -10 -44t-4 -38q2 0 39 41l39 41zM422 1051q-2 20 -5 25t-14 5q-16 0 -16 -9 t-12 -32l-13 -20h15q29 2 2 -33q-14 -16 -14 -18q2 -4 28 14q23 16 31 16t6 11q-2 8 -8 41zM1161 1079l-16 2q-18 0 -49 -26q-49 -43 -35 -41q10 2 45 26q53 37 55 39zM315 1063q-6 12 -14 12q-14 0 -18 -2t-2 -8q4 -12 4 -31v-20l10 20q10 17 20 29zM348.5 1058.5 q22.5 16.5 9 16.5t-28 -16.5t-10.5 -16.5q7 0 29.5 16.5zM1174 1061l6 14l-82 -55q-78 -55 -94 -80q-14 -25 -31 -35q-18 -8 -70 -63q-61 -68 -61 -49q0 6 39 51l37 45l-62 2q-61 2 -102 -2q-29 -4 -40.5 -11.5t-45.5 -43.5q-49 -49 -37 -52q10 -2 71 45q59 49 64 50 q20 0 -27 -56q-31 -39 -26.5 -43t22.5 -4q20 0 72 41q70 57 67 39q-2 -10 -28 -45l-29 -35h49q33 0 45.5 3t28.5 16q23 16 21 26q-6 18 126 150q79 76 87 92zM1200 981q0 74 -4 78q-6 4 -31 -29q-20 -29 -78 -80q-47 -43 -83 -86l-31 -35l31 23q8 6 45.5 34.5t56.5 43.5 q88 66 88 43q0 -12 -104 -123q-57 -63 -52 -64q4 0 11 2q18 8 65 39q70 39 74 9q0 -12 -11.5 -36t-24.5 -39.5t-19 -8.5q-4 2 20 34q35 55 16 58q-4 0 -18 -8.5t-26.5 -18.5t-10.5 -12q4 -4 -106 -111q-80 -82 -92.5 -96t-3 -24.5t13.5 -9.5t16 14q47 43 172 133 q16 10 28.5 10t12.5 -12q0 -8 -50 -64.5t-93 -95.5l-33 -31l43 31q78 59 92 47q6 -8 -22.5 -30.5t-167.5 -162.5q-193 -193 -183 -202q2 -2 111 98q137 131 195.5 178t87.5 58q16 4 12 -3q-2 -12 -57 -63q-61 -57 -146.5 -144t-97.5 -104l-15 -20l21 14q20 16 86 78 q100 96 139 106q14 6 21 15q8 8 14 8q18 0 -47 -70q-94 -98 -92 -98q2 -2 49 31q100 68 114.5 51t-71.5 -105q-12 -12 -22.5 -22t-14.5 -16l-6 -7q4 0 53 23q47 20 72 24q20 4 20 9q0 2 2 22.5t4.5 62.5t4.5 76q22 388 22 578zM348 1028q6 8 10 14.5t7.5 10.5t1.5 4t-39 -25 q-23 -16 -29 -23.5t-6 -21.5l-2 -22l18 16q21 18 39 47zM365 991q12 14 6 13q-8 -2 -39 -27q-43 -35 -35 -47q2 -2 6 -2q11 0 62 63zM426 979q0 6 -2 6q-10 0 -86 -59q-25 -20 -30 -29.5t1 -28.5q6 -12 58 41q2 2 4 6q55 58 55 64zM444 958q0 18 -38 -26q-2 -2 -5 -6 l-36 -39l41 31q38 30 38 40zM1155 942q14 18 12 19q-4 -2 -45 -35q-14 -10 -47 -36t-37 -30q-41 -31 -43 -41q0 -8 -24 -33l-27 -24l10 -19l13 -18l34 23q35 25 25 26.5t-10 7.5t61 74q66 70 78 86zM471 913q0 4 -8 17q-6 8 -17.5 1t-54.5 -42q-63 -49 -72 -51 q-4 0 -4 -14.5t2 -31t6.5 -20.5t76 64.5t71.5 76.5zM496 897q0 20 -19 0q-4 -4 -6 -8l-14 -19l20 13q19 10 19 14zM528 883q0 18 -49 -15q-33 -23 -92 -79t-59 -64v-31l2 -22l84 78q114 108 114 133zM553 867.5q8 9.5 0 9.5q-10 0 -14 -11q-4 -8 2 -8q4 0 12 9.5zM598 872 q0 12 -45 -22q-66 -49 -160 -137l-61 -60l10 -88q8 -88 6 -172q-2 -70 2 -69q4 8 86 102q84 96 66 94q-8 -2 -41 -33q-61 -53 -72 -43q-14 12 37 74q43 51 31 51q-6 0 -27 -14q-37 -35 -51 -20q-12 14 70 98q55 57 45 63q-8 8 -62 -34q-63 -51 -63 -37q0 4 51 55 q51 53 61 74q10 23 31 30q14 6 50 42t36 46zM668 874l-23 3q-27 0 -37 -17q-14 -20 -37 -45q-6 -8 -12 -14t-8 -10l-2 -5q2 0 58.5 41t60.5 47zM633 819q33 33 31 33q-4 -2 -46 -31q-41 -31 -28 -33q10 -4 43 31zM709 805q33 33 18 24q-8 -4 -29 -20q-33 -25 -22 -27 q8 -2 33 23zM817.5 796.5q22.5 22.5 18 22.5t-17.5 -11t-23.5 -22.5t-6.5 -11.5q7 0 29.5 22.5zM975 682l90 92q-8 0 -56 -37t-55 -47q-10 -18 -26.5 -22t-59.5 -37q-29 -37 -4 -41q14 0 33 15.5t78 76.5zM1130 692q20 27 -6 10q-12 -8 -32 -26q-8 -6 -47 -36t-58 -44 q-61 -49 -61 -66q0 -43 -52 -47q-23 -2 -56.5 -29.5t-164.5 -150.5q-88 -82 -104 -94l-21 -14l25 -7q35 -4 50 4.5t71 61.5q68 68 186 174q90 80 171 159.5t99 104.5zM473 618q63 66 53 66q-6 0 -69.5 -63.5t-63.5 -71.5q0 -17 80 69zM553 649q20 29 12 29q-16 0 -43 -29 q-18 -27 -12 -28q16 -1 43 28zM616 647l31 31h-22q-23 0 -52 -27l-26 -28l18 -5q20 -2 51 29zM653 643q33 29 21 29t-41 -29q-31 -29 -21 -29q10 2 41 29zM778 668q0 4 -35 4q-23 0 -33 -4t-32 -23q-33 -27 -33 -33q-2 -2 8.5 -3t24.5 -3q23 0 33 3t34 24q33 31 33 35z M791 645q23 20 16.5 20.5t-41.5 -32.5q-23 -20 -18 -21q6 2 43 33zM883 659l-6 7h-17q-29 0 -65 -33l-37 -31l22 -4q18 -4 31 4t72 57zM913 412l156 157q-2 0 -68.5 -54t-95.5 -79q-147 -129 -231 -211l-43 -39h39h41l22 33q22 33 180 193zM473 524q0 31 -37 -14l-4 -4 q-27 -37 -23.5 -40t31.5 21q33 29 33 37zM594 508q-4 4 -33 4q-23 0 -33 -6t-43 -43q-86 -98 -116 -139q-6 -8 -6.5 -9.5t16.5 9.5q47 27 190 153q29 27 25 31zM686 496q0 2 -22 6q-14 2 -32 -11.5t-93 -89.5q-70 -70 -117 -124t-47 -66q0 -6 14 -6q12 0 156 145zM756 494 q-23 0 -33 4t-160 -148q-53 -53 -78.5 -79.5t-43 -47t-15.5 -22.5t4 -6q27 -6 54.5 15t142.5 134q141 141 135 148q0 2 -6 2zM975 377q33 31 62.5 60.5t43.5 45.5l17 17q-14 0 -203 -178q-76 -72 -119 -111l-31 -25h27q20 0 28.5 5.5t24.5 27.5q27 35 150 158zM780 440 l51 45l-20 2q-16 0 -42 -23.5t-128 -125.5q-127 -127 -123 -131t115 96q29 29 83 77t64 60zM522 406q18 18 35.5 36.5t26.5 28.5l8 8q-4 0 -17 -12q-18 -20 -104 -89t-102 -77q-23 -10 -25 0q-2 2 -4 -6q-6 -10 -14 -37q-14 -49 -13 -51q16 -6 52 -2q-4 8 12 34.5t41 55.5 q41 48 104 111zM1030 338q18 20 27.5 29.5t7.5 9.5q-18 0 -117 -94q-55 -53 -86 -76l-28 -21h32q33 0 33 8.5t131 143.5zM1116 311q14 20 12 21q-14 0 -112 -70q-20 -12 -51 -34.5t-35 -24.5l-27 -17h49h47l52 54q49 48 65 71zM1155 209q2 14 -5 13t-46 -15 q-33 -14 -31 -18.5t45 1.5q20 2 27.5 6.5t9.5 12.5z" />
<glyph unicode="P" horiz-adv-x="1261" d="M698 1198q14 4 86 4q72 2 117 -16q100 -35 156 -92q92 -96 85 -233.5t-108 -239.5q-41 -43 -53 -50q-10 -4 -14 -110q-4 -104 -11 -119q-6 -16 -22 -27q-18 -12 -16 -34.5t-33 -65.5q-35 -47 -58.5 -58.5t-83.5 -6.5q-94 4 -135 40q-12 10 -26.5 44t-18.5 59 q-4 27 -20 35q-20 10 -26.5 33.5t-10.5 95.5q-4 66 -7 80t-14 22q-74 61 -96 103q-55 96 -35.5 208.5t107.5 200.5q74 76 176 107q49 14 61 20zM848 1087q-66 14 -133 3q-23 -4 -66 -21.5t-65 -32.5q-47 -31 -83 -84t-42 -100q-10 -72 18 -129q12 -25 46 -53.5t67 -40.5 q51 -20 51 -13q0 4 -8 13q-14 14 -27 106q-4 31 -11 73t-7 44q-6 37 28.5 54.5t59.5 -9.5q12 -10 24.5 -66.5t14.5 -93.5q0 -33 10 0q2 12 8 33q31 111 55 131q14 10 36 7t34 -15q14 -14 14 -32.5t-14 -53.5q-29 -72 -39 -156q-4 -35 2 -35q2 0 8 2q123 37 177 148 q18 35 21 51.5t3 59.5q0 61 -16 92q-49 95 -166 118zM711 602q8 4 4 14.5t-15 4.5q-8 -6 -30 -7q-14 0 -15 -2l21 -4q29 -6 35 -6zM623 494q8 10 -2 14q-4 2 -6.5 -1t-2.5 -11l2 -15zM860 479q0 20 -2 26.5t-8 6.5q-37 -4 -49 -23q-25 -39 -24 -41t30 25q39 33 43 33 q20 0 -21 -62q-8 -10 -13 -18t-8 -13t-3 -7q2 -2 26 6q18 6 23.5 18t5.5 49zM664 481q12 18 6 19q-4 0 -22.5 -24.5t-24.5 -41.5l2 2q16 14 39 45zM723 481q12 18 2 19q-8 0 -42 -36t-30 -42q17 -25 70 59zM786.5 490.5q4.5 9.5 -4.5 9.5q-10 0 -32.5 -20.5t-40.5 -45.5 l-21 -22l21 -4q12 -2 19 4t26 32q28 37 32.5 46.5zM831 471q6 10 0 6q-4 -2 -40 -35q-33 -37 -25 -39q24 0 65 68zM688 287q6 12 -6 16q-10 2 -11 -1t5 -17q2 -8 4 -8t8 10zM776 291q-4 2 -24 6q-25 4 -37 -14q-12 -14 -9 -20.5t23 -6.5q23 0 35 16q14 17 12 19z M796.5 274.5q20.5 26.5 14.5 26.5t-23.5 -22.5t-14.5 -26.5t23.5 22.5z" />
<glyph unicode="Q" horiz-adv-x="1521" d="M1081 1356q33 6 117 6q63 2 75.5 0t22.5 -14q12 -18 12.5 -36t-12.5 -34q-10 -12 -20 -14t-49 -2q-334 0 -617 -283q-272 -272 -291 -598q-4 -72 3.5 -97.5t37.5 -58.5q49 -49 115 -49t166 51q147 74 320.5 243t263.5 325q29 51 50 108.5t21 81.5q0 20 -19.5 26.5 t-80.5 2.5q-49 -2 -60.5 -1t-21.5 11q-16 14 -16 37q0 37 25.5 48t107.5 11q74 0 104.5 -13t53.5 -54q43 -88 -54 -275q-92 -178 -278 -366q-268 -270 -484 -328q-127 -35 -215 8q-84 41 -127 129q-14 33 -17 50.5t-1 76.5q2 203 92 393q117 238 333 410t443 205z" />
<glyph unicode="R" horiz-adv-x="1071" d="M483 1032q20 16 59.5 3t186.5 -89q164 -84 192.5 -106.5t28.5 -67.5q0 -47 -47 -100.5t-192 -169.5q-115 -92 -133 -103q-39 -20 -65 15t5 67q12 16 123 105q113 88 114 90t-73 4t-186 2q-193 0 -230 1t-49 11q-18 14 -21 39t11 41q10 12 22.5 14.5t73.5 -2.5 q223 -8 416 5l67 4l-139 71q-141 74 -164 92q-20 20 -16 41t16 33z" />
<glyph unicode="S" horiz-adv-x="1011" d="M819 1321q29 6 51 -16q12 -12 19 -72q4 -59 4 -287.5t-4 -408.5q-2 -141 -5 -169t-14 -40q-33 -33 -71 2l-19 14l4 150l2 147l-47 -2q-41 -2 -131 -29q-84 -23 -150.5 -23.5t-105.5 13.5q-80 31 -135 94q-27 31 -55.5 89.5t-38.5 105.5q-10 45 -19 67q-18 59 13 88 q29 27 57.5 24t71.5 -36l37 -28l47 2q51 2 94 24.5t106 81.5q57 51 99.5 74.5t99.5 34.5l53 10v31q-2 51 37 59zM784 1106q0 25 -65 4q-49 -16 -129 -90q-49 -45 -39 -53q12 -12 35 -115q4 -20 4 2q2 16 2 64q0 92 6 96q18 12 37 -117q14 -115 22 -121q4 -2 4.5 44t-3 107.5 t-7.5 98.5t4 37q6 0 11 -43q14 -150 30 -223q2 -16 2 -2q0 16 -8 186q-4 82 2 82q14 0 23.5 -32t23.5 -122q12 -82 19 -106q6 -16 6 6q4 49 -8 129q-6 37 -8.5 79t-1 69.5t7.5 25.5t22 -37l15 -35l-3 25q-4 29 -4 41zM782 1016q-8 33 -16 45q-4 8 -6 -6q-4 -33 8 -117 q8 -51 10 -105.5t-4 -66.5q-10 -29 -24 25q-12 39 -23 118q-16 106 -20 111v-76q0 -41 4 -113q4 -68 -2 -75q-14 -20 -23 20q-2 6 -2 12l-4 27l-4 -24q-8 -39 -5 -46.5t23 -1.5q23 6 56 7h32l4 38q6 49 4 125t-8 103zM535 862q0 111 -3 111l-12 -10q-12 -8 -4 -31 q6 -25 12 -101l4 -79zM623 893q-10 74 -15 78q-2 4 -2 -78q-2 -131 -16 -129q-6 2 -8 20q-2 25 -12.5 80.5t-16.5 65.5q-4 8 -4 -66q-2 -141 -19 -141q-10 0 -18 131q-2 53 -6 66q-2 6 -4 -5q-2 -16 -2 -67q0 -86 -8 -94q-14 -14 -25 24q-6 20 -12 58l-13 69l-4 -84 q-2 -92 -12 -94t-25 88q-14 76 -16 80q-4 2 -4 -71.5t-6 -92.5q-6 -12 -8 -13t-9 7q-8 12 -10 33v20l-6 -22q-4 -23 -2 -29q8 -12 45 -23.5t66 -11.5q31 0 108.5 17.5t85.5 25.5q6 4 -4 43q-10 41 -18 115zM489 842q-2 68 -6 82q-2 14 -4 15t-12 -9l-16 -12l16 -74 q14 -78 18 -72q4 4 4 70zM426 838l-2 77q-12 -4 -20.5 -10t-6.5 -12q4 -10 17 -72l10 -63zM248 905q-2 4 -10 4q-18 0 10 -61l12 -25l-4 37q-4 39 -8 45zM299 811q-10 78 -16 80l-4 -45q0 -39 2 -51.5t14 -24.5l14 -16zM369 821q0 82 -2 82t-11.5 -6t-3.5 -59q4 -72 10 -78 l5 24q0 14 2 37zM330 821v76h-17q-10 0 -12 -3t0 -11q4 -20 10 -70q8 -53 13 -61q6 -7 6 69z" />
<glyph unicode="T" horiz-adv-x="1314" d="M655 1208q23 20 49.5 11t34.5 -41q10 -37 43 -123t45 -105q23 -33 42.5 -40t84.5 -9q123 0 164 -5t58 -17q16 -14 18 -37t-10 -41q-10 -14 -84 -70q-137 -98 -137 -123q0 -27 86 -129q78 -90 97 -132t1 -79q-18 -33 -50 -31.5t-102 33.5q-63 31 -170 92q-29 18 -74.5 45 t-54.5 31l-32 19l-23 -11q-25 -14 -111 -84q-90 -70 -126.5 -92t-67.5 -23t-49 17q-25 25 -15.5 64t80.5 204q43 100 39 107q-6 8 -80 57q-72 49 -97.5 76t-25.5 55q0 45 35 64q12 8 150 12l137 2l14 19q41 51 88 192q27 78 43 92zM688 913q10 84 -2 78q-6 -2 -16 -26 q-14 -33 -7 -39t7 -89t6 -96q4 -4 6 17v35q0 57 6 120zM709 739.5q0 182.5 -4 182.5q-6 0 -17 -217q-4 -102 -2 -125t16 -23q7 0 7 182.5zM649 764q2 152 0 151.5t-14 -18.5q-10 -18 -2 -139q6 -139 12 -129q4 8 4 135zM752 700q0 125 -2 149.5t-13 43.5l-16 25l-2 -99 q-2 -156 8 -160q14 -4 0 -84q-2 -20 -1 -26t11 -10l15 -9v170zM631 586l-19 245q-2 -20 -2 -147q0 -129 11 -129q10 2 10 31zM598 702q0 135 -2 136q-10 0 -12 -26t2 -107q6 -119 8 -130q2 -8 4 127zM797 780q-2 47 -11 51q-4 0 -7 -19t-2 -55t5 -77l4 -49l9 51q6 55 2 98z M567 700.5q0 30.5 -1 56t-1 42.5l-2 14q-8 -2 -29.5 -9t-23.5 -9q-2 0 1 -4.5t9 -10.5q25 -23 35 -125q6 -63 10 -65v14q0 14 1 40t1 56.5zM387 791q0 10 -16 10q-12 0 -13.5 -2t9.5 -8q20 -16 20 0zM444 780.5q0 20.5 -8 20.5q-6 0 -7 -13.5t3 -29t12 -23.5q8 -6 7 -2 q0 2 -2 8q-5 19 -5 39.5zM492 764l4 37h-19h-18l4 -41q2 -39 12 -51q6 -10 7 -9.5t4.5 11t5.5 53.5zM864 795q-6 8 -17 5t-13 -14q-4 -23 -10.5 -102.5t-6.5 -108.5v-40l10 20q8 20 19 107q8 82 14 106q6 21 4 27zM887 694q8 8 4 56l-2 24q-2 -16 -6 -55q0 -23 4 -25z M977 784q0 10 -35 11h-37v-41q0 -33 4 -33q2 -2 11 6q12 10 12 27q0 14 6 14t8 -8q4 -12 23 10q8 8 8 14zM498 477q8 4 9 28.5t1 123.5l-4 121q-2 -10 -5 -107.5t-8.5 -134.5t-5 -39t12.5 8zM545 618q-2 63 -13 105l-6 16q-4 -6 -4 -110v-131l19 12q33 18 39 27.5t2 31.5 l-4 29l-5 -23q-4 -23 -14 -24q-2 0 -4 2t-4 10t-3 20t-3 35zM770 569q2 45 0 93q-2 25 -2 -3v-45zM801 557q6 70 0 66q-2 -2 -10 -45q-8 -59 -2 -65.5t8 13.5q2 13 4 31zM659 565q4 2 3 27l-3 26l-4 -26q-4 -31 4 -27zM852 545q0 14 1 27.5t1 21.5v8q-2 0 -10 -33 q-8 -35 -21 -53l-12 -16l12 -11q111 -70 113 -57q4 16 -12 29q-6 4 -9 0q-8 -14 -18 4q-4 8 -4 18q0 23 -12 41l-11 21l-6 -33q-4 -29 -10 -29q-8 5 -2 62zM461 479v33q-2 -2 -4 -10q-4 -10 -21 -49q-14 -33 -10 -33l4 2q25 12 31 57z" />
<glyph unicode="U" horiz-adv-x="1531" d="M780 1493q27 10 78 8q35 0 48.5 -3t31.5 -17q43 -31 47 -81t-27 -138q-25 -63 -26.5 -99.5t12.5 -83.5q14 -43 37 -59q31 -23 72 -62q53 -45 94 -75l43 -33l43 4q68 8 99.5 1t60.5 -40l18 -22v-136q0 -127 -5 -165.5t-24 -55.5q-12 -10 -20 -12t-33 2q-35 4 -100 4 q-70 2 -103.5 -16.5t-89.5 -81.5q-53 -61 -91 -88t-93 -45q-131 -41 -311 -41q-127 0 -194.5 20.5t-102.5 69.5q-20 29 -19 63q0 37 11 58q8 14 6 18t-19 12q-41 23 -51 66t12 94q16 39 11 41q-10 4 -24.5 18.5t-20.5 24.5q-37 68 18 150l22 32l-12 15q-25 20 -18 82 q4 66 57 100q63 43 246 39l108 -2l-6 22q-8 29 -3 87.5t20 97.5q27 78 81 139t117 88zM836 1386q-2 2 -13.5 0t-25 -7t-17.5 -9l23 2l4 2q29 10 29 12zM774 1343.5q12 6.5 17.5 9.5t1.5 3q-6 0 -25 -6q-8 -4 -23.5 -18.5t-25.5 -28t-6 -15.5q6 -2 26 10l17 13l-2 2 q-20 0 0 18q8 6 20 12.5zM870 1333l2 10q-2 0 -30 -8q-18 -6 -54 -23.5t-36 -21.5l14 4q16 2 43 11q57 16 61 28zM805 1284q14 8 7 7t-44 -11q-39 -12 -55 -12q-10 0 -15.5 -5.5t-11.5 -21.5q-6 -18 -11 -40.5t-6 -38t1 -17.5q8 0 63 20.5t70 28.5q16 8 0 4q-10 -4 -51 -18 q-74 -25 -70 -13q2 10 49 31q66 31 64 35q0 4 -31 -8q-70 -25 -76 -13q-4 8 23 23q12 8 28 16q52 23 66 33zM850 1280q4 10 0 10q-6 0 -62 -30l-43 -27q2 0 50 18q39 14 45 15q4 0 10 14zM836 1235q0 6 -2.5 6t-13.5 -8t-20 -15.5t-7 -7.5q8 0 25.5 10.5t17.5 14.5z M825 1176l2 14q-8 -4 -14 -6q-14 -10 -51 -23l-25 -12q2 -2 8 0q2 0 21.5 3t28.5 5q26 3 30 19zM819 1126q6 6 2 13q-2 6 -55 -17q-23 -10 -37 -16l-12 -8q2 -4 50 10t52 18zM729 1120l33 19q-8 0 -48 -9.5t-44 -11.5q-2 -4 2 -24l6 -17q2 0 4 10q6 15 47 33zM831 1092 q-4 14 -8 14q-6 -2 -20 -4q-10 -2 -63.5 -18.5t-55.5 -18.5q-4 -2 4 -15.5t14 -13.5q10 0 31 12.5t53 16.5q33 6 40 10.5t5 16.5zM842 1044.5q0 6.5 -13 2.5q-10 -2 -65 -19q-70 -20 -70 -33q0 -10 13 -8q135 51 135 57.5zM850 1016q0 4 -10 6q-8 2 -76 -25.5t-88 -40.5 q-20 -16 -39 -16q-25 0 -168 -60.5t-154 -76.5q-6 -10 7 -6q16 4 75 32q74 35 217 91q236 88 236 96zM866 971q-10 14 -18 14q-29 0 -397 -184q-147 -74 -138 -74q18 4 164 73.5t221 94.5q80 27 129 45q45 16 45 21q2 4 -6 10zM424 926l76 35l-45 -3q-43 0 -76 -14 q-33 -16 -41 -16q-14 0 -4 8q4 6 14 10q16 6 4 6q-14 0 -37 -6l-24 -6l12 -14q12 -14 16 -29q4 -12 17.5 -9t87.5 38zM584 948q-23 14 -125 -30q-16 -6 -42 -17.5t-41.5 -19t-21.5 -9.5q-23 -10 -26 -26l-2 -19l55 27q43 23 133 59q74 29 70 35zM848 889l90 31l-25 16 q-27 18 -26 12q0 -8 -62 -26q-70 -23 -225 -103q-283 -141 -262 -141q12 0 274 117q154 69 236 94zM442 813l185 94q-8 0 -89 -32.5t-137 -57.5q-78 -37 -92 -41q-8 0 -23.5 -13t-27.5 -27.5t-10.5 -16.5t194.5 94zM985 879q-16 18 -28.5 17t-51.5 -22q-45 -27 -123 -61 q-33 -16 -53 -27l-18 -10q0 -2 90 31q96 33 114 37q76 18 78 24q0 3 -8 11zM883 877l26 18v2q-16 0 -109 -37t-182 -76q-129 -59 -227 -98l-90 -37l6 -22l6 -23q2 -2 21.5 8.5t50.5 26.5q84 47 358 170q107 48 140 68zM649 862l-2 2q-8 0 -178 -84q-129 -63 -172 -73 l-43 -13l16 -10q14 -8 24.5 -5t53.5 26q154 80 180 94q121 61 121 63zM1040 829q-12 14 -24 15.5t-37 -13.5q-29 -18 -102 -40q-29 -10 -99.5 -41t-128 -58.5t-55.5 -30t39 12.5q51 25 208.5 82t178.5 59q23 4 22 8q0 2 -2 6zM961 836l12 8q-4 2 -66 -15 q-109 -33 -279.5 -101.5t-258.5 -115.5l-62 -30l-16 -45l-17 -43l23 -9q20 -6 31 -12q8 -6 51 19q66 37 247 127t267 126q242 102 22 23q-41 -14 -98 -35q-250 -94 -371 -164q-111 -63 -137 -63q-29 0 101 74q262 150 438 215l12 4q85 29 101 37zM1077 793q4 0 -2 6 q-4 4 -95 -32t-189 -83q-76 -35 -181.5 -88t-105.5 -55t19.5 7t47.5 23q59 31 233.5 107t225.5 96q45 15 47 19zM1126 762q-10 16 -31.5 11t-99.5 -40q-244 -113 -434 -219q-193 -106 -192 -115l8 2q8 4 21.5 11.5t29.5 17.5q109 59 393.5 192.5t302.5 133.5q6 0 2 6z M1309 694l-2 58l-21 2q-35 0 -86 -5.5t-61 -11.5l-9 -6q0 -2 9 2q16 4 41 8q27 2 26 -2q0 -8 -51 -26q-92 -31 -168 -72t-219 -139q-29 -18 -101.5 -68.5t-99.5 -68.5q-106 -72 -116 -80q-20 -23 362 198q31 18 78 44t76.5 43.5t40.5 23.5q66 35 163 79t105 40 q18 -6 -21 -19q-4 0 -6 -2q-47 -12 -334 -196q-104 -68 -227 -144l-104 -65q2 -2 39 16q90 45 258 154q190 123 290 166q92 41 93 24q0 -6 -28 -25.5t-46 -25.5q-41 -16 -210 -119.5t-206 -134.5l-18 -16l22 12q4 2 26.5 15.5t56.5 33t65 35.5q133 78 166 94q45 25 75 43 q33 20 43 25q2 0 54 26l47 25zM1030 682l90 47q-35 -2 -179 -72.5t-271 -146.5q-225 -137 -226 -143q0 -2 5 0q10 4 169 98q203 119 263 145q61 29 149 72zM705 606l135 72q-10 0 -127 -54.5t-217 -103.5q-45 -23 -70 -36t-41 -22t-20.5 -14.5t-4.5 -9.5q4 -14 8.5 -15 t20.5 9q154 90 316 174zM1227 631q0 4 -19 -4q-10 -4 -61 -31q-106 -51 -256 -150q-193 -125 -279 -163l-49 -21l47 2q47 2 56 12q23 33 209 151t305 177q47 25 47 27zM1305 578l2 40l-4 -2q-2 -2 -6.5 -5t-10.5 -5q-6 -4 -26.5 -18.5t-28.5 -20.5q-37 -25 -37 -26.5t5 0.5 t13.5 5t16.5 9q45 20 47 10q0 -2 -14 -10l-21 -10h21q20 0 30 -4q2 -2 4 -1t4.5 5t2.5 12.5t2 20.5zM860 584l14 10q-10 2 -256 -143q-260 -154 -272 -148q-4 2 -4 6q0 6 109.5 79t207.5 130q92 55 97 60q14 12 -160 -76q-63 -31 -115 -60q-80 -43 -99.5 -56t-33.5 -36 q-18 -31 -16 -41q4 -6 27.5 -19.5t37.5 -15.5q12 -2 76 43q20 14 219 150q100 70 168 117zM1040 592l-24 -8q-41 -23 -168 -97q-86 -51 -252 -143l-147 -82h32q25 0 47.5 11.5t110.5 64.5q383 238 401 254zM973 428q4 6 2 6q-6 0 -209 -119q-25 -16 -41 -26l-16 -10 q4 -4 52 7t79 21q37 14 69 47q54 56 64 74z" />
<glyph unicode="V" horiz-adv-x="1343" d="M924 1217q39 14 89 11t87 -22q33 -14 64.5 -45t43.5 -59q31 -72 9 -176q-20 -96 -88 -208t-201 -274q-41 -51 -85 -95t-65 -54q-39 -20 -68.5 -13t-74.5 50q-57 55 -103 90q-172 139 -245.5 230t-93.5 194q-18 78 4 162t69 127q111 100 287 16q74 -33 117 -74l18 -16 l37 31q113 96 199 125zM907 1051q80 68 66 69q-4 0 -23 -8q-12 -6 -105 -95t-93 -95q0 -4 -29 -25q-33 -20 -148 -133q-102 -100 -88 -94q57 41 230 207q106 104 190 174zM1063 1106q-25 14 -37 14q-10 0 -43 -39q-53 -59 -254 -233q-78 -68 -145 -131q-94 -94 -97 -115 q10 0 80 61.5t156 149.5q207 207 315 270q10 6 11.5 -2t-11.5 -18q-2 -2 -13 -12.5t-31.5 -26.5t-32.5 -27q-41 -35 -146.5 -135t-191.5 -186t-80 -86q14 0 190 168q170 164 271 246q80 63 75 43q-2 -10 -24 -39q-47 -57 -209 -197q-106 -90 -168 -152l-33 -36q8 6 68 59 l2 2l2 2q170 152 284 242q98 78 104.5 71.5t-27.5 -38t-175 -164.5l-115 -107q4 2 37 29q92 74 179.5 136.5t93.5 57.5q4 -4 8 9q12 33 12 86q0 65 -55 98zM369 1063q12 8 16 14q4 4 0 4q-6 0 -27 -10q-41 -20 -57 -90q-18 -78 -6 -94q4 -4 80 61q84 70 82 72t-41 -29 q-70 -55 -78 -47q-4 2 6 14q8 8 6 9.5t-16 1.5q-20 0 -23 16q-2 14 14.5 39t43.5 39zM496 1061q-35 12 -52 16q-18 4 -52 -14.5t-50 -40.5q-33 -45 -8 -43q27 4 78 53q35 33 38 27t-34 -43l-37 -39l45 37q47 39 53 33q16 -18 -92 -109q-68 -57 -68 -59l5 2q4 2 12 8l16 12 q109 76 147 105.5t35 33.5q-1 7 -36 21zM825 1018q27 27 41.5 42t12.5 15q-4 0 -51.5 -38t-57.5 -50q-14 -14 -8 -20t63 51zM903 1020l27.5 27.5l20.5 20.5t5 7q-4 0 -88 -73.5t-106 -100.5l-17 -18q4 2 43 35q54 43 115 102zM565 1022q-20 14 -21 14t-5 -16q-2 -20 -35 -53 l-31 -35l57 37l56 39zM993 961q14 16 27.5 29.5t20 20.5t3.5 7q-20 0 -307 -275q-119 -115 -159 -147q-43 -35 -37 -43q2 -2 8 2t18.5 14.5t29.5 27.5l44 44q98 98 195 180q110 97 157 140zM426 903q92 94 89 97.5t-44 -29.5q-49 -37 -104.5 -75t-61.5 -38q-4 -2 -1 -15.5 t12.5 -35t21.5 -39.5l16 -27l111 109q113 111 123 129q8 12 2 10q-8 -2 -68 -43q-135 -92 -164 -141q-18 -29 -24 -6q-2 10 92 104zM559 903q66 68 57 76q-10 6 -22 -12q-10 -16 -96 -104.5t-90 -88.5q-6 0 -15 -10q-6 -8 -4 -8t17 8q34 18 153 139zM625 940q2 6 4 10t0 4 t-66 -65q-123 -127 -170 -146q-25 -8 -31 -10q-2 -4 35 -45l37 -43l68 68q51 47 133 127q59 59 55 65q-2 2 -6 4q-16 6 -31 -6q-8 -6 -73 -65q-94 -84 -115 -101q-63 -57 -64 -30q0 6 107 112q111 109 117 121zM635 905q18 16 22.5 22.5t-2.5 12.5q-10 8 -32 -25 q-27 -33 -91 -94l-65 -61l70 59q73 63 98 86zM1081 860q4 10 8.5 18.5t4.5 14.5l2 4q-4 0 -103.5 -91t-146.5 -136l-51 -52l67 62q168 145 176 137q4 -4 -14 -35q-27 -43 -203 -207q-80 -76 -102 -102l-21 -27l21 13q20 10 104 90t97 76q6 -2 18 10t37 49q77 110 106 176z M934 846q45 43 43 43q-14 0 -244 -207q-139 -125 -153 -135q-10 -8 -10.5 -12.5t5.5 -8.5q6 -6 35 17.5t127 115.5q80 74 197 187zM932 770l63 61q-10 -2 -130 -100t-173 -149q-68 -63 -78 -68q-8 -6 -7 -10t18 -17q39 -37 49 -35.5t51 46.5q45 49 137 135q143 129 142 143 q0 2 -11 -6q-16 -10 -84 -70q-225 -199 -235 -190q-6 6 3 23.5t17 17.5q6 0 88 78q132 123 150 141zM510 662v2l2 6q-2 0 -27 -19l-2 -2q-20 -14 -24 -19t4 -9q8 -8 24 10q19 23 23 31zM551 618q16 18 25.5 29.5t7.5 11.5q-4 0 -9 -8q-2 -4 -40 -33q-37 -29 -31 -34 q8 -7 47 34zM862 551q49 53 49 57q-2 2 -24.5 -18.5t-57.5 -52.5q-80 -78 -108 -93q-27 -12 -27 -16t15 -16l2 -2q8 -8 23.5 5t94.5 101q23 23 33 35z" />
<glyph unicode="W" horiz-adv-x="1574" d="M1200 1364q39 6 86 0q53 -8 87 -32.5t61 -74.5q18 -33 21 -82t-9 -92q-20 -74 -68.5 -126t-167.5 -132q-76 -51 -114.5 -87t-83.5 -93l-17 -24l15 -7q16 -6 20 -16q14 -35 -15.5 -92t-68.5 -74q-51 -23 -86 7t-41 102q-4 35 2 51t27 24q18 6 43 43q18 25 14 25 q-6 0 -147 -125q-133 -117 -203 -172q-68 -55 -76 -76q-6 -18 -18 -16t-63.5 -31t-80.5 -37q-33 -4 -45 -6q-16 -2 -49 6q-33 10 -37 10.5t-41 -34.5q-31 -31 -46 -37t-36 0q-33 12 -34 51q0 20 41 59l39 41v52q0 51 24 98q43 90 173 213t325 262l84 59l-19 15 q-16 12 -16 34.5t11 35t65 49.5q290 202 444 229zM1249 1245q-4 14 -10 14.5t-10 -16.5q-2 -12 -10 -39q-2 -16 -13.5 -113.5t-11.5 -115.5q0 -8 -6 -8q-8 0 -6 116v91q-4 0 -23 -136q-16 -119 -20 -125q-2 -4 10 2q4 2 10 7q18 10 35.5 22t27 20.5t7.5 8.5q-4 6 20 221 q4 35 0 51zM1292 1251q-35 14 -32 4q0 -2 2 -4q2 -12 2 -20q0 -10 14 4q8 12 11 12t11 -8q8 -12 9 -33q0 -12 3 -16t11 -4q10 2 13 -4t5 -27l5 -25q2 2 4 13q6 31 -11.5 63.5t-46.5 44.5zM1217 1245q4 8 -11 8q-8 0 -10 -8t-2 -47l2 -55l8 47q9 43 13 55zM1182 1245 q0 2 -4 2t-52.5 -20.5t-60.5 -26.5q-8 -6 -10 -32.5t-4 -127.5q-2 -141 4 -141q8 14 12 119q4 106 11 140t7 36t7 2q16 0 22 -168q4 -111 10 -108l2 6q8 18 21 108q10 90 22 150q2 12 5.5 28.5t5.5 24.5zM1292 1149q4 76 -4 78q-6 0 -14 -17q-6 -12 -15.5 -69.5 t-14.5 -109.5t1 -52q4 0 39 36t41 48q16 29 6 92q-4 18 -6 19l-6 -11q-8 -14 -10 -30q0 -20 -4.5 -39t-10.5 -19t-2 74zM1018 1161q4 8 -2 10q-4 0 -15 -8q-8 -4 -10 -27.5t-2 -117.5q0 -139 6 -143.5t11 40.5q2 41 6 134q2 100 6 112zM1036 1014q2 66 3 111.5t-1 45.5 q-12 0 -16 -161q-6 -137 -10 -146q-4 -6 4 -22l10 -19l21 21q27 20 47 35q6 4 11 8t7 7t0 5q-8 4 -8 64q0 63 -4 129q-4 70 -10 55q-6 -18 -10.5 -127t-16.5 -133q-12 -27 -23 -29q-2 0 -4 5t-2 22.5t1 46.5t1 82zM963 1034q0 43 -1 74t-4 31q-4 0 -53 -33l-49 -31l14 -22 l13 -23l8 29q6 27 16 28q10 0 15 -18q4 -23 4 -55q0 -35 16 -60q16 -27 19 -26q0 47 2 106zM975 958q2 53 0 103q0 27 -2 0v-53zM913 1032q0 37 -2 37q-10 0 -12 -30.5t6 -37.5q4 -2 6 9q2 8 2 22zM829 911q-8 29 -13 29t-7 -94l-2 -96l16 12q18 12 20.5 17t-3 54t-11.5 78z M793 750q4 12 4 98q-2 74 -9 74l-6 -4q-6 -8 -6 -23.5t4 -75.5q9 -75 13 -69zM866 872q-18 31 -20 31q2 -25 6 -55l6 -53l14 10q14 10 13 24t-19 43zM758 801q-2 96 -6 96q-4 -2 -13 -10q-10 -6 -4 -27q4 -14 8 -86q4 -70 10.5 -69.5t4.5 96.5zM733 764q-6 76 -10 92 q-4 10 -7 11t-11.5 -5t-10.5 -20.5t0 -69.5q2 -125 -18 -125q-6 0 -8 49q-4 43 -6.5 67.5t-4.5 39t-4 17.5t-4 1q-6 -2 -2 -90q4 -125 -18 -129q-4 0 -7.5 11.5t-7.5 45.5q-4 76 -8 95q-2 29 -6 28q-2 0 -8 -4q-8 -4 -10 -17t-2 -61q0 -70 -5 -92q-4 -18 -14 -18q-8 0 -8 14 q0 8 -4 -4l-4 -12q-8 -27 -12.5 -35t-10.5 -6q-8 6 -10 -8q-4 -10 -2 -27l2 -23l90 78q80 68 113 99l24 22zM683 759.5q-1 67.5 -7 76.5q-6 4 -6 -7q0 -6 2 -28q4 -45 4 -80t4 -35q4 6 3 73.5zM635 688q0 119 -14 115q-6 -2 2 -80l10 -82q2 2 2 47zM567 684q0 72 -7 72 t-3 -70t8 -72v9q0 10 1 26.5t1 34.5zM535 621q-4 113 -15 104q-4 -4 0 -61q4 -74 12 -72q3 2 3 29zM477 633q8 20 6 39q-2 14 -4 15t-12 -7q-14 -12 -4 -25q8 -10 8 -26q0 -10 2 -11zM494 604q4 23 0 47q0 12 -2 0v-24zM449 549q-8 109 -19 100q-2 -8 4 -80.5t12 -81.5 q4 -6 5 13q0 16 -2 49zM422 526q-2 8 -8 62l-4 41l-19 -15q-16 -14 -12 -33.5t24 -48.5l23 -28zM463 575q2 12 0 29q-2 -8 -2 -14zM485 553q-4 45 -6 47v-43q2 -20 4 -29q4 -10 4 2q0 7 -2 23zM479 491.5q-6 4.5 -10 32.5l-2 29l-2 -29q0 -27 -4 -49q-2 -12 0 -17t7 -2 t11 15q6 16 0 20.5zM291 420q2 82 -10 78q-2 -2 -5 -9q-6 -10 3 -65l10 -55zM321.5 370.5q-8.5 8.5 -10.5 57.5l-4 49l-4 -63q0 -43 -3 -54.5t-9 -9.5q-12 0 -12 -12t8 -12t47 25.5t43 31.5q4 4 -15 27l-18 22l-2 -18q0 -14 -6 -33t-14.5 -10.5zM328 406q2 16 0 34l-2 -2 v-16zM238 367q4 27 2 49l-2 22l-13 -24q-23 -49 -2 -68q8 -6 13 8q0 5 2 13zM262 344q-4 18 -6 18t-4 -16q-2 -20 6 -20t4 18z" />
<glyph unicode="X" horiz-adv-x="1300" d="M637 1384q27 10 46 -5t50 -70q84 -164 234 -222q68 -27 166 -40q20 -4 34 -21q10 -10 12.5 -23.5t2.5 -56.5q0 -168 -23 -303q-35 -199 -119 -330t-233 -217q-59 -33 -82 -39q-18 -6 -30.5 -4t-69.5 19q-16 4 -74 30q-410 207 -369 775q6 86 15.5 108.5t40.5 26.5 q45 6 135 67q150 102 196 226q23 59 68 79zM592 1094q6 33 4 36q0 2 -6 -5t-15 -17q-29 -35 -104.5 -91t-134.5 -85l-43 -21l-4 -37q-12 -113 6 -229q31 -207 145 -328q27 -31 76 -67.5t53 -30.5q4 4 -2 43q-8 45 -12 148l-2 104l-37 33q-92 86 -78 186q8 41 25.5 73 t62.5 79l45 51l9 61q10 79 12 97zM725 1079q8 6 12 10.5t2 4.5q-4 0 -24.5 -12.5t-20.5 -16.5q0 -13 31 14zM791 1067q-8 8 -14.5 5t-28.5 -30l-29 -30l39 22q39 23 33 33zM739 1053q16 16 11 16q-10 0 -36 -21.5t-26 -27.5q0 -8 19 2q16 13 32 31zM825 1020l19 8l-17 10 q-12 8 -14 7t-4 -13l-4 -18q4 0 20 6zM788 1022q10 14 8.5 17t-59.5 -31q-35 -23 -45 -32t-10 -21.5t6 -18.5t25 -14l30 -17l7 21q6 18 41 39q20 12 35.5 22t22.5 17.5t5 9.5q-4 4 -43 -13.5t-61 -35.5q-31 -25 -37 -25q-23 0 30 39q35 27 45 43zM909 993l-6 4l-4 -2 q-4 0 -11 -3t-14 -5q-20 -6 -55 -29.5t-55 -44.5q-10 -8 -9 -12t13 -16q12 -16 27.5 -42t15.5 -36q0 -8 10 -4q14 2 91 55t94 70l18 20l-29 -14q-16 -10 -87.5 -53t-71.5 -31q0 4 49 43t84 63q16 10 6 15q-10 2 -59.5 -20.5t-92.5 -51.5q-35 -23 -41 -22q-16 0 11 20 q4 2 10 6q29 18 68.5 52t37.5 38zM1001 954q10 6 3 6.5t-21 -14.5l-10 -8q2 0 6 2q16 8 22 14zM1063 950q-12 4 -18.5 0t-36.5 -35l-37 -36l51 20q51 18 51 32.5t-10 18.5zM1073 858q0 10 -1 19.5t-2 13.5t-3 4t-42 -28.5t-46 -37.5l27 13q53 25 53 10q0 -18 -43 -68 q-18 -23 -10 -20q18 8 36 12q18 6 24.5 20.5t6.5 61.5zM1028 887l-31 -13q-16 -8 -71 -34l-2 -2l-2 -2q-74 -37 -88.5 -47.5t-14.5 -24.5q-2 -23 0 -23q8 0 108.5 71t100.5 75zM1040 838l-2 6l-71 -37q-150 -76 -150 -96q0 -10 -10 -39q-6 -20 -2 -21q84 51 159.5 111 t75.5 76zM708.5 774.5q-8.5 22.5 -22.5 38.5l-16 14l-2 -47q-6 -66 -7.5 -99.5t3.5 -33.5q6 0 25.5 32t21.5 48q6 25 -2.5 47.5zM1053 766q0 2 -6 0q-4 -2 -19 -6q-59 -23 -145 -77t-131 -97q-41 -41 -70 -54l-27 -16l4 -82q4 -80 9 -96q0 -4 2 -5t7 2t11 8t21 17 q37 33 82 62q90 57 198 153l29 27l-55 -33q-53 -29 -123 -75q-125 -84 -142 -84q-14 0 7 14q4 4 8 6q10 6 71 53q59 45 115 86q33 23 61.5 45.5t45 38t14.5 17.5q-10 8 -111 -58q-211 -135 -217 -127q-4 6 17 21q23 12 41 31q16 14 114 84q68 47 128.5 93t60.5 52zM1057 686 q10 70 8 73t-10 -9q-10 -14 -74 -62l-74 -59q4 2 15 10q23 14 52.5 28.5t51 20.5t21.5 0q0 -23 -84 -88q-49 -39 -50 -41l7 2q6 4 18 11.5t27 13.5q82 47 63 10q-6 -12 -65 -61q-51 -43 -48 -46q94 35 93 17q-4 -6 -54 -45l-55 -47q2 0 27 14q51 29 51 12q0 -8 -40 -47 t-67 -59l-18 -15l31 13q31 14 39 12q18 -8 71 105q44 98 64 237zM555 713q2 43 0 43t-8 -17q-14 -39 0 -59q4 -6 6 12q2 7 2 21zM975 496q4 4 -2 2q-10 -4 -55 -23q-53 -23 -144 -92q-82 -66 -96 -74q-10 -8 -6 -24l4 -19l14 15q8 6 60 41q25 16 119 89t106 85zM932 406 q16 16 12 16q-8 0 -156 -98q-98 -66 -106 -68q-6 -4 4 -47t19 -43q16 0 66 35t85 69q51 51 47 54q-4 4 -43 -17.5t-80 -50.5q-76 -55 -82 -45q-4 4 31 31q41 31 115 90.5t88 73.5z" />
<glyph unicode="Y" horiz-adv-x="1826" d="M465 1454q10 4 24 2q10 -2 52 -10q98 -16 174 -59.5t106 -102.5q12 -23 15.5 -39t3.5 -67q0 -74 -19 -115q-35 -82 -86 -139l-26 -31l34 -37l37 -37l19 15q33 23 77 27.5t80 -9.5l31 -14l53 20q86 31 125 60.5t47 70.5q14 68 54 103q41 37 117.5 84t111.5 57 q45 10 84 -37q18 -20 72.5 -121.5t54.5 -116.5q0 -12 -16.5 -40.5t-57.5 -47.5q-51 -25 -114 -63q-78 -47 -111 -55q-23 -8 -35 -8.5t-43 8.5q-53 12 -97 0.5t-120 -58.5l-47 -28v-35q0 -33 -9 -71t-20 -46q-12 -8 -30 -8q-12 0 -14.5 -3t1.5 -11q8 -27 18.5 -79.5 t10.5 -70.5q0 -70 -27 -125q-33 -74 -105.5 -104.5t-155.5 -9t-146 89.5q-27 33 -33 40q-4 10 -9 8.5t-22 -20.5q-78 -84 -182 -112q-61 -18 -123 -5q-90 20 -139 113q-16 33 -15 85t17 91q47 102 172 185q35 23 94.5 52t67.5 29q10 0 8 13q-4 10 -14 57q-8 33 -12.5 39 t-16.5 6q-57 0 -133 39q-80 39 -124 113.5t-44 167.5q-2 90 33 159q72 139 168 148q41 2 55 -11.5t33 -72.5q49 -164 53 -170q2 -2 31 10l28 10l-24 103q-25 104 -24 139t32 45zM614 1315q-61 23 -61 14q0 -2 20 -84q20 -86 17 -98q-4 -14 -23 -33q-12 -14 -22 -29 q-6 -10 -78 -38.5t-90 -28.5q-49 0 -51 51q0 20 -26 109.5t-34 97.5q-2 2 -13 -8.5t-24.5 -27.5t-19.5 -30q-27 -49 -27 -110q0 -66 35 -121q45 -70 145.5 -93.5t184.5 17.5q33 16 82 66q51 51 80 108q27 57 26 97q0 51 -27.5 83.5t-93.5 57.5zM1546 1042q-41 78 -45 78 q-6 0 -68.5 -41t-93.5 -63q-12 -10 -25.5 -57.5t-23.5 -65.5l-12 -19l45 -12q47 -12 63 -6q18 8 103 59q86 51 90 52q2 0 -2 10t-12.5 27.5t-18.5 37.5zM625 813q0 4 -1 5t-7.5 -1t-14.5 -6t-27 -12q-37 -18 -51 -19q-12 0 -13 -4t5 -28l6 -25l21 10q20 12 12 15h-6 q-14 2 -14 6t45 28.5t45 30.5zM662 784q2 2 -5 4q-2 2 -24.5 -12t-32.5 -24zM659 762q14 14 -18 -6q-12 -6 -31 -17q-47 -29 -65 -32q-12 -2 -16.5 -13.5t3.5 -17.5q14 -8 127 86zM932 733q-20 33 -60 19l-24 -11l26 -36q27 -35 54 -78l26 -41l2 32q5 70 -24 115zM682 733 l12 15q-16 -2 -73 -39q-51 -35 -67.5 -48.5t-12.5 -19.5q2 -4 31.5 13.5t63.5 41t46 37.5zM778 651q-41 53 -59 70l-14 14l-33 -28l-31 -29l33 16q35 16 37 16.5t3 -9t-1 -20.5t-4 -11q-10 -6 -7 -10.5t13 -2.5q12 4 22 0q8 -4 0 -22q-8 -16 -20 -27q-18 -14 -2 -14 q6 0 20 6q29 10 39 2t9 -14t-15 -25l-16 -18l26 8q51 18 62 4q8 -14 -31 -51l-12 -12l24 4q25 2 27 -3.5t-17 -19.5q-20 -14 -10 -29q4 -4 15 0q27 10 31.5 2t-15.5 -30q-16 -14 -13 -18.5t21 3.5q27 10 31 24.5t-8 47.5q-33 84 -105 176zM700 686q0 10 -69 -29 q-4 -2 -10 -6q-53 -29 -64.5 -40t-5.5 -31q2 -2 5 -2t11 4t19.5 11t29.5 19q84 56 84 74zM721 635q6 10 -4 10q-31 -2 -111 -57q-45 -35 -45 -51.5t4 -20.5q12 -8 77 42t79 77zM772 590q0 6 -8 6q-12 0 -67.5 -28.5t-78.5 -49.5q-35 -25 -38 -26q-6 -2 -5 -25l7 -25l39 29 q39 27 61 37q16 10 53 43t37 39zM451 532q-6 25 -11 25q-6 0 -59 -29l-57 -28l14 -35q10 -29 14 -33t17 0q14 4 10 19q-16 51 -6 53q6 4 18 -25q10 -20 16.5 -20t6.5 22q0 16 5 17.5t13 -11.5q8 -14 21 -14q10 0 10 8q-2 8 -12 51zM821 539q6 8 5 10t-11 2q-47 -2 -162 -82 q-47 -31 -55 -40t-4 -21l6 -17l33 23q31 20 37 20q4 0 8 12.5t20 28.5q14 18 45 19q45 0 78 45zM328 442q-8 23 -13 39q0 8 -4 7t-16 -9q-23 -16 -53.5 -46t-40.5 -48q-8 -14 -8 -20.5t8 -20.5q14 -35 18 -8q0 10 -2 29q-4 23 4 26q4 2 10 -12q2 -2 2 -4q12 -31 11 -4 q0 8 -2 20q-2 27 3 29t15 -23q10 -29 35 -12q10 8 4 27q-14 37 -4 37q8 -2 18 -23q10 -25 17.5 -18t-2.5 34zM909 383q-4 27 -6 31l-10 -17q-16 -39 -113 -94q-53 -29 -53 -33l23 11q20 10 59 30q80 41 92 41q8 0 9 5.5t-1 25.5zM676 387q0 18 -8.5 18.5t-32.5 -16.5 q-20 -12 -23.5 -17t1.5 -16.5t8.5 -12.5t11.5 5q16 12 29 19q14 6 14 20zM860 375l21 20q-14 -2 -29.5 -12t-17.5 -18q-4 -14 4 -11q6 3 22 21zM481 334q18 18 11 31q-4 10 -5.5 11t-5.5 -7q-4 -12 -14 -9q-6 2 -7 1t1 -7q4 -10 4 -22l2 -10q2 0 14 12zM690 348 q-6 18 -39 -8q-16 -12 -17 -17.5t5 -19.5q8 -16 25 -33l14 -12l43 27q18 12 29.5 20t9.5 10q-12 14 -66 -4q-27 -10 -28.5 -10t-2.5 5t1 9t4 4q10 0 18 10.5t4 18.5zM451 331.5q0 18.5 -7 20.5q-4 0 -8 -6q-4 -4 2 -18.5t11 -14.5q2 0 2 18.5zM414 315q0 16 -4 17 q-2 0 -6.5 -6.5t2 -16.5t6.5 -4q2 4 2 10zM877 324q33 25 -41 -15q-16 -6 -37 -18q-80 -41 -92 -41q-23 0 -7 -12q4 -4 11 -7q10 -4 19 -1t36 22q49 33 70 43q33 21 41 29zM913 317q0 14 -3 14.5t-11 -7.5q-10 -12 -51 -37l-45 -27q0 -2 16.5 4t38.5 17q35 14 45 21t10 15z M186 291q-10 35 -13 35t-3 -27q0 -23 11.5 -44.5t27.5 -31.5l14 -6l-14 19q-13 18 -23 55zM221 262q-16 41 -22 51l-11 17l5 -19q4 -20 16 -46.5t18 -31.5l-2 19q-2 6 -4 10zM395 295q-6 16 -10 18l-4 -10q0 -10 -6 -22q-6 -10 -8 -10.5t-9 8.5q-8 10 -8 0q-2 -4 -2 -15 q0 -27 -10 -35q-12 -4 -22.5 3.5t-10.5 21.5q0 18 -16 0q0 -2 -2 -4q-8 -14 -17 -10q-4 0 -8 -4.5t-8 -12.5l-6 -20l37 4q70 6 129 55q20 18 24 24.5t0 14.5q-6 8 -8 7t-8 -13q-15 -35 -27 0zM899 279q12 12 -2 6q-10 -4 -45 -23q-63 -29 -84 -35l-31 -12l19 -6q20 -6 78 29 q55 31 65 41zM336 262q0 14 -3 17.5t-14 -0.5q-8 -4 0 -23q6 -25 15 -12q2 6 2 18zM892 250q3 6 -3 4q-4 -2 -29 -16q-29 -16 -33 -21l27 10q35 17 38 23z" />
<glyph unicode="Z" horiz-adv-x="985" d="M430 1346q27 4 83 -1.5t93 -15.5q102 -31 168 -96q100 -100 90 -295q-10 -242 -180 -580q-49 -102 -66.5 -130.5t-29.5 -32.5q-16 -8 -30.5 -2t-118 103t-144.5 144q-98 113 -142 208t-51 206q-10 147 44.5 271t148.5 175q59 36 135 46zM516 1253q-27 2 -35 4 q-14 2 -78 -59l-45 -45q4 0 21 12q84 63 133 80l27 8h-23zM432 1244q8 9 -4 9q-39 0 -92 -34q-43 -27 -55 -58q-4 -10 2 -10q4 0 30 23q76 61 101 61q10 0 18 9zM594 1235q-6 6 -19 10q-14 2 -81 -57q-61 -55 -156 -127q-135 -106 -125 -115q6 0 47 41q41 37 59 47 q20 12 31 27q12 14 47 29.5t60 17.5q27 2 26.5 6t53 43t69.5 55l-2 2q-10 -6 -49 -32q-66 -51 -70 -47t3.5 15t13.5 11t29.5 17.5t44 36t18.5 20.5zM481 1192l30.5 30.5t10.5 12.5q-16 2 -100 -54.5t-146 -111.5q-31 -27 -36 -27q-23 0 73 93q57 57 55.5 60t-55.5 -38 q-35 -25 -47 -20q-8 2 -14 -4.5t-19 -32.5q-37 -88 -36 -131q0 -10 36 24q29 27 119 97q86 65 129 102zM639 1208q12 6 2 11q-10 2 -25 -15q-14 -14 -53 -45q-29 -20 -45 -35q-6 -6 0 -4q12 8 62 45q47 35 59 43zM651.5 1185.5q12.5 18.5 10.5 18.5q-8 0 -101 -69l-45 -31 l21 -8q14 -6 22 -1t37 33q43 39 55.5 57.5zM686 1180q4 4 -2 11t-27 -20l-20 -26l22 14q25 15 27 21zM659 1126l41 45q-2 0 -53 -35.5t-65 -48.5q-12 -8 -12.5 -11t10.5 -7q14 -8 34 -41l23 -33l45 45q45 47 45 54q0 2 -6 1t-16.5 -6.5t-22.5 -11.5q-63 -33 -64 -6 q0 8 41 55zM731 1141q-12 18 -17 18t-44 -43t-37 -45q2 -4 47 19q43 25 51 24q23 0 -4 -43q-8 -12 -18 -24l-9 -11q2 0 27 17l37 26l-10 21q-11 25 -23 41zM748 1040q12 16 10 16.5t-58 -36.5q-39 -27 -47 -35t-6 -20q2 -18 6 -23q2 -2 39.5 35.5t55.5 62.5zM778 961l-12 83 q0 -6 -43 -53q-41 -41 -35 -43q2 0 19 8q47 25 61 0l10 -18v23zM307 1001q20 29 -8 5q-8 -10 -25 -25q-35 -35 -61 -53l-25 -17l5 -51q6 -100 49 -184q31 -61 39 -62q4 0 18 21q14 25 49 65q35 35 31 35q-2 0 -41 -37q-59 -57 -72 -39q-12 20 43 80l37 37l-45 -31 q-43 -29 -53 -20q-20 18 31 72q33 33 32.5 41t-43.5 -23q-41 -31 -49 -22.5t6 32.5l15 27l-17 -4q-14 -4 -18 5t6 28q12 20 47 63q39 45 49 57zM520 997q-25 20 -35 21q-8 -2 -32.5 -24.5t-38.5 -41.5q-18 -29 -15.5 -65.5t27.5 -57.5q27 -23 70 -15.5t60 37.5t7 73.5 t-43 72.5zM326 981q16 31 10 31q-4 0 -50 -54.5t-59 -76.5l-16 -27l20 12q27 18 53.5 43t26.5 33q1 10 15 39zM756 954.5q-4 6.5 -11.5 4t-44.5 -20.5q-33 -14 -39 -20.5t-6 -24.5q0 -29 -4 -49l-4 -21l21 17q23 18 28 14q4 -4 4 3t19 28q18 18 29.5 40.5t7.5 29zM768 874.5 q4 8.5 2 34.5l-2 25l-16 -27q-14 -27 -15 -35q2 -6 -20 -16q-20 -10 -25 -18q-4 -4 -65 -60q-66 -53 -105 -100l-41 -47l35 28q49 41 117 99q84 72 104 88q27 20 31 28.5zM299 854q10 8 6 27l-4 16l-35 -37q-45 -51 -30 -47q12 2 63 41zM751.5 788.5q8.5 38.5 6.5 38.5 q-2 2 -137 -133q-135 -133 -152 -168q-18 -35 -16 -39q4 -2 133 121t143 131q14 11 22.5 49.5zM336 791q0 8 -8 16q-6 8 -12.5 5t-28.5 -28q-45 -49 -29 -49q6 0 42 26t36 30zM580 674l102 106q-6 -2 -112.5 -92t-131.5 -115q-35 -35 -43 -30q-4 4 9.5 21.5t46.5 56.5 q66 72 65 73q0 4 -18.5 -10t-46 -36.5t-52.5 -45.5q-63 -57 -63 -35q0 12 22 43q25 29 17 29q-6 0 -10.5 -6t-34.5 -31l-31 -24l37 -43q37 -45 88 -99l53 -53l27 35q33 39 71 84l46 51l-68 -59q-29 -25 -50.5 -41.5t-23.5 -14.5q-6 6 14.5 40t53.5 69l28 33q-4 -4 -53 -52 q-72 -68 -80 -67q-20 0 11 65q21 42 127 148zM340 721q35 33 26.5 40t-47.5 -34q-41 -41 -40 -53q0 -8 6 -4q2 0 8 6q12 10 47 45zM430 727q-6 2 -22 6q-12 2 -64.5 -60.5t-52.5 -78.5q0 -12 100 80q47 49 39 53zM479 686l51 43q-33 -4 -49 -12t-41 -33q-39 -39 -63 -74 l-31 -37l39 35q31 29 94 78zM733 721q0 10 -59 -49l-53 -54l57 52q55 49 55 51zM719 668q8 18 6 22q-4 2 -96 -84t-109 -110q-29 -37 41 24q20 18 49 45q76 72 90 78q13 5 19 25zM694 594q6 23 6 24q-4 2 -137 -151q-18 -23 0 -4q8 6 23 20q47 45 73.5 68t34.5 43zM600 463 q39 43 37 46t-74 -67q-47 -47 -57 -60t-4 -19.5t11 -2t24 24.5q22 31 63 78zM639 473l16 33q-2 0 -47 -53q-92 -106 -76 -101q8 2 50 43q43 45 57 78zM573 360l25 31q-2 -2 -32.5 -30.5t-30.5 -30.5q-1 -11 38 30z" />
<glyph unicode="a" horiz-adv-x="1454" d="M663.5 1219q14.5 2 124.5 0q449 -10 537 -310q33 -111 -43 -227.5t-233 -196.5q-47 -25 -118 -50t-106 -29l-32 -5l-45 -90q-57 -111 -91 -151.5t-71 -40.5q-39 0 -55.5 33.5t-24.5 136.5q-8 100 -12 106q-4 8 -39 8q-70 0 -172 52q-98 49 -143.5 110.5t-45.5 143.5 q0 86 51 192q57 119 174 199t273 106q57 11 71.5 13zM918 1120q-49 8 -141.5 9t-139.5 -7q-111 -16 -207 -63q-39 -20 -76 -47t-37 -33q0 -8 -34 -53q-49 -66 -50 -88q0 -16 99 75q115 106 123 97q6 -6 -88 -123q-137 -166 -109 -152q31 16 195 217q145 170 159 150 q0 -4 -14 -19q-16 -14 -122.5 -148t-137.5 -179q-39 -57 -49 -78l-10 -23l20 23q18 20 94 117q90 111 175 195.5t108 84.5q18 0 4 -18l-21 -21q-61 -66 -146 -170t-122 -166l-14 -26q6 4 78 94q236 291 297 313q25 8 22 -4q-2 -16 -53 -76l-2 -4q4 2 20 19q115 106 115 80 q0 -6 -172 -224l-174 -217l217 219q217 219 223 228q8 10 -14 14q-6 2 -16 4zM1030 1087q-63 18 -63 15q4 -8 -107 -119q-113 -111 -188 -205q-123 -152 -117 -151q4 0 70 75q16 18 35.5 40t38 42.5t22.5 24.5q2 2 72 80q115 129 188 145q18 4 21.5 -4t-15.5 -18 q-16 -10 -148 -154.5t-177 -202.5l-15 -16q2 0 29 23q59 53 180 167q211 201 236 201q33 0 -7 -29q-33 -27 -155.5 -159.5t-190.5 -216.5q-23 -27 -44 -55.5t-33.5 -46t-10.5 -17.5t41 45q33 41 183.5 176t281.5 240l27 24l-13 15q-39 44 -141 81zM711 1012q37 45 32 49 q-2 2 -27.5 -21.5t-61.5 -60.5t-64 -70q-53 -61 -153.5 -184t-106.5 -136.5t-13 -8.5q-6 2 13 43q70 135 227 317q18 20 33.5 38.5t23 29t4.5 10.5q-10 0 -89.5 -87t-141.5 -167q-35 -45 -76 -91t-45 -46q-31 0 47 118q12 16 25 35l39 56l-70 -74q-61 -63 -92 -98l-20 -25 l41 -39q57 -57 163 -94l37 -14l37 40q37 39 37 46q0 16 92 135l49 65l-69 -67q-104 -100 -130 -124t-28 -20q-4 6 41 60q166 203 309 385q29 35 27 37q0 2 -6 -5q-45 -31 -185 -200q-203 -248 -215 -248q-10 0 0 16q4 8 19 29q74 111 297 371zM844 883q31 33 57.5 61.5 t40.5 46.5l14 17q-4 4 -38.5 -21.5t-67.5 -56.5q-51 -53 -100 -111q-45 -51 -172 -194q-31 -33 -57.5 -63t-41 -47t-14.5 -19q2 0 19.5 -3.5l32.5 -6.5t15 -1q-4 2 34 59.5t71 100.5q55 74 207 238zM975 909q27 29 43 46.5t14 17.5q-8 0 -215 -197q-121 -115 -161 -155.5 t-76 -88.5l-39 -53l16 -14q14 -16 21 -33q2 -14 18 8q6 10 20 35q39 66 80 115q99 133 279 319zM1214 938q-18 35 -20 35q-6 0 -81 -69.5t-112 -110.5q-184 -205 -157 -187q12 8 69 64q98 96 150 137q49 39 95 70.5t56 31.5q18 0 9 -16q-2 -6 -11 -10q-18 -10 -121.5 -105.5 t-146.5 -142.5q-23 -25 -47.5 -55.5t-39.5 -52t-12 -21.5t46 53q66 78 158 167t159 138q25 16 25.5 25.5t-19.5 48.5zM608 862l78 99q-4 0 -90 -103.5t-102 -128.5q-6 -10 0 -2q24 24 114 135zM389.5 938q20.5 27 -6.5 4q-14 -12 -43 -39q-84 -80 -119 -100q-6 -4 -6 4 q0 4 2 14q6 45 -10 -6q-4 -10 -8 -22q-27 -84 -13 -121q6 -16 19 10q31 63 125 182q39 47 59.5 74zM1114 817l53 53q-2 0 -71 -55q-61 -47 -165 -147.5t-136 -143.5q-25 -31 -24 -34t40 6q16 4 43 49q23 35 102.5 118.5t157.5 153.5zM1239 827q8 2 4 19q0 14 -45 -27 q-27 -23 -102 -98q-145 -141 -145.5 -147.5t108.5 98.5q139 141 180 155zM1053 696l127 129q-4 0 -81 -70.5t-108 -103.5q-25 -27 -52.5 -58.5t-46 -54t-15.5 -24.5q4 -4 15 5t19 24q9 22 142 153zM961 766q37 41 34.5 43t-129.5 -109q-123 -109 -198 -198q-70 -86 -76 -92 q-6 -4 0 -45l4 -41l31 53q29 51 28 67q0 31 52 41q16 2 28.5 13.5t42.5 52.5q97 123 183 215zM1114 684q35 35 63.5 64.5t45.5 46.5l16 18q-4 0 -45 -31q-20 -16 -82.5 -76.5t-116 -114.5t-49.5 -54q21 0 168 147zM1169 692q51 57 50 60q-10 12 -117 -103l-66 -69l41 28 q45 31 92 84zM670 406q0 20 -25 -23q-2 -2 -4 -6q-4 -8 -8 -15.5t-6 -11.5t0 -4t22.5 28t20.5 32zM649 332l8 33q-2 -2 -10 -15q-10 -16 -29 -35q-14 -14 -17 -22t-1 -29l2 -31l16 33q21 39 31 66z" />
<glyph unicode="b" horiz-adv-x="1144" d="M541 1247q53 6 137 4q156 -4 235.5 -55t104.5 -164q10 -41 6 -145q-2 -94 -2 -314q0 -190 -10.5 -288.5t-36 -144.5t-76.5 -56q-76 -16 -277.5 -14t-259.5 18q-76 25 -116.5 74t-55.5 135q-16 88 0 313q6 102 9 248q2 125 10 173t37 87q37 51 116 86t179 43zM748 1143 q-94 16 -191.5 5t-167.5 -46q-51 -25 -69.5 -64t-16.5 -120q0 -74 6 -80.5t178 0.5q53 2 167 6t139 6l133 4v68q0 113 -38 159t-140 62zM743 715l37 41l-39 -2q-100 -4 -124.5 -6.5t-32.5 -10.5q-29 -25 -135.5 -148.5t-106.5 -131.5q0 -18 123 116q59 68 112.5 116t59.5 44 q16 -10 -23 -35q-23 -14 -16.5 -21t47.5 30q39 35 45 34q14 0 -24 -43l-29 -30l27 -4q27 -4 34 4q2 2 8.5 8t17.5 18.5t19 20.5zM784.5 731.5q20.5 24.5 16.5 24.5t-51.5 -53.5t-45 -55.5t13.5 8.5t28.5 31t38 45zM922 707l-4 49h-48h-45l-53 -62q-37 -43 -43 -53t0 -25 l6 -20l80 76q88 86 90 71q0 -4 -71 -88q-156 -178 -156 -186l6 -6q8 -8 15.5 -4t31.5 35q39 45 92.5 95t63.5 54q20 6 18 -6q-6 -27 -147 -193q-41 -49 -29 -45t68 68q90 98 90 72q0 -6 -72 -107q-72 -104 -74 -113q-4 -10 -16 -24q16 16 55 57q109 109 130.5 165.5 t11.5 189.5zM475 666l80 82q-2 0 -41 -5l-35 -4l-49 -57q-49 -61 -92 -109q-45 -51 -43 -53q14 -16 180 146zM369 739q0 4 -12.5 4t-27 -3t-18.5 -5q-16 -18 0 -28q4 -2 31 13t27 19zM383 686q49 53 41 55q-14 0 -26.5 -9t-45.5 -48q-59 -70 -59 -74q2 -2 90 76zM442 715 q4 10 -4 4q-10 -8 -55 -49q-12 -12 -29.5 -27.5t-33 -29t-17.5 -15.5q-25 -20 -24.5 -44t3.5 -24t78.5 88.5t81.5 96.5zM330 678q10 10 17 19.5t9 15.5l4 4q-4 0 -10 -8q-8 -10 -25.5 -14.5t-21.5 1.5q-16 2 -18 -28q2 -31 6 -31q4 2 39 41zM463 627l41 49q-2 -4 -9.5 -10.5 t-14.5 -13.5t-18 -17t-20 -21q-102 -98 -143 -106q-14 -2 -16 -9t-4 -40q-2 -39 0 -86l2 -39l51 65q72 86 43 64q-4 -2 -8 -6q-10 -10 -39 -28.5t-33 -18.5q-12 0 2 18q2 6 6 8q10 8 62 72q45 58 98 119zM772 604q33 35 30 35t-42 -41t-39 -45q0 -6 8 4q6 6 43 47zM866 598 q8 12 14.5 20.5t4.5 8.5q-4 0 -45 -40t-80 -83q-18 -23 -29.5 -35t-16.5 -21.5t-5 -12.5t2 -7q10 -6 12 -4q12 10 71.5 84t71.5 90zM510 580l4 16q-2 0 -91 -108.5t-106 -129.5l-20 -28l35 35q41 39 107.5 120t70.5 95zM508 535v8q-2 0 -64 -74q-61 -76 -110 -123l-49 -47 l8 -27q16 -51 41 -65q8 -4 8 8q0 8 27 39q6 10 28.5 36.5t32.5 39.5l37 45l-41 -37q-90 -82 -90 -43q0 8 84 119q84 115 88 121zM700 522q0 4 -20 -8q-16 -12 -16 -20q0 -10 18 8t18 20zM526 504q-6 8 -10 8t-63 -76q-102 -139 -97 -139q31 18 99.5 91t72.5 93q4 15 -2 23z M920 301q6 63 4 133l-2 74l-15 -39q-23 -61 -123 -180q-63 -74 -61 -76q10 -10 84 78q55 61 61 61q4 0 5 -8t-2 -20.5t-11 -22.5q-14 -23 -33 -49q-16 -18 -12 -18.5t29 16.5q37 27 37 -6q0 -16 -11 -31q-14 -20 -6 -18q2 0 6 4q10 8 15 4q6 -6 -11 -17q-16 -14 -6 -14 q20 0 32 27.5t20 101.5zM821 463q10 14 15.5 22.5t3.5 8.5t-53.5 -59.5t-51.5 -65.5q-4 -12 0 -13q10 -2 37 37q6 10 24.5 36t24.5 34zM862 410l10 18q-2 0 -80.5 -87t-103.5 -118q-35 -41 -49 -43q-39 -6 20 58q35 39 35 45t-18 6q-16 0 -55 -39q-74 -74 -74 -49 q0 16 47 67l20 21h-22q-14 0 -40 -19.5t-87 -79.5l-23 -20l56 -4q55 -4 138 -4t144.5 3t57.5 9q-2 4 14 35q16 27 14 33q-2 8 -39 -19q-39 -25 -43 -24q-20 4 21 51q49 57 47 69q-2 0 -42 -47t-62 -63q-39 -23 -54 -12q0 10 113 141q47 56 55 72zM438 272q53 68 51 86l-6 11 q-4 0 -41 -45q-31 -39 -65 -80q-31 -39 -8 -37q14 2 69 65zM510 309q-12 10 -14 10t-52 -57q-45 -59 -65 -67l-19 -7l29 -8q31 -8 39 -6q6 2 51 66q29 43 34 53t-3 16zM547 289q0 20 -35 -27l-25 -35l31 29q29 29 29 33zM612 260l23 27q-4 0 -18.5 -14.5t-26.5 -29 t-9.5 -14.5t31.5 31z" />
<glyph unicode="c" horiz-adv-x="1138" d="M481 1264q57 10 149.5 9t145.5 -11q115 -25 167 -81.5t52 -154.5q0 -55 -14 -70q-23 -27 -59 -12q-29 12 -29 80q0 51 -20.5 78.5t-71.5 46.5q-61 20 -167 21t-175 -17q-98 -27 -134 -70t-36 -137q2 -66 6 -88l4 -27l117 5q127 4 248 10q315 14 333 -4q12 -10 14.5 -39 t6.5 -234q6 -266 -18.5 -367.5t-100.5 -117.5t-277.5 -14t-259.5 18q-117 37 -153 137q-20 57 -24.5 136t5.5 268q8 145 0 235q-12 143 19 226q49 133 272 174zM922 707l-4 49h-105h-102l-37 -43q-35 -43 -22.5 -45t44.5 24q76 66 76 35q0 -8 -37 -41q-27 -25 -30 -31t4 -14 q8 -6 15 -3t32 26q27 25 59.5 48t40.5 23q25 0 -90 -125q-37 -41 -49 -61.5t-33 -32.5q-35 -23 -12 -43q8 -6 24.5 6.5t118.5 104.5q88 78 90 63q0 -8 -98 -108l-98 -103l10 -22l10 -21l66 53q63 55 71 68q10 10 19 10q10 -2 26 4q10 2 12.5 12.5t2.5 53.5q0 58 -4 113z M489 649q92 96 82 101q-16 0 -49 -41q-33 -43 -112 -127q-66 -68 -56 -64q0 2 4 4q29 25 131 127zM592 719q8 12 14 22l4 9q-2 0 -98 -99q-176 -178 -199 -178q-25 0 54 84q12 12 24 27q156 162 135 155q-12 -4 -102 -94q-94 -96 -121 -110l-24 -13v-55q-8 -219 61 -264 q33 -20 43 -20.5t23 20.5q18 31 51 76q37 51 35 65q-2 12 -25 -8q-10 -8 -35 -31q-90 -88 -98 -76q-16 25 115 170l67 80q-4 -2 -63 -61q-154 -156 -154 -117q0 18 143 176q68 72 68 80l-10 -8q-8 -6 -22.5 -20.5t-31.5 -30.5q-106 -109 -147 -123q-14 -4 0 16 q12 18 201 221q72 78 92 107zM637 713l35 37h-23q-14 0 -22.5 -6.5t-22.5 -30.5q-25 -35 -12 -35q10 0 45 35zM350 725l12 16h-18q-14 0 -19.5 -4t-15.5 -24q-14 -29 -10 -33q4 -2 20.5 12.5t30.5 32.5zM387 680l62 61h-23q-16 0 -26.5 -8t-41.5 -49q-45 -57 -51 -68 q-12 -25 45 29q15 17 35 35zM471 713q18 29 10 28q-16 0 -94 -88q-78 -90 -82 -90t-10 -10q-2 -6 0 -6t10 4q12 6 76.5 68.5t89.5 93.5zM739 709q0 4 -30 -25l-31 -27l31 25q30 25 30 27zM324 662l28 40q-4 -2 -18 -18q-20 -18 -33 -18q-10 0 -12 -8.5t-4 -45.5 q-2 -12 -2 -25.5v-21.5l-2 -6q2 0 22.5 19.5t11.5 21.5q-2 0 -6 -2q-27 0 -4 37q7 11 19 27zM791 659q39 43 34.5 43t-22.5 -16q-76 -61 -72 -76q4 -12 35 21q9 10 25 28zM518 600l2 14q-4 -2 -86 -93t-80 -93t42 38t80 84t42 50zM750 498l41 47q-6 -2 -51.5 -47t-43.5 -47 q4 -4 6 -2q3 4 48 49zM518 516q-4 8 -8 8q-6 0 -67.5 -66.5t-87 -99t-13.5 -24.5q18 10 92 86q86 88 84 96zM924 395.5q4 116.5 -6 116.5q-12 0 -95.5 -89t-83.5 -104q0 -8 -10 -19t-18 -11q-6 0 -56 -66q-31 -43 -28 -43q4 0 84 76q51 47 96 87t73.5 62.5t30.5 18.5 q4 -14 -13 -39t-71 -82q-72 -76 -55 -67q106 66 119 65q6 0 8 -7t-1 -18.5t-9 -19.5q-10 -14 -33 -41l-22 -25l14 -10q12 -8 29 -4q23 4 33 53.5t14 166zM803 422l51 57q-4 0 -61 -51q-59 -51 -58 -61q2 -14 21 4q12 12 47 51zM507 420q15 37 13 39t-40 -41t-78 -93.5 t-48 -64.5q-4 -6 0 -4q18 6 90 78q48 49 63 86zM875.5 373.5q19.5 23.5 17.5 23.5q-8 0 -72.5 -58t-125 -117.5t-56.5 -61.5t106 4q88 4 89 10q-23 12 14 53q47 55 33 56q-4 0 -74 -43q-92 -55 -92 -37q0 6 69 76q72 71 91.5 94.5zM516 305q-10 8 -14 8q-2 0 -37 -47 t-43 -61q-6 -12 59 47q8 8 17 16q20 18 23 24.5t-5 12.5zM573 285q0 2 -16 4q-14 4 -43 -25q-27 -27 -63 -57q-35 -29 -29 -33q2 -2 6 -2q12 -4 39 -4q20 -2 28.5 6t36.5 49q41 60 41 62zM588 246q37 41 26 41q0 2 -4 2q-10 0 -20 -12.5t-37 -47.5q-63 -96 35 17zM662 252 l26 37h-20q-14 0 -27.5 -10.5t-50.5 -51.5q-55 -59 -55 -63t30 -4q23 0 30 4t19 24q25 35 48 64z" />
<glyph unicode="d" horiz-adv-x="1308" d="M588 1227q16 12 36.5 14t75.5 -6q100 -12 166 -64.5t88 -136.5q18 -76 -2 -158.5t-75 -154.5q-29 -37 -21 -39q145 -51 195.5 -81t85.5 -85q37 -57 49 -151q14 -90 -43 -91q-12 0 -13 -12q0 -33 -75 -51q-469 -117 -791 -29q-61 16 -71.5 30.5t-10.5 84.5q0 178 80 252 q27 25 96 67q39 23 80 50q10 6 -22 39q-57 61 -71.5 142t15.5 165q25 63 81.5 119.5t111.5 74.5q19 5 35 21zM780 1104q-33 18 -88 20q-59 2 -100 -13t-82 -56q-47 -47 -62.5 -118t13.5 -122q25 -47 80 -75.5t118 -28.5q61 0 116.5 54t76.5 134q18 66 -1.5 121t-70.5 84z M643 610q-53 4 -76 6q-25 6 -89 -54t-118 -136l-10 -20q6 2 64 61q123 127 139 113l-4 -7q-4 -6 -12.5 -15t-20.5 -21q-59 -57 -109.5 -121t-50.5 -80q0 -2 30 28.5t69 72.5t59 67q78 88 115 96q8 2 8 -4t-72 -82q-76 -84 -122 -147.5t-42 -79.5q2 -4 52.5 42t105.5 102 t74 77q92 113 100 96q0 -10 -96 -119q-61 -68 -102 -120l-23 -35q6 4 90 86q111 109 152 137q59 43 37 43q-6 0 -31 11t-41 5q-15 -6 -76 -2zM958 532q-31 14 -65.5 26.5t-58 20t-23.5 3.5q0 -12 -106 -131q-61 -70 -87 -103l-8 -14q8 4 78 72q182 174 176 145 q-4 -12 -55 -72q-111 -123 -131 -162q-6 -10 4 -4q18 10 168 140q111 94 98 67q-2 -2 -2 -4q-4 -10 -82 -92q-88 -92 -82 -92q4 0 33 26q168 147 174 148q25 0 -18 22q-7 2 -13 4zM561 528q12 12 19 21l6 8q-4 0 -33 -29q-12 -12 -18 -20l-7 -8q4 -1 33 28zM758 532 q10 12 6 13q-20 -4 -191 -178l-110 -115l35 -4q68 -10 245 8q47 6 57.5 9t12.5 16q10 37 100 133l54 59q-10 -8 -119 -104q-111 -100 -117 -101q-31 0 72 111q10 10 22 24l52 52l-86 -72q-121 -102 -132 -96q-4 2 -4 14q0 10 33 55t68 86l39 41l-54 -47q-45 -41 -108 -106 q-59 -61 -66 -62q-39 0 117 181q66 75 74 83zM397 496l33 41q-2 0 -43 -25q-57 -35 -75.5 -67.5t-24.5 -106.5l-4 -55l39 -9q35 -10 69 -14q25 -4 47 -8q8 -2 10.5 -1t0.5 7q-4 10 38 66l45 57l-61 -55q-80 -68 -84 -41q0 14 20.5 52t43.5 66q16 20 -2 5q-8 -6 -25 -23 q-49 -47 -62 -66q-12 -25 -24 -18q-2 0 -2 4q0 8 9 35t17 37q23 35 17 33t-33 -39q-27 -31 -31 -31t-4 16q0 38 86 140zM1034 483q-14 16 -18 16.5t-69.5 -70.5t-86.5 -97q-43 -53 -35 -62l11 9q10 10 27.5 25t35.5 36q84 80 148 125q0 2 -3.5 6t-9.5 12zM522 485 q0 4 -26 -22l-23 -25l25 23q24 22 24 24zM1063 440q-6 14 -8 15q-6 0 -58.5 -54.5t-58.5 -68.5l-4 -10q2 0 8 6q104 88 115 88q8 0 9 4t-3 20zM1081 379q-4 18 -8 18q-6 0 -45 -46t-37 -48q4 -4 47 26.5t45 30.5q0 3 -2 19zM1010 352l28 39l-55 -49q-70 -61 -72 -43 q0 10 15 37l6 16q-2 0 -33 -30q-39 -39 -37 -43q4 -4 55.5 7t55.5 17q6 12 37 49zM1087 330q-4 10 -5 10t-9 -10q-6 -6 -5 -8.5t9 -2.5t10 3.5t0 7.5z" />
<glyph unicode="e" horiz-adv-x="1386" d="M637 1251q35 8 97.5 8.5t96.5 -8.5q125 -33 199 -157q20 -37 54 -122t38 -109.5t-11 -40t-26 -15.5q-37 0 -55 -41q-25 -57 -65 -92l-17 -15l15 -12q33 -29 127 -65q49 -18 77 -39q94 -66 99 -256q2 -49 0 -61.5t-15 -20.5q-14 -12 -26 -12q-14 0 -27 -17 q-12 -14 -46 -20t-159 -17q-213 -18 -387 -21t-219 9q-70 20 -70 129q0 92 36 156.5t124 128.5q57 39 72 53l18 14h-24q-41 0 -116 15.5t-114 31.5q-31 14 -47 33q-12 16 -13 40t9 38q10 12 32.5 20.5t35.5 4.5q14 -4 33.5 8t33.5 37q29 51 45 165q6 51 14.5 71t26.5 26 q10 4 9 24q-2 14 3 24.5t25 31.5q51 55 117 73zM819 1147q-25 8 -78 11t-63 -5q-6 -4 -19.5 -23.5t-17.5 -29.5q-8 -29 47 14q4 2 10 6q53 41 54 31q0 -6 -23 -39l-24 -33l26 23q41 37 41 8q0 -8 -36 -47t-36 -45q0 -16 82 43q14 10 27 20q43 37 43 45.5t-33 20.5zM641 1128 q10 10 7 12.5t-19 -5.5q-14 -8 -16.5 -13.5t8.5 -17.5q8 -10 9 -10t1 10q0 12 10 24zM893 1104q-8 10 -15.5 10t-58.5 -51q-49 -51 -37 -51q14 0 59.5 41t51.5 41q8 0 0 10zM700 1096q6 10 4 10t-30 -16l-31 -19l23 -22q6 -4 11 -9.5t9 -7.5l4 -2q0 2 5 7t13.5 14.5 t14.5 17.5l16 21l-4 -3q-35 -33 -39 -12q-2 7 4 21zM848 1032q35 37 37 41q4 6 -37 -33q-51 -51 -80 -39q-10 4 -8 17q2 8 0 6q-4 0 -21 -8l-24 -15l33 -20q35 -20 39 -20t12 14t49 57zM926 1063q-8 12 -13 12q-6 0 -54 -51t-48 -57q0 -10 45 28q6 6 21 17q43 37 49 37t0 14 zM920 981q33 31 26 45l-3 6t-5 0t-8 -6t-15 -16q-45 -55 -36 -62q6 2 41 33zM889 997l8 13q-6 -2 -35 -27q-35 -29 -41 -29q-4 0 -4 -6q0 -4 31 -15t41 -11q2 0 6 8q2 4 -2 6t-12 0q-20 -2 -21 8q0 22 29 53zM946 946q18 16 22.5 22.5t-1.5 14.5q-4 8 -9.5 5t-21.5 -21 q-35 -45 -27 -45q6 -1 37 24zM721 877q-51 29 -90 63l-41 35l4 -60q2 -61 20 -98q27 -51 71 -81.5t93 -30.5q53 0 96 28q16 12 37 37t21 31q0 4 -37 12q-88 19 -174 64zM985 911q4 10 -2 11q-4 0 -12 -9.5t2 -9.5q8 0 12 8zM520 774q-12 27 -14 27t-4 -6.5t-2 -12.5l-2 -4 q2 0 18 -16l19 -14zM532 737q-4 -4 -20 11l-14 14l-11 -21q-12 -18 -9 -21t22.5 -5t35 -2t17.5 2q0 4 -4 10t-9.5 10t-7.5 2zM887 580q-29 29 -35 26q-12 -2 -57 -2l-54 -4l-143 -145q-109 -109 -113 -117l105 98q84 80 135 119q66 51 66 37q0 -4 -7 -17q-6 -10 -1 -12 t13.5 8.5t27 16.5t22.5 2q2 -6 -141 -150q-207 -203 -189 -202q6 0 127 120q125 125 166 156q45 37 49 43t10 6q18 0 -20 -45q-39 -43 -53 -61l-27 -31l51 43q76 59 76 35q0 -10 4 -10t25 20l22 18l-14 11q-18 12 -45 37zM739 541q16 16 12.5 16t-41.5 -31.5t-63 -54.5 l-16 -16q6 4 39 28q53 40 69 58zM659 414q35 37 66 68.5t48.5 50t14.5 18.5q-4 0 -166.5 -162t-162.5 -166q0 -23 33 15q4 4 8 10q22 29 159 166zM1053 487q-10 0 -49 19l-39 18l-4 -16q-8 -39 -111 -146q-68 -70 -55 -63q12 8 45 41q35 37 80 70q49 39 53 49q4 8 16 8 q14 0 12 -16q-2 -8 -1 -10.5t8 1.5q39 25 45 45zM528 406l103 106q-4 0 -103 -94q-119 -113 -106 -121q2 0 106 109zM944 498q8 14 0 14q-4 0 -153 -145q-41 -39 -76 -71t-56 -50l-20 -17q-2 8 111 125q205 205 69 95q-80 -63 -164 -160q-41 -49 -53 -59.5t-2 -12.5h23 q29 0 61 4q20 4 29.5 10.5t29.5 32.5q35 45 88 101q93 96 113 133zM797 481q8 12 3 12.5t-120 -118.5q-121 -119 -141 -137l-27 -21h20q14 0 27.5 11.5t50.5 52.5q47 51 117 125q62 65 70 75zM614 401l68 72q-8 0 -65.5 -53t-104.5 -107v-2l-2 -2l-2 -2l-2 -2l-2 -2l-2 -2 l-2 -4l-45 -51q4 4 28 26l2 2l2 2l5 3zM1063 442q18 27 14 29q-6 6 -77.5 -55.5t-131.5 -126.5l-55 -60l78 4q82 4 96 9q27 4 79 55t52 74q0 16 -78 -52q-23 -20 -36 -36q-35 -41 -41 -37q-4 4 5 19.5t27.5 34.5t38.5 34q29 25 51.5 50.5t16.5 29.5q-6 6 -88 -56.5 t-113 -97.5q-27 -27 -27 -14q0 10 86.5 89.5t102.5 106.5zM1135 426q-14 25 -29 33q-10 6 -13 6t-6 -8q-4 -12 -24 -37l-19 -25l27 19q29 20 37 20t8 -12t-6 -27l-4 -10q2 0 8 4q20 18 18 -8.5t-24 -56.5l-16 -23l20 8q20 8 29 6q10 -4 8 -18t-14 -27l-13 -14h23h24l-4 41 q-7 90 -30 129zM535 453q0 6 -43 -35l-37 -35l41 33zM975 430q10 12 8 12q-6 -2 -70.5 -57t-109.5 -96l-66 -64l23 -2q16 0 24.5 6.5t24.5 26.5q25 31 70 70q51 45 96 104zM477 293q14 16 25.5 29.5t17.5 21.5t4 8q-10 0 -57 -50t-45 -56q0 -10 55 47zM1137 295 q-4 20 -58 -21q-35 -23 -37 -26h25q29 4 49 22q21 21 21 25z" />
<glyph unicode="f" horiz-adv-x="1464" d="M662 1313q41 4 99 1t75 -9q41 -20 43 -119q2 -45 5 -55.5t13 -16.5q14 -6 22.5 -2t45.5 35q39 33 72.5 36t78.5 -22q39 -25 72 -77t37 -103q6 -70 -37 -107q-18 -14 -21.5 -20t2.5 -18q4 -14 11.5 -17.5t42.5 -3.5q39 0 61.5 -11t38.5 -42q27 -55 19.5 -146.5 t-42.5 -128.5q-16 -16 -48.5 -31.5t-61.5 -19.5l-35 -2l33 -35q55 -57 49 -114q-6 -51 -70 -121q-61 -68 -123 -68q-49 0 -104 49q-29 23 -36 16t-5 -57q0 -57 -14 -86q-18 -35 -47 -44t-127 -9q-92 0 -132 7.5t-59 25.5q-31 31 -31 102q0 47 -2 47t-24.5 -21.5t-71.5 -45.5 q-33 -16 -46 -19.5t-42 -1.5q-72 6 -125 55.5t-53 110.5q0 31 12.5 53.5t46.5 57.5q25 27 31 36t0 17q-4 8 -14.5 10t-44.5 2q-55 0 -76 13q-35 20 -46 53t-11 115q0 135 24 176q14 27 34.5 36t68.5 11l57 2l12 27q10 25 2 30q-55 33 -78 66q-39 66 60 164q84 84 145 90 q33 2 65.5 -14.5t53.5 -43.5q20 -25 24.5 -24.5t0.5 45.5q-6 82 31 117t139 49zM657 1014q37 27 28 28.5t-50 -26.5q-45 -31 -181.5 -140.5t-136.5 -113.5q0 -10 25 2l8 4q55 29 195 150q79 67 112 96zM715 1034q8 8 4 8q-6 0 -104.5 -82.5t-98.5 -87t46 33.5t96.5 79 t56.5 49zM821.5 1017.5q-63.5 18.5 -76.5 18.5q-8 0 -19 -11t-11 -19.5t-37 -47.5q-51 -53 -29 -49q2 2 4 2q12 4 16.5 4t63.5 46q84 63 78 40q-4 -12 -41 -51q-47 -51 -25 -47q6 2 15 6q12 6 48 32t46 36q8 8 14 8q20 0 -10 -37l-6 -6q-55 -61 -27 -57q16 2 64 33l61 40 l-30 21q-35 20 -98.5 38.5zM614 1024q10 8 -2 6q-33 -4 -104 -43q-41 -20 -93.5 -70.5t-76.5 -89.5l-21 -32l82 67q80 66 146 113l31.5 22.5t26.5 19.5t11 7zM664 963q27 29 23.5 28.5t-9.5 -4.5q-2 -6 -66 -57h-2l-2 -2l-61 -54l22 11h4q35 18 41 18q8 0 15 15q6 16 35 45z M745 944l27 29q-4 -2 -21.5 -15.5t-31.5 -26.5t-10 -16q5 -2 36 29zM991 918q-6 8 -18 18q-8 8 -15.5 6t-29.5 -22q-25 -20 -41.5 -46t-12.5 -32q8 -8 60 32q29 20 43 29q18 11 14 15zM813 911l8 23q-6 -2 -32.5 -21.5t-28.5 -21.5q0 -4 28 -14q25 -10 25 -8.5t-2 8.5 q-8 11 2 34zM872 877q12 18 2 14q-6 -2 -22 -14l-27 -17l15 -10q14 -10 17 -10t3 10q0 13 12 27zM975 879q31 35 -14 -2q-6 -6 -17 -13q-41 -33 -51 -35q-8 -4 -10 -7t1 -8t15 -17q31 -29 49.5 -93.5t9.5 -117.5q-6 -43 -2 -41q4 0 9 8q8 16 39 49q63 68 63 71t-45 -32 q-35 -27 -43 -27q-23 0 0 52q4 12 12 24q23 33 16.5 33t-8.5 -6q-4 -6 -20 -6q-10 0 -13 3t-3 15t13 31.5t64 81.5h-2q-10 -4 -41 -25q-78 -53 -77 -24q0 25 55 86zM987 827l51 33l-14 19l-14 18l-21 -25q-63 -70 -55 -75q2 -5 53 30zM1063 815q-10 16 -12 16t-39 -45 q-51 -63 -31 -63q14 2 68 51q16 14 18 20.5t-4 20.5zM455 799l8 14q-8 -2 -99.5 -88t-91.5 -94q0 -2 40 29.5t81 67.5t45 44q7 11 17 27zM752 774q-35 16 -82 18.5t-72 -10.5q-63 -35 -86 -109.5t10 -137.5q43 -86 156 -80q117 8 162 106q29 61 3.5 121.5t-91.5 91.5z M346 727l60 59q-6 -2 -25 -14q-53 -39 -74 -24q-6 6 -12 -11l-6 -24q-12 -41 -9 -44t66 58zM1090 717q2 2 -7 31l-8 28l-26 -33q-72 -86 -66 -106q2 -4 4 -4q4 0 52.5 39t50.5 45zM406 698q8 20 5 23.5t-71 -55.5q-43 -37 -55.5 -51.5t-12.5 -26.5q0 -10 4 -10q6 0 60 47 q62 55 70 73zM1071 633q20 23 19 35q-2 6 -5 6q-4 -8 -53 -63.5t-45 -61.5q0 -2 5 1t12.5 10t15.5 18q26 30 51 55zM375 612q25 31 16.5 29t-57.5 -51q-37 -37 -46 -50.5t-5 -21.5q6 -10 20 8q13 12 72 86zM1073 588l4 33q-2 0 -7 -6.5t-17.5 -20.5t-22.5 -25 q-43 -51 -60.5 -62t-56.5 -56q-61 -63 -100 -103q-14 -16 -27.5 -30.5t-19.5 -22.5l-6 -6q6 0 88 76q131 121 199 174q20 14 26 49zM393 600q2 14 0 14t-28.5 -33.5t-30.5 -41.5l8 4q8 4 18 14q33 29 33 43zM401 565q0 10 -2 10q-4 -2 -55 -49q-37 -37 -43 -45t0 -20t18 0 q8 6 35 39q47 53 47 65zM414 518q-2 29 -52 -31l-43 -49l48 37q47 41 47 43zM956 412q111 113 109 116q-8 8 -172 -143q-178 -162 -194.5 -162t22.5 43q16 18 53 58q66 68 60 69q-2 0 -13 -6q-27 -16 -49 -22q-12 -4 -52 -38t-74 -67t-30 -37q6 -6 63.5 -6t82 6t53.5 41 q37 42 141 148zM403 463q18 25 14.5 29t-28.5 -15q-51 -41 -58 -50t-1 -21l8 -17l24 25q27 26 41 49zM1024 444q14 18 21.5 30.5t5.5 12.5q-4 0 -119 -119.5t-113 -121.5q2 -4 31 11t47 30q33 22 127 157zM434 469q-4 4 -8 0q0 -4 -37 -47l-35 -41l41 41q43 41 39 47z M459 438q-8 10 -12.5 10.5t-47.5 -42.5l-41 -41l25 -23l12 -12q31 -29 39 -29t27 25q4 6 6 10q55 78 22 57q-12 -6 -38 -28q-49 -43 -50 -27q0 6 31 49q33 43 27 51zM483 414q0 14 -20 -11q-2 -4 -6 -8l-15 -20l21 18q20 19 20 21zM528 365q6 12 -3 15t-38 -40l-30 -41 l32 27q35 29 39 39zM563 358q-8 14 -33 -12q-16 -16 -45 -41l-28 -22l24 -13l23 -12l33 47q32 47 26 53zM629 348q2 2 -23 4q-27 2 -26 -4q0 -8 -29 -46t-29 -42t53 41q52 47 54 47zM711 338q8 10 8 12t-12 2q-14 0 -50 -45l-32 -45l37 31q37 33 49 45zM666 338q4 8 -7.5 8 t-70.5 -51l-58 -49l23 -8q20 -8 31 0q6 6 41 48t41 52z" />
<glyph unicode="g" horiz-adv-x="1384" d="M717 846q35 4 108 2q158 -6 277 -84q55 -37 108.5 -101.5t53.5 -93.5q0 -20 -16.5 -35.5t-37.5 -15.5q-16 0 -30.5 12.5t-51.5 61.5q-49 68 -141 110q-92 45 -204.5 40t-209.5 -56q-57 -29 -99 -67.5t-93 -110.5q-23 -31 -45.5 -33t-39.5 12.5t-17 34.5q0 35 58 106.5 t122 112.5q115 80 258 105zM692 625q43 10 108.5 7t110.5 -20q98 -33 160 -92q20 -20 26.5 -29.5t6.5 -25.5q0 -25 -17 -41q-33 -33 -94 20q-94 80 -213 80q-125 0 -188 -98q-23 -35 -32 -42t-34 -7q-23 0 -34 16q-27 31 4 84q31 51 84 91.5t112 56.5zM750 438 q63 18 127.5 -11.5t58.5 -74.5q-12 -72 -94 -28q-31 16 -53.5 13t-49.5 -24q-41 -31 -75.5 -13.5t-20.5 62.5q6 18 40 43t67 33zM791 264q2 0 6 2l4 2l22 -6q29 -10 33 -39.5t-18 -50.5q-37 -29 -70 4q-20 20 -13 49t36 39z" />
<glyph unicode="h" horiz-adv-x="1165" d="M743 1274q10 6 37 4q18 0 28.5 -8t39.5 -47q10 -14 49 -64.5t57 -75.5q66 -82 76 -108q10 -25 14.5 -120t-2.5 -189q-29 -391 -32 -416q-4 -23 -31 -41q-18 -12 -42 -16.5t-134 -10.5q-135 -8 -344 -13t-246 -1q-39 6 -57 25l-19 16l2 215q0 219 -8 332q-8 121 -8 288 v173l14 16q12 10 29.5 13t101.5 5q452 15 475 23zM655 1135q0 16 -3 20t-19 4q-16 -2 -23.5 -7t-21.5 -22q-16 -25 -131 -149q-150 -162 -146 -162q2 0 35 29q57 51 121 110q143 129 174 144q14 8 14 33zM801 1108q-18 25 -37 47q-2 2 -4 -60.5t-3 -117.5t1 -68q2 -4 92 -6 q66 0 77 1t11 11q0 14 -53 82q-45 56 -84 111zM442 1141q8 8 8.5 9t-10.5 1q-14 0 -28.5 -20.5t-59.5 -67.5l-45 -49l62 57q46 45 73 70zM498 1143q4 4 1 6t-12 2q-18 0 -126.5 -108.5t-120.5 -108.5q-14 0 -11 -14q4 -16 4 -32t72 56q23 20 60 57q129 134 133 142z M545 1130l24 21h-22q-14 0 -34.5 -17.5t-90.5 -89.5q-80 -84 -68 -75q2 2 15 10q110 98 176 151zM254 1130l20 15h-22q-16 0 -20.5 -2t-4.5 -13q0 -16 2 -16t25 16zM317 1112l35 33h-28q-29 0 -62 -25q-25 -20 -30 -27.5t-5 -33.5v-35l29 29q18 20 61 59zM401 1141 q0 12 -53 -27q-41 -31 -75.5 -78t-39.5 -49q-6 -2 -6 -22v-21l37 41q39 45 86 96q51 54 51 60zM557 1112l21 27q-2 0 -250 -211l-95 -80l5 -47q4 -49 6 -285q6 -238 12 -242t67.5 -5t100.5 3q27 4 34 7.5t9 15.5q6 35 221 287q109 125 92 114q-2 -2 -6 -4q-66 -61 -211 -227 q-150 -170 -174 -170q-23 0 0 27q8 10 23 28q340 383 354 414q16 33 -188 -186q-12 -14 -27 -31q-182 -197 -236 -232q-39 -27 -28 0q14 39 110 156l58 70l-64 -60q-135 -127 -121 -80q2 10 13 27q41 76 198 238q156 162 148 170q-2 4 -19.5 -6.5t-17.5 -16.5q0 -4 -91 -88 t-165 -150q-82 -72 -82 -52t188 222q201 215 201 228q0 8 -8 2q-16 -10 -131 -115.5t-139 -132.5q-37 -43 -64 -63q-41 -27 -47 -11q0 16 85 118.5t191 213.5l43 49q-6 -4 -90 -82q-203 -184 -215 -184q-20 0 13 41q31 35 155 170q98 106 121 133zM653 1014q4 20 2 45l-2 26 l-100 -100q-106 -106 -193.5 -207.5t-78.5 -109.5q6 -4 90 82q70 74 153.5 149.5t106.5 85.5q18 11 22 29zM641 897q10 10 8 31l-2 20l-24 -26q-27 -31 -166 -181q-137 -147 -154 -168l-8 -14q4 4 18 16q51 43 162 145.5t111 104.5q0 6 18 17q20 12 23 28q6 17 14 27z M674 809q-14 2 -24.5 6t-20.5 -12q-10 -14 -127 -135q-154 -158 -201 -232l-16 -28l20 16q18 12 200.5 191.5t182.5 185.5q0 4 -14 8zM768 788l20 13h-34h-33l-103 -101q-86 -88 -201.5 -226t-109.5 -146q4 -4 32 20.5t71 68.5t90 95q233 253 268 276zM795 731l71 70h-37 q-25 0 -30.5 -2t-5.5 -13q-2 -29 -226 -280q-106 -119 -131 -152q-4 -2 -8 -10l-20 -25q2 2 16 15q2 4 4 6q31 27 123 131q148 168 244 260zM938 793q0 8 -32 8t-32 -10q0 -14 -169 -211q-186 -217 -213 -267q-14 -23 -9 -22q8 4 58 67q84 111 183 221.5t142 145.5 q72 58 72 68zM936 700q4 55 1 55.5t-125 -161.5t-150 -201q-14 -23 5 -5t93 93q127 129 149 146l25 18zM827 639q66 84 62 84q-16 -2 -111.5 -105.5t-197.5 -232.5l-91 -111l101 5q178 8 230 12t59 14q6 8 7 20.5t-5 16.5q-4 2 -31 -16q-39 -29 -57 -17q-2 2 -2 4 q0 10 36 54q76 92 70 100q-4 2 -86 -78q-35 -35 -54.5 -52.5t-33.5 -28.5t-18.5 -10t-8.5 5q-2 12 23 41q201 236 201 266q0 16 -187 -176q-137 -141 -139 -131q-5 23 233 336zM926 547q4 33 4 45q-2 0 -31 -43q-33 -49 -84 -111q-74 -88 -65 -86q6 0 65 58q82 82 96 86 q8 2 10.5 11t4.5 40zM915 418q2 12 2.5 24.5t0.5 18.5v6q-2 0 -25 -37q-23 -31 -59 -78q-25 -31 -24 -34t30 18q35 25 51 14q10 -10 6 -33q-2 -23 2 -22q6 0 16 123z" />
<glyph unicode="i" horiz-adv-x="1447" d="M700 1321q29 2 154 0q106 -2 165.5 -10t129.5 -35q78 -27 109.5 -49.5t31.5 -46.5q0 -20 8 -21q10 0 20.5 -14.5t10.5 -28.5q0 -20 -36 -215.5t-54 -282.5q-14 -63 -51 -215q-33 -135 -45 -202q-10 -61 -18.5 -80t-25 -23t-59.5 -18q-94 -33 -231 -27q-188 8 -303 68 q-45 23 -51 61q-2 25 -33 119q-82 264 -139 690q-16 113 -16.5 153t14.5 56q25 27 160.5 66t258.5 55zM1051 1194q-45 12 -76 15t-121 3q-125 2 -154 0q-66 -8 -170 -33.5t-104 -33.5q0 -4 35 -20.5t67 -24.5q109 -33 285 -33q242 0 363 55l28 13l-45 20q-40 21 -108 39z M434 985q-2 23 -6 30t-20 15l-25 12l8 -57q8 -59 23 -72q16 -10 20 -10q10 0 0 82zM1192 946q14 68 12 70q-16 -6 -35 -10q-20 -6 -25 -10.5t-3 -12.5q6 -12 6 -53q0 -27 2 -34t14 -11l17 -6zM485 999q-18 4 -30 9q-10 4 -11 -7q0 -6 2 -22q4 -35 5 -61q0 -16 4 -22.5 t18 -14.5l23 -11v45q0 41 4 62q2 14 -0.5 17t-14.5 5zM543 985q-12 0 -23 4q-4 2 -6 1t-3 -8t-1 -18.5v-33.5q0 -47 2 -56.5t12 -11.5q23 -6 26 1t3 59q0 43 -1 53t-9 10zM1137 938q0 27 -9.5 39t-25.5 8l-21 -2l-2 -57q-2 -14 -2 -27.5v-21.5v-7q4 0 29 7q18 6 24.5 17 t6.5 44zM608 973q-6 0 -26 4l-19 4l2 -63q2 -63 4 -66q2 0 25 -8l24 -4v65q0 68 -10 68zM1067 926q2 53 -4 53q-33 -6 -37 -10t-4 -33q0 -37 -4 -59q-4 -12 -2 -15.5t12 -3.5q23 0 30 13.5t9 54.5zM1008 918l4 53l-25 -2q-16 -2 -20 -6.5t-4 -24.5q0 -27 -5 -61l-4 -33l21 4 q18 4 22 10q7 5 11 60zM686 901l4 66h-28h-31l-2 -31v-64q2 -25 5 -28.5t21 -7.5q23 -4 25 0q2 2 6 65zM756 946q4 10 0 12.5t-25 2.5h-31v-50q0 -49 -4 -65q-2 -10 2 -12.5t25 -2.5h29v52q0 47 4 63zM811 897v64h-20q-16 0 -20.5 -12.5t-4.5 -63.5v-54h22h23v66zM893 948 q0 12 -35 13h-35v-64v-66h27h29l6 54q8 49 8 63zM950 934q0 18 -3 22.5t-18.5 4.5t-18.5 -5.5t-7 -31.5q-6 -51 -8 -62l-4 -24h27h24l4 34q4 35 4 62zM467 768l-4 2q-2 0 -8 2t-11 4l-22 10l10 -65q12 -70 39 -185.5t41 -158.5l12 -31q0 6 -14 80q-31 139 -37 270 q-4 72 -6 72zM1159 758q2 20 -3 22t-32 -8q-14 -8 -16 -11t6 -18q18 -39 -8 -65q-18 -18 -41 -111q-20 -86 -14 -86q10 8 30 11l21 4l24 118q25 101 33 144zM545 745q-41 10 -49 15q-8 2 -10.5 -4t-2.5 -35q2 -90 27 -229q6 -37 10 -37q2 0 8 6q12 12 33 16l19 4l-5 47 q-4 51 -7 61.5t-17 8.5q-14 -4 -34.5 14.5t-20.5 32.5q0 39 32 53q16 6 15 27q0 16 4 14q6 -4 6 -14t27 -33q39 -39 14 -74q-10 -10 -11 -22t3 -57q8 -66 20 -78q10 -12 11 -32.5t-9 -37.5q-10 -14 -2 -59q23 -150 58 -154l18 -4v45q0 29 -2 36t-10 7q-14 0 -26.5 16.5 t-12.5 35t13 35t28 16.5q6 0 8 10t2 51q0 43 -2 53t-12 15q-16 4 -26.5 19t-10.5 29.5t18 35.5q16 16 18.5 31.5t-5.5 60.5q-6 45 -12.5 52t-33.5 11q-38 4 -71 12zM1022 731q4 18 0 17l-6 -3q-4 0 -11.5 -1t-13.5 -3l-26 -6l4 -65q8 -86 22 -82q2 4 13 65q14 66 18 78z M956 674q-2 49 -8 56t-39 1l-20 -2l-4 -53q-4 -49 -4 -80v-29l8 19q12 29 49 28h20zM721 719q-6 4 -31 6l-24 4l8 -47q8 -47 8 -65.5t12 -22.5q6 -2 23 -8q8 -4 10 10q0 10 -2 53q0 66 -4 70zM868 586q6 88 4 114l-2 27l-30 -4l-23 -4q12 -2 21.5 -17.5t9.5 -31.5 q0 -43 -35 -52q-12 -4 -14 -12t-2 -55q0 -45 2 -54.5t12 -9.5t24.5 -7t20.5 -15q4 4 4 10q0 19 8 111zM762 707l16 16h-24h-23l4 -23q4 -31 8 -272q4 -248 -2 -252q-4 -2 -6 8q-2 12 -2 45v60l-18 -15q-14 -10 -16.5 -19t-2.5 -38q-2 -43 4 -47q4 -2 43 -6q4 -2 11 -2 q23 -4 26.5 7t5.5 79q2 23 2 35q2 72 0 86t-12 28q-18 20 -18 31.5t7 27t15 19.5t6 75t-12 71t-19.5 16t-9.5 35q1 21 17 35zM1051 666l-25 12q-2 0 -11 -45l-21.5 -107.5t-18.5 -103.5q-4 -37 -3 -45t11 -19q16 -12 23 2q2 10 10 43q6 39 31 148l24 104l-2 2l-9 4.5z M901 526q-14 16 -16 24.5t-6 -9.5q-4 -29 -15 -168l-12 -140l18 -18q14 -14 19 -6q4 6 12 41q10 37 4 47q-12 23 15 61q10 16 20 86l8 68h-16q-19 0 -31 14zM968.5 450.5q12.5 77.5 11.5 78.5t-11 -7q-12 -8 -12.5 -30.5t-8.5 -73.5q-8 -49 0 -49q8 4 20.5 81.5zM733 426 l-2 86l-20 -14l-19 -15l2 -57q0 -41 3 -51t18 -23l18 -14v88zM1064 391q-9 0 -22 17l-12 16l-14 -76q-29 -162 -15 -162q4 6 38 101.5t34 99.5t-9 4zM852 371q4 23 2 24.5t-14 -8.5q-14 -10 -25 -10q-8 0 -10 -12.5t-2 -61.5v-78l18 4q14 2 17.5 9.5t7.5 48.5q2 53 6 84z M569 371q-18 0 -28 6q-8 4 -6 -2q0 -8 10 -49q25 -86 38 -109.5t35 -23.5q2 0 2.5 4t-2 12t-4.5 16q-8 35 -16 72q-10 57 -13.5 65.5t-15.5 8.5zM938 225q4 39 -6 45q-8 2 -11 -4t-12 -35q-8 -43 -16 -45q-6 -2 -6 -14t22 -12q14 0 18.5 3t4.5 11q0 10 6 51zM985 223 q4 45 0 45q-25 -4 -30 -8t-5 -16q0 -14 -4 -47q-2 -20 -1 -25.5t9 -5.5q16 0 21.5 10t9.5 47zM1036 211q6 27 2 27q-4 -2 -12 -23q-8 -27 -2 -27q6 3 12 23z" />
<glyph unicode="j" d="M612 1264q37 8 100.5 6t108.5 -13q41 -10 53.5 -6t55.5 -14q182 -72 280.5 -232.5t79.5 -361.5q-18 -213 -149 -375q-141 -174 -361 -211q-49 -8 -125.5 -4t-136.5 21q-137 35 -239 114q-106 84 -161 218.5t-38 275.5q25 219 168 376t364 206zM815 1149q-29 8 -89 12 t-83 0q-106 -23 -200.5 -82t-151.5 -141q-119 -168 -107 -348q10 -147 98.5 -252t243.5 -154q141 -45 273.5 -13t228.5 134q102 109 141 254q16 57 16.5 140t-16.5 132q-53 170 -190 259q-33 22 -164 59zM631 1110q8 4 24 0q12 -2 45 -2q55 0 97 -31q63 -47 39.5 -113.5 t-113.5 -89.5q-55 -16 -99 1.5t-67 62.5q-14 33 -9 62.5t17 48.5q12 16 34 36.5t32 24.5zM625 825q20 12 54 13.5t54 -9.5q18 -10 38 -33.5t26 -43.5q16 -59 -31 -250q-8 -35 -16 -72l-2 -18l53 18q53 16 78.5 17.5t42.5 -15.5q16 -14 16 -45q0 -20 -5 -29.5t-24 -31.5 q-27 -27 -70.5 -50.5t-84.5 -31.5t-101.5 -5t-89.5 17q-70 31 -98 106q-14 39 -12 117q6 117 55 238q10 27 20.5 39t34.5 28q44 31 62 41z" />
<glyph unicode="k" d="M612 1264q37 8 100.5 6t108.5 -13q41 -10 53.5 -6t55.5 -14q182 -72 280.5 -232.5t79.5 -361.5q-18 -213 -149 -375q-141 -174 -361 -211q-49 -8 -125.5 -4t-136.5 21q-137 35 -239 114q-106 84 -161 218.5t-38 275.5q25 219 168 376t364 206zM815 1149q-29 8 -89 12 t-83 0q-106 -23 -200.5 -82t-151.5 -141q-119 -168 -107 -348q10 -147 98.5 -252t243.5 -154q141 -45 273.5 -13t228.5 134q102 109 141 254q16 57 16.5 140t-16.5 132q-53 170 -190 259q-33 22 -164 59zM664 1081q90 12 153 -6q6 -2 30.5 -9t37.5 -11q92 -23 135 -72 q33 -39 42 -93t-9 -104q-20 -57 -72.5 -89.5t-169.5 -65.5q-63 -18 -70 -25q-8 -6 -26 -53q-29 -66 -50.5 -88.5t-56.5 -22.5q-94 0 -65 129q12 66 61 112t166 108q156 82 88 116q-20 10 -64 8t-83 -12q-96 -31 -189 -96q-74 -55 -137 -29q-37 12 -46 46t13 67q18 25 29 45 q27 49 108 91t175 54zM594 403q14 4 63.5 -1t61.5 -11q23 -12 32 -45t-3 -61q-10 -18 -30 -32.5t-38 -14.5q-10 0 -14 -9q-4 -6 -28 -6t-50 29q-25 25 -33 41t-8 39q0 59 47 71z" />
<glyph unicode="l" d="M612 1264q37 8 100.5 6t108.5 -13q41 -10 53.5 -6t55.5 -14q182 -72 280.5 -232.5t79.5 -361.5q-18 -213 -149 -375q-141 -174 -361 -211q-49 -8 -125.5 -4t-136.5 21q-137 35 -239 114q-106 84 -161 218.5t-38 275.5q25 219 168 376t364 206zM815 1149q-29 8 -89 12 t-83 0q-106 -23 -200.5 -82t-151.5 -141q-119 -168 -107 -348q10 -147 98.5 -252t243.5 -154q141 -45 273.5 -13t228.5 134q102 109 141 254q16 57 16.5 140t-16.5 132q-53 170 -190 259q-33 22 -164 59zM672 1077q96 23 141 -88q10 -25 0 -102q-43 -342 -117 -369 q-16 -6 -40.5 1t-41.5 26q-61 63 -61 203q0 68 -6 153q-6 76 -1 98.5t36 28.5q20 4 49 24.5t41 24.5zM639 467q27 6 62.5 2t48.5 -12q14 -8 27.5 -43t13.5 -60q0 -53 -41 -82.5t-95 -15.5q-45 12 -79.5 61.5t-14 95.5t77.5 54z" />
<glyph unicode="m" d="M612 1264q37 8 100.5 6t108.5 -13q41 -10 53.5 -6t55.5 -14q182 -72 280.5 -232.5t79.5 -361.5q-18 -213 -149 -375q-141 -174 -361 -211q-49 -8 -125.5 -4t-136.5 21q-137 35 -239 114q-106 84 -161 218.5t-38 275.5q25 219 168 376t364 206zM903 1122q-74 23 -86 25 l-35 10l31 -27q63 -55 117 -167q18 -43 38.5 -116t24.5 -120q4 -43 8 -43q6 0 76 31q86 35 86 37q16 6 17.5 22.5t-13.5 61.5q-33 109 -102.5 183t-161.5 103zM446 1051q37 51 31 51t-50 -32t-69 -54q-59 -53 -110 -146q-14 -27 -32.5 -78t-18.5 -65q0 -8 49 -29 q49 -18 51 -16t10 49q37 177 139 320zM768 1022q-23 29 -41 39l-18 14l-4 -14q-4 -16 -9 -225l-4 -209l45 4q113 10 146 20q8 2 9 9.5t-1 35.5q-10 92 -44 180.5t-79 145.5zM590 846q6 213 5 215t-12.5 -10.5t-26.5 -33t-28 -38.5q-68 -100 -98 -209q-10 -31 -16 -58.5 t-6 -42t2 -16.5q4 0 84 -10q78 -10 84 -10t12 213zM1169 561q14 61 7 67.5t-74 -20.5q-72 -29 -88 -35q-12 -2 -13 -30q0 -80 -30.5 -180.5t-69.5 -147.5l-6 -8q2 0 10 4q47 25 96.5 70t81.5 92q59 84 86 188zM246 586q-39 12 -51 18q-10 4 -11 -8q0 -6 2 -27 q16 -152 121 -258q27 -29 63 -55.5t44 -26.5q6 0 -15 27q-20 23 -44.5 68t-35 77.5t-20.5 100.5l-10 67zM483 537q-31 4 -45 5t-23 1t-11.5 -1t-2.5 -3q0 -4 7 -43q10 -59 41.5 -120t68.5 -93q20 -16 51 -35t33 -17q4 2 -2 74q-6 49 -12 144l-2 75l-21 4q-6 1 -82 9z M887 469q8 55 3 63.5t-50 -0.5q-57 -6 -99 -6l-47 -2v-45q2 -57 6 -114q6 -55 11 -136q4 -70 14 -69q8 0 8 12t39 55q95 107 115 242z" />
<glyph unicode="n" horiz-adv-x="1384" d="M580 1278q27 8 95 7t105 -9q47 -8 70 -8q29 0 84 -27t106 -63q131 -98 193 -258q33 -88 32 -210t-36 -218q-78 -213 -252 -330t-381 -92q-250 31 -401 192q-111 117 -138 283q-14 88 0 184q25 160 120 290t241 204q60 28 162 55zM670 1182q0 2 -2 2q-4 -2 -17 -4 q-14 -2 -14 -11q0 -6 -14 -22l-2 -4q6 2 18 12q31 25 31 27zM535 1102l69 76q-45 -14 -59.5 -22.5t-26.5 -27.5q-20 -27 -88 -98q-111 -115 -98 -106q4 2 24 20q43 41 74 62q33 20 105 96zM688 1171q0 8 -16 -4q-8 -8 -43 -37q-55 -57 -47 -61q16 0 61 49t45 53zM694 1128 q43 47 33 50q-18 0 -35 -25q-20 -25 -47 -55q-27 -27 -18 -25q10 4 67 55zM580 1120l43 51q-2 0 -60 -59q-55 -55 -45 -51q15 6 62 59zM774 1149q25 16 12.5 16t-59.5 -49l-25 -26q4 2 13 10q32 31 59 49zM705 1114l40 45q-2 -2 -26.5 -23.5t-46 -44t-19.5 -22.5q7 0 52 45z M764 1104q43 43 41 47q-4 2 -45 -31q-18 -16 -29.5 -26.5t-18.5 -17.5t-7 -11t4 -6q6 -4 55 45zM852 1145q-8 12 -23.5 2t-48.5 -45q-41 -43 -28 -39q8 4 51 41q43 35 48 35t1 6zM463 1106l33 33q-6 0 -41 -19.5t-49 -29.5q-23 -14 -50 -56q-31 -45 -67 -88q-39 -47 -62 -80 l-20 -30l37 34q35 35 110.5 119t108.5 117zM877 1124q12 16 4 15q-12 0 -41 -25q-18 -14 -58 -43q-29 -23 -18 -27q2 -2 8 -4q14 -2 53 33q40 37 52 51zM938 1114q0 4 -18 10q-12 4 -22.5 -2t-45.5 -41q-43 -45 -35 -45q27 14 74 44t47 34zM956 1096q0 6 -4 6 q-4 -2 -63.5 -39t-59.5 -39q0 -4 35 -25q63 -39 115 -102l16 -23l45 46q35 37 40 46t-1 19t-55 -14q-80 -39 -80 -8q0 12 12.5 24t51.5 41q16 12 12 21q0 4 -13.5 -2.5t-35.5 -18.5q-74 -45 -88 -27q-2 2 -2 7q0 6 37.5 45t37.5 43zM981 1049l29 18l-19 12l-18 13l-37 -41 q-37 -37 -26.5 -38t71.5 36zM336 1026q8 10 4 10t-46 -48t-52 -66l-11 -23q54 57 105 127zM1049 1024q-10 12 -14.5 11t-16.5 -13q-14 -12 -39 -33q-27 -23 -21 -26q4 -4 49.5 16t49.5 29q4 4 -8 16zM698 950q-45 10 -92 11h-49l-59 -41q-68 -47 -103 -96.5t-51 -123.5 q-10 -51 -2 -94q20 -113 111.5 -182.5t212.5 -63.5q57 2 108 25q45 23 86 61.5t60 77.5q63 135 -4.5 265t-217.5 161zM1106 918q8 6 8 9t-8 15l-10 16l-39 -40q-35 -39 -27 -39q2 0 4 2q27 8 72 37zM1126 899q-4 10 -10 8t-35 -18q-31 -18 -55.5 -22.5t-24.5 -8.5 q4 -8 17 -33l14 -28l49 47q49 47 45 55zM305 885q4 4 6 8l4 8v2q-4 0 -49 -58.5t-65 -90.5q-23 -35 -21 -37t31 28q43 45 62.5 84.5t31.5 55.5zM258 856q18 25 18 27t-26 -27q-27 -27 -45 -37q-20 -12 -27 -37q-12 -37 -6 -37t31 37q26 39 55 74zM1149 829q0 4 -8 27l-8 21 l-35 -35l-35 -35l37 12q37 12 43 10q2 -2 4 -2t2 2zM1137 809q0 10 -2 10l-5 -2q-6 -2 -16 -6t-18 -8q-39 -16 -49.5 -16.5t-4.5 -30.5q6 -33 12.5 -33t44.5 39t38 47zM1155 788q0 35 -8 7q-4 -12 -45 -50l-39 -36l45 30q31 20 39 29.5t8 19.5zM240 733l6 25q-2 0 -47 -45 l-43 -43l4 -62q8 -139 80 -235q10 -10 16 0q4 6 14 28l19 41l-17 -16q-18 -16 -32.5 -14t-14.5 14t15 47l14 33l-14 -10q-31 -20 -41 -4q-4 6 5 29.5t21 39.5q16 20 6 21q-6 0 -28 -13q-25 -12 -30 -6t20 47l22 41l-22 -2q-23 -4 -23 2t33 11q23 4 26.5 7t3.5 17q1 18 7 47z M1139 725q14 20 6 20q-4 0 -23 -12q-20 -16 -45 -31q-16 -8 -20 -14t-4 -24v-27l37 35q35 37 49 53zM1161 716.5q0 18.5 -3 18.5t-3 -6t-27 -35l-26 -28l31 16q28 16 28 34.5zM1143 653q31 37 -8 15q-14 -6 -33 -21q-33 -20 -40 -29.5t-13 -37.5l-7 -39l41 45q46 47 60 67z M233 621q0 27 -2 26.5t-22 -33.5q-4 -8 -9 -15t-7.5 -12t0.5 -5l22 8q12 4 15 9.5t3 21.5zM1150 603q7 32 3 34q-2 2 -32.5 -31t-62.5 -69.5t-34 -44.5q-6 -14 4 -7q6 6 31 27q41 39 63 49q21 10 28 42zM246 549q0 16 -10 4q-6 -6 -13 -18q-12 -31 -4 -31q4 0 17 4 q18 12 14 20q-4 13 -4 21zM1128 530q8 23 7 25q-4 4 -49.5 -37t-92.5 -92q-70 -74 -116 -107q-45 -31 -82 -77q-37 -49 -35 -54q2 -2 111.5 88.5t121.5 104.5q12 16 23 12q8 -2 56 55t56 82zM266 440q12 12 13.5 17.5t-7.5 21.5l-10 23l-8 -31q-8 -29 -14.5 -33t-5 -10 t7.5 -6q10 0 24 18zM1081 428q6 10 2 6q-20 -12 -90 -110l-18 -27l26 27q41 36 80 104zM315.5 397q6.5 2 -4.5 17l-12 16l-14 -27q-14 -29 -10 -28.5t16 8.5q18 12 24.5 14zM336 385q0 6 -4 6q-6 0 -36 -20.5t-30 -24.5t15 -20l12 -15l6 15q6 16 21.5 34.5t15.5 24.5z M1001 356q6 8 10.5 14.5t7.5 10.5t1 4q-4 0 -73.5 -67.5t-82.5 -84.5l-16 -24l24 14q53 29 82 72q20 30 47 61zM367 356q-14 10 -20.5 9.5t-18.5 -19.5q-18 -27 -15.5 -30t33.5 16q8 6 13.5 9t7.5 6t2 5t-2 4zM367 305q4 8 9 16.5t5 12.5l2 4q-4 0 -39 -21l-33 -20l17 -14 l18 -13zM422 313q-18 12 -22.5 12.5t-21 -27.5t-16.5 -34q0 -20 48 15l30 24zM440 264l15 31l-33 -25l-33 -24l14 -8q16 -8 18.5 -6.5t18.5 32.5zM496 276q0 4 -13 7q-12 4 -28 -19q-16 -27 -14.5 -29t26.5 15q29 20 29 26zM772 233l29 41l-62 -49q-61 -47 -63 -51l29 2 q33 2 34.5 10t32.5 47zM580 242q4 8 -0.5 11t-22.5 7l-29 6l-18 -28q-20 -29 -16 -33q8 -12 41 2.5t45 34.5zM492 238q8 10 12 17t2 7q-4 0 -28.5 -21.5t-22.5 -23.5q12 -18 37 21zM758 260v2q-2 0 -8.5 -1t-15.5 -2t-25 -5q-23 -4 -32 -10t-22 -25q-29 -47 -12 -47 q4 0 59.5 42t55.5 46zM608 217q35 27 35 31q0 2 -10 2q-18 -2 -49 -29q-41 -35 -25 -35q4 0 49 31zM842 225l18 25l-35 -29q-25 -25 -18 -24q15 5 35 28zM629 197q8 20 0 20q-4 -2 -23 -16l-22 -21l18 -4q18 -4 19 -2q2 5 8 23zM659 891q8 12 51.5 -1t71.5 -38 q59 -51 74.5 -132t-20.5 -153q-57 -119 -191 -118q-102 0 -163.5 60t-53.5 153q6 80 64.5 142t136.5 77q26 4 30 10zM657 764q6 12 -2 10q-10 0 -20 -14q-6 -10 -43 -53q-31 -33 -20.5 -29t45 40t40.5 46zM731 747.5q-14 20.5 -22.5 22.5t-18.5 -14.5t-26 -34.5q-8 -8 -7 -8 q4 2 21 16q33 27 37 27q25 -4 -47 -92l-33 -39l35 32q39 35 55 43q18 12 19 19.5t-13 28zM670 748q0 4 -27 -23l-22 -25l24 23q25 23 25 25zM692 719q4 4 0 2q-18 -8 -96 -92l-43 -45l27 -15l26 -12l19 14q104 94 102 113q-6 0 -61 -51q-82 -76 -80 -60q0 12 51 76t55 70z M580 653l28 37q-2 -2 -18 -14q-29 -27 -47 -8q-6 4 -6 -4q-2 -8 -2 -23q0 -31 6 -31q4 2 39 43zM756 663.5q4 20.5 -3.5 20.5t-7.5 -5t-24 -34l-27 -29l25 13q23 12 26 12q7 2 11 22.5zM731 598q16 25 14 27q-4 2 -42.5 -21.5t-55.5 -38.5l-20 -16l26 4q49 8 78 45z" />
<glyph unicode="o" horiz-adv-x="1128" d="M463 1382q51 12 101 -10t75 -69q14 -25 12 -72q0 -47 8 -47q6 0 39 -15q106 -51 142 -182q8 -33 18 -129q8 -92 19 -108q10 -23 63 -29q25 -4 47 -27q20 -20 20.5 -52t-12 -76t-24.5 -56q-14 -14 -15 -27q0 -33 -96 -63q-209 -68 -429 -59.5t-355 90.5q-80 47 -41 94 q12 14 8 45q-6 59 33 84q14 8 47 20l35 11l12 43q12 45 23 100q23 129 60.5 197.5t104.5 103.5l33 18l-10 27q-14 31 -14 66q-2 97 96 122zM530 1266q-29 25 -53 8q-18 -12 15 -64q12 -20 30 -16q14 4 19.5 12t5.5 27q-1 21 -17 33zM541 1067q18 20 10 20q-10 0 -70.5 -52 t-117 -105t-50.5 -58q6 -6 117 95q20 20 45 41.5t43.5 39t22.5 19.5zM639 1077q-6 4 -29 8q-14 2 -27.5 -9t-66.5 -72q-92 -104 -88 -104.5t27 22.5q72 68 149 120q10 8 18.5 15.5t12.5 12.5t4 7zM508 1079l-2 2q-6 0 -41 -37l-35 -36l37 34q37 33 41 37zM471 1073 q-2 4 -16.5 0t-36 -13t-33.5 -20q-31 -23 -43 -57q-4 -10 0 -10q14 -4 -4 -29l61 57q72 70 72 72zM696 1036q-23 27 -31 27t-38 -43q-29 -43 -129 -146q-102 -106 -138 -151q-16 -20 0 -4q25 20 105 102q188 188 211 183q6 -2 6 -15q0 -16 -98 -123q-113 -119 -160 -174 q-18 -23 -44 -52.5t-28 -31.5q-8 -10 -8 -11t8 3q29 16 152 162q51 59 108.5 115.5t69.5 56.5q14 0 -47 -82q-25 -33 -33 -45h2q33 16 70 59q2 4 4 6q8 14 12 11q6 -4 -5 -33t-30 -53l-20 -33l39 35q41 35 45 30.5t-10.5 -34t-34.5 -56.5q-39 -47 -72 -84l-45 -51l72 68 q72 72 91 88t25.5 12t-10 -37t-45.5 -67l-28 -37l26 26q57 51 82 64l-4 22q-6 23 -16 115q-8 80 -18.5 115.5t-35.5 62.5zM602 1008q18 25 14 26q-4 4 -77.5 -59.5t-151.5 -136.5q-74 -70 -92.5 -91.5t-26.5 -44.5q-18 -68 -63 -92q-23 -12 -23 -16t43 -14 q59 -12 70.5 -11.5t23.5 17.5q43 66 250 286q100 109 99 113q-18 14 -289 -274q-139 -147 -139 -125q0 6 64.5 88t92.5 112q31 35 113 119q76 78 92 103zM473 975l47 55l-78 -72q-117 -106 -131 -98l-6 -8q-4 -8 -6 -25q-6 -29 -12 -53q-2 -12 2 -10q8 4 71 80 q62 74 113 131zM625 860q12 16 8 17q-16 0 -148 -156q-47 -57 -94 -104.5t-55 -47.5q-6 0 -2 -6t55 -6h49l19 27q18 29 71 84q150 160 131 161l-4 -2q-43 -25 -166 -163q-102 -113 -102 -95q2 18 166 205q62 70 72 86zM672 762q18 25 14 29q-2 2 -48 -41t-96 -95.5 t-65 -70.5l-22 -29l26 4q25 4 47 31q10 12 74 88q52 57 70 84zM711 719q18 29 -9 6q-20 -18 -77 -76l-86 -86l24 4q25 4 47 27q72 80 101 125zM786 678q4 4 -2 12q-4 8 -14 -8q-8 -12 -6 -14q2 0 8 2q12 4 14 8zM754 682q8 12 -2 8q-12 -8 -45 -39q-41 -35 -58 -57l-14 -19 l14 5q10 2 53.5 45t51.5 57zM797 651q0 31 -54 -18q-10 -8 -20 -19l-25 -26l25 4q20 4 47 25.5t27 33.5zM829 643q-16 16 -18 4q0 -6 -18 -26q-14 -18 -11.5 -18.5t29.5 15.5q24 17 18 25zM492 346q29 12 67.5 -4t54.5 -47q25 -45 -2 -88q-12 -18 -38.5 -32.5t-49.5 -14.5 q-47 0 -81.5 32.5t-26.5 71.5q2 16 29 44t47 38z" />
<glyph unicode="p" horiz-adv-x="1384" d="M580 1278q27 8 95 7t105 -9q47 -8 70 -8q29 0 84 -27t106 -63q131 -98 193 -258q33 -88 32 -210t-36 -218q-78 -213 -252 -330t-381 -92q-250 31 -401 192q-111 117 -138 283q-14 88 0 184q25 160 120 290t241 204q60 28 162 55zM834 1151q-70 20 -101 25q-25 2 -30 -1.5 t-11 -31.5q-8 -37 -44 -42t-54 29q-8 14 -8 27q0 10 -5.5 10t-31.5 -8q-88 -27 -164 -84q-39 -27 -86 -81t-70 -93q-14 -29 -36.5 -81t-22.5 -62q0 -2 33 -2q63 0 63 -54q0 -31 -23.5 -45t-60.5 -8l-26 4l4 -53q8 -117 71.5 -212t165.5 -146q88 -43 170 -60l25 -4l-4 43 q-2 31 0 41t12 23q16 18 40 19t40 -19q14 -16 14 -64q0 -49 2 -49q4 0 52 10q137 27 239 127q123 119 164 305l4 17l-53 -2q-39 -2 -49.5 0t-20.5 14q-35 33 -4 70q10 12 19.5 14t42.5 2q47 0 59 -6q8 -4 10 -2t2 12q0 72 -35 160q-37 96 -116 168q-37 37 -71.5 54.5 t-104.5 35.5zM604.5 1075.5q16.5 14.5 38.5 9.5h2q31 -6 36 -32.5t3 -178.5v-10q-4 -193 2 -192.5t14 8.5q20 18 85 56t75 38q14 0 33.5 -18.5t19.5 -34.5q0 -18 -18 -35.5t-74 -54.5q-68 -43 -123 -92q-41 -37 -59 -45.5t-39 0.5q-25 12 -29 50t2 234q6 244 11 264 q4 19 20.5 33.5z" />
<glyph unicode="q" horiz-adv-x="1402" d="M825 1251q186 41 334 -94q115 -104 123 -229q8 -113 -74 -230q-47 -70 -112.5 -131t-204.5 -172q-106 -84 -170 -139q-96 -84 -167 -120t-140 -36q-74 0 -140 47q-98 66 -100 172q0 92 66.5 191.5t222.5 239.5q100 90 155 143q121 115 197 145q37 14 107 15q51 0 66.5 -3 t41.5 -16q78 -41 78 -129q0 -63 -41 -119.5t-139 -123.5q-61 -45 -162 -121q-66 -49 -86.5 -61.5t-36.5 -12.5q-51 0 -51 51q0 23 19.5 41.5t127.5 95.5q137 102 181.5 138t60.5 61q63 92 -61 92q-43 0 -80 -18q-78 -41 -135 -103q-12 -14 -136 -125 q-127 -115 -188.5 -185.5t-85.5 -129.5q-39 -92 35 -147q55 -39 112 -29q47 10 99.5 45t156.5 125q61 51 150 121q143 113 217 194q84 90 104 158q18 68 -10 131q-23 47 -76 94t-106 66q-88 29 -180 -15q-137 -63 -347 -270t-341 -405q-37 -57 -54 -64q-27 -10 -49 5.5 t-22 43.5q0 43 140 218t286 315q255 245 415 280z" />
<glyph unicode="r" horiz-adv-x="1490" d="M811 1153q41 25 78 -6q51 -39 207 -174q127 -115 209 -170q31 -18 45 -30.5t19 -32t-1 -35t-30.5 -46t-56.5 -62.5t-91 -85q-186 -176 -275 -276q-29 -33 -47 -37t-43 14q-41 33 -41 133q0 61 -8 72.5t-49 15.5q-59 4 -139 -14.5t-137 -50.5q-47 -27 -69 -46.5t-36 -50.5 q-29 -61 -82 -61q-59 0 -76.5 52t11.5 151q27 90 65.5 154.5t108.5 129.5q145 137 348 207l59 23l4 104q4 104 7 107l4 2q2 2 7 5t9 7zM1004 909q-100 86 -105 88q-6 2 -6 -32v-33l12 14q14 16 21 8q6 -10 6 -14q0 -10 -15.5 -50t-29.5 -71l-19 -37q2 2 11 13 q25 31 59.5 65.5t38.5 32.5q6 -4 6 -14.5t-20.5 -53.5t-40.5 -75q-12 -20 2 -7q12 10 45 45q84 88 84 66q0 -6 -82 -131q-86 -131 -90 -139q-16 -33 24 20q18 20 45 58q45 59 84 102t51 43q10 0 -6 -31l-10 -20q-25 -43 -74 -107q-72 -86 -102 -141l-6 -14q8 8 88 110 q137 182 155 182q25 0 -47 -114q-8 -16 -20 -33l-37 -53l31 35q33 37 72.5 75.5t46.5 38.5q23 0 -21 -76q-10 -16 -18 -30l-11 -17q4 2 50 43q61 59 63 62q0 4 -20 16q-45 24 -215 176zM913 918q0 4 1 8t1 6v2q-6 0 -14 -18.5t-8 -30.5v-19l8 17q10 29 12 35zM946 823 q6 12 11.5 23.5t8.5 17.5t1 6q-6 0 -50.5 -54t-76.5 -105q-82 -121 -105 -121q-12 0 15 33q0 2 2 4q43 53 108 174l27 49l-23 -10q-20 -10 -51 -62q-33 -49 -82 -127q-45 -70 -51 -84q-4 -8 -8 -2q-10 10 63 121q23 35 42.5 67.5t29.5 52t6 19.5q-2 0 -39 -49 q-162 -219 -168 -219q-14 0 19 41q43 57 108 172q20 37 10 33q-20 -8 -112 -154q-20 -33 -33.5 -52t-22 -30.5t-12.5 -14.5t-6 -1q-4 6 29 59q57 94 57 123q0 18 -35 -35q-18 -29 -33 -59q-20 -43 -45 -84q-10 -16 -14 -27l-6 -12q2 -2 57 10q57 12 131 13l78 2l23 37 q6 10 32.5 53t40.5 65q49 78 74 127zM778 809q0 16 -16 -8q-2 -6 -4 -13l-13 -24l17 20q16 19 16 25zM1004 799q10 16 -9 -4q-14 -14 -45 -47q-57 -61 -84 -99q-27 -33 -51 -72.5t-22 -41.5l24 -13q18 -10 35 -24q10 -8 14 -6t17 24q16 31 53 80q10 14 36.5 49t37.5 47 q37 49 43 64q4 8 -2 4q-27 -18 -103 -123q-82 -111 -108 -113q-4 0 -4 6q0 8 94 154q16 27 34.5 54.5t29 43t10.5 17.5zM684 758l23 28q-4 0 -27 -10q-16 -6 -20.5 -11t-4.5 -22l4 -20q5 4 25 35zM1102 725q16 31 14 31q-12 0 -108 -129q-14 -18 -84 -109q-31 -39 -36 -51 t-3 -31l4 -26l55 82q63 94 96 141q37 51 62 92zM613.5 727.5q17.5 22.5 13.5 22.5q-6 0 -56 -33q-31 -18 -39 -27.5t-6 -17.5q4 -12 15 2q4 4 8 10q37 47 43 29q4 -8 21.5 14.5zM1143 668q20 37 16 37q-10 0 -61 -61.5t-92 -119.5q-57 -86 -86 -118l-5 -7q6 6 48 45 q121 120 180 224zM555 641q27 43 23 49q0 6 -16.5 -14.5t-38 -54t-40.5 -66.5q-8 -16 -14 -30.5t-10 -22.5l-2 -8q14 0 24.5 11t24.5 44q20 45 49 92zM481 584q43 76 33 78q-8 2 -35 -37q-33 -45 -47 -78q-18 -37 -33 -62l-18 -30l22 10q20 10 31 33q16 33 47 86zM467 631 q16 23 14 22q-4 0 -20.5 -19.5t-14.5 -21.5q3 -4 21 19zM401 528q37 74 27 70q-4 0 -12 -10q-6 -8 -33 -52t-47 -85l-21 -39q16 6 35 21.5t19 21.5q-1 10 32 73zM989 524q10 14 18.5 28.5t12.5 20.5l4 9q-2 0 -38 -50.5t-50 -76.5l-18 -29l16 18q16 21 55 80z" />
<glyph unicode="s" horiz-adv-x="1339" d="M563 1096q39 27 62 22q31 -6 44 -30.5t19 -96.5q6 -63 8 -69q4 -4 33 -11q133 -20 270 -157q102 -104 162 -234.5t60 -251.5q-2 -127 -86 -127q-39 0 -64 47q-12 23 -52 63t-83 71q-70 51 -149.5 75.5t-100.5 1.5q-10 -10 -10 -104q2 -63 0 -82.5t-10 -36.5 q-27 -49 -80 -49q-43 0 -68 47q-8 16 -77.5 73.5t-141.5 108.5q-211 145 -227 183q-20 37 -2 65q14 23 240 248.5t253 243.5zM430 737l156 152v43l-2 41l-19 -19q-20 -20 -12 -20q29 0 -29 -49q-35 -29 -55 -49q-16 -16 -96 -111.5t-117 -144.5l-25 -33l23 18q22 20 176 172 zM545 786q31 29 38 39.5t3 22.5q-2 14 -17 4q-10 -10 -75 -76q-82 -80 -129 -137q-23 -29 -58 -70l-12 -16q2 0 10 4q16 8 105 98q92 94 135 131zM383 760l47 59q-2 0 -184 -188q-55 -59 -45 -56q16 8 77.5 70t104.5 115zM731 801q-10 6 -26.5 5t-18.5 -9q-4 -10 -24 -19 q-16 -8 -138.5 -137t-138.5 -160q-8 -12 8 0q20 18 111 107q125 119 176 162q18 14 30.5 25t17.5 18.5t3 7.5zM567 776q6 8 9.5 13.5t1.5 5.5q-6 0 -65.5 -56.5t-98.5 -99.5q-88 -96 -140 -111q-35 -10 15 43l4 4l35 35l-43 -37q-43 -37 -41 -43q4 -6 30 -24l25 -19l47 56 q45 53 127 135q84 84 94 98zM608 788q-4 6 -10 5.5t-6 -7t-111 -118.5q-119 -125 -125 -133l-16 -19l16 12q27 20 140.5 138t111.5 122zM797 774q-45 23 -45 6q0 -6 -152 -162q-150 -152 -174 -182q-23 -31 -10 -22q16 10 88 84q238 244 266 243q16 0 -22 -43 q-10 -12 -31 -34q-92 -96 -168 -196.5t-66 -111.5q2 -2 7.5 1t20.5 18.5t38.5 43t64.5 77.5q78 92 121 137q47 51 64 69q23 31 35 17q2 -4 2 -10q0 -8 -36 -55.5t-77 -94.5q-43 -47 -35 -47t94 84q88 84 102.5 90t14.5 12.5t-39.5 35t-62.5 40.5zM575 612q133 137 132 140 q-8 8 -211 -193q-72 -70 -96.5 -89t-32.5 -11q-10 10 18.5 47t136.5 153q66 72 58 70q-25 -20 -105 -104q-84 -88 -121 -115q-37 -25 -37 -31q0 -4 39 -30l39 -29l25 29q20 28 155 163zM819 702q4 8 2 9q-4 0 -18 -21q-12 -20 -58 -65q-125 -133 -98 -123q14 8 83 87.5 t89 112.5zM666 629q25 29 39 46t12 17q-4 0 -148 -145l-143 -148l16 -14q18 -14 23 -14q4 2 33 47q53 84 168 211zM938 658.5q0 5.5 -12 15.5q-8 8 -15.5 4t-33.5 -33q-72 -76 -70 -78q2 0 41 27q59 43 72 49q18 10 18 15.5zM939 623.5q19 23.5 13 23.5q-12 0 -97 -64.5 t-81 -70.5t25 -10q12 -2 23.5 4t45.5 43q52 51 71 74.5zM836 623q14 16 12 16t-66.5 -63.5t-52.5 -63.5q21 0 107 111zM981 610q-12 18 -16 17q-4 0 -60 -60l-45 -51q27 14 45 29q29 18 58 35q23 10 24.5 14t-6.5 16zM250 594q6 10 -4 2q-6 -4 -21 -16q-23 -23 -14 -25 q6 -2 16.5 8.5t22.5 30.5zM989 571l6 11q-4 0 -90 -54q-41 -27 -51 -30q-8 -4 16 -15l23 -12l45 45q47 45 51 55zM1018 559q-6 14 -23 -2q-6 -6 -18 -20l-27 -31l33 20q35 20 37 23zM1001 492q45 41 27 38q-20 0 -80 -43q-20 -16 -23 -20t3 -12q8 -8 23 -1t50 38zM1071 457 q-20 47 -24 51q-2 4 -25 -16q-29 -25 -45 -39l-10 -9q6 2 24 13q37 23 45 22q18 0 6 -24q-4 -6 -12 -13q-23 -23 -8 -36q8 -8 16.5 10t20.5 18t20 -18.5t0 -38.5q-6 -12 -5 -18.5t11 -16.5q14 -16 21 -16q2 0 -2 23.5t-13.5 54t-19.5 53.5zM1017.5 448.5 q18.5 18.5 16.5 18.5q-4 0 -30.5 -17.5t-26.5 -21.5t14 -14q14 -8 14.5 -6t-1.5 8q-5 14 13.5 32.5zM575 422l3 6q-6 -4 -39 -41q-37 -43 -35 -47q0 -2 16.5 -16.5t32.5 -28.5l16 -12q2 2 -2 45q-2 31 -4 37t-10 4q-12 -4 -11 1t13 23q16 19 20 29zM1069 410q-8 29 -22 -9 q-6 -20 2 -28q6 -6 9 -5t7 13q8 17 4 29z" />
<glyph unicode="t" horiz-adv-x="1345" d="M594 1223q68 12 149 0q35 -8 82 -13q45 -6 88 -26q238 -119 297 -357q14 -59 15.5 -137t-13.5 -141q-37 -170 -149.5 -298t-263.5 -171q-141 -41 -301 8t-275 170q-123 129 -136 314.5t85 355.5q27 47 82 104.5t98 87.5q113 76 242 103zM825 1092q-74 23 -140.5 24.5 t-76.5 -0.5q-88 -23 -147.5 -55.5t-116.5 -87.5q-88 -88 -128 -207t-17 -229q41 -207 245 -312q158 -82 313.5 -43t260.5 187q111 154 102.5 334t-129.5 296q-41 39 -72 57t-94 36zM479 901q31 10 47.5 5t42.5 -29q57 -55 43 -103q-12 -43 -62 -59.5t-97 -1t-56 58.5 q-6 29 23.5 75t58.5 54zM766 893q37 20 83 15t69 -34q12 -16 14 -43.5t-8 -46.5q-23 -45 -66 -60t-84 7q-51 29 -54 80t46 82zM293 639q25 25 59 10q10 -4 37 -45q59 -80 137 -119q31 -14 47.5 -17t63.5 -3q45 0 62.5 2t43.5 16q53 27 131 117q23 27 45.5 27t37 -14.5 t14.5 -37.5q0 -25 -33 -65q-82 -106 -198.5 -142t-233.5 8t-197 156q-49 72 -16 107z" />
<glyph unicode="u" horiz-adv-x="1345" d="M594 1223q68 12 149 0q35 -8 82 -13q45 -6 88 -26q238 -119 297 -357q14 -59 15.5 -137t-13.5 -141q-37 -170 -149.5 -298t-263.5 -171q-141 -41 -301 8t-275 170q-123 129 -136 314.5t85 355.5q27 47 82 104.5t98 87.5q113 76 242 103zM825 1092q-74 23 -140.5 24.5 t-76.5 -0.5q-88 -23 -147.5 -55.5t-116.5 -87.5q-88 -88 -128 -207t-17 -229q41 -207 245 -312q158 -82 313.5 -43t260.5 187q111 154 102.5 334t-129.5 296q-41 39 -72 57t-94 36zM479 901q31 10 47.5 5t42.5 -29q57 -55 43 -103q-12 -43 -62 -59.5t-97 -1t-56 58.5 q-6 29 23.5 75t58.5 54zM766 893q37 20 83 15t69 -34q12 -16 14 -43.5t-8 -46.5q-23 -45 -66 -60t-84 7q-51 29 -54 80t46 82zM600 618q35 8 98 7q66 -2 103 -18.5t86 -67.5q33 -33 42 -45.5t9 -26.5q0 -35 -31 -49q-20 -12 -36.5 -4t-57.5 47q-35 33 -49 43t-41 14 q-68 14 -132.5 -19.5t-94.5 -99.5q-37 -84 -90 -41q-18 14 -20.5 33t11.5 53q25 59 80 106.5t123 67.5z" />
<glyph unicode="v" horiz-adv-x="1255" d="M979 1333q16 16 38.5 17.5t39.5 -15.5q10 -10 13 -21t3 -46q0 -49 5 -55.5t19.5 -121t22.5 -233.5q10 -133 14.5 -362.5t-4.5 -245.5q-6 -12 -28 -23q-23 -8 -23 -16q0 -10 -36.5 -45t-61.5 -45q-31 -12 -66.5 -13.5t-58.5 11.5q-49 25 -72.5 91t0.5 107q12 23 52.5 51.5 t70.5 37.5q31 12 76 8l47 -2l-4 178q-4 119 -12 260t-15 145q-2 4 -67 -24q-84 -35 -193 -80q-127 -51 -176 -76l-51 -27v-190q0 -342 -27 -377q-2 -4 -30 -47q-45 -63 -121 -98q-31 -14 -84 -15q-37 0 -51.5 3.5t-44.5 21.5q-78 45 -72 115q10 92 104.5 166.5t184.5 64.5 l39 -4l-4 186q-4 182 -17 279q-6 66 -11 80t-20 26q-23 18 -22.5 43t19 39.5t81.5 34.5q61 23 223 86q119 47 228 88q74 27 92 43z" />
<glyph unicode="w" horiz-adv-x="1433" d="M145 1370q23 8 40.5 1t62.5 -40q61 -43 102 -67q82 -47 43 -95q-20 -27 -52 -17.5t-120 67.5q-63 43 -82.5 61t-19.5 39q-1 39 26 51zM575 1116q18 18 39 15t62 -31q188 -129 237 -152q23 -10 41.5 -13t81.5 -1q197 2 242 -49q51 -55 31 -318q-6 -88 -13.5 -118.5 t-25.5 -34.5q-14 -6 -29 -23l-14 -16l-150 -4l-149 -2l-43 -25q-45 -27 -109 -78q-111 -88 -142.5 -103.5t-55.5 3.5l-17 14v422q0 422 6 434.5t0 16.5q-10 6 -7 28.5t15 34.5zM690 926q16 18 12 20q-4 0 -18 -7t-14 -21q0 -12 2 -15q2 0 18 23zM735 930q-12 12 -43 -25 q-25 -29 -20.5 -28.5t21 12.5t30.5 25.5t12 15.5zM739 907q0 2 -37 -24q-33 -27 -32.5 -37t35 24.5t34.5 36.5zM776 899q-2 4 -8 8q-4 2 -51 -44t-47 -52t53 39q55 43 53 49zM801 850l28 18l-16 11q-12 8 -15 7t-10 -18q-12 -23 -28 -43q-12 -16 -12 -17t10 9q14 10 43 33z M770 864l6 13q-2 0 -53 -43t-53 -62q0 -12 2 -12q6 0 45 41q47 49 53 63zM821 823q29 35 23 35q-16 0 -88 -61q-29 -25 -60 -43q-27 -18 -28 -33q-6 -16 -4 -84v-70l55 58q33 33 69.5 74.5t60 71.5t21.5 30q-6 0 -77 -62q-117 -98 -111 -75q4 14 55 69q66 67 84 90zM901 838 q-29 10 -31 10q-6 4 -45 -39q-10 -14 -32.5 -39t-26.5 -31q-16 -18 2 -2q8 6 25 21q92 80 106 71q8 -6 -4 -23.5t-61 -74.5q-74 -84 -70 -86q4 0 47 33q104 76 111 65q12 -23 -111 -151q-74 -76 -61 -70q25 20 45 41q16 18 63 54t53 36q25 0 -14 -53q-2 -2 -4 -6 q-31 -37 -92 -107q-80 -92 -76 -92l33 27q41 37 86 69.5t55 32.5q16 2 -10 -43q-8 -14 -6 -16t20 2l21 6l4 96q6 96 0 179l-4 83zM1196 815q-8 6 -86 10l-76 2v-174v-172l78 -2q80 -4 81 -3t7 77q8 74 6 163t-10 99zM887 696q14 20 12 25q-4 2 -35 -23q-8 -4 -26.5 -18 t-44 -33.5t-43.5 -32.5l-80 -61v-117v-117l49 39q43 35 92 68q29 18 50.5 38.5t17.5 27.5q-12 10 -103 -72q-92 -82 -98 -68q-6 10 45 68q133 145 164 190l14 19l-18 -11q-20 -10 -80 -65q-98 -92 -115 -92q-25 0 88 117q95 95 111 118zM-2 705q14 14 21.5 16t33.5 -2 q35 -4 121 -6q59 0 74.5 -2t25.5 -11q14 -16 13.5 -39.5t-17.5 -37.5q-12 -10 -27.5 -12.5t-80.5 -2.5q-88 0 -121 6.5t-49 22.5q-29 33 6 68zM283 160q43 37 56 44t30 5q45 -8 45 -55q0 -18 -10.5 -29.5t-59.5 -52.5q-209 -174 -238 -174q-23 0 -37 14t-14 36.5t13.5 38 t78.5 66.5q50 39 136 107z" />
<glyph unicode="x" horiz-adv-x="1390" d="M143 1044q10 4 23 3q111 -18 596 -19q428 0 448 4q20 6 41 -12l19 -21l-2 -108q-8 -166 -17 -328q-12 -231 -12 -303q0 -66 -5 -88t-24 -35q-31 -20 -317 -35q-188 -8 -455.5 -4t-283.5 17q-10 10 -27 41l-14 32l4 273q4 276 -6 393q-12 121 -5 143q10 37 37 47zM381 922 q-113 6 -145 10l-29 4l4 -18q6 -33 10 -193t2 -305l-4 -207l74 -4q133 -8 383 -4t401 16l51 4l5 94q10 203 14 263q8 174 12 252l4 81h-110h-332q-213 1 -340 7zM326 817q20 23 123 8q41 -6 268 -4h35q209 0 245.5 -2t44.5 -12q2 -2 2 -4q10 -12 12.5 -29.5t2.5 -93.5 q0 -231 -15 -332q-4 -20 -28 -45l-23 -27l-133 -8q-246 -14 -485 6q-74 8 -88.5 22.5t-15.5 34t10 38.5q10 14 18 211q6 199 8 211q7 12 19 26zM696 713q-256 0 -272 6l-16 4v-88q0 -90 -7 -103l11 5q12 8 28 24q160 150 289 19l37 -37l59 18q59 18 93 37l32 18v50v49z" />
<glyph unicode="y" horiz-adv-x="1294" d="M383 1102q25 6 378 5t369 -7q31 -8 41.5 -37t-6.5 -57q-8 -14 -29.5 -33t-29.5 -19q-14 0 -25 -63q-8 -49 -28 -90q-16 -35 -56.5 -79t-76.5 -69l-31 -20l47 -47q57 -57 84 -127t31 -176q4 -57 6 -67.5t14 -10.5q16 0 34.5 -11.5t24.5 -25.5q12 -33 -1 -60.5t-50 -41.5 q-20 -8 -73.5 -9.5t-280.5 -1.5q-324 2 -350 8q-23 6 -35 24.5t-6 35.5q4 14 17.5 28.5t21.5 14.5q23 0 20 82q-6 205 152 366l37 37l-41 29q-137 96 -172 246q-6 23 -10.5 29t-18.5 8q-20 4 -34.5 20t-14.5 37q0 14 15.5 31.5t27.5 17.5q10 0 22 14q13 17 27 19zM899 950 q-57 2 -256 6l-172 2l4 -16q25 -100 150 -190q53 -39 72.5 -60.5t19.5 -42.5q0 -16 -9.5 -28.5t-50.5 -49.5q-82 -76 -112 -135l-10 -20l32 14q27 10 47 19q12 4 74 16q63 10 105.5 5t107.5 -32q10 -4 8 2t-10 21q-33 57 -106 96q-45 20 -54.5 39.5t9.5 52.5q12 29 71 66 q80 53 115 98t45 109l4 24zM707 340q29 25 16 25q-6 0 -16 -5q-18 -8 -33 -38q-2 -8 0 -9q6 2 33 27zM825 354q-10 6 -41 8q-23 2 -27.5 1t-4.5 -11t2 -11t10 7q23 20 27 -4q0 -12 -11 -33q-4 -10 -2 -10t25 21q10 8 15 13t8 9t3 6t-4 4zM739 340q0 6 -5 6t-58 -53t-66 -70 l-12 -18h70h69l45 47q74 80 64 84q-2 2 -8 -4q-10 -8 -60 -53q-49 -47 -63 -54q-16 -10 -13 0q4 12 29 39q55 63 45 72q-2 2 -26.5 -20.5t-51 -50t-34.5 -38.5q-12 -18 -16.5 -14t1.5 16q8 14 49 59.5t41 51.5zM657 322q4 4 7.5 8t3.5 6v4l-64 -68l-63 -67h20 q16 0 26.5 12.5t69.5 104.5zM565 268l49 64q-25 -2 -49 -41q-16 -27 -43 -49q-41 -37 -16 -37q8 0 59 63zM889 315q-35 25 -35 11q0 -6 -14 -27l-13 -20l15 12q16 14 30 20q12 2 13.5 0t-0.5 -18q-4 -20 -19 -35l-6 -10q2 2 23 14q41 25 50 17.5t-13 -43.5l-19 -31h21h22v47 q0 35 -2 41t-14 6q-16 0 -39 16zM543 283q12 18 6 18q-12 0 -31 -33l-6 -18l6 6q13 11 25 27zM874 295q0 8 -24 -12l-31 -31l-51 -47h57h58l22 33q8 14 13.5 22t3.5 8q-4 0 -50 -28q-53 -37 -49 -21q2 10 23 35q28 35 28 41z" />
<glyph unicode="z" horiz-adv-x="1468" d="M682 1286q31 6 80 2t82 -14q68 -25 117 -74q49 -51 60 -113.5t-17 -119.5l-19 -37l131 -4q133 -4 156 -11q43 -14 67 -69q8 -20 9 -133q0 -154 -7.5 -392.5t-13.5 -250.5q-6 -18 -35.5 -45t-54.5 -39q-27 -10 -133 -9q-100 4 -133 11.5t-51 27.5q-14 16 -17.5 26.5 t-1.5 39.5q2 106 -29 127q-14 8 -88.5 10t-83 -6t-8.5 -80t-14 -96q-20 -41 -57 -51.5t-162 -10.5h-103l-24 21l-23 20l-6 131q-6 131 -8 134l-4 -2q-4 0 -13.5 -2.5t-17.5 -6.5q-31 -8 -76 -6t-78 15q-76 27 -108 92q-16 35 -16 96q0 41 3 57.5t17 44.5q20 45 51 76 q39 39 82 44t133 -21q55 -16 60 -15q2 2 -10.5 86t-12.5 109q0 23 11.5 50.5t25.5 35.5q14 6 92 6q82 0 82 2t-10 23q-20 39 -19.5 91t23.5 101q18 45 67.5 82t104.5 47zM803 1174q-96 29 -164 -23q-37 -27 -45 -90l-4 -33l43 45q82 88 125 92q10 2 12 -4q2 -8 -39 -61 q-72 -94 -63 -94q6 0 39 43q68 90 106 90q23 0 23 -6.5t-68 -92.5q-70 -86 -72 -94q-4 -8 76 70q119 113 121 90q0 -6 -45 -68q-76 -98 -68 -98q4 0 45 55q59 74 79 74t-25 -57q-45 -55 -39 -56q2 0 12 7q59 31 66 81q4 39 -30 77.5t-85 52.5zM752 1151q0 4 -20.5 -10.5 t-49.5 -39t-47 -44.5l-35 -41l10 -19q20 -33 58 -47q14 -6 14 2q0 4 37 49q104 125 88 125q-23 0 -80 -75q-70 -84 -88 -76q-6 18 72 119q41 53 41 57zM840 1055q4 6 8 10t4 8l2 2q-2 0 -74 -71q-51 -51 -60 -63.5t-3 -20.5q20 -27 4 -54.5t-51 -27.5q-16 0 -23.5 -5.5 t-23.5 -29.5q-25 -35 -84 -115l-60 -80q2 0 68 74q43 49 125 125t90 76q16 0 -70 -95q-117 -129 -227 -292q-78 -115 -62 -109q4 2 21 19q51 57 192 241q53 68 84 90q29 18 62 56q31 33 43 32.5t12 -2.5q0 -4 -51 -63q-137 -164 -242 -314q-43 -66 -80.5 -134t-35.5 -76 q4 -8 12 6q23 45 246 325q70 86 153 174l78 78h-31q-31 0 -44 7.5t-23 27.5q-10 23 -15 23q-18 0 4 38q2 6 7 11l16 24l-23 -22q-23 -20 -26 -19q-8 8 3 33t32 51q39 54 43 62zM563 829q0 2 -1 4.5t-10 3.5t-22.5 1h-40.5h-77l4 -35q6 -39 6 -41q4 -2 41 28.5t39 34.5 q0 4 5 6.5t10 1t5 -5.5q0 -12 -41 -63q-49 -57 -49 -74q0 -20 12 -6q4 4 7 10q4 12 57 70q51 57 55 65zM586 799q27 39 18 39q-14 0 -69.5 -61.5t-67.5 -84.5q-14 -23 -25 -30q-8 -4 -12 -27l-2 -23l12 17q43 49 62 71q37 42 84 99zM1014 764l57 55h-70q-47 0 -58 -2 t-15 -10q-4 -14 -29 -33q-20 -16 -90 -101t-133 -171q-37 -47 -95.5 -133t-101.5 -154t-37 -68q4 0 234 318q90 125 201 237q125 125 124 107q0 -6 -47 -64q-39 -43 -108 -135q-119 -154 -119 -168l8 9q187 223 279 313zM1235 809q-6 6 -44 9t-72 1t-34 -8q0 -8 -20.5 -41 t-44.5 -70q-25 -43 -76 -112q-12 -20 -24.5 -38t-18.5 -28l-6 -10q2 0 47 53q180 215 223 215q12 0 -2 -24q-8 -14 -35 -56q-76 -117 -184 -256q-78 -100 -74 -100q2 0 23 21q31 33 90 114q82 113 118 153t107 99q58 49 27 78zM877 770q39 37 32 37q-8 0 -82.5 -78 t-117.5 -131q-117 -139 -279 -360q-16 -25 -19 -35t-3 -37l2 -39l69 113q90 143 212.5 306t185.5 224zM643 754l23 32q-12 -10 -70 -71q-63 -68 -119.5 -134.5t-88.5 -107.5t-26 -43q8 -2 19 -12q8 -6 12 -3t15 19q92 152 235 320zM1026 735q14 23 23.5 37t7.5 14 q-4 0 -70.5 -71.5t-66.5 -77.5q0 -12 -68 -116.5t-102 -145.5q-39 -45 -29 -47q4 -2 10 -2q12 0 21.5 8t27.5 39q23 33 123 178t123 184zM461 760q14 16 14 18l-24 -14q-25 -16 -25 -33q0 -12 1 -13t7 9q9 15 27 33zM1143 748q6 14 4 14t-43 -41q-55 -51 -143.5 -154.5 t-147.5 -187.5q-12 -16 -18.5 -25.5t-9.5 -15.5t-2 -8t5 -2q12 -2 15 4q4 14 36.5 64t63.5 91q39 51 125 145.5t98 98.5q11 5 17 17zM537 709q31 41 28 41q-6 0 -60 -66t-106 -133q-51 -70 -41 -64q36 32 179 222zM690 686l47 62l-30 -23q-31 -20 -119 -137 q-80 -104 -135 -170q-45 -51 -50 -80q-4 -31 0 -43q4 -14 21 14q4 8 12 19q80 141 254 358zM1241 684q4 41 1 45t-3 -4q0 -6 -182 -217q-82 -94 -121 -146l-39 -51l31 29q35 31 119 127q129 141 174 168q16 10 20 49zM893 692q14 18 12 19q-4 0 -63 -62q-47 -51 -89 -105.5 t-165 -224.5q-117 -160 -144 -192q-31 -39 -30.5 -44t35 -5t38.5 10q16 49 138 231q198 299 268 373zM1178 668q37 43 30 43q-12 0 -63 -54.5t-90 -105.5q-117 -158 -154 -197q-33 -35 -24.5 -35t63.5 70t127 152q20 25 60.5 71t50.5 56zM1100 680q4 4 6 8t3 7t-1 3t-82 -88 q-139 -152 -188 -245q-18 -37 -11 -39q12 0 31 26q20 31 66 88q129 164 176 240zM1229 606l8 21q-31 -2 -152 -140q-43 -49 -112 -122l-53 -54l22 -18q20 -18 35 -43q10 -23 20.5 -69t10.5 -72v-25h79l78 2l31 37q45 55 35 72q-2 4 -6 4q-8 0 -58 -45q-70 -61 -69 -39 q0 6 26 39q27 37 55.5 86t26.5 55q-2 8 -57 -53q-53 -61 -68 -74q-8 -6 -19 -10t-19.5 -4t-8.5 6q0 4 101 129q90 109 75.5 104.5t-116.5 -123.5q-49 -55 -78 -59q-14 -2 10 31q6 6 17.5 19t27.5 33.5t29 35.5q106 131 127 170q12 25 -47 -35q-29 -31 -74 -78 q-123 -135 -123 -104q0 23 121 159q100 117 125 164zM862 565q6 10 11.5 18.5t7.5 14.5l4 4q-6 0 -124 -142.5t-118 -148.5h4q2 0 7 1t14 3q47 14 194 250zM1212 512q18 16 22.5 23.5t2.5 27.5l-2 29l-16 -29q-14 -27 -99 -121q-92 -106 -94 -114q-2 -10 113 114 q44 47 73 70zM166 575q4 6 -11.5 6.5t-21.5 -6.5q-2 -6 -12 -27.5t-19 -39.5l-8 -21q2 0 34 39t38 49zM225 569q-20 8 -28.5 5t-14.5 -19q-6 -23 -30 -61q-25 -37 -37 -60l-6 -16l6 4q12 10 69 76l58 65zM371 535q20 27 14 26q-4 0 -10 -6q-4 -4 -11.5 -14.5t-10.5 -19.5 t-0.5 -9t18.5 23zM240 510q27 41 16 41q-10 -2 -41 -39q-43 -49 -74 -80l-30 -35l22 -12q18 -12 37 -14q53 -2 70 6q8 4 58 79.5t50 84.5q0 33 -82 -66q-80 -96 -94 -84q-4 4 68 119zM260 487q49 59 41 62q-2 2 -8 2q-18 0 -25 -14q-2 -12 -30 -58q-37 -57 -33 -57 q2 -1 55 65zM152 520q2 6 5 12.5t5 9.5t0 3q-10 -10 -39 -47q-39 -45 -37 -58q4 -18 16 0q11 14 50 80zM360 461l19 24q-4 0 -14 -12q-33 -39 -27 -39q2 0 22 27zM1221 420q12 8 15 15t1 26l-2 28l-23 -36q-23 -33 -71 -93q-59 -74 -72 -88l-10 -16q4 2 24 27 q97 108 138 137zM1233 301q0 84 -2 84t-43 -53q-45 -55 -90 -109q-45 -57 -39 -57t67 72q80 90 99 73q10 -10 -60 -121l-32 -49l30 29q35 31 51 39l19 10v82zM586 154q0 70 -2 69q-4 0 -31 -45q-33 -57 -39 -67q-10 -18 -10 -25q0 -2 41 -2h41v70zM1210 98q16 14 14.5 26.5 t-22.5 -15.5q-16 -18 -14 -25q-1 -4 22 14z" />
<glyph unicode="&#x2000;" horiz-adv-x="802" />
<glyph unicode="&#x2001;" horiz-adv-x="1604" />
<glyph unicode="&#x2002;" horiz-adv-x="802" />
<glyph unicode="&#x2003;" horiz-adv-x="1604" />
<glyph unicode="&#x2004;" horiz-adv-x="534" />
<glyph unicode="&#x2005;" horiz-adv-x="401" />
<glyph unicode="&#x2006;" horiz-adv-x="267" />
<glyph unicode="&#x2007;" horiz-adv-x="267" />
<glyph unicode="&#x2008;" horiz-adv-x="200" />
<glyph unicode="&#x2009;" horiz-adv-x="320" />
<glyph unicode="&#x200a;" horiz-adv-x="89" />
<glyph unicode="&#x202f;" horiz-adv-x="320" />
<glyph unicode="&#x205f;" horiz-adv-x="401" />
<glyph unicode="&#xe000;" horiz-adv-x="1044" d="M0 1044h1044v-1044h-1044v1044z" />
</font>
</defs>
</svg>
