<?xml version="1.0" encoding="utf-8"?>


<!-- The icon can be used freely in both personal and commercial projects with no attribution required, but always appreciated. 
You may NOT sub-license, resell, rent, redistribute or otherwise transfer the icon without express written permission from iconmonstr.com -->


<!DOCTYPE svg PUBLIC "-//W3C//DTD SVG 1.1//EN" "http://www.w3.org/Graphics/SVG/1.1/DTD/svg11.dtd">

<svg version="1.1" xmlns="http://www.w3.org/2000/svg" xmlns:xlink="http://www.w3.org/1999/xlink" x="0px" y="0px"

	 width="512px" height="512px" viewBox="0 0 512 512" enable-background="new 0 0 512 512" xml:space="preserve">

<path id="email-13-icon" d="M256,90c44.34,0,86.026,17.267,117.38,48.62S422,211.659,422,256c0,44.34-17.267,86.026-48.62,117.38

	C342.026,404.732,300.34,422,256,422s-86.026-17.268-117.38-48.62C107.267,342.026,90,300.34,90,256

	c0-44.341,17.267-86.026,48.62-117.38S211.66,90,256,90 M256,50C142.229,50,50,142.229,50,256s92.229,206,206,206

	s206-92.229,206-206S369.771,50,256,50L256,50z M319.161,199.176c-1.489,4.964-5.957,20.103-7.197,25.562l-14.892,55.096

	c-0.743,2.729-0.991,5.211-0.991,7.445c0,3.97,2.232,6.203,6.452,6.203c4.715,0,10.671-2.482,15.634-6.453

	c12.161-9.43,20.103-27.795,20.103-46.904c0-22.832-10.672-42.687-28.54-53.853c-11.167-6.702-26.802-10.425-44.422-10.425

	c-52.365,0-89.095,34.745-89.095,83.883c0,47.65,33.007,78.92,82.89,78.92c12.905,0,26.554-1.986,37.97-5.461

	c9.68-2.977,15.883-5.957,27.797-13.152l15.139,21.838c-13.402,7.943-19.358,10.921-31.021,14.395

	c-16.877,5.213-34.745,7.943-52.613,7.943c-34.992,0-62.291-9.928-81.897-29.534c-18.612-18.364-28.787-44.671-28.787-73.46

	c0-30.773,10.423-57.327,30.275-77.43c22.833-22.83,52.862-34,91.328-34c57.825,0,99.021,37.227,99.021,89.096

	c0,23.328-8.438,44.672-23.576,59.81c-12.905,12.905-29.782,20.351-46.408,20.351c-9.68,0-17.621-3.724-21.343-9.68

	c-1.241-1.984-1.489-3.227-2.234-7.693c-9.431,10.92-19.357,15.635-33.254,15.635c-24.57,0-40.204-18.364-40.204-46.656

	c0-41.941,27.547-76.685,60.552-76.685c13.899,0,20.849,3.473,27.548,13.897l2.482-8.687H319.161z M268.037,272.884

	c5.956-11.666,9.926-26.804,9.926-38.221c0-10.174-5.706-17.123-14.393-17.123c-9.431,0-18.117,6.205-24.321,17.869

	c-5.956,11.168-9.928,25.809-9.928,37.225c0,13.154,4.964,20.103,14.395,20.103C252.898,292.736,261.584,285.54,268.037,272.884z"/>

</svg>

